<svg xmlns="http://www.w3.org/2000/svg" xmlns:xlink="http://www.w3.org/1999/xlink" viewBox="0 0 918.90814 623.2622"><defs><style>.cls-1,.cls-10,.cls-21,.cls-22,.cls-82,.cls-86,.cls-87,.cls-9{fill:none;}.cls-2{isolation:isolate;}.cls-3{opacity:0.4;fill:url(#radial-gradient);}.cls-4{clip-path:url(#clip-path);}.cls-11,.cls-17,.cls-23,.cls-24,.cls-25,.cls-29,.cls-30,.cls-34,.cls-44,.cls-48,.cls-49,.cls-5,.cls-53,.cls-54,.cls-55,.cls-56,.cls-6,.cls-60,.cls-64,.cls-7,.cls-74,.cls-78,.cls-8{mix-blend-mode:multiply;}.cls-5{fill:url(#radial-gradient-2);}.cls-6{fill:url(#radial-gradient-3);}.cls-7{fill:url(#radial-gradient-4);}.cls-8{fill:url(#radial-gradient-5);}.cls-10,.cls-21,.cls-22,.cls-82,.cls-86,.cls-87,.cls-9{stroke-miterlimit:10;}.cls-9{stroke:url(#linear-gradient);}.cls-10{stroke:url(#linear-gradient-2);}.cls-11{fill:url(#radial-gradient-6);}.cls-12{fill:url(#linear-gradient-3);}.cls-13{opacity:0.48;mix-blend-mode:overlay;}.cls-14{fill:#fff;}.cls-15{fill:url(#linear-gradient-4);}.cls-16{fill:url(#linear-gradient-5);}.cls-17{fill:url(#radial-gradient-7);}.cls-18{fill:url(#linear-gradient-6);}.cls-19{fill:url(#linear-gradient-7);}.cls-20{fill:url(#linear-gradient-8);}.cls-21{stroke:url(#linear-gradient-9);}.cls-22{stroke:url(#linear-gradient-10);}.cls-23{fill:url(#radial-gradient-8);}.cls-24{fill:url(#radial-gradient-9);}.cls-25{fill:url(#radial-gradient-10);}.cls-26{fill:url(#linear-gradient-11);}.cls-27{fill:url(#linear-gradient-12);}.cls-28{fill:url(#linear-gradient-13);}.cls-29{fill:url(#radial-gradient-11);}.cls-30{fill:url(#radial-gradient-12);}.cls-31{fill:url(#linear-gradient-14);}.cls-32{fill:url(#linear-gradient-15);}.cls-33{fill:url(#linear-gradient-16);}.cls-34{fill:url(#radial-gradient-13);}.cls-35{fill:url(#linear-gradient-17);}.cls-36{fill:url(#linear-gradient-18);}.cls-37{fill:url(#linear-gradient-19);}.cls-38{fill:url(#linear-gradient-20);}.cls-39{fill:url(#linear-gradient-21);}.cls-40{fill:url(#linear-gradient-22);}.cls-41{fill:url(#linear-gradient-23);}.cls-42{fill:url(#linear-gradient-24);}.cls-43{fill:url(#linear-gradient-25);}.cls-44{fill:url(#radial-gradient-14);}.cls-45{fill:url(#linear-gradient-26);}.cls-46{fill:url(#linear-gradient-27);}.cls-47{fill:url(#linear-gradient-28);}.cls-48{fill:url(#radial-gradient-15);}.cls-49{fill:url(#radial-gradient-16);}.cls-50{fill:url(#linear-gradient-29);}.cls-51{fill:url(#linear-gradient-30);}.cls-52{fill:url(#linear-gradient-31);}.cls-53{fill:url(#radial-gradient-17);}.cls-54{fill:url(#radial-gradient-18);}.cls-55{fill:url(#radial-gradient-19);}.cls-56{fill:url(#radial-gradient-20);}.cls-57{fill:url(#linear-gradient-32);}.cls-58{fill:url(#linear-gradient-33);}.cls-59{fill:url(#linear-gradient-34);}.cls-60{fill:url(#radial-gradient-21);}.cls-61{fill:url(#linear-gradient-35);}.cls-62{fill:url(#linear-gradient-36);}.cls-63{fill:url(#linear-gradient-37);}.cls-64{fill:url(#radial-gradient-22);}.cls-65{fill:url(#linear-gradient-38);}.cls-66{fill:url(#linear-gradient-39);}.cls-67{fill:url(#linear-gradient-40);}.cls-68{fill:url(#linear-gradient-41);}.cls-69{fill:url(#linear-gradient-42);}.cls-70{fill:url(#linear-gradient-43);}.cls-71{fill:url(#linear-gradient-44);}.cls-72{fill:url(#linear-gradient-45);}.cls-73{fill:url(#linear-gradient-46);}.cls-74{fill:url(#radial-gradient-23);}.cls-75{fill:url(#linear-gradient-47);}.cls-76{fill:url(#linear-gradient-48);}.cls-77{fill:url(#linear-gradient-49);}.cls-78{fill:url(#radial-gradient-24);}.cls-79{fill:url(#linear-gradient-50);}.cls-80{fill:url(#linear-gradient-51);}.cls-81{fill:url(#linear-gradient-52);}.cls-82{stroke:url(#linear-gradient-53);}.cls-83{fill:url(#linear-gradient-54);}.cls-84{fill:url(#linear-gradient-55);}.cls-85{fill:url(#linear-gradient-56);}.cls-86{stroke:url(#linear-gradient-57);}.cls-87{stroke:url(#linear-gradient-58);}</style><radialGradient id="radial-gradient" cx="375" cy="250" r="318.68872" gradientTransform="translate(87.64656 70.3519) rotate(-0.56769) scale(1 0.98476)" gradientUnits="userSpaceOnUse"><stop offset="0.01117" stop-color="#fff" stop-opacity="0"/><stop offset="0.09059" stop-color="#efefef" stop-opacity="0.10169"/><stop offset="0.5039" stop-color="#a1a2a3" stop-opacity="0.58667"/><stop offset="0.8203" stop-color="#717274" stop-opacity="0.88743"/><stop offset="1" stop-color="#5f6062"/></radialGradient><clipPath id="clip-path" transform="translate(90.06738 62.8141)"><rect class="cls-1" width="750" height="500"/></clipPath><radialGradient id="radial-gradient-2" cx="146.20193" cy="-152.51806" r="88.0685" gradientTransform="matrix(0.01141, 0.5909, -1.12661, 0.00577, 108.98471, -34.81482)" gradientUnits="userSpaceOnUse"><stop offset="0" stop-color="#5f6062"/><stop offset="0.18894" stop-color="#878889" stop-opacity="0.75087"/><stop offset="0.53992" stop-color="#c8c8c9" stop-opacity="0.34402"/><stop offset="0.81878" stop-color="#f0f0f0" stop-opacity="0.09267"/><stop offset="0.98883" stop-color="#fff" stop-opacity="0"/></radialGradient><radialGradient id="radial-gradient-3" cx="291.575" cy="25.4995" r="127.349" gradientTransform="matrix(-0.43463, 0.01135, -0.00421, -1.12666, 316.04201, 249.37071)" xlink:href="#radial-gradient-2"/><radialGradient id="radial-gradient-4" cx="837.74243" cy="11.01998" r="88.06851" gradientTransform="matrix(0.01141, 0.5909, -1.12661, 0.00577, 442.03179, -23.1612)" xlink:href="#radial-gradient-2"/><radialGradient id="radial-gradient-5" cx="819.0733" cy="-217.75516" r="71.21744" gradientTransform="matrix(0.58978, -0.01006, 0.00574, 0.99565, 139.67812, 509.57076)" xlink:href="#radial-gradient-2"/><linearGradient id="linear-gradient" x1="284.41774" y1="202.99285" x2="338.28777" y2="202.99285" gradientTransform="translate(367.48948 -151.4796) rotate(55.24034)" gradientUnits="userSpaceOnUse"><stop offset="0" stop-color="#d00096"/><stop offset="0.33356" stop-color="#ee0067"/><stop offset="0.55587" stop-color="#ff004c"/><stop offset="0.68061" stop-color="#f50a5e"/><stop offset="0.92867" stop-color="#dc258b"/><stop offset="0.97765" stop-color="#d62b95"/></linearGradient><linearGradient id="linear-gradient-2" x1="507.65736" y1="154.06306" x2="561.52745" y2="154.06306" xlink:href="#linear-gradient"/><radialGradient id="radial-gradient-6" cx="516.95264" cy="-227.25407" r="141.10865" gradientTransform="matrix(-0.5023, 0.01001, -0.00492, -0.98474, 449.48974, -149.52743)" xlink:href="#radial-gradient-2"/><linearGradient id="linear-gradient-3" x1="407.50644" y1="-335.1679" x2="279.32032" y2="-129.31239" gradientTransform="translate(586.96318 -206.2637) rotate(160.67724)" gradientUnits="userSpaceOnUse"><stop offset="0" stop-color="#f1f1f1"/><stop offset="0.05434" stop-color="#eee"/><stop offset="0.55028" stop-color="#d3d4d5"/><stop offset="0.76274" stop-color="#c1c3c4"/><stop offset="0.98883" stop-color="#aaacae"/></linearGradient><linearGradient id="linear-gradient-4" x1="442.42606" y1="379.60168" x2="561.25417" y2="379.60168" gradientTransform="translate(-100.72942 -376.4422) rotate(17.84246)" xlink:href="#linear-gradient-3"/><linearGradient id="linear-gradient-5" x1="166.92379" y1="124.30895" x2="298.97165" y2="276.12432" gradientTransform="matrix(-0.6632, 0.7485, -0.7485, -0.6632, 637.92648, 29.3242)" xlink:href="#linear-gradient-3"/><radialGradient id="radial-gradient-7" cx="393.44533" cy="-193.55896" r="142.77528" gradientTransform="matrix(0.00995, 0.5023, -0.98466, 0.0049, 46.377, -38.49127)" xlink:href="#radial-gradient-2"/><linearGradient id="linear-gradient-6" x1="359.42826" y1="-307.55654" x2="229.72215" y2="-99.26006" gradientTransform="translate(-19.07843 399.1283) rotate(2.35565)" xlink:href="#linear-gradient-3"/><linearGradient id="linear-gradient-7" x1="463.33468" y1="328.0212" x2="583.55797" y2="328.0212" gradientTransform="matrix(-0.7714, -0.6363, 0.6363, -0.7714, 557.53268, 812.2619)" xlink:href="#linear-gradient-3"/><linearGradient id="linear-gradient-8" x1="108.70476" y1="125.31549" x2="242.31381" y2="278.92575" gradientTransform="matrix(0.8927, -0.4506, 0.4506, 0.8927, 20.82218, 161.2698)" gradientUnits="userSpaceOnUse"><stop offset="0" stop-color="#d04501"/><stop offset="0.28317" stop-color="#ea6500"/><stop offset="0.55587" stop-color="#ff8000"/><stop offset="0.74825" stop-color="#ef7812"/><stop offset="0.97765" stop-color="#d66b2c"/></linearGradient><linearGradient id="linear-gradient-9" x1="229.10858" y1="480.79399" x2="410.48344" y2="554.82278" gradientTransform="matrix(1, 0, 0, 1, 0, 0)" xlink:href="#linear-gradient-8"/><linearGradient id="linear-gradient-10" x1="521.91784" y1="-65.41798" x2="611.69442" y2="-28.77535" gradientTransform="translate(363.69438 -382.7295) rotate(59.74274)" xlink:href="#linear-gradient-8"/><radialGradient id="radial-gradient-8" cx="488.7129" cy="-199.893" r="99.67915" gradientTransform="matrix(0.01135, 0.50228, -1.12662, 0.00488, -52.44349, -83.36345)" xlink:href="#radial-gradient-2"/><radialGradient id="radial-gradient-9" cx="633.75474" cy="-135.14961" r="88.06714" gradientTransform="matrix(-0.59091, 0.01141, -0.00575, -1.12662, 470.19927, 84.76117)" xlink:href="#radial-gradient-2"/><radialGradient id="radial-gradient-10" cx="441.1216" cy="-143.19661" r="205.4758" gradientTransform="matrix(0.00993, 0.50232, -0.98468, 0.00489, -38.45753, -67.58565)" xlink:href="#radial-gradient-2"/><linearGradient id="linear-gradient-11" x1="371.8065" y1="-299.60467" x2="185.13611" y2="0.17139" gradientTransform="translate(-23.43582 -109.9764) rotate(77.27294)" xlink:href="#linear-gradient-3"/><linearGradient id="linear-gradient-12" x1="385.53072" y1="290.70442" x2="558.5662" y2="290.70442" gradientTransform="translate(-271.67702 554.5524) rotate(-65.56221)" xlink:href="#linear-gradient-3"/><linearGradient id="linear-gradient-13" x1="22.17178" y1="149.26151" x2="214.4584" y2="370.33334" gradientTransform="translate(216.94268 -133.2534) rotate(48.13331)" xlink:href="#linear-gradient"/><radialGradient id="radial-gradient-11" cx="394.37004" cy="-276.11176" r="92.43282" gradientTransform="matrix(-0.69125, 0.00994, -0.00672, -0.98471, 418.57111, -235.18768)" xlink:href="#radial-gradient-2"/><radialGradient id="radial-gradient-12" cx="343.2412" cy="-76.64793" r="88.06713" gradientTransform="matrix(-0.59091, 0.01141, -0.00575, -1.12662, 343.49647, -24.80048)" xlink:href="#radial-gradient-2"/><linearGradient id="linear-gradient-14" x1="344.1742" y1="-343.36901" x2="283.076" y2="-245.25072" gradientTransform="translate(574.37038 -185.8729) rotate(177.85664)" xlink:href="#linear-gradient-8"/><linearGradient id="linear-gradient-15" x1="508.58081" y1="377.99413" x2="600.33557" y2="377.99413" gradientTransform="matrix(0.819, 0.5739, -0.5739, 0.819, -32.94872, -550.7652)" xlink:href="#linear-gradient-3"/><linearGradient id="linear-gradient-16" x1="201.22992" y1="78.38669" x2="305.71064" y2="198.50813" gradientTransform="translate(553.89748 54.4753) rotate(148.71983)" xlink:href="#linear-gradient-3"/><radialGradient id="radial-gradient-13" cx="275.93133" cy="-597.23974" r="70.58189" gradientTransform="matrix(0.69128, -0.00998, 0.00677, 0.98475, -89.8112, 797.73325)" xlink:href="#radial-gradient-2"/><linearGradient id="linear-gradient-17" x1="262.88611" y1="-648.65561" x2="216.23314" y2="-573.7351" gradientTransform="translate(25.32058 903.1049) rotate(-9.61303)" xlink:href="#linear-gradient-3"/><linearGradient id="linear-gradient-18" x1="788.68761" y1="585.51827" x2="858.75837" y2="585.51827" gradientTransform="translate(674.46898 1186.428) rotate(-152.44586)" xlink:href="#linear-gradient-3"/><linearGradient id="linear-gradient-19" x1="308.38017" y1="-231.49416" x2="388.16135" y2="-139.76978" gradientTransform="matrix(0.7799, -0.6259, 0.6259, 0.7799, 14.18408, 662.0903)" xlink:href="#linear-gradient-3"/><linearGradient id="linear-gradient-20" x1="336.22839" y1="-581.50485" x2="312.60893" y2="-543.57409" gradientTransform="matrix(0.9978, 0.0655, -0.0655, 0.9978, -97.85473, 830.4639)" xlink:href="#linear-gradient-3"/><linearGradient id="linear-gradient-21" x1="740.78267" y1="596.54312" x2="776.25556" y2="596.54312" gradientTransform="translate(469.44258 1257.1941) rotate(-139.07927)" xlink:href="#linear-gradient-3"/><linearGradient id="linear-gradient-22" x1="386.23329" y1="-144.55511" x2="426.62012" y2="-98.12239" gradientTransform="translate(-52.05062 594.5678) rotate(-25.37861)" xlink:href="#linear-gradient-3"/><linearGradient id="linear-gradient-23" x1="454.30091" y1="-742.85822" x2="430.68305" y2="-704.93002" gradientTransform="translate(-210.88742 -458.1903) rotate(103.49707)" xlink:href="#linear-gradient-3"/><linearGradient id="linear-gradient-24" x1="743.19944" y1="796.34563" x2="778.67139" y2="796.34563" gradientTransform="matrix(0.7734, -0.6339, 0.6339, 0.7734, -726.60812, 28.2535)" xlink:href="#linear-gradient-3"/><linearGradient id="linear-gradient-25" x1="567.61131" y1="-227.06145" x2="607.99665" y2="-180.63045" gradientTransform="matrix(0.2696, 0.963, -0.963, 0.2696, 14.85748, -373.0462)" xlink:href="#linear-gradient"/><radialGradient id="radial-gradient-14" cx="103.15188" cy="-532.12884" r="141.10865" gradientTransform="matrix(0.5023, -0.01001, 0.00492, 0.98474, 498.63483, 942.57551)" xlink:href="#radial-gradient-2"/><linearGradient id="linear-gradient-26" x1="199.65013" y1="-640.00509" x2="71.46408" y2="-434.14968" gradientTransform="translate(628.96958 1047.7531) rotate(-19.32276)" xlink:href="#linear-gradient-3"/><linearGradient id="linear-gradient-27" x1="792.23517" y1="496.96032" x2="911.06329" y2="496.96032" gradientTransform="translate(1316.66218 1217.9316) rotate(-162.15754)" xlink:href="#linear-gradient-3"/><linearGradient id="linear-gradient-28" x1="133.78295" y1="-243.15391" x2="265.83081" y2="-91.33854" gradientTransform="matrix(0.6632, -0.7485, 0.7485, 0.6632, 578.00628, 812.1652)" xlink:href="#linear-gradient-3"/><radialGradient id="radial-gradient-15" cx="803.15562" cy="67.17775" r="62.39581" gradientTransform="matrix(0.00964, 0.64676, -0.95086, 0.00631, 495.09005, -73.92889)" xlink:href="#radial-gradient-2"/><radialGradient id="radial-gradient-16" cx="1036.66427" cy="20.62529" r="142.77528" gradientTransform="matrix(-0.00995, -0.5023, 0.98466, -0.0049, 470.89695, 851.24812)" xlink:href="#radial-gradient-2"/><linearGradient id="linear-gradient-29" x1="669.31441" y1="-88.27609" x2="539.60839" y2="120.02024" gradientTransform="translate(1235.01118 442.3611) rotate(-177.64435)" xlink:href="#linear-gradient-3"/><linearGradient id="linear-gradient-30" x1="83.92459" y1="340.46509" x2="204.14796" y2="340.46509" gradientTransform="matrix(0.7714, 0.6363, -0.6363, 0.7714, 658.40018, 29.2275)" xlink:href="#linear-gradient-3"/><linearGradient id="linear-gradient-31" x1="603.94816" y1="286.39958" x2="693.20426" y2="413.73848" gradientUnits="userSpaceOnUse"><stop offset="0" stop-color="#d04501"/><stop offset="0.28317" stop-color="#ea6500"/><stop offset="0.55587" stop-color="#ff8000"/><stop offset="0.64492" stop-color="#ed7906"/><stop offset="0.82172" stop-color="#c06715"/><stop offset="0.98324" stop-color="#915424"/></linearGradient><radialGradient id="radial-gradient-17" cx="761.12286" cy="-291.23533" r="39.68931" gradientTransform="matrix(-0.83044, 0.0108, -0.00811, -1.07197, 1181.82967, -51.88472)" xlink:href="#radial-gradient-2"/><radialGradient id="radial-gradient-18" cx="995.12304" cy="-384.83764" r="205.4758" gradientTransform="matrix(-0.00993, -0.50232, 0.98468, -0.00489, 1020.67332, 842.32534)" xlink:href="#radial-gradient-2"/><radialGradient id="radial-gradient-19" cx="37.40992" cy="-297.54875" r="95.42526" gradientTransform="matrix(0.01137, 0.43459, -1.12666, 0.0042, 234.29554, 323.6565)" xlink:href="#radial-gradient-2"/><radialGradient id="radial-gradient-20" cx="165.46474" cy="-277.81446" r="83.80773" gradientTransform="matrix(-0.43455, 0.01139, -0.00427, -1.12667, 626.95573, 82.71553)" xlink:href="#radial-gradient-2"/><linearGradient id="linear-gradient-32" x1="650.11731" y1="-541.26229" x2="463.44693" y2="-241.48623" gradientTransform="translate(1239.36868 951.4658) rotate(-102.72706)" xlink:href="#linear-gradient-3"/><linearGradient id="linear-gradient-33" x1="309.73397" y1="651.40502" x2="482.76945" y2="651.40502" gradientTransform="translate(1487.60988 286.937) rotate(114.43779)" xlink:href="#linear-gradient-3"/><linearGradient id="linear-gradient-34" x1="382.91945" y1="73.71221" x2="575.20608" y2="294.78406" gradientTransform="translate(998.99008 974.7428) rotate(-131.86669)" xlink:href="#linear-gradient-3"/><radialGradient id="radial-gradient-21" cx="-23.19277" cy="-505.31428" r="92.43278" gradientTransform="matrix(0.69125, -0.00994, 0.00672, 0.98471, 610.38395, 954.37063)" xlink:href="#radial-gradient-2"/><linearGradient id="linear-gradient-35" x1="55.51892" y1="-572.55238" x2="-5.57931" y2="-474.43406" gradientTransform="translate(641.56247 1027.3623) rotate(-2.14336)" xlink:href="#linear-gradient-3"/><linearGradient id="linear-gradient-36" x1="877.03953" y1="386.25879" x2="968.79423" y2="386.25879" gradientTransform="matrix(-0.819, -0.5739, 0.5739, -0.819, 1248.88148, 1392.2546)" xlink:href="#linear-gradient-3"/><linearGradient id="linear-gradient-37" x1="60.68354" y1="-262.35615" x2="165.16426" y2="-142.23472" gradientTransform="translate(662.03528 787.0141) rotate(-31.28017)" xlink:href="#linear-gradient"/><radialGradient id="radial-gradient-22" cx="646.83432" cy="-332.46647" r="70.58191" gradientTransform="matrix(-0.69128, 0.00998, -0.00677, -0.98475, 1086.77564, -43.06449)" xlink:href="#radial-gradient-2"/><linearGradient id="linear-gradient-38" x1="519.28662" y1="-383.90295" x2="472.63368" y2="-308.98248" gradientTransform="translate(1190.61218 -61.6155) rotate(170.38697)" xlink:href="#linear-gradient-3"/><linearGradient id="linear-gradient-39" x1="424.41493" y1="529.44486" x2="494.48577" y2="529.44486" gradientTransform="translate(541.46378 -344.9386) rotate(27.55414)" xlink:href="#linear-gradient-3"/><linearGradient id="linear-gradient-40" x1="403.44183" y1="124.61085" x2="483.223" y2="216.33523" gradientTransform="matrix(-0.7799, 0.6259, -0.6259, -0.7799, 1201.74878, 179.3991)" xlink:href="#linear-gradient"/><linearGradient id="linear-gradient-41" x1="646.92608" y1="-383.19208" x2="623.30668" y2="-345.26141" gradientTransform="matrix(-0.9978, -0.0655, 0.0655, -0.9978, 1313.78758, 11.0255)" xlink:href="#linear-gradient-3"/><linearGradient id="linear-gradient-42" x1="373.39595" y1="626.20313" x2="408.86884" y2="626.20313" gradientTransform="translate(746.49028 -415.7047) rotate(40.92073)" xlink:href="#linear-gradient-3"/><linearGradient id="linear-gradient-43" x1="561.06106" y1="179.9146" x2="601.44789" y2="226.34732" gradientTransform="translate(1267.98338 246.9216) rotate(154.62139)" xlink:href="#linear-gradient-3"/><linearGradient id="linear-gradient-44" x1="568.86554" y1="-1092.80103" x2="545.24768" y2="-1054.87284" gradientTransform="translate(1426.82028 1299.6797) rotate(-76.50293)" xlink:href="#linear-gradient-3"/><linearGradient id="linear-gradient-45" x1="863.30504" y1="1144.43739" x2="898.77693" y2="1144.43739" gradientTransform="matrix(-0.7734, 0.6339, -0.6339, -0.7734, 1942.54098, 813.2359)" xlink:href="#linear-gradient-3"/><linearGradient id="linear-gradient-46" x1="838.06401" y1="-476.93782" x2="878.4493" y2="-430.50687" gradientTransform="matrix(-0.2696, -0.963, 0.963, -0.2696, 1201.07538, 1214.5356)" xlink:href="#linear-gradient-3"/><radialGradient id="radial-gradient-23" cx="1009.48764" cy="-411.7235" r="38.13942" gradientTransform="matrix(0.69122, -0.00997, 0.00676, 0.98469, -234.70816, 767.1407)" xlink:href="#radial-gradient-2"/><linearGradient id="linear-gradient-47" x1="770.99061" y1="-439.71691" x2="745.78148" y2="-399.23329" gradientTransform="translate(-216.46972 836.45608) rotate(-0.73342)" xlink:href="#linear-gradient-3"/><linearGradient id="linear-gradient-48" x1="304.03382" y1="744.78141" x2="341.89269" y2="744.78141" gradientTransform="matrix(-0.8046, -0.5939, 0.5939, -0.8046, 381.51098, 1216.7777)" xlink:href="#linear-gradient-3"/><linearGradient id="linear-gradient-49" x1="693.90195" y1="191.6809" x2="737.00875" y2="241.24076" gradientTransform="translate(-189.58872 597.496) rotate(-29.86711)" xlink:href="#linear-gradient"/><radialGradient id="radial-gradient-24" cx="556.29276" cy="-636.80202" r="38.13794" gradientTransform="matrix(-0.00999, -0.69127, 0.9847, -0.00677, 778.33134, 532.5822)" xlink:href="#radial-gradient-2"/><linearGradient id="linear-gradient-50" x1="458.07261" y1="-664.86187" x2="432.86386" y2="-624.37886" gradientTransform="translate(997.83138 405.4613) rotate(-111.76523)" xlink:href="#linear-gradient-3"/><linearGradient id="linear-gradient-51" x1="689.81641" y1="735.31347" x2="727.67774" y2="735.31347" gradientTransform="translate(1138.45658 -289.5048) rotate(105.40235)" xlink:href="#linear-gradient-3"/><linearGradient id="linear-gradient-52" x1="530.80469" y1="-157.13434" x2="573.9136" y2="-107.57205" gradientTransform="matrix(-0.776, -0.6307, 0.6307, -0.776, 765.47558, 466.6605)" xlink:href="#linear-gradient"/><linearGradient id="linear-gradient-53" x1="65.7521" y1="265.79235" x2="72.5186" y2="265.79235" gradientTransform="matrix(1, 0, 0, 1, 0, 0)" xlink:href="#linear-gradient"/><linearGradient id="linear-gradient-54" x1="359.53066" y1="1.37906" x2="327.99342" y2="99.56131" gradientTransform="matrix(1, 0, 0, 1, 0, 0)" xlink:href="#linear-gradient-8"/><linearGradient id="linear-gradient-55" x1="623.8026" y1="53.52214" x2="592.26543" y2="151.7042" gradientTransform="matrix(1, 0, 0, 1, 0, 0)" xlink:href="#linear-gradient-8"/><linearGradient id="linear-gradient-56" x1="397.50288" y1="415.18058" x2="365.96606" y2="513.36154" gradientTransform="matrix(1, 0, 0, 1, 0, 0)" xlink:href="#linear-gradient-8"/><linearGradient id="linear-gradient-57" x1="167.3203" y1="415.94205" x2="174.0868" y2="415.94205" gradientTransform="matrix(1, 0, 0, 1, 0, 0)" xlink:href="#linear-gradient"/><linearGradient id="linear-gradient-58" x1="676.59949" y1="223.17005" x2="683.366" y2="223.17005" gradientTransform="matrix(1, 0, 0, 1, 0, 0)" xlink:href="#linear-gradient"/></defs><g class="cls-2"><g id="BACKGROUND"><rect class="cls-3" x="90.06738" y="62.8141" width="750" height="500"/></g><g id="OBJECTS"><g class="cls-4"><ellipse class="cls-5" cx="281.93965" cy="50.09192" rx="97.8445" ry="50.53641" transform="translate(137.22525 276.84712) rotate(-45)"/><ellipse class="cls-6" cx="189.84925" cy="223.17008" rx="53.74941" ry="141.49644" transform="translate(-9.78062 329.83763) rotate(-58.22032)"/><ellipse class="cls-7" cx="438.63217" cy="471.31985" rx="97.8445" ry="50.53644" transform="translate(-114.73368 511.01979) rotate(-44.99996)"/><ellipse class="cls-8" cx="621.01289" cy="284.90585" rx="40.78882" ry="69.92676" transform="translate(47.16611 186.33115) rotate(-10.98168)"/><polygon class="cls-9" points="382.746 184.798 346.852 215.871 405.498 232.46 382.746 184.798"/><polygon class="cls-10" points="550.211 340.294 514.316 371.368 572.963 387.957 550.211 340.294"/><ellipse class="cls-11" cx="191.76437" cy="78.6751" rx="68.83436" ry="137.02604" transform="translate(74.83696 130.6956) rotate(-19.32191)"/><polygon class="cls-12" points="291.442 236.948 420.984 64.384 278.521 98.944 291.442 236.948"/><g class="cls-13"><path class="cls-14" d="M330.91629,1.57,322.0896,4.04831l-8.8461,2.39823L295.5508,11.241l-17.7247,4.6623-17.7455,4.5768c-11.8267,3.0664-23.6897,5.9828-35.5328,8.9815l-35.5959,8.7211,1.6053-2.2499,3.1028,34.513c.9733,11.5101,1.9873,23.0163,2.8758,34.5343q1.4052,17.2701,2.6182,34.5583l1.1525,17.2939.5713,8.6474.4972,8.6543-1.1179-8.5962-1.044-8.6032-2.0777-17.2072q-1.9866-17.21565-3.8424-34.4437c-1.2651-11.4827-2.4046-22.9772-3.5848-34.4679l-3.3578-34.4891-.1774-1.8219,1.7828-.4282,35.6353-8.5587c11.9007-2.7612,23.7814-5.6048,35.6985-8.2984l17.8701-4.0631,17.8909-3.97756,17.9229-3.84546,8.9617-1.92172Z" transform="translate(90.06738 62.8141)"/></g><polygon class="cls-15" points="229.882 40.381 278.521 98.944 291.442 236.948 229.882 40.381"/><polygon class="cls-16" points="421.553 64.9 230.451 40.896 279.09 99.459 421.553 64.9"/><ellipse class="cls-17" cx="240.11687" cy="157.35345" rx="138.63781" ry="69.64403" transform="translate(163.09425 453.6138) rotate(-87.64431)"/><polygon class="cls-18" points="370.258 122.247 183.97 236.08 330.83 256.829 370.258 122.247"/><g class="cls-13"><path class="cls-14" d="M93.9026,173.2658l9.2252.9686,9.2134,1.0512,18.42665,2.1045,18.40735,2.2406,18.395,2.3289c12.2655,1.5369,24.5091,3.2284,36.7648,4.8351l36.7269,5.1035-2.3502,1.5154,9.9812-33.6089c3.3865-11.1857,6.7333-22.3829,10.2026-33.5442,3.4204-11.1756,6.9303-22.325,10.45-33.4716,3.559-11.135,7.1172-22.2703,10.8448-33.356-2.8437,11.3446-5.8567,22.6396-8.8688,33.9349-3.0516,11.2837-6.1129,22.5645-9.2637,33.8192-3.1019,11.2689-6.3263,22.502-9.5111,33.7467l-9.7325,33.6818-.5141,1.7793-1.8363-.2637-36.7032-5.2709c-12.2211-1.8515-24.4541-3.6181-36.6653-5.5394l-18.3201-2.8583-18.30769-2.9466-18.28841-3.0827-9.1441-1.5425Z" transform="translate(90.06738 62.8141)"/></g><polygon class="cls-19" points="354.674 330.068 330.83 256.829 370.258 122.247 354.674 330.068"/><polygon class="cls-20" points="183.628 235.382 354.332 329.37 330.488 256.131 183.628 235.382"/><polygon class="cls-21" points="218.503 511.011 389.208 604.999 394.926 489.76 218.503 511.011"/><polygon class="cls-22" points="634.365 42.728 644.544 137.626 739.159 59.782 634.365 42.728"/><ellipse class="cls-23" cx="177.69505" cy="160.5497" rx="110.74288" ry="48.62178" transform="translate(79.81868 74.94249) rotate(-3.79966)"/><ellipse class="cls-24" cx="97.08913" cy="243.71183" rx="50.53637" ry="97.84454" transform="translate(-67.82669 244.83865) rotate(-54.67874)"/><ellipse class="cls-25" cx="105.82545" cy="152.1004" rx="199.52887" ry="100.2324" transform="translate(59.15782 89.86613) rotate(-12.72745)"/><polygon class="cls-26" points="335.582 216.976 107.629 0.737 133.797 212.589 335.582 216.976"/><g class="cls-13"><path class="cls-14" d="M17.5621-62.0772c2.8799,17.5679,5.4615,35.1727,8.0753,52.77352l3.78,26.41858,3.6529,26.4343q1.84575,13.2147,3.5573,26.4461l3.4925,26.4541,6.6627,52.948-2.9861-2.6983c16.8139.4328,33.6297.7797,50.442,1.2832,16.8121.5168,33.62549.9741,50.4349,1.6151,16.8109.5677,33.619,1.2696,50.4267,1.9861,16.8065.7756,33.613,1.5499,50.4139,2.5781-16.8297.2971-33.654.3402-50.4783.3846-16.823-.0147-33.6457-.0439-50.4654-.2074-16.82137-.0902-33.6387-.364-50.4574-.5784-16.8183-.2277-33.6333-.612-50.4501-.9103l-2.665-.0472-.3213-2.6513L34.2555,97.1738,31.2061,70.6649q-1.53855-13.25265-2.9846-26.5168l-2.889-26.5286L22.5707-8.9249C20.8232-26.6327,19.0436-44.3365,17.5621-62.0772Z" transform="translate(90.06738 62.8141)"/></g><polygon class="cls-27" points="40.952 273.152 133.797 212.589 335.582 216.976 40.952 273.152"/><polygon class="cls-28" points="108.47 0 41.793 272.415 134.638 211.852 108.47 0"/><ellipse class="cls-29" cx="148.55995" cy="40.12525" rx="62.04872" ry="89.75893" transform="translate(88.66975 68.40212) rotate(-2.14482)"/><ellipse class="cls-30" cx="141.71723" cy="64.92734" rx="50.53637" ry="97.84452" transform="translate(96.8736 205.83338) rotate(-54.67874)"/><polygon class="cls-31" points="209.629 149.249 324.99 107.255 238.034 99.307 209.629 149.249"/><g class="cls-13"><path class="cls-14" d="M234.9224,44.441c-7.3056-.0143-14.5858-.3057-21.8689-.5666-7.2755-.3429-14.5518-.6771-21.8157-1.1473-7.2668-.439-14.5244-.9781-21.7808-1.5302q-10.88085-.8697-21.7498-1.8691l2.7333-1.4273q-3.5679,6.2328-7.2478,12.4019c-2.4481,4.1157-4.9651,8.1922-7.5082,12.2539-2.54981,4.0578-5.18527,8.0669-7.83283,12.0692-2.69711,3.974-5.38965,7.9507-8.29021,11.809,1.83356-4.4652,3.87513-8.8121,5.91214-13.1616,2.08656-4.3213,4.18521-8.6358,6.36951-12.9015,2.191-4.2619,4.40809-8.509,6.69419-12.7168q3.4083-6.3237,6.9545-12.5687l.8998-1.5922,1.8338.1647q10.8711.9762,21.7282,2.1048c7.2363.7726,14.4714,1.5581,21.6973,2.4438,7.2288.8544,14.4451,1.8448,21.6623,2.8266C220.5228,42.0974,227.7353,43.1306,234.9224,44.441Z" transform="translate(90.06738 62.8141)"/></g><polygon class="cls-32" points="198.815 4.782 238.034 99.307 209.629 149.249 198.815 4.782"/><polygon class="cls-33" points="325.516 108.143 199.341 5.671 238.56 100.195 325.516 108.143"/><ellipse class="cls-34" cx="96.32633" cy="207.22505" rx="47.38258" ry="68.54315" transform="matrix(0.98596, -0.16697, 0.16697, 0.98596, 56.81924, 81.80674)"/><polygon class="cls-35" points="203.755 232.098 120.575 275.342 187.204 272.73 203.755 232.098"/><g class="cls-13"><path class="cls-14" d="M30.5078,212.5277c5.5329-.7142,11.0742-1.216,16.6145-1.7412l8.3144-.6878,8.3179-.5976c5.5446-.4143,11.0955-.6704,16.643-1.0134q8.3247-.42225,16.6535-.7435l-1.9278,1.3519c1.3917-3.3809,2.7934-6.7578,4.2641-10.1066,1.478-3.3458,2.9171-6.7074,4.4762-10.0202,1.5112-3.3323,3.1101-6.6288,4.7185-9.9215,1.6478-3.2767,3.2919-6.5548,5.1052-9.7641-.9452,3.5629-2.0596,7.0568-3.1704,10.5522-1.15,3.4794-2.3096,6.9549-3.5569,10.3947-1.1994,3.4593-2.5187,6.8697-3.7992,10.296-1.2878,3.4232-2.6446,6.8184-4.0113,10.2095l-.5219,1.2949-1.4062.0573q-8.32815.33945-16.6607.5621c-5.5573.0923-11.1111.2715-16.6712.2924l-8.3392.0553-8.3427-.0349C41.6432,212.8732,36.0797,212.8066,30.5078,212.5277Z" transform="translate(90.06738 62.8141)"/></g><polygon class="cls-36" points="226.279 340.409 187.204 272.73 203.755 232.098 226.279 340.409"/><polygon class="cls-37" points="120.089 274.722 225.793 339.788 186.717 272.11 120.089 274.722"/><polygon class="cls-38" points="287.832 281.627 241.806 293.19 274.926 299.701 287.832 281.627"/><g class="cls-13"><path class="cls-14" d="M151.7383,230.3764c2.8085.2958,5.5963.6969,8.3864,1.0867,2.7848.4163,5.5673.8446,8.3418,1.3133,2.7792.4447,5.543.9682,8.3152,1.4485l8.2884,1.5851-1.1051.4392c1.0951-1.4923,2.1652-3.0024,3.2808-4.48,1.1194-1.4749,2.2216-2.962,3.3771-4.4111,2.2847-2.917,4.6269-5.7929,7.1417-8.5456-1.7871,3.2723-3.7471,6.4212-5.7644,9.5291-.9955,1.5633-2.0443,3.0886-3.0759,4.6262-1.0355,1.5348-2.1164,3.0371-3.1724,4.5573l-.4036.581-.7017-.1417-8.2717-1.6703c-2.7477-.6049-5.504-1.1666-8.2447-1.8069-2.7455-.6165-5.4831-1.2733-8.2182-1.9421C157.182,231.8497,154.4498,231.1656,151.7383,230.3764Z" transform="translate(90.06738 62.8141)"/></g><polygon class="cls-39" points="286.251 337.606 274.926 299.701 287.832 281.627 286.251 337.606"/><polygon class="cls-40" points="241.639 292.828 286.084 337.243 274.759 299.339 241.639 292.828"/><polygon class="cls-41" points="394.155 167.305 390.545 119.986 378.525 151.527 394.155 167.305"/><g class="cls-13"><path class="cls-14" d="M300.4779,57.1718c-.7668,2.718-1.6338,5.3977-2.49,8.0816-.8815,2.6742-1.7744,5.3441-2.7057,7.9993-.9086,2.6639-1.8922,5.2993-2.8346,7.9503l-2.9646,7.9007-.2458-1.1634c1.2854,1.3317,2.5927,2.6419,3.8603,3.9914,1.2641,1.3528,2.5434,2.6907,3.7761,4.0748,2.4883,2.7453,4.9266,5.5403,7.214,8.4846-2.9227-2.3151-5.6946-4.7795-8.4164-7.2935-1.3723-1.2457-2.6981-2.5375-4.039-3.8144-1.3375-1.2802-2.6353-2.5997-3.9549-3.8977l-.5043-.4961.2584-.6676,3.0457-7.8698c1.0611-2.6058,2.081-5.2273,3.1758-7.8202,1.0721-2.6016,2.1827-5.1885,3.3046-7.7711C298.1048,62.2878,299.2412,59.7107,300.4779,57.1718Z" transform="translate(90.06738 62.8141)"/></g><polygon class="cls-42" points="339.251 156.275 378.525 151.527 394.155 167.305 339.251 156.275"/><polygon class="cls-43" points="390.931 119.883 339.636 156.172 378.91 151.424 390.931 119.883"/><ellipse class="cls-44" cx="547.00901" cy="418.29085" rx="68.83434" ry="137.02609" transform="translate(-17.52426 267.3666) rotate(-19.32194)"/><polygon class="cls-45" points="627.466 385.646 497.924 558.21 640.387 523.65 627.466 385.646"/><g class="cls-13"><path class="cls-14" d="M407.85709,495.3959l8.8267-2.4783,8.8461-2.3982,17.6927-4.7945,17.7247-4.6623,17.7455-4.5768c11.8267-3.0664,23.6897-5.9827,35.5328-8.9815l35.5959-8.7211-1.6053,2.2499-3.1028-34.513c-.9733-11.51-1.9873-23.0163-2.8757-34.5342q-1.40535-17.27025-2.6183-34.5584l-1.1525-17.2938-.5712-8.6474-.4973-8.6543,1.118,8.5962,1.0439,8.6031,2.07771,17.2072q1.98658,17.2158,3.84239,34.4438c1.2651,11.4827,2.40461,22.9772,3.5848,34.4678l3.35781,34.4891.17739,1.822-1.7828.4281-35.6353,8.5588c-11.9007,2.7612-23.7814,5.6048-35.6985,8.2983l-17.8701,4.0631-17.8909,3.9776-17.9229,3.8455-8.9617,1.9217Z" transform="translate(90.06738 62.8141)"/></g><polygon class="cls-46" points="689.026 582.213 640.387 523.65 627.466 385.646 689.026 582.213"/><polygon class="cls-47" points="497.355 557.694 688.457 581.698 639.818 523.135 497.355 557.694"/><ellipse class="cls-48" cx="438.63219" cy="445.4743" rx="58.50941" ry="39.18842" transform="translate(-96.45811 503.44897) rotate(-44.99988)"/><ellipse class="cls-49" cx="481.65249" cy="331.26595" rx="138.63781" ry="69.64405" transform="translate(220.9369 861.70977) rotate(-87.64436)"/><polygon class="cls-50" points="545.08 487.423 731.368 373.59 584.508 352.841 545.08 487.423"/><g class="cls-13"><path class="cls-14" d="M641.30049,310.7761l-9.2251-.9687-9.2135-1.0512-18.4266-2.1045-18.4074-2.2406L567.633,302.0822c-12.26551-1.5369-24.50921-3.2284-36.76481-4.8351l-36.7269-5.1035,2.3502-1.5154-9.9812,33.609c-3.3865,11.1856-6.73329,22.3828-10.2026,33.5441-3.4204,11.1757-6.9304,22.3251-10.45,33.4717-3.5591,11.135-7.1173,22.2703-10.8449,33.3559,2.8437-11.3446,5.8567-22.6396,8.8689-33.9348,3.0516-11.2837,6.1128-22.5646,9.2637-33.8192,3.1019-11.269,6.3263-22.5021,9.5111-33.7467l9.7324-33.6819.5142-1.7793,1.8362.2637,36.7033,5.271c12.221,1.8515,24.4541,3.6181,36.6653,5.5393l18.32011,2.8583,18.30769,2.9466,18.2884,3.0828,9.144,1.5424Z" transform="translate(90.06738 62.8141)"/></g><polygon class="cls-51" points="560.663 279.602 584.508 352.841 545.08 487.423 560.663 279.602"/><polygon class="cls-52" points="731.71 374.288 561.006 280.299 584.85 353.539 731.71 374.288"/><ellipse class="cls-53" cx="552.50662" cy="268.30307" rx="32.00697" ry="41.95743" transform="translate(32.41298 260.73508) rotate(-19.32171)"/><ellipse class="cls-54" cx="632.94796" cy="345.53362" rx="199.52883" ry="100.23239" transform="translate(29.49373 210.7512) rotate(-12.72745)"/><ellipse class="cls-55" cx="569.37211" cy="338.1822" rx="106.02063" ry="40.27345" transform="translate(41.59416 162.62905) rotate(-9.61165)"/><ellipse class="cls-56" cx="556.66396" cy="397.0913" rx="35.36891" ry="93.10932" transform="translate(-17.54563 622.05464) rotate(-49.21941)"/><polygon class="cls-57" points="583.327 406.287 811.279 622.525 785.111 410.673 583.327 406.287"/><g class="cls-13"><path class="cls-14" d="M721.21118,559.7112c-2.87969-17.5679-5.46139-35.1727-8.07518-52.7735l-3.78-26.4186-3.65291-26.4343q-1.84575-13.2147-3.5573-26.4461l-3.4925-26.4541-6.6626-52.948,2.986,2.6983c-16.8139-.4328-33.62969-.7797-50.442-1.2832-16.8121-.5168-33.6255-.9741-50.4348-1.6151-16.811-.5677-33.6191-1.2696-50.4268-1.9861-16.8065-.7756-33.6129-1.5499-50.4139-2.5781,16.82981-.2971,33.654-.3402,50.4783-.3846,16.823.0147,33.6457.0439,50.4654.2074,16.8214.0902,33.6387.364,50.4574.5784,16.8183.2277,33.6333.612,50.4502.9103l2.6649.0472.3213,2.6513,6.4212,52.9778,3.0494,26.5089q1.53857,13.25265,2.9846,26.5168l2.889,26.5287,2.7618,26.5443C717.95019,524.2667,719.72988,541.9706,721.21118,559.7112Z" transform="translate(90.06738 62.8141)"/></g><polygon class="cls-58" points="877.956 350.11 785.111 410.673 583.327 406.287 877.956 350.11"/><polygon class="cls-59" points="810.438 623.262 877.115 350.847 784.27 411.41 810.438 623.262"/><ellipse class="cls-60" cx="590.21346" cy="457.50878" rx="62.04864" ry="89.7589" transform="translate(73.35881 85.22305) rotate(-2.14477)"/><polygon class="cls-61" points="709.279 474.014 593.918 516.007 680.875 523.955 709.279 474.014"/><g class="cls-13"><path class="cls-14" d="M503.851,453.1931c7.30559.0142,14.58589.3056,21.86889.5665,7.2755.3429,14.5519.6771,21.8157,1.1473,7.2668.439,14.52441.9781,21.7808,1.5302q10.88085.8697,21.7498,1.8691l-2.7333,1.4274q3.5679-6.233,7.2478-12.402c2.4481-4.1157,4.9651-8.1922,7.5082-12.2538,2.5498-4.0579,5.1853-8.067,7.8329-12.0692,2.697-3.9741,5.3896-7.9507,8.2901-11.8091-1.8335,4.4652-3.8751,8.8121-5.9121,13.1616-2.0865,4.3213-4.1852,8.6358-6.3695,12.9015-2.191,4.2619-4.4081,8.509-6.6942,12.7168q-3.40813,6.3237-6.9545,12.5688l-.8998,1.5921-1.83379-.1647q-10.87111-.9762-21.72821-2.1048c-7.2363-.7725-14.4714-1.5581-21.6973-2.4437-7.2288-.8545-14.4451-1.8449-21.6623-2.8267C518.25059,455.5367,511.03809,454.5034,503.851,453.1931Z" transform="translate(90.06738 62.8141)"/></g><polygon class="cls-62" points="720.094 618.48 680.875 523.955 709.279 474.014 720.094 618.48"/><polygon class="cls-63" points="593.392 515.119 719.567 617.592 680.348 523.067 593.392 515.119"/><ellipse class="cls-64" cx="642.44706" cy="290.409" rx="47.38257" ry="68.5432" transform="translate(50.5963 174.16092) rotate(-9.61175)"/><polygon class="cls-65" points="715.154 391.164 798.333 347.92 731.704 350.532 715.154 391.164"/><g class="cls-13"><path class="cls-14" d="M708.26559,285.1063c-5.5329.7142-11.0741,1.216-16.6145,1.7412l-8.3144.6878-8.3179.5976c-5.5446.4143-11.0955.6704-16.6429,1.0134q-8.32484.4224-16.6536.7435l1.9278-1.3519c-1.3917,3.3809-2.7934,6.7578-4.26409,10.1066-1.47791,3.3458-2.91711,6.7074-4.47621,10.0202-1.5112,3.3323-3.1101,6.6288-4.7185,9.9215-1.6478,3.2767-3.2919,6.5549-5.1051,9.7641.9451-3.5629,2.0596-7.0568,3.1703-10.5522,1.1501-3.4793,2.3096-6.9549,3.5569-10.3947,1.1994-3.4592,2.5187-6.8697,3.7992-10.2959,1.2879-3.4233,2.6446-6.8185,4.0113-10.2096l.5219-1.2948,1.4063-.0574q8.328-.3393,16.6606-.5621c5.55731-.0923,11.1112-.2715,16.6712-.2923l8.3392-.0554,8.3427.035C697.13019,284.7608,702.69369,284.8274,708.26559,285.1063Z" transform="translate(90.06738 62.8141)"/></g><polygon class="cls-66" points="692.629 282.853 731.704 350.532 715.154 391.164 692.629 282.853"/><polygon class="cls-67" points="798.819 348.541 693.115 283.474 732.191 351.152 798.819 348.541"/><polygon class="cls-68" points="631.076 341.636 677.102 330.072 643.982 323.561 631.076 341.636"/><g class="cls-13"><path class="cls-14" d="M587.03509,267.2577c-2.8085-.2959-5.5963-.697-8.3864-1.0867-2.7848-.4164-5.5672-.8447-8.3418-1.3134-2.7792-.4447-5.543-.9682-8.3152-1.4485l-8.2884-1.5851,1.1051-.4391c-1.0951,1.4922-2.1652,3.0023-3.2808,4.4799-1.1194,1.4749-2.2215,2.962-3.3771,4.4111-2.2847,2.917-4.6268,5.7929-7.1417,8.5456,1.78721-3.2723,3.7471-6.4211,5.7644-9.5291.9955-1.5633,2.0443-3.0886,3.0759-4.6261,1.0355-1.5349,2.1164-3.0372,3.1724-4.5574l.4036-.581.7018.1417,8.2716,1.6703c2.7477.6049,5.504,1.1666,8.2447,1.807,2.7455.6164,5.4831,1.2732,8.2183,1.9421C581.59139,265.7843,584.32359,266.4684,587.03509,267.2577Z" transform="translate(90.06738 62.8141)"/></g><polygon class="cls-69" points="632.658 285.657 643.982 323.561 631.076 341.636 632.658 285.657"/><polygon class="cls-70" points="677.269 330.434 632.825 286.019 644.149 323.923 677.269 330.434"/><polygon class="cls-71" points="508.233 481.105 511.843 528.424 523.863 496.883 508.233 481.105"/><g class="cls-13"><path class="cls-14" d="M421.77519,465.6101c.76681-2.7179,1.63381-5.3977,2.4899-8.0816.8815-2.6742,1.7745-5.3441,2.7058-7.9993.9086-2.6639,1.89211-5.2993,2.8345-7.9503l2.96461-7.9007.24589,1.1634c-1.2855-1.3317-2.5927-2.6419-3.8603-3.9913-1.2642-1.3529-2.5434-2.6908-3.7761-4.0748-2.4884-2.7453-4.9266-5.5403-7.214-8.4847,2.9227,2.3151,5.69451,4.7795,8.4163,7.2936,1.3724,1.2456,2.69821,2.5374,4.0391,3.8143,1.3375,1.2802,2.6353,2.5998,3.9548,3.8977l.5044.4961-.2584.6677-3.04569,7.8697c-1.06111,2.6058-2.081,5.2273-3.17591,7.8202-1.072,2.6016-2.1826,5.1886-3.3045,7.7711C424.14829,460.4942,423.01179,463.0712,421.77519,465.6101Z" transform="translate(90.06738 62.8141)"/></g><polygon class="cls-72" points="563.137 492.135 523.863 496.883 508.233 481.105 563.137 492.135"/><polygon class="cls-73" points="511.457 528.528 562.752 492.238 523.478 496.986 511.457 528.528"/><ellipse class="cls-74" cx="459.98494" cy="351.86165" rx="25.60164" ry="37.03508" transform="translate(85.60545 68.72507) rotate(-0.73271)"/><polygon class="cls-75" points="562.485 395.869 514.473 412.017 550.26 416.18 562.485 395.869"/><g class="cls-13"><path class="cls-14" d="M424.406,349.2034c3.01329.0803,6.01329.2743,9.01469.4561,2.9982.2104,5.9947.4338,8.98631.7009,2.99449.2412,5.97909.5674,8.96919.847l8.952.9946-1.13919.5596c1.04069-1.6794,2.05319-3.3756,3.11689-5.0411,1.06811-1.6629,2.1167-3.3375,3.2253-4.9759,2.1876-3.2947,4.4397-6.5507,6.886-9.6897-1.6285,3.6312-3.4511,7.1456-5.33819,10.6212-.92881,1.7467-1.91751,3.4573-2.88681,5.1796-.9737,1.7197-1.9985,3.4086-2.99519,5.1144l-.381.6519-.75851-.0922-8.9414-1.0866c-2.9744-.4142-5.9542-.7817-8.92409-1.2343-2.973-.4267-5.94091-.897-8.90721-1.3803C430.32169,350.3166,427.35729,349.8168,424.406,349.2034Z" transform="translate(90.06738 62.8141)"/></g><polygon class="cls-76" points="565.476 455.568 550.26 416.18 562.485 395.869 565.476 455.568"/><polygon class="cls-77" points="514.265 411.646 565.268 455.197 550.052 415.808 514.265 411.646"/><ellipse class="cls-78" cx="145.92145" cy="152.64817" rx="37.03503" ry="25.60162" transform="translate(43.86936 127.80016) rotate(-21.76393)"/><polygon class="cls-79" points="213.973 210.608 246.276 249.625 237.318 214.728 213.973 210.608"/><g class="cls-13"><path class="cls-14" d="M156.2087,186.811c-1.0064-2.8413-1.9019-5.7111-2.8094-8.5778-.8795-2.8739-1.7465-5.7511-2.5708-8.6392-.8495-2.8816-1.6161-5.7845-2.4283-8.6757l-2.2843-8.7126.9312.8625c-1.941-.3687-3.8876-.705-5.8239-1.1002-1.9354-.4001-3.8748-.7779-5.8019-1.2246-3.86036-.8595-7.70761-1.7931-11.51548-2.9499,3.97378.2169,7.90816.6568,11.82948,1.1709,1.9636.24,3.9151.549,5.8706.8356,1.9545.2917,3.8987.6421,5.8485.9603l.7453.1216.1862.7411,2.1945,8.7357c.6809,2.9249,1.4072,5.8381,2.0507,8.7726.6686,2.928,1.2947,5.867,1.9082,8.8092C155.1248,180.8899,155.7222,183.8362,156.2087,186.811Z" transform="translate(90.06738 62.8141)"/></g><polygon class="cls-80" points="268.622 186.39 237.318 214.728 213.973 210.608 268.622 186.39"/><polygon class="cls-81" points="246.004 249.953 268.35 186.718 237.046 215.056 246.004 249.953"/><path class="cls-14" d="M39.2481,302.8692a1.558,1.558,0,1,1-1.5579-1.5579A1.55791,1.55791,0,0,1,39.2481,302.8692Z" transform="translate(90.06738 62.8141)"/><path class="cls-14" d="M39.2481,320.5257a1.558,1.558,0,1,1-1.5579-1.5579A1.55791,1.55791,0,0,1,39.2481,320.5257Z" transform="translate(90.06738 62.8141)"/><path class="cls-14" d="M39.2481,338.1822a1.558,1.558,0,1,1-1.5579-1.5579A1.55791,1.55791,0,0,1,39.2481,338.1822Z" transform="translate(90.06738 62.8141)"/><path class="cls-14" d="M39.2481,355.8387a1.558,1.558,0,1,1-1.5579-1.5579A1.55791,1.55791,0,0,1,39.2481,355.8387Z" transform="translate(90.06738 62.8141)"/><path class="cls-14" d="M39.2481,373.4952a1.558,1.558,0,1,1-1.5579-1.5579A1.55791,1.55791,0,0,1,39.2481,373.4952Z" transform="translate(90.06738 62.8141)"/><path class="cls-14" d="M39.2481,391.1517a1.558,1.558,0,1,1-1.5579-1.5579A1.55791,1.55791,0,0,1,39.2481,391.1517Z" transform="translate(90.06738 62.8141)"/><path class="cls-14" d="M39.2481,408.8082a1.558,1.558,0,1,1-1.5579-1.5579A1.55791,1.55791,0,0,1,39.2481,408.8082Z" transform="translate(90.06738 62.8141)"/><path class="cls-14" d="M39.2481,426.4647a1.558,1.558,0,1,1-1.5579-1.5579A1.55791,1.55791,0,0,1,39.2481,426.4647Z" transform="translate(90.06738 62.8141)"/><path class="cls-14" d="M39.2481,444.1212a1.558,1.558,0,1,1-1.5579-1.5579A1.55791,1.55791,0,0,1,39.2481,444.1212Z" transform="translate(90.06738 62.8141)"/><circle class="cls-14" cx="141.25958" cy="365.6833" r="1.5579"/><circle class="cls-14" cx="141.25958" cy="383.3398" r="1.5579"/><circle class="cls-14" cx="141.25958" cy="400.9963" r="1.5579"/><circle class="cls-14" cx="141.25958" cy="418.6528" r="1.5579"/><circle class="cls-14" cx="141.25958" cy="436.3093" r="1.5579"/><circle class="cls-14" cx="141.25958" cy="453.9658" r="1.5579"/><circle class="cls-14" cx="141.25958" cy="471.6223" r="1.5579"/><circle class="cls-14" cx="141.25958" cy="489.2788" r="1.5579"/><circle class="cls-14" cx="141.25958" cy="506.9353" r="1.5579"/><circle class="cls-14" cx="154.76158" cy="365.6833" r="1.5579"/><circle class="cls-14" cx="154.76158" cy="383.3398" r="1.5579"/><circle class="cls-14" cx="154.76158" cy="400.9963" r="1.5579"/><circle class="cls-14" cx="154.76158" cy="418.6528" r="1.5579"/><circle class="cls-14" cx="154.76158" cy="436.3093" r="1.5579"/><circle class="cls-14" cx="154.76158" cy="453.9658" r="1.5579"/><circle class="cls-14" cx="154.76158" cy="471.6223" r="1.5579"/><circle class="cls-14" cx="154.76158" cy="489.2788" r="1.5579"/><circle class="cls-14" cx="154.76158" cy="506.9353" r="1.5579"/><path class="cls-14" d="M79.7542,302.8692a1.558,1.558,0,1,1-1.558-1.5579A1.55793,1.55793,0,0,1,79.7542,302.8692Z" transform="translate(90.06738 62.8141)"/><path class="cls-14" d="M79.7542,320.5257a1.558,1.558,0,1,1-1.558-1.5579A1.55793,1.55793,0,0,1,79.7542,320.5257Z" transform="translate(90.06738 62.8141)"/><path class="cls-14" d="M79.7542,338.1822a1.558,1.558,0,1,1-1.558-1.5579A1.55793,1.55793,0,0,1,79.7542,338.1822Z" transform="translate(90.06738 62.8141)"/><path class="cls-14" d="M79.7542,355.8387a1.558,1.558,0,1,1-1.558-1.5579A1.55793,1.55793,0,0,1,79.7542,355.8387Z" transform="translate(90.06738 62.8141)"/><path class="cls-14" d="M79.7542,373.4952a1.558,1.558,0,1,1-1.558-1.5579A1.55793,1.55793,0,0,1,79.7542,373.4952Z" transform="translate(90.06738 62.8141)"/><path class="cls-14" d="M79.7542,391.1517a1.558,1.558,0,1,1-1.558-1.5579A1.55793,1.55793,0,0,1,79.7542,391.1517Z" transform="translate(90.06738 62.8141)"/><path class="cls-14" d="M79.7542,408.8082a1.558,1.558,0,1,1-1.558-1.5579A1.55793,1.55793,0,0,1,79.7542,408.8082Z" transform="translate(90.06738 62.8141)"/><path class="cls-14" d="M79.7542,426.4647a1.558,1.558,0,1,1-1.558-1.5579A1.55793,1.55793,0,0,1,79.7542,426.4647Z" transform="translate(90.06738 62.8141)"/><path class="cls-14" d="M79.7542,444.1212a1.558,1.558,0,1,1-1.558-1.5579A1.55793,1.55793,0,0,1,79.7542,444.1212Z" transform="translate(90.06738 62.8141)"/><path class="cls-14" d="M93.2562,302.8692a1.558,1.558,0,1,1-1.5579-1.5579A1.55791,1.55791,0,0,1,93.2562,302.8692Z" transform="translate(90.06738 62.8141)"/><path class="cls-14" d="M93.2562,320.5257a1.558,1.558,0,1,1-1.5579-1.5579A1.55791,1.55791,0,0,1,93.2562,320.5257Z" transform="translate(90.06738 62.8141)"/><path class="cls-14" d="M93.2562,338.1822a1.558,1.558,0,1,1-1.5579-1.5579A1.55791,1.55791,0,0,1,93.2562,338.1822Z" transform="translate(90.06738 62.8141)"/><path class="cls-14" d="M93.2562,355.8387a1.558,1.558,0,1,1-1.5579-1.5579A1.55791,1.55791,0,0,1,93.2562,355.8387Z" transform="translate(90.06738 62.8141)"/><path class="cls-14" d="M93.2562,373.4952a1.558,1.558,0,1,1-1.5579-1.5579A1.55791,1.55791,0,0,1,93.2562,373.4952Z" transform="translate(90.06738 62.8141)"/><path class="cls-14" d="M93.2562,391.1517a1.558,1.558,0,1,1-1.5579-1.5579A1.55791,1.55791,0,0,1,93.2562,391.1517Z" transform="translate(90.06738 62.8141)"/><path class="cls-14" d="M93.2562,408.8082a1.558,1.558,0,1,1-1.5579-1.5579A1.55791,1.55791,0,0,1,93.2562,408.8082Z" transform="translate(90.06738 62.8141)"/><path class="cls-14" d="M93.2562,426.4647a1.558,1.558,0,1,1-1.5579-1.5579A1.55791,1.55791,0,0,1,93.2562,426.4647Z" transform="translate(90.06738 62.8141)"/><path class="cls-14" d="M93.2562,444.1212a1.558,1.558,0,1,1-1.5579-1.5579A1.55791,1.55791,0,0,1,93.2562,444.1212Z" transform="translate(90.06738 62.8141)"/><path class="cls-14" d="M654.53659,23.1588a1.558,1.558,0,1,1-1.558-1.558A1.55793,1.55793,0,0,1,654.53659,23.1588Z" transform="translate(90.06738 62.8141)"/><path class="cls-14" d="M654.53659,40.8153a1.558,1.558,0,1,1-1.558-1.558A1.55793,1.55793,0,0,1,654.53659,40.8153Z" transform="translate(90.06738 62.8141)"/><path class="cls-14" d="M654.53659,58.4718a1.558,1.558,0,1,1-1.558-1.558A1.55793,1.55793,0,0,1,654.53659,58.4718Z" transform="translate(90.06738 62.8141)"/><path class="cls-14" d="M654.53659,76.1283a1.558,1.558,0,1,1-1.558-1.558A1.55793,1.55793,0,0,1,654.53659,76.1283Z" transform="translate(90.06738 62.8141)"/><path class="cls-14" d="M654.53659,93.7848a1.558,1.558,0,1,1-1.558-1.558A1.55793,1.55793,0,0,1,654.53659,93.7848Z" transform="translate(90.06738 62.8141)"/><path class="cls-14" d="M654.53659,111.4413a1.558,1.558,0,1,1-1.558-1.558A1.55793,1.55793,0,0,1,654.53659,111.4413Z" transform="translate(90.06738 62.8141)"/><path class="cls-14" d="M654.53659,129.0978a1.558,1.558,0,1,1-1.558-1.558A1.55793,1.55793,0,0,1,654.53659,129.0978Z" transform="translate(90.06738 62.8141)"/><path class="cls-14" d="M654.53659,146.7543a1.558,1.558,0,1,1-1.558-1.558A1.55793,1.55793,0,0,1,654.53659,146.7543Z" transform="translate(90.06738 62.8141)"/><path class="cls-14" d="M654.53659,164.4108a1.558,1.558,0,1,1-1.558-1.558A1.55793,1.55793,0,0,1,654.53659,164.4108Z" transform="translate(90.06738 62.8141)"/><path class="cls-14" d="M668.03859,23.1588a1.5579,1.5579,0,1,1-1.5579-1.558A1.55791,1.55791,0,0,1,668.03859,23.1588Z" transform="translate(90.06738 62.8141)"/><path class="cls-14" d="M668.03859,40.8153a1.5579,1.5579,0,1,1-1.5579-1.558A1.55791,1.55791,0,0,1,668.03859,40.8153Z" transform="translate(90.06738 62.8141)"/><path class="cls-14" d="M668.03859,58.4718a1.5579,1.5579,0,1,1-1.5579-1.558A1.55791,1.55791,0,0,1,668.03859,58.4718Z" transform="translate(90.06738 62.8141)"/><path class="cls-14" d="M668.03859,76.1283a1.5579,1.5579,0,1,1-1.5579-1.558A1.55791,1.55791,0,0,1,668.03859,76.1283Z" transform="translate(90.06738 62.8141)"/><path class="cls-14" d="M668.03859,93.7848a1.5579,1.5579,0,1,1-1.5579-1.558A1.55791,1.55791,0,0,1,668.03859,93.7848Z" transform="translate(90.06738 62.8141)"/><path class="cls-14" d="M668.03859,111.4413a1.5579,1.5579,0,1,1-1.5579-1.558A1.55791,1.55791,0,0,1,668.03859,111.4413Z" transform="translate(90.06738 62.8141)"/><path class="cls-14" d="M668.03859,129.0978a1.5579,1.5579,0,1,1-1.5579-1.558A1.55791,1.55791,0,0,1,668.03859,129.0978Z" transform="translate(90.06738 62.8141)"/><path class="cls-14" d="M668.03859,146.7543a1.5579,1.5579,0,1,1-1.5579-1.558A1.55791,1.55791,0,0,1,668.03859,146.7543Z" transform="translate(90.06738 62.8141)"/><path class="cls-14" d="M668.03859,164.4108a1.5579,1.5579,0,1,1-1.5579-1.558A1.55791,1.55791,0,0,1,668.03859,164.4108Z" transform="translate(90.06738 62.8141)"/><path class="cls-14" d="M681.54059,23.1588a1.5579,1.5579,0,1,1-1.5579-1.558A1.55791,1.55791,0,0,1,681.54059,23.1588Z" transform="translate(90.06738 62.8141)"/><path class="cls-14" d="M681.54059,40.8153a1.5579,1.5579,0,1,1-1.5579-1.558A1.55791,1.55791,0,0,1,681.54059,40.8153Z" transform="translate(90.06738 62.8141)"/><path class="cls-14" d="M681.54059,58.4718a1.5579,1.5579,0,1,1-1.5579-1.558A1.55791,1.55791,0,0,1,681.54059,58.4718Z" transform="translate(90.06738 62.8141)"/><path class="cls-14" d="M681.54059,76.1283a1.5579,1.5579,0,1,1-1.5579-1.558A1.55791,1.55791,0,0,1,681.54059,76.1283Z" transform="translate(90.06738 62.8141)"/><path class="cls-14" d="M681.54059,93.7848a1.5579,1.5579,0,1,1-1.5579-1.558A1.55791,1.55791,0,0,1,681.54059,93.7848Z" transform="translate(90.06738 62.8141)"/><path class="cls-14" d="M681.54059,111.4413a1.5579,1.5579,0,1,1-1.5579-1.558A1.55791,1.55791,0,0,1,681.54059,111.4413Z" transform="translate(90.06738 62.8141)"/><path class="cls-14" d="M681.54059,129.0978a1.5579,1.5579,0,1,1-1.5579-1.558A1.55791,1.55791,0,0,1,681.54059,129.0978Z" transform="translate(90.06738 62.8141)"/><path class="cls-14" d="M681.54059,146.7543a1.5579,1.5579,0,1,1-1.5579-1.558A1.55791,1.55791,0,0,1,681.54059,146.7543Z" transform="translate(90.06738 62.8141)"/><path class="cls-14" d="M681.54059,164.4108a1.5579,1.5579,0,1,1-1.5579-1.558A1.55791,1.55791,0,0,1,681.54059,164.4108Z" transform="translate(90.06738 62.8141)"/><path class="cls-14" d="M695.04269,23.1588a1.558,1.558,0,1,1-1.558-1.558A1.55793,1.55793,0,0,1,695.04269,23.1588Z" transform="translate(90.06738 62.8141)"/><path class="cls-14" d="M695.04269,40.8153a1.558,1.558,0,1,1-1.558-1.558A1.55793,1.55793,0,0,1,695.04269,40.8153Z" transform="translate(90.06738 62.8141)"/><path class="cls-14" d="M695.04269,58.4718a1.558,1.558,0,1,1-1.558-1.558A1.55793,1.55793,0,0,1,695.04269,58.4718Z" transform="translate(90.06738 62.8141)"/><path class="cls-14" d="M695.04269,76.1283a1.558,1.558,0,1,1-1.558-1.558A1.55793,1.55793,0,0,1,695.04269,76.1283Z" transform="translate(90.06738 62.8141)"/><path class="cls-14" d="M695.04269,93.7848a1.558,1.558,0,1,1-1.558-1.558A1.55793,1.55793,0,0,1,695.04269,93.7848Z" transform="translate(90.06738 62.8141)"/><path class="cls-14" d="M695.04269,111.4413a1.558,1.558,0,1,1-1.558-1.558A1.55793,1.55793,0,0,1,695.04269,111.4413Z" transform="translate(90.06738 62.8141)"/><path class="cls-14" d="M695.04269,129.0978a1.558,1.558,0,1,1-1.558-1.558A1.55793,1.55793,0,0,1,695.04269,129.0978Z" transform="translate(90.06738 62.8141)"/><path class="cls-14" d="M695.04269,146.7543a1.558,1.558,0,1,1-1.558-1.558A1.55793,1.55793,0,0,1,695.04269,146.7543Z" transform="translate(90.06738 62.8141)"/><path class="cls-14" d="M695.04269,164.4108a1.558,1.558,0,1,1-1.558-1.558A1.55793,1.55793,0,0,1,695.04269,164.4108Z" transform="translate(90.06738 62.8141)"/><path class="cls-14" d="M708.54469,23.1588a1.558,1.558,0,1,1-1.5579-1.558A1.55791,1.55791,0,0,1,708.54469,23.1588Z" transform="translate(90.06738 62.8141)"/><path class="cls-14" d="M708.54469,40.8153a1.558,1.558,0,1,1-1.5579-1.558A1.55791,1.55791,0,0,1,708.54469,40.8153Z" transform="translate(90.06738 62.8141)"/><path class="cls-14" d="M708.54469,58.4718a1.558,1.558,0,1,1-1.5579-1.558A1.55791,1.55791,0,0,1,708.54469,58.4718Z" transform="translate(90.06738 62.8141)"/><path class="cls-14" d="M708.54469,76.1283a1.558,1.558,0,1,1-1.5579-1.558A1.55791,1.55791,0,0,1,708.54469,76.1283Z" transform="translate(90.06738 62.8141)"/><path class="cls-14" d="M708.54469,93.7848a1.558,1.558,0,1,1-1.5579-1.558A1.55791,1.55791,0,0,1,708.54469,93.7848Z" transform="translate(90.06738 62.8141)"/><path class="cls-14" d="M708.54469,111.4413a1.558,1.558,0,1,1-1.5579-1.558A1.55791,1.55791,0,0,1,708.54469,111.4413Z" transform="translate(90.06738 62.8141)"/><path class="cls-14" d="M708.54469,129.0978a1.558,1.558,0,1,1-1.5579-1.558A1.55791,1.55791,0,0,1,708.54469,129.0978Z" transform="translate(90.06738 62.8141)"/><path class="cls-14" d="M708.54469,146.7543a1.558,1.558,0,1,1-1.5579-1.558A1.55791,1.55791,0,0,1,708.54469,146.7543Z" transform="translate(90.06738 62.8141)"/><path class="cls-14" d="M708.54469,164.4108a1.558,1.558,0,1,1-1.5579-1.558A1.55791,1.55791,0,0,1,708.54469,164.4108Z" transform="translate(90.06738 62.8141)"/><path class="cls-82" d="M72.0186,265.7923a2.88325,2.88325,0,1,1-2.8832-2.8832A2.88322,2.88322,0,0,1,72.0186,265.7923Z" transform="translate(90.06738 62.8141)"/><path class="cls-83" d="M351.43049,35.5728a2.88325,2.88325,0,1,1-2.8832-2.8833A2.8832,2.8832,0,0,1,351.43049,35.5728Z" transform="translate(90.06738 62.8141)"/><path class="cls-84" d="M615.70249,87.7157a2.88325,2.88325,0,1,1-2.8833-2.8832A2.8833,2.8833,0,0,1,615.70249,87.7157Z" transform="translate(90.06738 62.8141)"/><path class="cls-85" d="M389.40289,449.3738a2.88325,2.88325,0,1,1-2.8833-2.8832A2.88321,2.88321,0,0,1,389.40289,449.3738Z" transform="translate(90.06738 62.8141)"/><path class="cls-86" d="M173.5868,415.942a2.88325,2.88325,0,1,1-2.8833-2.8832A2.8833,2.8833,0,0,1,173.5868,415.942Z" transform="translate(90.06738 62.8141)"/><path class="cls-87" d="M682.866,223.1701a2.88326,2.88326,0,1,1-2.88331-2.8833A2.88323,2.88323,0,0,1,682.866,223.1701Z" transform="translate(90.06738 62.8141)"/></g></g></g></svg>