<svg id="Layer_1" data-name="Layer 1" xmlns="http://www.w3.org/2000/svg" viewBox="0 0 1839.39991 1025.28546"><defs><style>.cls-1,.cls-10,.cls-11,.cls-12,.cls-13,.cls-19,.cls-20,.cls-3,.cls-4,.cls-5{fill:none;}.cls-1,.cls-11{stroke:#ffd800;}.cls-1,.cls-10,.cls-12,.cls-13,.cls-3,.cls-4,.cls-5{stroke-linecap:round;}.cls-1,.cls-11,.cls-12,.cls-13,.cls-20,.cls-21,.cls-22,.cls-25,.cls-26,.cls-27,.cls-28,.cls-29,.cls-3,.cls-4,.cls-5{stroke-miterlimit:10;}.cls-1,.cls-10{stroke-width:1.34002px;}.cls-2{fill:#f2f2f2;}.cls-3,.cls-4,.cls-5{stroke:#ff0;}.cls-12,.cls-13,.cls-3,.cls-4,.cls-5{stroke-width:3px;}.cls-4{stroke-dasharray:0 4.03268;}.cls-5{stroke-dasharray:0 4.03268;}.cls-6{fill:#ff7d00;}.cls-7{fill:#ff293c;}.cls-8{fill:#008baa;}.cls-9{fill:#ffd800;}.cls-10{stroke:#ff293c;stroke-linejoin:round;}.cls-11{stroke-width:2.68005px;}.cls-12,.cls-13{stroke:red;}.cls-13{stroke-dasharray:0 4.01463;}.cls-14{fill:#ee4036;}.cls-15,.cls-26{fill:#efdee6;}.cls-16,.cls-27{fill:#faaf40;}.cls-17,.cls-28{fill:#603813;}.cls-18,.cls-21{fill:#1b75bb;}.cls-20,.cls-21,.cls-22,.cls-25,.cls-26,.cls-27,.cls-28,.cls-29{stroke:#231f20;}.cls-22,.cls-23,.cls-32{fill:#231f20;}.cls-23{font-size:8.64302px;font-family:JavaneseText, Javanese Text;}.cls-24{letter-spacing:-0.02444em;}.cls-25,.cls-31{fill:#f05a28;}.cls-29{fill:#754c24;}.cls-30{fill:#8a5d3b;}</style></defs><line class="cls-1" x1="535.65752" y1="676.37624" x2="540.82802" y2="683.87044"/><line class="cls-1" x1="541.98982" y1="677.53814" x2="534.49562" y2="682.70864"/><line class="cls-1" x1="911.17719" y1="726.87787" x2="930.70351" y2="756.53034"/><line class="cls-1" x1="935.09141" y1="731.47513" x2="906.78929" y2="751.93309"/><line class="cls-1" x1="877.47507" y1="994.96298" x2="897.00139" y2="1024.61545"/><line class="cls-1" x1="901.38928" y1="999.56023" x2="873.08717" y2="1020.0182"/><line class="cls-1" x1="730.41124" y1="483.3034" x2="749.93756" y2="512.95588"/><line class="cls-1" x1="754.32545" y1="487.90066" x2="726.02334" y2="508.35862"/><path class="cls-2" d="M1194.13064,260.72812a20.71736,20.71736,0,0,1-4.89848,27.96891,18.6487,18.6487,0,0,1-26.69485-5.13219,20.71723,20.71723,0,0,1,4.8981-27.96852A18.64936,18.64936,0,0,1,1194.13064,260.72812Z" transform="translate(-24.33344 -25.42553)"/><line class="cls-3" x1="136.16749" y1="183.25564" x2="136.16749" y2="183.25564"/><line class="cls-4" x1="139.87087" y1="181.65954" x2="489.83984" y2="30.82832"/><line class="cls-3" x1="491.69152" y1="30.03028" x2="491.69152" y2="30.03028"/><line class="cls-3" x1="94.98212" y1="218.84897" x2="94.98212" y2="218.84897"/><line class="cls-5" x1="98.68549" y1="217.25287" x2="448.65404" y2="66.4219"/><line class="cls-3" x1="450.50573" y1="65.62386" x2="450.50573" y2="65.62386"/><line class="cls-3" x1="53.79681" y1="254.44227" x2="53.79681" y2="254.44227"/><line class="cls-5" x1="57.50018" y1="252.84617" x2="407.46871" y2="102.0152"/><line class="cls-3" x1="409.3204" y1="101.21716" x2="409.3204" y2="101.21716"/><polygon class="cls-6" points="112.936 855.08 171.139 904.61 184.932 829.44 112.936 855.08"/><polygon class="cls-6" points="1767.404 125.889 1825.607 175.419 1839.4 100.248 1767.404 125.889"/><polygon class="cls-2" points="655.685 388.839 597.704 406.796 641.537 450.426 655.685 388.839"/><path class="cls-7" d="M1767.85126,278.37242a70.47627,70.47627,0,0,0-10.61086-2.8143L1741.78779,272.81c-1.709-.30662-3.438-.49364-5.16729-.674Z" transform="translate(-24.33344 -25.42553)"/><path class="cls-7" d="M1718.17882,272.65905l64.684,12.9174c-.57375-.36772-1.163-.70135-1.74569-1.05161l-60.98047-12.17866C1719.48292,272.43139,1718.83163,272.555,1718.17882,272.65905Z" transform="translate(-24.33344 -25.42553)"/><path class="cls-7" d="M1708.30852,274.89265l82.13913,16.40354c-.35416-.30357-.70021-.61824-1.05913-.91377l-79.55732-15.8881C1709.32531,274.63935,1708.81221,274.736,1708.30852,274.89265Z" transform="translate(-24.33344 -25.42553)"/><path class="cls-7" d="M1700.98862,277.63825l94.99188,18.971c-.27258-.29209-.54489-.58279-.82138-.86961l-93.04343-18.58125C1701.739,277.31549,1701.36378,277.474,1700.98862,277.63825Z" transform="translate(-24.33344 -25.42553)"/><path class="cls-7" d="M1694.91481,280.62893l105.33778,21.03651c-.21267-.27663-.42144-.55715-.63747-.82989l-103.72027-20.71366C1695.56935,280.29615,1695.2384,280.44914,1694.91481,280.62893Z" transform="translate(-24.33344 -25.42553)"/><path class="cls-7" d="M1689.77278,283.809l113.92579,22.75249c-.17048-.26633-.32241-.5394-.49655-.80461l-112.5676-22.48032C1690.34964,283.462,1690.0556,283.6195,1689.77278,283.809Z" transform="translate(-24.33344 -25.42553)"/><path class="cls-7" d="M1685.2965,287.12183l121.24471,24.21327c-.1367-.2571-.23807-.52489-.37865-.78059l-120.13622-23.9921C1685.78352,286.749,1685.53688,286.93224,1685.2965,287.12183Z" transform="translate(-24.33344 -25.42553)"/><path class="cls-7" d="M1681.29042,290.52766l127.50451,25.4637c-.11556-.263-.25837-.51843-.37782-.78059l-126.50753-25.2641C1681.69757,290.13612,1681.49967,290.336,1681.29042,290.52766Z" transform="translate(-24.33344 -25.42553)"/><path class="cls-7" d="M1677.66966,294.00926l132.89271,26.53988q-.13593-.37937-.27658-.75871l-132.07105-26.37589C1678.02687,293.60857,1677.85476,293.81358,1677.66966,294.00926Z" transform="translate(-24.33344 -25.42553)"/><path class="cls-7" d="M1675.06527,296.99192c-.171.202-.35468.39542-.52317.599l137.47563,27.45531c-.069-.24638-.11714-.49563-.18892-.74117Z" transform="translate(-24.33344 -25.42553)"/><path class="cls-7" d="M1672.18544,300.62187c-.15016.20352-.29146.41142-.43912.61631l141.40055,28.2394c-.05232-.249-.13353-.49362-.18863-.742Z" transform="translate(-24.33344 -25.42553)"/><path class="cls-7" d="M1669.55942,304.30391c-.13268.20592-.247.42032-.37753.62761l144.67969,28.894c-.03509-.24213-.073-.48286-.11014-.7247Z" transform="translate(-24.33344 -25.42553)"/><path class="cls-7" d="M1667.37367,308.07333c-.11858.21165-.24682.41866-.36342.63141l147.36548,29.42992c-.01962-.23695-.01618-.47458-.038-.71152Z" transform="translate(-24.33344 -25.42553)"/><path class="cls-7" d="M1665.36954,311.87971c-.103.213-.19182.43138-.29237.64543l149.52448,29.86149c-.00461-.23731-.03089-.47423-.03773-.71152Z" transform="translate(-24.33344 -25.42553)"/><path class="cls-7" d="M1663.62123,315.73513c-.09.21815-.20545.42647-.29265.64516l151.195,30.19568c.00952-.23267.02316-.46482.03018-.6972Z" transform="translate(-24.33344 -25.42553)"/><path class="cls-7" d="M1662.18969,319.65477c-.07554.21946-.15274.43837-.22579.65837L1814.291,350.73457c.02283-.23.06121-.457.08182-.68723Z" transform="translate(-24.33344 -25.42553)"/><path class="cls-7" d="M1660.90629,323.60463c-.06195.22161-.10032.44834-.16056.671l152.972,30.55036c.03583-.22755.06172-.45644.09565-.68454Z" transform="translate(-24.33344 -25.42553)"/><path class="cls-7" d="M1659.94689,327.6184c-.04891.22541-.11419.44731-.16089.67326l153.164,30.58782c.0497-.22513.11387-.447.16112-.67215Z" transform="translate(-24.33344 -25.42553)"/><path class="cls-7" d="M1659.19359,331.67593c-.03587.22755-.06255.45617-.09625.684l152.89323,30.53388c.06222-.22188.09981-.44916.16032-.67131Z" transform="translate(-24.33344 -25.42553)"/><path class="cls-7" d="M1658.62035,335.76462c-.02257.23081-.04763.4608-.06825.69215L1810.693,366.8407c.07642-.22.15219-.4392.22608-.65948Z" transform="translate(-24.33344 -25.42553)"/><path class="cls-7" d="M1658.40132,339.92868c-.00869.2324-.02345.46455-.02995.69693l150.876,30.1312c.09025-.2176.20489-.42619.29237-.6446Z" transform="translate(-24.33344 -25.42553)"/><path class="cls-7" d="M1658.33792,344.12183c.00577.237.03006.47367.03829.71041l149.12225,29.78138c.10328-.213.19131-.43138.29269-.64488Z" transform="translate(-24.33344 -25.42553)"/><path class="cls-7" d="M1658.5644,348.37268c.01962.23668.01535.474.03774.71069l146.877,29.33339c.11937-.21166.24622-.41866.3631-.63113Z" transform="translate(-24.33344 -25.42553)"/><path class="cls-7" d="M1659.09409,352.68423c.03569.24213.07194.48314.11013.7247l144.07331,28.7729c.13407-.207.26232-.416.39361-.62382Z" transform="translate(-24.33344 -25.42553)"/><path class="cls-7" d="M1659.82548,357.03541c.05283.24951.13321.495.18914.74394L1800.65067,385.865c.151-.20325.29118-.41252.44023-.61742Z" transform="translate(-24.33344 -25.42553)"/><path class="cls-7" d="M1660.95458,361.467c.06983.24583.116.49565.18892.7409l136.60958,27.283c.17153-.20169.35441-.396.52322-.599Z" transform="translate(-24.33344 -25.42553)"/><path class="cls-7" d="M1662.42885,365.96735c.09113.25374.18285.50719.27736.76008l131.87632,26.33679c.19094-.196.37832-.39333.56644-.591Z" transform="translate(-24.33344 -25.42553)"/><path class="cls-7" d="M1664.21954,370.53248c.11556.26246.257.517.37644.77839l126.292,25.22148c.212-.18862.40824-.389.61776-.57987Z" transform="translate(-24.33344 -25.42553)"/><path class="cls-7" d="M1666.47193,375.1857c.1394.261.26022.52672.40385.78627l119.87185,23.93952c.24337-.186.489-.37011.72956-.55915Z" transform="translate(-24.33344 -25.42553)"/><path class="cls-7" d="M1669.34142,379.96716c.17053.265.31992.53748.49462.801l112.27609,22.42289c.28418-.18374.57656-.34289.85854-.531Z" transform="translate(-24.33344 -25.42553)"/><path class="cls-7" d="M1672.81626,384.86614c.21379.27635.42116.55826.63835.83044l103.36071,20.6422c.33552-.17819.68277-.31633,1.0161-.50031Z" transform="translate(-24.33344 -25.42553)"/><path class="cls-7" d="M1677.12967,389.93345c.27231.28988.543.5817.81917.86631l92.60153,18.493c.38931-.16048.78183-.30079,1.16951-.46873Z" transform="translate(-24.33344 -25.42553)"/><path class="cls-7" d="M1682.71163,395.25347c.35588.30217.7002.62073,1.06107.91486l78.99762,15.777c.50745-.14256,1.02058-.24475,1.52564-.39891Z" transform="translate(-24.33344 -25.42553)"/><path class="cls-7" d="M1690.37187,400.98886c.607.38526,1.24344.71007,1.86081,1.07509l60.13912,12.01035c.65436-.08134,1.3037-.21245,1.957-.31231Z" transform="translate(-24.33344 -25.42553)"/><path class="cls-7" d="M1706.24564,408.36441a70.41418,70.41418,0,0,0,9.44322,2.43052l15.45289,2.74812c.98737.177,1.99.25429,2.98449.38918Z" transform="translate(-24.33344 -25.42553)"/><path class="cls-7" d="M1727.98249,271.725c-.89673.01675-1.79327.11564-2.69045.16669l51.7372,10.33187c-.86-.4404-1.74214-.8226-2.61783-1.22613Z" transform="translate(-24.33344 -25.42553)"/><path class="cls-7" d="M1714.57422,273.25388c-.51089.10883-1.01274.2779-1.52179.39806l73.83073,14.74477c-.45781-.34232-.93463-.65162-1.39945-.982Z" transform="translate(-24.33344 -25.42553)"/><path class="cls-7" d="M1705.9567,275.73751c-.41425.14512-.82465.30488-1.23724.458l88.711,17.71627c-.32578-.31339-.67-.59876-1.00086-.90466Z" transform="translate(-24.33344 -25.42553)"/><path class="cls-7" d="M1699.07787,278.56993c-.34214.16162-.68178.3307-1.022.4984L1798.26734,299.081c-.24676-.29166-.50577-.56612-.75621-.85335Z" transform="translate(-24.33344 -25.42553)"/><path class="cls-7" d="M1693.30833,281.6224c-.28967.171-.5733.35726-.86133.533l109.63831,21.89612c-.20318-.2894-.43316-.54768-.64-.83292Z" transform="translate(-24.33344 -25.42553)"/><path class="cls-7" d="M1688.2914,284.82676c-.25222.17887-.48066.37836-.72984.5597l117.55779,23.47666c-.15907-.27026-.33381-.53519-.49682-.80433Z" transform="translate(-24.33344 -25.42553)"/><path class="cls-7" d="M1683.93691,288.16356c-.23369.19371-.4942.364-.72508.56023L1807.623,313.56928c-.12724-.25992-.24836-.5218-.3781-.78087Z" transform="translate(-24.33344 -25.42553)"/><path class="cls-7" d="M1680.137,291.61066c-.204.19494-.4177.383-.61836.58015l130.18307,25.99883c-.10007-.2512-.17345-.50835-.2763-.759Z" transform="translate(-24.33344 -25.42553)"/><path class="cls-7" d="M1676.692,295.1287c-.1784.197-.34721.40063-.52344.59931L1811.356,322.72559c-.08172-.25489-.19235-.50355-.27685-.75843Z" transform="translate(-24.33344 -25.42553)"/><path class="cls-7" d="M1673.56532,298.70928c-.15875.20025-.29673.412-.45327.61362l139.44771,27.8491c-.06126-.24752-.1252-.49448-.18952-.74144Z" transform="translate(-24.33344 -25.42553)"/><path class="cls-7" d="M1670.92543,302.38891c-.14324.2068-.29838.40758-.43912.61575l143.0325,28.56439c-.04347-.241-.06472-.484-.11042-.7247Z" transform="translate(-24.33344 -25.42553)"/><path class="cls-7" d="M1668.503,306.11084c-.126.20866-.23986.42222-.36339.63169l146.03785,29.16479c-.02736-.243-.08-.48365-.11041-.72608Z" transform="translate(-24.33344 -25.42553)"/><path class="cls-7" d="M1666.33166,309.88378c-.111.213-.236.42054-.345.63492l148.49755,29.65622c-.01215-.23727-.02288-.47454-.038-.71152Z" transform="translate(-24.33344 -25.42553)"/><path class="cls-7" d="M1664.53091,313.729c-.09662.21542-.19824.42892-.29265.64516L1814.618,344.40661c.002-.23291.03015-.4643.02991-.69748Z" transform="translate(-24.33344 -25.42553)"/><path class="cls-7" d="M1662.89105,317.60706c-.08243.21728-.14581.44028-.22579.65838l151.77142,30.31c.0159-.23216.01654-.46479.03027-.69721Z" transform="translate(-24.33344 -25.42553)"/><path class="cls-7" d="M1661.54246,321.54371c-.06916.22108-.15829.43591-.22519.65781L1814.016,352.6974c.02921-.22808.06842-.45537.09541-.68426Z" transform="translate(-24.33344 -25.42553)"/><path class="cls-7" d="M1660.446,325.53023c-.05585.22407-.107.44838-.16089.673l153.157,30.58648c.04281-.227.05566-.45807.09625-.68509Z" transform="translate(-24.33344 -25.42553)"/><path class="cls-7" d="M1659.49161,329.54757c-.04253.22648-.05565.457-.096.684l153.09406,30.57408c.05557-.22351.10726-.44755.16089-.6716Z" transform="translate(-24.33344 -25.42553)"/><path class="cls-7" d="M1658.91892,333.63626c-.02949.22919-.06926.45676-.09681.68649l152.57227,30.47c.06972-.22164.15913-.4373.22608-.65948Z" transform="translate(-24.33344 -25.42553)"/><path class="cls-7" d="M1658.49573,337.75932c-.01591.23243-.01682.46479-.03019.69721l151.58108,30.272c.08192-.21755.14554-.44.22524-.65809Z" transform="translate(-24.33344 -25.42553)"/><path class="cls-7" d="M1658.31471,341.929c-.002.23264-.03038.46458-.0305.69721l150.12394,29.98124c.09607-.21514.19824-.42865.29265-.64489Z" transform="translate(-24.33344 -25.42553)"/><path class="cls-7" d="M1658.44688,346.161c.01184.23726.02284.474.03746.71124l148.12416,29.58206c.11162-.21356.234-.42081.34314-.63518Z" transform="translate(-24.33344 -25.42553)"/><path class="cls-7" d="M1658.75135,350.428c.0276.24245.08.48227.10983.72443L1804.438,380.22583c.12542-.2081.23981-.42139.3625-.6303Z" transform="translate(-24.33344 -25.42553)"/><path class="cls-7" d="M1659.41,354.76465c.04319.24208.06471.48622.11068.728L1802.0164,383.95c.14379-.20764.29894-.40869.44023-.61742Z" transform="translate(-24.33344 -25.42553)"/><path class="cls-7" d="M1660.36687,359.1617c.06121.24725.12552.49393.18891.7409l138.82435,27.725c.15847-.2.29506-.412.45076-.61332Z" transform="translate(-24.33344 -25.42553)"/><path class="cls-7" d="M1661.56841,363.60757c.08144.256.19239.50521.2774.76009l134.40676,26.842c.17845-.197.34721-.40064.52345-.59959Z" transform="translate(-24.33344 -25.42553)"/><path class="cls-7" d="M1663.22321,368.14573c.0998.25093.17318.50808.27635.75816l129.31033,25.82459c.20371-.1955.41709-.383.61776-.57988Z" transform="translate(-24.33344 -25.42553)"/><path class="cls-7" d="M1665.29913,372.76362c.12668.26047.24836.5218.37838.78087l123.33495,24.63135c.23309-.19343.49193-.36486.72207-.56049Z" transform="translate(-24.33344 -25.42553)"/><path class="cls-7" d="M1667.80143,377.47172c.158.26972.33295.533.49458.801l116.3633,23.23878c.2511-.17775.47871-.37641.72677-.55692Z" transform="translate(-24.33344 -25.42553)"/><path class="cls-7" d="M1670.83073,382.28169c.20261.28858.43261.54575.638.83072l108.177,21.60429c.28939-.17076.57275-.35643.86021-.53216Z" transform="translate(-24.33344 -25.42553)"/><path class="cls-7" d="M1674.64759,387.24946c.24537.29112.50165.56725.75121.85282l98.48213,19.668c.34182-.1619.68146-.331,1.02165-.4984Z" transform="translate(-24.33344 -25.42553)"/><path class="cls-7" d="M1679.48113,392.42033c.3233.31147.66426.59657.99227.90138l86.53425,17.28176c.41314-.14484.82322-.30377,1.23469-.45689Z" transform="translate(-24.33344 -25.42553)"/><path class="cls-7" d="M1686.01041,397.93025c.45837.34314.93634.65244,1.40231.9831l70.98235,14.17621c.51177-.1091,1.01525-.27847,1.52541-.39918Z" transform="translate(-24.33344 -25.42553)"/><path class="cls-7" d="M1695.851,404.10041c.8558.43959,1.7327.82375,2.60423,1.22648l46.5543,9.29723c.89979-.017,1.8003-.11512,2.701-.16674Z" transform="translate(-24.33344 -25.42553)"/><ellipse class="cls-7" cx="1728.63555" cy="341.78418" rx="70.60337" ry="69.83591" transform="translate(87.30863 1016.59389) rotate(-34.59913)"/><path class="cls-8" d="M1759.45857,759.33024c3.83737,4.5702,2.43932,10.8313-3.12257,13.9844-5.56165,3.1531-13.181,2.00427-17.01815-2.56593s-2.43908-10.83129,3.12257-13.98439C1748.00211,753.611,1755.62144,754.75985,1759.45857,759.33024Z" transform="translate(-24.33344 -25.42553)"/><path class="cls-8" d="M1624.65006,1016.692c3.83737,4.57019,2.43932,10.83129-3.12257,13.98439-5.56165,3.1531-13.181,2.00427-17.01815-2.56592s-2.43908-10.8313,3.12257-13.9844C1613.1936,1010.97272,1620.81293,1012.12155,1624.65006,1016.692Z" transform="translate(-24.33344 -25.42553)"/><circle class="cls-9" cx="448.48936" cy="650.44681" r="10.72833" transform="translate(-295.84667 299.72136) rotate(-31.09973)"/><path class="cls-9" d="M989.58651,494.02682a11.26721,11.26721,0,0,1-2.66393,15.211,10.14238,10.14238,0,0,1-14.51832-2.791,11.2672,11.2672,0,0,1,2.66393-15.211A10.14238,10.14238,0,0,1,989.58651,494.02682Z" transform="translate(-24.33344 -25.42553)"/><path class="cls-8" d="M923.8605,151.87966a20.71686,20.71686,0,0,1-4.89848,27.96851,18.64893,18.64893,0,0,1-26.69484-5.1318,20.71717,20.71717,0,0,1,4.8981-27.96852A18.64873,18.64873,0,0,1,923.8605,151.87966Z" transform="translate(-24.33344 -25.42553)"/><line class="cls-10" x1="1387.88995" y1="571.40426" x2="1416.52869" y2="615.67237"/><line class="cls-10" x1="1422.96443" y1="578.26758" x2="1381.45421" y2="608.80904"/><line class="cls-10" x1="291.03888" y1="611.23404" x2="319.67762" y2="655.50215"/><line class="cls-10" x1="326.11337" y1="618.09737" x2="284.60314" y2="648.63883"/><line class="cls-10" x1="1197.9325" y1="366.12766" x2="1226.57124" y2="410.39577"/><line class="cls-10" x1="1233.00698" y1="372.99098" x2="1191.49676" y2="403.53245"/><line class="cls-10" x1="902.27293" y1="16.85106" x2="930.91167" y2="61.11917"/><line class="cls-10" x1="937.34741" y1="23.71439" x2="895.83718" y2="54.25585"/><path class="cls-7" d="M168.59474,543.48963l86.73309-154.726c2.10538-3.756,5.29534-5.96912,7.12524-4.94346h0c1.82968,1.0259,1.60636,4.90188-.499,8.65784l-86.7331,154.726c-2.10538,3.756-5.29534,5.96913-7.125,4.94326l-.00023.00021C166.266,551.1216,166.48936,547.24558,168.59474,543.48963Z" transform="translate(-24.33344 -25.42553)"/><path class="cls-8" d="M212.28325,529.72115l86.7333-154.7265c2.10515-3.75571,5.29537-5.96888,7.125-4.943h0c1.82987,1.02541,1.60635,4.90188-.49882,8.65737l-86.73331,154.7265c-2.10517,3.7555-5.29536,5.96888-7.125,4.943h0C209.95453,537.35286,210.17808,533.47664,212.28325,529.72115Z" transform="translate(-24.33344 -25.42553)"/><path class="cls-9" d="M190.43911,536.60529,277.17218,381.879c2.10541-3.75574,5.29536-5.96891,7.12527-4.94325h0c1.82966,1.02587,1.60635,4.90189-.49906,8.65759L197.06532,540.31966c-2.10538,3.75595-5.29536,5.96887-7.12524,4.94346l0-.00025C188.11042,544.23728,188.3337,540.361,190.43911,536.60529Z" transform="translate(-24.33344 -25.42553)"/><path class="cls-7" d="M803.8133,996.00735,703.08379,850.00617c-2.44522-3.54411-3.0277-7.38269-1.30108-8.574h0c1.72673-1.191,5.10842.71613,7.55364,4.26024l100.7295,146.00118c2.44522,3.54411,3.02771,7.38268,1.301,8.57373l.00009.0003C809.64023,1001.45863,806.25852,999.55146,803.8133,996.00735Z" transform="translate(-24.33344 -25.42553)"/><path class="cls-8" d="M810.68818,950.71946,709.95835,804.71789c-2.4451-3.5438-3.02747-7.3826-1.30076-8.57365h0c1.72638-1.19143,5.10842.71614,7.55332,4.25986L816.94073,946.40567c2.4449,3.54371,3.02747,7.3826,1.3008,8.57365h0C816.51488,956.17066,813.13307,954.26318,810.68818,950.71946Z" transform="translate(-24.33344 -25.42553)"/><path class="cls-9" d="M807.25069,973.36325,706.521,827.362c-2.445-3.544-3.0275-7.38261-1.30088-8.574h0c1.72671-1.19105,5.10843.71613,7.55341,4.26015L813.50325,969.04946c2.44522,3.54411,3.02747,7.3826,1.30109,8.574l-.00024-.00008C813.07766,978.81455,809.69568,976.90727,807.25069,973.36325Z" transform="translate(-24.33344 -25.42553)"/><path class="cls-11" d="M1155.97134,937.246a18.2133,18.2133,0,0,1-4.33018,24.64247,16.51945,16.51945,0,0,1-23.59922-4.52161,18.21347,18.21347,0,0,1,4.33018-24.64247A16.51959,16.51959,0,0,1,1155.97134,937.246Z" transform="translate(-24.33344 -25.42553)"/><path class="cls-11" d="M1233.77323,958.25869a18.21349,18.21349,0,0,1-4.33019,24.64248,16.5194,16.5194,0,0,1-23.59918-4.52161,18.21327,18.21327,0,0,1,4.33018-24.64248A16.51957,16.51957,0,0,1,1233.77323,958.25869Z" transform="translate(-24.33344 -25.42553)"/><polygon class="cls-6" points="1107.66 970.602 1098.984 965.351 1104.013 956.291 1112.689 961.543 1107.66 970.602"/><polygon class="cls-6" points="1394.825 186.628 1375.66 199.851 1377.528 223.061 1398.562 233.047 1417.728 219.824 1415.86 196.615 1394.825 186.628"/><polygon class="cls-6" points="43.677 329.096 24.511 342.319 26.379 365.529 47.414 375.516 66.58 362.293 64.711 339.083 43.677 329.096"/><polygon class="cls-6" points="19.166 764.16 0 777.383 1.868 800.593 22.903 810.579 42.069 797.356 40.2 774.147 19.166 764.16"/><polygon class="cls-6" points="941.379 583.394 922.213 596.617 924.081 619.827 945.116 629.813 964.282 616.59 962.413 593.381 941.379 583.394"/><ellipse class="cls-11" cx="1748.24102" cy="653.10638" rx="21.89347" ry="17.99071"/><ellipse class="cls-11" cx="758.624" cy="233.3617" rx="21.89347" ry="17.99071"/><ellipse class="cls-11" cx="1089.51762" cy="414.12766" rx="21.89347" ry="17.99071"/><line class="cls-10" x1="1721.21583" y1="691.87279" x2="1733.66375" y2="706.69897"/><line class="cls-10" x1="1736.46107" y1="694.17144" x2="1718.41851" y2="704.40032"/><line class="cls-12" x1="1273.825" y1="782.56769" x2="1273.825" y2="782.56769"/><line class="cls-13" x1="1277.51421" y1="784.15101" x2="1758.95721" y2="990.7735"/><line class="cls-12" x1="1760.80181" y1="991.56519" x2="1760.80181" y2="991.56519"/><line class="cls-12" x1="1204.81866" y1="763.1872" x2="1204.81866" y2="763.1872"/><line class="cls-13" x1="1208.50787" y1="764.77051" x2="1689.95086" y2="971.39307"/><line class="cls-12" x1="1691.79546" y1="972.1847" x2="1691.79546" y2="972.1847"/><line class="cls-12" x1="1135.81243" y1="743.80683" x2="1135.81243" y2="743.80683"/><line class="cls-13" x1="1139.50164" y1="745.39014" x2="1620.94451" y2="952.01264"/><line class="cls-12" x1="1622.78924" y1="952.80433" x2="1622.78924" y2="952.80433"/><polygon class="cls-8" points="1271.86 41.732 1314.824 52.068 1302.293 9.692 1271.86 41.732"/><polygon class="cls-8" points="1395.945 1014.498 1438.909 1024.834 1426.379 982.458 1395.945 1014.498"/><path class="cls-14" d="M1253.88874,646.77283c-6.744,8.22847-24.08574,6.104-38.76385-4.73274a48.39848,48.39848,0,0,1-13.09129-14.11748,25.22352,25.22352,0,0,0,3.11708-12.262,15.75545,15.75545,0,0,0,6.09217-4.14123c6.09234,1.42527,14.11135.32284,22.18727-3.22672a59.022,59.022,0,0,1,6.1489,3.95282C1254.25713,623.08237,1260.66113,638.54437,1253.88874,646.77283Z" transform="translate(-24.33344 -25.42553)"/><path class="cls-15" d="M1202.0336,627.92261a47.80873,47.80873,0,0,1-12.15616,14.76282c-13.94151,11.67052-31.14141,14.78974-38.39547,6.9647-7.25405-7.82521-1.87028-23.6368,12.07107-35.28024a57.66909,57.66909,0,0,1,5.469-4.03356,44.9055,44.9055,0,0,0,18.22013,2.12429,16.90707,16.90707,0,0,0,10.93772,4.35623A25.90414,25.90414,0,0,0,1202.0336,627.92261Z" transform="translate(-24.33344 -25.42553)"/><path class="cls-16" d="M1182.62339,602.21537a10.63326,10.63326,0,0,0,.17,1.90911,47.55612,47.55612,0,0,0-13.77133,6.21185,54.02782,54.02782,0,0,1-6.68747-2.55462c-16.7466-7.61-26.49424-21.40484-21.73379-30.8165,4.73209-9.38473,22.1589-10.83675,38.93386-3.22688.56676.269,1.13352.51092,1.67191.80668a36.30909,36.30909,0,0,0,6.97059,16.64518A14.00477,14.00477,0,0,0,1182.62339,602.21537Z" transform="translate(-24.33344 -25.42553)"/><path class="cls-17" d="M1241.78932,603.77506a55.07572,55.07572,0,0,1-8.3592,4.51757,43.39431,43.39431,0,0,0-18.532-5.72767,1.45612,1.45612,0,0,0,.02837-.34959,13.83575,13.83575,0,0,0-3.82532-9.43857c4.4488-4.57141,7.67917-11.88552,8.75578-20.49049,15.13159-9.62682,32.16165-10.62176,38.31055-2.17812C1264.42989,578.68624,1257.09074,593.77173,1241.78932,603.77506Z" transform="translate(-24.33344 -25.42553)"/><path class="cls-18" d="M1220.25373,565.9402a51.284,51.284,0,0,1-.39675,6.34611c-.22656.13442-.4533.29575-.68.43017-6.88567,4.54449-12.18451,10.08391-15.30142,15.62333a16.68278,16.68278,0,0,0-5.10048-.77976,5.45111,5.45111,0,0,0-.93514.05383,46.81118,46.81118,0,0,0-16.63332-13.06887,47.06891,47.06891,0,0,1-.76513-8.60481c0-17.64011,8.926-31.91892,19.92041-31.91892C1211.32794,534.02128,1220.25373,548.30009,1220.25373,565.9402Z" transform="translate(-24.33344 -25.42553)"/><path class="cls-19" d="M1214.92652,602.21537a1.45612,1.45612,0,0,1-.02837.34959,13.71018,13.71018,0,0,1-3.6553,8.95439,15.75545,15.75545,0,0,1-6.09217,4.14123,17.72736,17.72736,0,0,1-6.37564,1.18319,4.40393,4.40393,0,0,1-.59512-.02692,16.90707,16.90707,0,0,1-10.93772-4.35623,13.97885,13.97885,0,0,1-4.4488-8.33614,10.63326,10.63326,0,0,1-.17-1.90911,14.00477,14.00477,0,0,1,5.55378-11.02518,16.564,16.564,0,0,1,9.66273-3.57631,5.45111,5.45111,0,0,1,.93514-.05383,16.68278,16.68278,0,0,1,5.10048.77976,15.74586,15.74586,0,0,1,7.22568,4.437A13.83575,13.83575,0,0,1,1214.92652,602.21537Z" transform="translate(-24.33344 -25.42553)"/><path class="cls-14" d="M152.44194,138.17709c-6.744,8.22846-24.08574,6.104-38.76386-4.73275a48.39846,48.39846,0,0,1-13.09129-14.11747,25.22355,25.22355,0,0,0,3.11708-12.262,15.75566,15.75566,0,0,0,6.09217-4.14123c6.09235,1.42527,14.11136.32283,22.18727-3.22672a59.02349,59.02349,0,0,1,6.1489,3.95281C152.81032,114.48662,159.21432,129.94862,152.44194,138.17709Z" transform="translate(-24.33344 -25.42553)"/><path class="cls-15" d="M100.58679,119.32687a47.80894,47.80894,0,0,1-12.15615,14.76282c-13.94152,11.67052-31.14142,14.78973-38.39547,6.96469-7.25406-7.82521-1.87029-23.63679,12.07106-35.28023a57.66863,57.66863,0,0,1,5.469-4.03356,44.90548,44.90548,0,0,0,18.22013,2.12428,16.9071,16.9071,0,0,0,10.93772,4.35624A25.90419,25.90419,0,0,0,100.58679,119.32687Z" transform="translate(-24.33344 -25.42553)"/><path class="cls-16" d="M81.17658,93.61962a10.63337,10.63337,0,0,0,.17,1.90912,47.55585,47.55585,0,0,0-13.77133,6.21185A54.0301,54.0301,0,0,1,60.88779,99.186c-16.7466-7.61-26.49424-21.40484-21.73379-30.81649,4.73209-9.38473,22.1589-10.83676,38.93387-3.22688.56675.269,1.13351.51092,1.67191.80668a36.30907,36.30907,0,0,0,6.97058,16.64518A14.00475,14.00475,0,0,0,81.17658,93.61962Z" transform="translate(-24.33344 -25.42553)"/><path class="cls-17" d="M140.34251,95.17931a55.0758,55.0758,0,0,1-8.3592,4.51758,43.39434,43.39434,0,0,0-18.532-5.72768,1.456,1.456,0,0,0,.02837-.34959,13.83574,13.83574,0,0,0-3.82531-9.43856c4.44879-4.57141,7.67916-11.88553,8.75577-20.4905,15.13159-9.62682,32.16165-10.62175,38.31055-2.17812C162.98308,70.0905,155.64394,85.176,140.34251,95.17931Z" transform="translate(-24.33344 -25.42553)"/><path class="cls-18" d="M118.80692,57.34446a51.28189,51.28189,0,0,1-.39675,6.3461c-.22656.13442-.4533.29576-.68.43018-6.88566,4.54449-12.18451,10.08391-15.30142,15.62333a16.68247,16.68247,0,0,0-5.10048-.77976,5.45111,5.45111,0,0,0-.93514.05383A46.811,46.811,0,0,0,79.75978,65.94927a47.069,47.069,0,0,1-.76514-8.60481c0-17.64012,8.926-31.91893,19.92041-31.91893C109.88113,25.42553,118.80692,39.70434,118.80692,57.34446Z" transform="translate(-24.33344 -25.42553)"/><path class="cls-19" d="M113.47971,93.61962a1.456,1.456,0,0,1-.02837.34959,13.71015,13.71015,0,0,1-3.6553,8.9544,15.75566,15.75566,0,0,1-6.09217,4.14123,17.72757,17.72757,0,0,1-6.37564,1.18318,4.40556,4.40556,0,0,1-.59512-.02691,16.9071,16.9071,0,0,1-10.93772-4.35624,13.97883,13.97883,0,0,1-4.4488-8.33613,10.63337,10.63337,0,0,1-.17-1.90912,14.00475,14.00475,0,0,1,5.55378-11.02517,16.564,16.564,0,0,1,9.66273-3.57631,5.45111,5.45111,0,0,1,.93514-.05383,16.68247,16.68247,0,0,1,5.10048.77976,15.74594,15.74594,0,0,1,7.22569,4.437A13.83574,13.83574,0,0,1,113.47971,93.61962Z" transform="translate(-24.33344 -25.42553)"/><path class="cls-20" d="M746.44383,652.01939a6.00053,6.00053,0,1,1-6-6.08A6.04361,6.04361,0,0,1,746.44383,652.01939Z" transform="translate(-24.33344 -25.42553)"/><path class="cls-21" d="M762.44383,645.42936a5.57373,5.57373,0,1,1-5.57-5.37A5.4658,5.4658,0,0,1,762.44383,645.42936Z" transform="translate(-24.33344 -25.42553)"/><path class="cls-20" d="M762.96385,658.5294a4.81026,4.81026,0,1,1-4.81-4.76A4.79069,4.79069,0,0,1,762.96385,658.5294Z" transform="translate(-24.33344 -25.42553)"/><path class="cls-21" d="M757.08385,666.23936c-6.48,0-11.74,4.91-11.74,10.97,0,6.07,5.26,10.98,11.74,10.98,6.49,0,11.75-4.91,11.75-10.98C768.83385,671.1494,763.57384,666.23936,757.08385,666.23936Zm3.66,14.97c-1.83,0-3.32-2.11-3.32-4.72,0-2.61,1.49-4.72,3.32-4.72,1.84,0,3.32,2.11,3.32,4.72C764.06383,679.09941,762.58385,681.20939,760.74382,681.20939Z" transform="translate(-24.33344 -25.42553)"/><ellipse class="cls-20" cx="736.41038" cy="651.06385" rx="3.32001" ry="4.72002"/><path class="cls-21" d="M787.72386,668.57939a12.63572,12.63572,0,1,0,12.77,12.63A12.69066,12.69066,0,0,0,787.72386,668.57939Zm3.83,20.46c-1.97,0-3.56995-2.87006-3.56995-6.42s1.6-6.43,3.56995-6.43c1.98,0,3.58,2.88,3.58,6.43S793.53386,689.03941,791.55382,689.03941Z" transform="translate(-24.33344 -25.42553)"/><path class="cls-20" d="M795.13384,682.61937c0,3.55-1.6,6.42-3.58,6.42-1.97,0-3.56995-2.87006-3.56995-6.42s1.6-6.43,3.56995-6.43C793.53386,676.18937,795.13384,679.06938,795.13384,682.61937Z" transform="translate(-24.33344 -25.42553)"/><ellipse class="cls-20" cx="736.41038" cy="651.06385" rx="3.32001" ry="4.72002"/><path class="cls-20" d="M795.13384,682.61937c0,3.55-1.6,6.42-3.58,6.42-1.97,0-3.56995-2.87006-3.56995-6.42s1.6-6.43,3.56995-6.43C793.53386,676.18937,795.13384,679.06938,795.13384,682.61937Z" transform="translate(-24.33344 -25.42553)"/><path class="cls-21" d="M789.91387,647.84941a6.20605,6.20605,0,1,1-6.19-5.76A5.988,5.988,0,0,1,789.91387,647.84941Z" transform="translate(-24.33344 -25.42553)"/><line class="cls-20" x1="965.04243" y1="854.45247" x2="965.04243" y2="854.45067"/><line class="cls-20" x1="951.28878" y1="858.47327" x2="951.2064" y2="858.38144"/><polygon class="cls-22" points="994.106 878.05 963.326 890.03 956.296 885.87 947.076 880.4 944.806 879.06 961.736 858.47 965.046 854.45 951.206 858.38 939.746 845.6 979.696 845.6 973.916 858.47 967.986 871.66 964.796 878.75 976.546 878.47 980.746 868.04 985.396 878.26 994.106 878.05"/><line class="cls-20" x1="964.7953" y1="878.75015" x2="964.77592" y2="878.79336"/><line class="cls-20" x1="981.59043" y1="850.34523" x2="981.55005" y2="850.45687"/><polygon class="cls-22" points="985.156 864.04 976.646 864.04 979.886 855.08 979.886 855.07 981.546 850.46 983.686 858.53 985.156 864.04"/><line class="cls-20" x1="980.74405" y1="868.03821" x2="980.74405" y2="868.03641"/><line class="cls-20" x1="980.74405" y1="868.03821" x2="980.74405" y2="868.03641"/><line class="cls-20" x1="965.04243" y1="854.45247" x2="965.04243" y2="854.45067"/><text class="cls-23" transform="translate(940.24868 901.01288) scale(0.89703 1)">Z MAN OF A<tspan class="cls-24" x="50.60047" y="0">R</tspan><tspan x="56.19619" y="0">T</tspan></text><line class="cls-20" x1="104.10626" y1="641.5163" x2="104.10626" y2="641.5145"/><line class="cls-20" x1="90.35261" y1="645.5371" x2="90.27023" y2="645.44527"/><polygon class="cls-22" points="133.17 665.113 102.39 677.093 95.36 672.933 86.14 667.463 83.869 666.123 100.8 645.533 104.11 641.513 90.27 645.443 78.809 632.663 118.759 632.663 112.98 645.533 107.05 658.723 103.86 665.813 115.61 665.533 119.809 655.103 124.46 665.323 133.17 665.113"/><line class="cls-20" x1="103.85913" y1="665.81398" x2="103.83975" y2="665.85719"/><line class="cls-20" x1="120.65426" y1="637.40906" x2="120.61388" y2="637.5207"/><polygon class="cls-22" points="124.22 651.103 115.71 651.103 118.949 642.143 118.949 642.133 120.61 637.523 122.749 645.593 124.22 651.103"/><line class="cls-20" x1="119.80788" y1="655.10204" x2="119.80788" y2="655.10024"/><line class="cls-20" x1="119.80788" y1="655.10204" x2="119.80788" y2="655.10024"/><line class="cls-20" x1="104.10626" y1="641.5163" x2="104.10626" y2="641.5145"/><text class="cls-23" transform="translate(79.31249 688.07671) scale(0.89703 1)">Z MAN OF A<tspan class="cls-24" x="50.60047" y="0">R</tspan><tspan x="56.19619" y="0">T</tspan></text><line class="cls-20" x1="1781.69903" y1="462.80804" x2="1781.69903" y2="462.80624"/><line class="cls-20" x1="1767.94537" y1="466.82884" x2="1767.863" y2="466.73701"/><polygon class="cls-22" points="1810.762 486.405 1779.982 498.385 1772.952 494.225 1763.732 488.755 1761.462 487.415 1778.392 466.825 1781.702 462.805 1767.862 466.735 1756.402 453.955 1796.352 453.955 1790.572 466.825 1784.642 480.015 1781.452 487.105 1793.202 486.825 1797.402 476.395 1802.052 486.615 1810.762 486.405"/><line class="cls-20" x1="1781.4519" y1="487.10572" x2="1781.43251" y2="487.14894"/><line class="cls-20" x1="1798.24702" y1="458.70081" x2="1798.20664" y2="458.81244"/><polygon class="cls-22" points="1801.812 472.395 1793.302 472.395 1796.542 463.435 1796.542 463.425 1798.202 458.815 1800.342 466.885 1801.812 472.395"/><line class="cls-20" x1="1797.40064" y1="476.39378" x2="1797.40064" y2="476.39198"/><line class="cls-20" x1="1797.40064" y1="476.39378" x2="1797.40064" y2="476.39198"/><line class="cls-20" x1="1781.69903" y1="462.80804" x2="1781.69903" y2="462.80624"/><text class="cls-23" transform="translate(1756.90533 509.36846) scale(0.89703 1)">Z MAN OF A<tspan class="cls-24" x="50.60047" y="0">R</tspan><tspan x="56.19619" y="0">T</tspan></text><line class="cls-20" x1="1534.94422" y1="775.14894" x2="1534.79422" y2="775.14894"/><line class="cls-20" x1="1534.94422" y1="778.63894" x2="1534.94422" y2="775.14894"/><line class="cls-20" x1="1534.94422" y1="778.63894" x2="1534.79422" y2="778.63894"/><polygon class="cls-25" points="1534.794 778.639 1534.794 802.389 1511.294 778.639 1534.794 778.639"/><polygon class="cls-26" points="1534.794 751.959 1534.794 775.149 1511.614 775.149 1534.794 751.959"/><polygon class="cls-27" points="1556.444 775.149 1534.944 775.149 1534.944 751.809 1535.174 751.579 1556.444 775.149"/><polygon class="cls-28" points="1556.614 778.639 1534.944 802.409 1534.944 778.639 1556.614 778.639"/><line class="cls-20" x1="1534.79422" y1="778.63894" x2="1534.79422" y2="775.14894"/><path class="cls-20" d="M980.4,341.41c-5.6,0-10.15,4.23-10.15,9.45,0,5.21,4.55,9.44,10.15,9.44,5.61,0,10.15-4.23,10.15-9.44C990.55,345.64,986.01,341.41,980.4,341.41Zm.16,14.75a5.20518,5.20518,0,1,1,5.25-5.21A5.22811,5.22811,0,0,1,980.56,356.16Z" transform="translate(-24.33344 -25.42553)"/><path class="cls-29" d="M985.81,350.95a5.25024,5.25024,0,1,1-5.25-5.2A5.22811,5.22811,0,0,1,985.81,350.95Z" transform="translate(-24.33344 -25.42553)"/><path class="cls-20" d="M1019.59,306.94c-5.6,0-10.15,4.23-10.15,9.45,0,5.21,4.55,9.44,10.15,9.44,5.60992,0,10.15-4.23,10.15-9.44C1029.74,311.17,1025.2,306.94,1019.59,306.94Zm.16,14.75a5.20025,5.20025,0,1,1,5.25-5.2A5.22606,5.22606,0,0,1,1019.75,321.69Z" transform="translate(-24.33344 -25.42553)"/><ellipse class="cls-29" cx="995.41656" cy="291.06446" rx="5.25" ry="5.20001"/><path class="cls-20" d="M1020.74,341.28c-5.6,0-10.15,4.23-10.15,9.45,0,5.22,4.55,9.44,10.15,9.44,5.61,0,10.15-4.22,10.15-9.44C1030.89,345.51,1026.35,341.28,1020.74,341.28Zm.16,14.75a5.20022,5.20022,0,1,1,5.25-5.2A5.226,5.226,0,0,1,1020.9,356.03Z" transform="translate(-24.33344 -25.42553)"/><ellipse class="cls-29" cx="996.56658" cy="325.40444" rx="5.25" ry="5.2"/><path class="cls-20" d="M978.61,306.94c-5.6,0-10.14,4.23-10.14,9.45,0,5.21,4.54,9.44,10.14,9.44,5.61,0,10.15-4.23,10.15-9.44C988.76,311.17,984.22,306.94,978.61,306.94Zm.16,14.75a5.20025,5.20025,0,1,1,5.25-5.2A5.22606,5.22606,0,0,1,978.77,321.69Z" transform="translate(-24.33344 -25.42553)"/><ellipse class="cls-29" cx="954.43658" cy="291.06446" rx="5.25" ry="5.20001"/><path class="cls-20" d="M1000.7,323.79c-5.61,0-10.15,4.23-10.15,9.45,0,5.22,4.54,9.45,10.15,9.45,5.6,0,10.15-4.23,10.15-9.45C1010.85,328.02,1006.3,323.79,1000.7,323.79Zm.16,14.75a5.20022,5.20022,0,1,1,5.25-5.2A5.2261,5.2261,0,0,1,1000.86,338.54Z" transform="translate(-24.33344 -25.42553)"/><ellipse class="cls-29" cx="976.52654" cy="307.91445" rx="5.25" ry="5.2"/><polygon class="cls-21" points="1669.976 71.957 1658.336 86.777 1658.306 86.817 1645.716 72.077 1645.816 71.957 1658.336 57.447 1658.516 57.237 1669.976 71.957"/><polygon class="cls-21" points="1712.026 71.447 1712.026 71.457 1700.376 86.267 1700.356 86.307 1687.756 71.567 1687.866 71.447 1700.376 56.937 1700.556 56.727 1712.026 71.447"/><polygon class="cls-21" points="1690.366 85.937 1678.726 100.767 1678.696 100.797 1666.106 86.057 1666.206 85.937 1678.726 71.427 1678.906 71.227 1690.366 85.937"/><line class="cls-20" x1="1690.37622" y1="85.95716" x2="1690.36622" y2="85.93716"/><line class="cls-20" x1="1700.37622" y1="86.34716" x2="1700.35622" y2="86.30716"/><line class="cls-20" x1="1669.98622" y1="71.96716" x2="1669.97622" y2="71.95716"/><path class="cls-20" d="M1735.99965,129.50271a10.3038,10.3038,0,1,1-10.29-10.73A10.51384,10.51384,0,0,1,1735.99965,129.50271Z" transform="translate(-24.33344 -25.42553)"/><ellipse class="cls-20" cx="1659.58623" cy="105.26716" rx="10.55003" ry="9.87001"/><path class="cls-20" d="M1710.97969,135.11269a4.95844,4.95844,0,1,1-4.93-5.44A5.21142,5.21142,0,0,1,1710.97969,135.11269Z" transform="translate(-24.33344 -25.42553)"/><polygon class="cls-20" points="539.263 963.927 541.833 977.847 529.753 971.517 517.953 978.387 519.943 964.357 510.083 954.687 523.393 952.347 529.103 939.497 535.333 952.077 548.723 953.807 539.263 963.927"/><ellipse class="cls-20" cx="547.98305" cy="937.38681" rx="7.12" ry="7.98999"/><path class="cls-21" d="M587.19649,997.91232c0,5.03-3.54,9.1-7.92,9.1s-7.93005-4.07-7.93005-9.1c0-5.02,3.55005-9.09,7.93005-9.09S587.19649,992.8923,587.19649,997.91232Z" transform="translate(-24.33344 -25.42553)"/><ellipse class="cls-21" cx="507.53305" cy="939.42679" rx="9.70998" ry="10.37"/><path class="cls-20" d="M536.39651,995.79232a7.61429,7.61429,0,1,1-7.6-7.99A7.80239,7.80239,0,0,1,536.39651,995.79232Z" transform="translate(-24.33344 -25.42553)"/><path class="cls-20" d="M559.69649,1006.92233a4.45167,4.45167,0,1,1-4.45-4.33A4.39257,4.39257,0,0,1,559.69649,1006.92233Z" transform="translate(-24.33344 -25.42553)"/><path class="cls-30" d="M511.29787,486.213a20.32312,20.32312,0,0,1-7.78571,15.78181,27.07177,27.07177,0,0,0-19.72794-8.31978,26.719,26.719,0,0,0-5.45429.53606,13.15429,13.15429,0,0,0-.72582-1.17932,27.05391,27.05391,0,0,0,4.26671-14.73114,27.74555,27.74555,0,0,0-2.57318-11.70777,25.02555,25.02555,0,0,1,8.75329-1.58675C500.87307,465.00615,511.29787,474.50527,511.29787,486.213Z" transform="translate(-24.33344 -25.42553)"/><path class="cls-31" d="M441.843,491.7453a20.50028,20.50028,0,0,0-3.87084,8.14821A24.76335,24.76335,0,0,0,422.071,511.75127c-10.24895-2.46584-17.83654-11.25743-17.83654-21.67857,0-12.41529,10.71073-22.47193,23.8847-22.47193a25.0323,25.0323,0,0,1,11.41453,2.70181A27.84511,27.84511,0,0,0,441.843,491.7453Z" transform="translate(-24.33344 -25.42553)"/><path class="cls-16" d="M465.52981,535.59557a24.5528,24.5528,0,0,1-22.03734,13.74486,25.06574,25.06574,0,0,1-5.52034-49.44692,19.72259,19.72259,0,0,0-.46177,4.28854c0,11.25743,9.369,20.41339,21.06949,20.73508A23.83509,23.83509,0,0,0,465.52981,535.59557Z" transform="translate(-24.33344 -25.42553)"/><path class="cls-15" d="M479.29764,466.5929c-7.80773,2.87338-13.52594,9.542-14.3617,17.54013a23.48239,23.48239,0,0,0-5.67431-.70752,22.04383,22.04383,0,0,0-7.91753,1.43663,22.88763,22.88763,0,0,0-11.8104-14.55956c2.90313-9.82081,10.99666-16.85409,20.5857-16.85409C468.41092,453.44849,475.62466,458.78784,479.29764,466.5929Z" transform="translate(-24.33344 -25.42553)"/><path class="cls-18" d="M510.00021,518.09836c0,13.48743-11.72234,24.40183-26.216,24.40183a27.02075,27.02075,0,0,1-18.25441-6.90462,25.00671,25.00671,0,0,0,2.68312-11.30023,6.827,6.827,0,0,0-.06591-1.158,20.89181,20.89181,0,0,0,12.75609-16.76823,25.11106,25.11106,0,0,0,7.14782,1.02934,24.34448,24.34448,0,0,0,15.46123-5.40361A23.4671,23.4671,0,0,1,510.00021,518.09836Z" transform="translate(-24.33344 -25.42553)"/><path class="cls-19" d="M481.01305,504.18205c0,.729-.044,1.45809-.10994,2.18707A20.89181,20.89181,0,0,1,468.147,523.13735a22.55837,22.55837,0,0,1-8.88539,1.80124c-.21988,0-.46177,0-.68178-.02146-11.70046-.32169-21.06949-9.47765-21.06949-20.73508a19.72259,19.72259,0,0,1,.46177-4.28854,20.50028,20.50028,0,0,1,3.87084-8.14821,21.57439,21.57439,0,0,1,9.50113-6.88316,22.04383,22.04383,0,0,1,7.91753-1.43663,23.48239,23.48239,0,0,1,5.67431.70752,21.76175,21.76175,0,0,1,12.66817,8.89878,13.15429,13.15429,0,0,1,.72582,1.17932A19.768,19.768,0,0,1,481.01305,504.18205Z" transform="translate(-24.33344 -25.42553)"/><path class="cls-19" d="M422.071,511.75134a23.35558,23.35558,0,0,0,6.04816.77194,24.54589,24.54589,0,0,0,10.31486-2.23" transform="translate(-24.33344 -25.42553)"/><path class="cls-19" d="M477.6041,493.03184a.02117.02117,0,0,0-.022.02144" transform="translate(-24.33344 -25.42553)"/><line class="cls-19" x1="440.60251" y1="458.72902" x2="440.60251" y2="458.70758"/><line class="cls-19" x1="434.24645" y1="499.49164" x2="434.24645" y2="499.4702"/><path class="cls-19" d="M468.147,523.13743v-.04289" transform="translate(-24.33344 -25.42553)"/><rect class="cls-18" x="1557.75987" y="559.22653" width="95.56604" height="24.62519"/><rect class="cls-18" x="1600.09128" y="596.88303" width="8.31988" height="14.73344"/><rect class="cls-19" x="1599.58274" y="511.65957" width="10.10985" height="39.58559"/><ellipse class="cls-18" cx="1566.20176" cy="537.60861" rx="17.00586" ry="15.33868"/><path class="cls-18" d="M1683.21277,562.183c0,8.47325-7.6282,15.3388-17.02626,15.3388-9.37757,0-17.00577-6.86555-17.00577-15.3388,0-8.45421,7.6282-15.31975,17.00577-15.31975C1675.58457,546.86327,1683.21277,553.72881,1683.21277,562.183Z" transform="translate(-24.33344 -25.42553)"/><path class="cls-32" d="M346.468,857.762a9.78217,9.78217,0,0,1,.839,1.041c.15527.22693.19.33752.1528.37866-.04331.03522-.1543.00513-.38748-.14288a9.78535,9.78535,0,0,1-1.06632-.7981l-.14389-.13891c.01523-.13935.10791-.204.15918-.3086.10242-.05523.16376-.15014.3028-.17Z" transform="translate(-24.33344 -25.42553)"/><path class="cls-32" d="M454.43939,857.812l-1.12607.70154c-.23.14032-.32409.18548-.32409.18548a2.57149,2.57149,0,0,1,.30737-.22082l1.1008-.73145.16818-.10821c.0792-.03558.06787-.01294.10492-.02136-.02267.03.00263.029-.0629.08661Z" transform="translate(-24.33344 -25.42553)"/><path class="cls-32" d="M454.48151,857.7926c-4.50357.38544-9.00714.55091-13.51068.83338l-13.51072.4743c-4.50354.19269-9.00711.20075-13.51068.302l-13.51068.0893c-9.00711-.04273-18.01425-.08649-27.02136-.39728l-13.51068-.47321c-4.50357-.28027-9.00711-.44555-13.51068-.82849v-.2l54.04272-.09967,54.04276.09967Z" transform="translate(-24.33344 -25.42553)"/><path class="cls-32" d="M402.50223,799.647c.3855,4.88971.551,9.77942.83337,14.66913l.47431,14.66913c.19271,4.88971.20074,9.77942.302,14.66907l.08926,14.66913c-.04269,9.77942-.08645,19.55883-.39728,29.33825l-.4732,14.66913c-.28024,4.88971-.44556,9.77942-.82849,14.66913h-.2l-.0997-58.67651.0997-58.67646Z" transform="translate(-24.33344 -25.42553)"/><path class="cls-32" d="M393.83783,839.88025a11.23762,11.23762,0,0,1-.58209,3.73694,11.07186,11.07186,0,0,1-1.763,3.39795,9.3959,9.3959,0,0,1-6.825,3.86407,9.82018,9.82018,0,0,1-7.75644-3.064,11.29928,11.29928,0,0,1-2.31244-3.67029,12.74789,12.74789,0,0,1-.79956-4.26465,12.87737,12.87737,0,0,1,.8023-4.26367,11.46668,11.46668,0,0,1,2.31522-3.66651,9.839,9.839,0,0,1,7.75092-3.06067,9.40078,9.40078,0,0,1,6.82312,3.85755,11.10081,11.10081,0,0,1,1.76446,3.39654A11.23646,11.23646,0,0,1,393.83783,839.88025Zm-.2,0a10.56933,10.56933,0,0,0-2.49668-6.833,8.30591,8.30591,0,0,0-12.909.03247,10.71336,10.71336,0,0,0,.00036,13.60071,8.30566,8.30566,0,0,0,12.90851.03265A10.56929,10.56929,0,0,0,393.63785,839.88025Z" transform="translate(-24.33344 -25.42553)"/><path class="cls-32" d="M426.63312,840.158a11.23786,11.23786,0,0,1-.58209,3.73694,11.07256,11.07256,0,0,1-1.763,3.398,9.3958,9.3958,0,0,1-6.825,3.864,9.82018,9.82018,0,0,1-7.75644-3.064,11.29832,11.29832,0,0,1-2.31243-3.67023,12.74815,12.74815,0,0,1-.79957-4.26465,12.8771,12.8771,0,0,1,.80231-4.26367,11.46738,11.46738,0,0,1,2.31519-3.66657,9.839,9.839,0,0,1,7.75094-3.0606,9.40066,9.40066,0,0,1,6.82312,3.85748,11.10264,11.10264,0,0,1,1.76447,3.39654A11.23681,11.23681,0,0,1,426.63312,840.158Zm-.2,0a10.56948,10.56948,0,0,0-2.49671-6.833,8.30591,8.30591,0,0,0-12.909.03247,10.71346,10.71346,0,0,0,.00036,13.60071,8.30556,8.30556,0,0,0,12.90851.03265A10.56916,10.56916,0,0,0,426.43314,840.158Z" transform="translate(-24.33344 -25.42553)"/><path class="cls-32" d="M394.46338,876.35663a11.23789,11.23789,0,0,1-.58212,3.73694,11.07207,11.07207,0,0,1-1.763,3.398,9.39609,9.39609,0,0,1-6.825,3.86407,9.82017,9.82017,0,0,1-7.75644-3.064,11.29915,11.29915,0,0,1-2.3124-3.67028,12.74717,12.74717,0,0,1-.79959-4.26465,12.87683,12.87683,0,0,1,.8023-4.26367,11.46709,11.46709,0,0,1,2.31522-3.66651,9.839,9.839,0,0,1,7.75091-3.06067,9.40052,9.40052,0,0,1,6.82312,3.85755,11.101,11.101,0,0,1,1.76447,3.39648A11.23761,11.23761,0,0,1,394.46338,876.35663Zm-.2,0a10.56933,10.56933,0,0,0-2.49668-6.83295,8.30591,8.30591,0,0,0-12.909.03247,10.71327,10.71327,0,0,0,.00036,13.60065,8.30561,8.30561,0,0,0,12.90851.03271A10.56942,10.56942,0,0,0,394.26337,876.35663Z" transform="translate(-24.33344 -25.42553)"/><path class="cls-32" d="M426.90121,878.02307a11.23738,11.23738,0,0,1-.58212,3.73694,11.07177,11.07177,0,0,1-1.763,3.398,9.39607,9.39607,0,0,1-6.825,3.86407,9.82048,9.82048,0,0,1-7.75641-3.064,11.29941,11.29941,0,0,1-2.31244-3.67029,12.74742,12.74742,0,0,1-.79959-4.26465,12.8771,12.8771,0,0,1,.80231-4.26367,11.46647,11.46647,0,0,1,2.31521-3.6665,9.83882,9.83882,0,0,1,7.75092-3.06067,9.40055,9.40055,0,0,1,6.82312,3.85748,11.10305,11.10305,0,0,1,1.7645,3.39654A11.23859,11.23859,0,0,1,426.90121,878.02307Zm-.2,0a10.5694,10.5694,0,0,0-2.49667-6.833,8.30592,8.30592,0,0,0-12.909.03247,10.71337,10.71337,0,0,0,.00037,13.60071,8.3056,8.3056,0,0,0,12.90851.03272A10.56922,10.56922,0,0,0,426.7012,878.02307Z" transform="translate(-24.33344 -25.42553)"/><path class="cls-32" d="M334.14819,898.15912a12.07307,12.07307,0,0,0,4.24686,9.07391,13.62051,13.62051,0,0,0,4.41742,2.52259,14.07216,14.07216,0,0,0,4.99042.68743l2.09854-.08178-1.81223,1.1532a14.607,14.607,0,0,1-9.09451,2.20855,15.88415,15.88415,0,0,1-4.68762-1.181,17.324,17.324,0,0,1-4.12766-2.58618,19.47019,19.47019,0,0,1-3.24542-3.66656,20.29145,20.29145,0,0,1-2.09109-4.44281,19.56969,19.56969,0,0,1-.56113-9.749,18.771,18.771,0,0,1,1.5748-4.69476,19.75222,19.75222,0,0,1,2.791-4.11328,16.22543,16.22543,0,0,1,8.49658-5.01776,15.21238,15.21238,0,0,1,9.67057,1.15008,16.50688,16.50688,0,0,1,6.96826,6.42133l1.3035,2.168-2.25721-.9867a13.94434,13.94434,0,0,0-6.13675-1.15088,13.08685,13.08685,0,0,0-6.11465,1.69013,12.56749,12.56749,0,0,0-4.64984,4.40857A12.37776,12.37776,0,0,0,334.14819,898.15912Zm-.2,0a12.61294,12.61294,0,0,1,1.75-6.32428,13.42514,13.42514,0,0,1,4.66827-4.62671,14.37561,14.37561,0,0,1,6.27573-1.98541,14.75812,14.75812,0,0,1,6.52545.92309l-.17212.2132a15.39208,15.39208,0,0,0-6.70916-5.70892,13.7943,13.7943,0,0,0-8.73-.70539,14.78149,14.78149,0,0,0-7.45889,4.62335,17.80105,17.80105,0,0,0-2.46213,3.7035,19.10905,19.10905,0,0,0-1.419,4.21807,18.02047,18.02047,0,0,0,2.17209,12.91047,17.88624,17.88624,0,0,0,2.81375,3.4508,15.925,15.925,0,0,0,3.6691,2.51276,14.69036,14.69036,0,0,0,4.2604,1.26056,13.70824,13.70824,0,0,0,8.60388-1.72431l.06739.2522a14.44732,14.44732,0,0,1-9.63739-3.66516,13.01319,13.01319,0,0,1-3.10645-4.21478A12.18957,12.18957,0,0,1,333.94818,898.15912Z" transform="translate(-24.33344 -25.42553)"/><path class="cls-32" d="M356.027,818.23376c-.1409-.1419-.34165-.30011-.513-.49841-.166-.19055-.29572-.314-.44461-.47357a12.00059,12.00059,0,0,0-.91529-.848,13.95429,13.95429,0,0,0-2.01318-1.41223,9.9858,9.9858,0,0,0-4.56427-1.31629,10.47426,10.47426,0,0,0-8.16846,3.70148,14.93382,14.93382,0,0,0-3.50561,8.46619A16.6714,16.6714,0,0,0,337.325,834.868l1.78726,3.79236-3.96646-1.50787a17.05751,17.05751,0,0,1-7.44964-5.72809,18.88883,18.88883,0,0,1-3.55921-8.618,20.17838,20.17838,0,0,1,.8262-9.24585,18.41382,18.41382,0,0,1,5.08609-7.77478,15.48061,15.48061,0,0,1,8.42453-3.88214,16.45046,16.45046,0,0,1,2.33286-.13373,16.1347,16.1347,0,0,1,2.31146.25439,14.41522,14.41522,0,0,1,4.3472,1.50067,13.97251,13.97251,0,0,1,3.65561,2.68616,16.11723,16.11723,0,0,1,2.69675,3.56165,17.237,17.237,0,0,1,1.68423,4.06341l.26123,1.0611c.06433.35827.1073.72058.16123,1.07831l.07647.53656c.01712.19629.02594.40728.02909.61016C356.03445,817.53613,356.00723,817.90179,356.027,818.23376Zm-.06818-.188-.203-.98987a9.26962,9.26962,0,0,0-.18808-1.00659c-.07923-.34516-.147-.6933-.23541-1.03589l-.31806-1.01368a16.62644,16.62644,0,0,0-1.83673-3.81555,15.26414,15.26414,0,0,0-2.73349-3.22674,14.03384,14.03384,0,0,0-3.49719-2.36481,13.1646,13.1646,0,0,0-4.02713-1.24249,14.77536,14.77536,0,0,0-2.1069-.16278,15.02455,15.02455,0,0,0-2.10395.192,14.378,14.378,0,0,0-7.47116,3.69214,17.81542,17.81542,0,0,0-1.96658,23.18628,15.35518,15.35518,0,0,0,6.563,5.14618l-.2233.23407a18.32927,18.32927,0,0,1-1.36615-10.0094,16.40051,16.40051,0,0,1,4.21631-9.141,12.23528,12.23528,0,0,1,4.17648-2.90436,10.58542,10.58542,0,0,1,5.02255-.75037,10.72224,10.72224,0,0,1,4.78473,1.69581,12.53459,12.53459,0,0,1,1.987,1.60278,12.4006,12.4006,0,0,1,.86578.9386c.12845.16131.28312.3377.39.48669A5.17188,5.17188,0,0,1,355.95883,818.04572Z" transform="translate(-24.33344 -25.42553)"/><path class="cls-32" d="M467.95837,818.96649a18.85468,18.85468,0,0,1-2.78942,9.97119,17.72641,17.72641,0,0,1-3.4419,4.01587,15.098,15.098,0,0,1-4.62375,2.74365l-2.7305,1.00849,2.0521-2.158a15.13978,15.13978,0,0,0,4.073-9.42426,16.08138,16.08138,0,0,0-2.50009-9.6568,14.96868,14.96868,0,0,0-3.34253-3.59771,13.15952,13.15952,0,0,0-4.324-2.1352,12.44262,12.44262,0,0,0-9.41641,1.16407L435.18335,814.15l3.56757-5.43188a16.59794,16.59794,0,0,1,8.493-6.63355,14.93084,14.93084,0,0,1,5.32443-.77758,15.38026,15.38026,0,0,1,5.16711,1.16137,14.63709,14.63709,0,0,1,4.36182,2.83136,17.20366,17.20366,0,0,1,3.24594,3.96356,21.48423,21.48423,0,0,1,1.97754,4.68171A20.76743,20.76743,0,0,1,467.95837,818.96649Zm-.2,0a20.54322,20.54322,0,0,0-.68658-4.95154,18.74332,18.74332,0,0,0-2.03818-4.55633,15.38828,15.38828,0,0,0-7.57184-6.25281,14.49291,14.49291,0,0,0-4.88589-.86218,13.77912,13.77912,0,0,0-4.86826.94122,15.39149,15.39149,0,0,0-7.46081,6.35333l-.24122-.24292a13.75449,13.75449,0,0,1,10.84235-1.57537,14.87391,14.87391,0,0,1,8.72452,6.682,16.99185,16.99185,0,0,1,2.29516,10.78394,16.25292,16.25292,0,0,1-4.875,9.85962l-.13815-.23413a15.208,15.208,0,0,0,7.99927-6.18164A17.84444,17.84444,0,0,0,467.75836,818.96649Z" transform="translate(-24.33344 -25.42553)"/><path class="cls-32" d="M468.50424,895.33087a18.73983,18.73983,0,0,1-1.85361,8.206,16.7578,16.7578,0,0,1-5.43954,6.50463,14.76,14.76,0,0,1-8.18091,2.802,15.15852,15.15852,0,0,1-8.52762-2.37934l-4.3685-2.76581,5.21058.73584a9.73945,9.73945,0,0,0,2.71026.00275,11.14926,11.14926,0,0,0,2.60764-.64581,12.25672,12.25672,0,0,0,4.33542-3.03327,13.04568,13.04568,0,0,0,3.20809-9.82885,12.58666,12.58666,0,0,0-4.91146-8.99976,11.15971,11.15971,0,0,0-4.80112-2.02679,10.36686,10.36686,0,0,0-5.26984.46179l-5.44082,1.9798,4.05206-3.98786a15.681,15.681,0,0,1,8.67773-4.38324,14.6326,14.6326,0,0,1,9.31681,1.77069,16.54762,16.54762,0,0,1,6.44619,6.67127A18.52142,18.52142,0,0,1,468.50424,895.33087Zm-.2,0a18.03712,18.03712,0,0,0-2.29712-8.7644,15.55512,15.55512,0,0,0-2.76871-3.62,14.30339,14.30339,0,0,0-3.68249-2.67084,13.84307,13.84307,0,0,0-8.85977-1.31561,14.47539,14.47539,0,0,0-7.83573,4.36353l-.18-.26026a11.90989,11.90989,0,0,1,6.0094-.82544,12.68357,12.68357,0,0,1,5.66919,2.17627,14.11338,14.11338,0,0,1,5.82547,10.34784,14.51326,14.51326,0,0,1-3.90915,11.22675,13.17492,13.17492,0,0,1-5.11722,3.26855,12.635,12.635,0,0,1-2.99884.58948,11.06736,11.06736,0,0,1-3.05154-.155l.11761-.28351a13.86008,13.86008,0,0,0,15.69266.188,16.08841,16.08841,0,0,0,5.47519-6.18909A18.4815,18.4815,0,0,0,468.30426,895.33087Z" transform="translate(-24.33344 -25.42553)"/><path class="cls-18" d="M356.035,896.114a17.03241,17.03241,0,0,1-8.232,14.90294c-7.60188,0-13.75478-5.74367-13.75478-12.85785,0-7.11433,6.1529-12.858,13.75478-12.858a14.72562,14.72562,0,0,1,5.313.97906A17.6349,17.6349,0,0,1,356.035,896.114Z" transform="translate(-24.33344 -25.42553)"/><path class="cls-32" d="M356.135,896.114a18.72371,18.72371,0,0,1-.48242,4.45154,19.73142,19.73142,0,0,1-1.47391,4.259,19.3698,19.3698,0,0,1-2.462,3.85126,16.0745,16.0745,0,0,1-3.47637,3.10932l-.14805.09753-.28939.01825a15.13619,15.13619,0,0,1-11.72321-4.37482,13.36,13.36,0,0,1-3.42926-12.44867,13.55231,13.55231,0,0,1,3.13785-5.83728,14.34612,14.34612,0,0,1,5.34213-3.62066,15.56323,15.56323,0,0,1,12.12247.30493l.12924.06.05075.08392a17.951,17.951,0,0,1,2.035,4.86322A18.41892,18.41892,0,0,1,356.135,896.114Zm-.2,0a17.59,17.59,0,0,0-2.9249-9.76287l.06.048a14.68107,14.68107,0,0,0-11.37451.42236,12.88014,12.88014,0,0,0-7.15574,8.68561,12.258,12.258,0,0,0,2.87586,10.8147,14.099,14.099,0,0,0,10.38721,4.54779l-.0727.01928a15.91292,15.91292,0,0,0,6.06018-6.2738A18.01037,18.01037,0,0,0,355.93494,896.114Z" transform="translate(-24.33344 -25.42553)"/><path class="cls-32" d="M361.65775,898.15912a12.76288,12.76288,0,0,1-1.02372,5.15295,14.71448,14.71448,0,0,1-2.93261,4.4635,15.20655,15.20655,0,0,1-9.89835,4.56824l-4.51758.32306,3.86127-2.8031a16.28665,16.28665,0,0,0,4.35867-4.59369,18.10826,18.10826,0,0,0,2.43717-5.82147,15.95594,15.95594,0,0,0,.26492-1.57373c.09268-.52674.13565-1.0603.177-1.59662a21.84688,21.84688,0,0,0-.07056-3.23468,16.22863,16.22863,0,0,0-1.94052-6.26666l-1.39969-2.52228,2.47062,1.19476a14.84924,14.84924,0,0,1,3.39148,2.25507,15.69139,15.69139,0,0,1,2.60269,3.03375,13.77086,13.77086,0,0,1,1.66028,3.56476A12.30446,12.30446,0,0,1,361.65775,898.15912Zm-.2,0a12.14779,12.14779,0,0,0-2.37835-7.15943,13.63862,13.63862,0,0,0-6.01767-4.582l.17709-.21954a17.595,17.595,0,0,1,2.6618,6.55426,18.97613,18.97613,0,0,1-.05065,7.08423,17.34968,17.34968,0,0,1-2.76529,6.52331,15.98407,15.98407,0,0,1-5.20008,4.80036l-.08154-.30823a14.1723,14.1723,0,0,0,9.46973-3.55054,12.776,12.776,0,0,0,3.06958-4.1231A11.9765,11.9765,0,0,0,361.45776,898.15912Z" transform="translate(-24.33344 -25.42553)"/><path class="cls-18" d="M460.04641,896.02693c0,7.57125-5.73287,13.70651-12.78887,13.70651a11.48794,11.48794,0,0,1-2.12086-.19586,17.18621,17.18621,0,0,1-7.11894-14.20674,17.47558,17.47558,0,0,1,4.72494-12.11822,11.63153,11.63153,0,0,1,4.51486-.89208C454.31354,882.32054,460.04641,888.45581,460.04641,896.02693Z" transform="translate(-24.33344 -25.42553)"/><path class="cls-32" d="M460.14642,896.02692a15.42547,15.42547,0,0,1-4.15121,10.58734,12.85339,12.85339,0,0,1-4.95322,3.33868,13.08982,13.08982,0,0,1-6.12243.73786l-.18329-.0235-.26657-.16425a16.57092,16.57092,0,0,1-5.66129-5.71118,17.954,17.954,0,0,1-2.49368-7.71594,18.79686,18.79686,0,0,1,1.02225-8.0473,17.10676,17.10676,0,0,1,4.449-6.73267l.26282-.24121.18344-.06482a12.97281,12.97281,0,0,1,12.83054,2.55035,14.72264,14.72264,0,0,1,3.79306,5.24274A15.39238,15.39238,0,0,1,460.14642,896.02692Zm-.2,0a14.61373,14.61373,0,0,0-1.38052-6.10736,13.23815,13.23815,0,0,0-3.89484-4.87555,11.93039,11.93039,0,0,0-11.86478-1.67932l.05536-.038a16.80831,16.80831,0,0,0-3.74069,6.29657,18.30459,18.30459,0,0,0-.83121,7.284,16.89177,16.89177,0,0,0,6.93714,12.49951l-.0607-.02533a11.98981,11.98981,0,0,0,5.59631-.33215,12.129,12.129,0,0,0,4.84867-2.8418A14.05234,14.05234,0,0,0,459.94641,896.02692Z" transform="translate(-24.33344 -25.42553)"/><path class="cls-32" d="M445.22919,909.57556a9.39,9.39,0,0,1-4.44394-1.05719,13.26166,13.26166,0,0,1-3.74838-2.68011,14.81833,14.81833,0,0,1-2.65979-3.86792,16.088,16.088,0,0,1-1.31727-4.56989,15.60091,15.60091,0,0,1,1.78479-9.36883,14.48737,14.48737,0,0,1,7.2313-6.4635l7.61194-2.95752-5.664,5.83a16.35648,16.35648,0,0,0-3.51211,5.64636,16.557,16.557,0,0,0-.83765,3.29059,17.41225,17.41225,0,0,0-.22507,3.43091,18.21494,18.21494,0,0,0,1.53089,6.79034,15.99848,15.99848,0,0,0,1.765,3.11969c.35294.49238.74973.9502,1.15058,1.41437l.63421.68567C444.81955,909.07953,445.03525,909.38806,445.22919,909.57556Zm-.185-.07593a7.84123,7.84123,0,0,1-.72467-.439l-.71723-.598a17.2383,17.2383,0,0,1-1.32855-1.32557,16.87117,16.87117,0,0,1-2.164-3.06012,17.83863,17.83863,0,0,1-2.16186-7.14038,18.49225,18.49225,0,0,1,.83831-7.4248,17.16275,17.16275,0,0,1,3.81781-6.43189l.21073.31079a13.14819,13.14819,0,0,0-6.30124,5.59174,14.35379,14.35379,0,0,0-1.81748,8.2804,14.1706,14.1706,0,0,0,3.18839,7.86248,12.85177,12.85177,0,0,0,3.25476,2.7967,13.288,13.288,0,0,0,1.93835.93957l1.02027.33478A8.80664,8.80664,0,0,1,445.04416,909.49963Z" transform="translate(-24.33344 -25.42553)"/><path class="cls-18" d="M356.07686,819.79323c0,9.24638-6.80389,16.7523-15.20377,16.7523a13.85745,13.85745,0,0,1-5.10291-.97905,18.07978,18.07978,0,0,1-1.554-7.39717c0-8.44128,5.56485-15.27276,12.43179-15.27276a11.47844,11.47844,0,0,1,9.3449,5.24318A14.298,14.298,0,0,1,356.07686,819.79323Z" transform="translate(-24.33344 -25.42553)"/><path class="cls-32" d="M356.17685,819.79321a20.2237,20.2237,0,0,1-1.411,7.4751,22.58357,22.58357,0,0,1-1.76242,3.44928,17.21893,17.21893,0,0,1-2.52182,3.02033,16.18627,16.18627,0,0,1-3.22568,2.38769,15.53918,15.53918,0,0,1-3.8251,1.45874,12.56621,12.56621,0,0,1-2.05136.34345,11.45368,11.45368,0,0,1-2.09955.07183,15.56289,15.56289,0,0,1-4.13349-.855l-.60318-.21283-.3211-.6701a18.5356,18.5356,0,0,1,.13016-16.11316,15.91573,15.91573,0,0,1,3.33065-4.39935,13.145,13.145,0,0,1,4.67615-2.8407,11.12667,11.12667,0,0,1,5.33841-.46088,11.91888,11.91888,0,0,1,4.817,1.97211,14.68858,14.68858,0,0,1,3.57956,3.64923l.0205.03027.001.02637Zm-.2,0-.0878-1.64135.018.0476a11.59453,11.59453,0,0,0-8.27163-5.1167,10.32191,10.32191,0,0,0-4.8935.75409,11.95,11.95,0,0,0-4.06518,2.85565,16.08173,16.08173,0,0,0-4.0911,8.98224,18.24616,18.24616,0,0,0,1.35218,9.81629l-.1-.09552a13.527,13.527,0,0,0,7.35083.77032,14.27434,14.27434,0,0,0,3.57275-1.0935,15.22989,15.22989,0,0,0,3.15287-2.01776,15.98255,15.98255,0,0,0,4.48867-5.948A18.20825,18.20825,0,0,0,355.97687,819.79321Z" transform="translate(-24.33344 -25.42553)"/><path class="cls-32" d="M359.15878,828.16931a19.64607,19.64607,0,0,1-2.0057,8.7854,14.12083,14.12083,0,0,1-6.48572,6.58295,11.74168,11.74168,0,0,1-4.797,1.0094,11.93824,11.93824,0,0,1-4.886-1.12805,13.11734,13.11734,0,0,1-4.04029-2.9903,15.476,15.476,0,0,1-2.77615-4.139l-1.79462-3.8811,4.04312,1.52307a13.05493,13.05493,0,0,0,6.86447.62317,14.34483,14.34483,0,0,0,6.40848-2.95013,15.80487,15.80487,0,0,0,4.4657-5.898,17.95467,17.95467,0,0,0,1.47122-7.52448l-.03067-1.32739.6984,1.07165a17.07067,17.07067,0,0,1,2.16745,4.94056A18.52652,18.52652,0,0,1,359.15878,828.16931Zm-.2,0a17.29687,17.29687,0,0,0-3.06946-9.95605l.22977-.088a18.73384,18.73384,0,0,1-.99719,7.93268,17.1521,17.1521,0,0,1-4.37278,6.69324,14.90838,14.90838,0,0,1-7.08776,3.69073,12.551,12.551,0,0,1-2.00769.25336,11.40016,11.40016,0,0,1-2.02475-.00836,13.915,13.915,0,0,1-3.92917-.942l.24536-.25726a13.80912,13.80912,0,0,0,5.79608,6.526,10.49392,10.49392,0,0,0,4.21732,1.24188,10.6236,10.6236,0,0,0,4.3525-.64465,13.07529,13.07529,0,0,0,6.46705-5.86536,18.16153,18.16153,0,0,0,1.63366-4.14538A20.48962,20.48962,0,0,0,358.95877,828.16931Z" transform="translate(-24.33344 -25.42553)"/><path class="cls-18" d="M461.83134,823.25252a16.22616,16.22616,0,0,1-4.93488,11.79183,13.01582,13.01582,0,0,1-4.221.67444c-8.39988,0-15.20377-7.50592-15.20377-16.75231a17.8453,17.8453,0,0,1,2.625-9.42047,13.76125,13.76125,0,0,1,7.16084-2.02332C455.30046,807.52269,461.83134,814.57168,461.83134,823.25252Z" transform="translate(-24.33344 -25.42553)"/><path class="cls-32" d="M461.93134,823.2525a17.24605,17.24605,0,0,1-.27961,3.2909,18.80225,18.80225,0,0,1-.90088,3.1878,17.27014,17.27014,0,0,1-3.5227,5.66229l-.05182.05671-.125.05011a13.22065,13.22065,0,0,1-5.02884.96221,16.22061,16.22061,0,0,1-2.60284-.17718,16.764,16.764,0,0,1-2.543-.67474,16.40479,16.40479,0,0,1-8.23483-6.52161,18.213,18.213,0,0,1-2.22312-4.88782,18.91479,18.91479,0,0,1,.05426-10.63006,18.79053,18.79053,0,0,1,2.301-4.84491l.2384-.35883.27872-.15277a14.7593,14.7593,0,0,1,8.2894-1.775,14.511,14.511,0,0,1,7.6824,2.92736,16.24941,16.24941,0,0,1,1.54629,1.323,18.77177,18.77177,0,0,1,3.44382,4.89972A18.439,18.439,0,0,1,461.93134,823.2525Zm-.2,0a17.11858,17.11858,0,0,0-1.79892-7.49969,15.31361,15.31361,0,0,0-5.09536-5.74927,13.53234,13.53234,0,0,0-14.64988-.30823l.05787-.05725a17.68677,17.68677,0,0,0-2.574,9.25012,19.94381,19.94381,0,0,0,.62079,4.80732,18.45581,18.45581,0,0,0,1.885,4.46368,17.32876,17.32876,0,0,0,3.087,3.7312,14.66331,14.66331,0,0,0,4.08741,2.584,15.63484,15.63484,0,0,0,2.30444.76037,15.28386,15.28386,0,0,0,2.40772.30646,12.45561,12.45561,0,0,0,4.79064-.62134l-.048.029A16.184,16.184,0,0,0,461.73132,823.2525Z" transform="translate(-24.33344 -25.42553)"/><path class="cls-32" d="M456.98178,834.99219a4.056,4.056,0,0,1-.55817.71655c-.18966.18939-.37432.387-.57614.56561a12.14369,12.14369,0,0,1-1.253,1.0362,14.04182,14.04182,0,0,1-2.88269,1.57391,13.60088,13.60088,0,0,1-6.59582.94318,15.75793,15.75793,0,0,1-11.30567-7.106,18.18058,18.18058,0,0,1-2.4396-13.38184,17.925,17.925,0,0,1,2.70163-6.44555,16.7423,16.7423,0,0,1,5.10653-4.84833l6.36457-3.917-3.952,6.34381a16.91784,16.91784,0,0,0-2.50433,8.42145,20.25451,20.25451,0,0,0,.45611,4.46362,17.24964,17.24964,0,0,0,1.57874,4.22888,16.322,16.322,0,0,0,2.74838,3.62006,15.67038,15.67038,0,0,0,3.74185,2.64325,14.9932,14.9932,0,0,0,2.1568.88079,14.8204,14.8204,0,0,0,2.31033.45435,12.34089,12.34089,0,0,0,2.38581.09473q.60137-.02244,1.20267-.10541l.59967-.09735.29888-.05994A1.05744,1.05744,0,0,1,456.98178,834.99219Zm-.17065.10431c-.09037.07611-.07285.121-.17673.13879l-.29651.089-.59912.15613q-.60274.14163-1.21735.22394a11.633,11.633,0,0,1-2.4692.09075,15.54028,15.54028,0,0,1-2.45466-.30133,15.91292,15.91292,0,0,1-2.35293-.76391,14.95253,14.95253,0,0,1-4.17944-2.61548,17.63708,17.63708,0,0,1-3.16382-3.78833,18.78988,18.78988,0,0,1-1.94229-4.54065,19.98076,19.98076,0,0,1-.65125-4.89868,18.04946,18.04946,0,0,1,2.62985-9.43915l.25653.258a15.71636,15.71636,0,0,0-6.92971,10.0382,16.75815,16.75815,0,0,0,1.98223,12.10071,14.35154,14.35154,0,0,0,10.0347,6.8678,13.30811,13.30811,0,0,0,6.20649-.50507,13.78543,13.78543,0,0,0,4.14587-2.20788c.21188-.15515.408-.33008.61005-.49756A2.9031,2.9031,0,0,1,456.81113,835.0965Z" transform="translate(-24.33344 -25.42553)"/></svg>