<svg id="background" xmlns="http://www.w3.org/2000/svg" xmlns:xlink="http://www.w3.org/1999/xlink" viewBox="0 0 776.11265 548.73666"><defs><style>.cls-1,.cls-10,.cls-12,.cls-13,.cls-14,.cls-15,.cls-16,.cls-4,.cls-5{fill:none;}.cls-2{fill:#051f30;}.cls-3{clip-path:url(#clip-path);}.cls-14,.cls-4{stroke:#fc2d3e;}.cls-10,.cls-12,.cls-13,.cls-15,.cls-16,.cls-4,.cls-5{stroke-miterlimit:10;}.cls-12,.cls-13,.cls-14,.cls-15,.cls-16,.cls-4,.cls-5{stroke-width:1.34002px;}.cls-5{stroke:#008ba8;}.cls-6{fill:#ff7c00;}.cls-7{fill:#ffd831;}.cls-8{fill:#f3f3f3;}.cls-9{fill:#fc2d3e;}.cls-10,.cls-12,.cls-13{stroke:#ffd831;}.cls-10{stroke-width:2.68005px;}.cls-11{fill:#008ba8;}.cls-12,.cls-13,.cls-14,.cls-15,.cls-16{stroke-linecap:round;}.cls-13{stroke-dasharray:0 4.09726;}.cls-14{stroke-linejoin:round;}.cls-15,.cls-16{stroke:#f3f3f3;}.cls-16{stroke-dasharray:0 4.03048;}</style><clipPath id="clip-path" transform="translate(4.07197 0.61098)"><rect id="SVGID" class="cls-1" width="750" height="500"/></clipPath></defs><rect class="cls-2" x="4.07197" y="0.61098" width="750" height="500"/><g class="cls-3"><polygon class="cls-4" points="98.417 450.264 164.536 488.594 164.671 412.168 98.417 450.264"/><rect class="cls-5" x="35.51052" y="501.63348" width="38.10996" height="38.10989" transform="translate(-281.96493 123.70183) rotate(-34.60258)"/><polygon class="cls-6" points="99.142 442.379 157.345 491.909 171.137 416.739 99.142 442.379"/><polygon class="cls-7" points="118.813 445.988 158.175 431.97 150.634 473.068 118.813 445.988"/><polygon class="cls-8" points="126.328 453.142 103.632 482.947 140.792 487.699 126.328 453.142"/><circle class="cls-9" cx="111.56395" cy="500.54358" r="9.09377" transform="translate(-289.93779 187.3069) rotate(-39.70097)"/><path class="cls-9" d="M364.08119,417.7524a3.56616,3.56616,0,1,1-4.9605-.9102A3.56616,3.56616,0,0,1,364.08119,417.7524Z" transform="translate(4.07197 0.61098)"/><circle class="cls-10" cx="175.88565" cy="495.80948" r="9.09377" transform="translate(-267.47118 219.70713) rotate(-38.73333)"/><path class="cls-11" d="M76.503,476.1a5.08181,5.08181,0,1,1-7.0687-1.2971A5.0818,5.0818,0,0,1,76.503,476.1Z" transform="translate(4.07197 0.61098)"/><polygon class="cls-9" points="55.727 497.908 55.648 498.338 60.973 499.432 60.614 498.911 55.727 497.908"/><polygon class="cls-9" points="55.254 500.484 55.175 500.915 63.122 502.547 62.763 502.026 55.254 500.484"/><polygon class="cls-9" points="54.782 503.06 54.702 503.492 65.272 505.663 64.912 505.14 54.782 503.06"/><polygon class="cls-9" points="54.309 505.636 54.23 506.068 67.421 508.777 67.06 508.255 54.309 505.636"/><polygon class="cls-9" points="53.836 508.212 53.757 508.644 69.57 511.892 69.209 511.37 53.836 508.212"/><polygon class="cls-9" points="53.363 510.79 53.284 511.22 71.718 515.006 71.359 514.486 53.363 510.79"/><polygon class="cls-9" points="52.891 513.366 52.812 513.796 73.867 518.121 73.508 517.6 52.891 513.366"/><polygon class="cls-9" points="52.418 515.941 52.339 516.372 76.016 521.236 75.657 520.714 52.418 515.941"/><polygon class="cls-9" points="51.945 518.518 51.866 518.948 78.165 524.35 77.805 523.829 51.945 518.518"/><polygon class="cls-9" points="51.473 521.094 51.394 521.524 76.183 526.616 76.682 526.272 51.473 521.094"/><polygon class="cls-9" points="51 523.67 50.921 524.1 73.198 528.676 73.697 528.332 51 523.67"/><polygon class="cls-9" points="50.527 526.246 50.448 526.676 70.212 530.736 70.711 530.391 50.527 526.246"/><polygon class="cls-9" points="50.055 528.822 49.976 529.252 67.226 532.796 67.725 532.451 50.055 528.822"/><polygon class="cls-9" points="49.582 531.398 49.503 531.83 64.239 534.857 64.74 534.511 49.582 531.398"/><polygon class="cls-9" points="49.109 533.974 49.03 534.406 61.253 536.917 61.754 536.571 49.109 533.974"/><polygon class="cls-9" points="48.637 536.55 48.557 536.982 58.268 538.976 58.768 538.631 48.637 536.55"/><polygon class="cls-9" points="48.164 539.128 48.085 539.558 55.282 541.036 55.781 540.692 48.164 539.128"/><polygon class="cls-9" points="47.691 541.704 47.612 542.134 52.296 543.096 52.795 542.752 47.691 541.704"/><polygon class="cls-9" points="55.884 497.05 59.899 497.874 59.539 497.353 59.479 497.341 55.963 496.619 55.884 497.05"/><polygon class="cls-9" points="55.491 499.195 55.412 499.626 62.047 500.989 61.688 500.468 55.491 499.195"/><polygon class="cls-9" points="55.018 501.771 54.939 502.203 64.197 504.105 63.837 503.582 55.018 501.771"/><polygon class="cls-9" points="54.545 504.347 54.466 504.779 66.346 507.219 65.986 506.697 54.545 504.347"/><polygon class="cls-9" points="54.073 506.923 53.993 507.356 68.495 510.334 68.134 509.812 54.073 506.923"/><polygon class="cls-9" points="53.6 509.501 53.521 509.931 70.644 513.448 70.284 512.928 53.6 509.501"/><polygon class="cls-9" points="53.127 512.077 53.048 512.507 72.792 516.563 72.433 516.042 53.127 512.077"/><polygon class="cls-9" points="52.654 514.653 52.575 515.084 74.941 519.678 74.582 519.156 52.654 514.653"/><polygon class="cls-9" points="52.182 517.229 52.103 517.66 77.09 522.792 76.73 522.271 52.182 517.229"/><polygon class="cls-9" points="51.709 519.805 51.63 520.236 77.677 525.586 78.176 525.241 51.709 519.805"/><polygon class="cls-9" points="51.236 522.381 51.157 522.812 74.691 527.645 75.19 527.301 51.236 522.381"/><polygon class="cls-9" points="50.764 524.957 50.685 525.388 71.705 529.705 72.205 529.361 50.764 524.957"/><polygon class="cls-9" points="50.291 527.533 50.212 527.964 68.72 531.765 69.219 531.421 50.291 527.533"/><polygon class="cls-9" points="49.818 530.109 49.739 530.541 65.733 533.826 66.234 533.48 49.818 530.109"/><polygon class="cls-9" points="49.346 532.685 49.266 533.117 62.747 535.886 63.248 535.54 49.346 532.685"/><polygon class="cls-9" points="48.873 535.261 48.794 535.693 59.761 537.946 60.262 537.6 48.873 535.261"/><polygon class="cls-9" points="48.4 537.839 48.321 538.269 56.776 540.006 57.274 539.662 48.4 537.839"/><polygon class="cls-9" points="47.927 540.415 47.848 540.846 53.79 542.066 54.289 541.721 47.927 540.415"/><polygon class="cls-9" points="47.455 542.991 47.376 543.422 50.766 544.118 50.804 544.126 51.303 543.781 47.455 542.991"/><rect class="cls-9" x="30.77116" y="502.58303" width="33.65277" height="33.65278" transform="matrix(0.82311, -0.56788, 0.56788, 0.82311, -282.47194, 119.51927)"/><rect class="cls-9" x="720.85253" y="103.7436" width="47.30765" height="47.30769" transform="translate(39.28892 -131.66128) rotate(10.39738)"/><rect class="cls-6" x="738.63555" y="92.49122" width="24.67021" height="24.67021" transform="translate(-1.91814 61.21199) rotate(-4.60275)"/><line class="cls-12" x1="80.52727" y1="500.11078" x2="85.69777" y2="507.60498"/><line class="cls-12" x1="86.85967" y1="501.27268" x2="79.36537" y2="506.44308"/><path class="cls-9" d="M208.25939,495.2688,180.4742,454.9957a2.1504,2.1504,0,0,1,.5488-2.9912h0a2.15051,2.15051,0,0,1,2.9913.5488l27.78529,40.2731a2.15041,2.15041,0,0,1-.5489,2.9912h0A2.15051,2.15051,0,0,1,208.25939,495.2688Z" transform="translate(4.07197 0.61098)"/><path class="cls-11" d="M199.48239,495.6757l-27.78519-40.273a2.15051,2.15051,0,0,1,.5488-2.9913h0a2.15054,2.15054,0,0,1,2.9913.5489l27.78529,40.273a2.15053,2.15053,0,0,1-.5489,2.9913h0A2.15054,2.15054,0,0,1,199.48239,495.6757Z" transform="translate(4.07197 0.61098)"/><rect class="cls-9" x="308.55512" y="433.51982" width="13.65665" height="13.65665" transform="translate(88.72312 -49.07741) rotate(10.3975)"/><rect class="cls-6" x="338.25175" y="432.89856" width="5.37519" height="5.37519" transform="translate(268.50847 -111.63701) rotate(30.10106)"/><rect class="cls-5" x="203.28493" y="357.48423" width="38.10993" height="38.10994" transform="translate(-170.42788 193.47925) rotate(-34.60258)"/><polygon class="cls-8" points="222.713 411.138 207.36 415.676 218.967 426.703 222.713 411.138"/><path class="cls-9" d="M286.82349,351.2302a9.09373,9.09373,0,1,1-12.6493-2.321A9.09366,9.09366,0,0,1,286.82349,351.2302Z" transform="translate(4.07197 0.61098)"/><path class="cls-9" d="M255.52529,496.715a25.49392,25.49392,0,0,0-3.8265-1.0371L246.129,494.656c-.616-.114-1.239-.1849-1.86211-.2532Z" transform="translate(4.07197 0.61098)"/><path class="cls-9" d="M237.62659,494.5579l23.3179,4.7892c-.2073-.134-.42-.2558-.6306-.3835l-21.9828-4.5152C238.09579,494.478,237.86149,494.5215,237.62659,494.5579Z" transform="translate(4.07197 0.61098)"/><path class="cls-9" d="M234.07609,495.3472l29.6104,6.0817c-.128-.1104-.2533-.2248-.3831-.3323l-28.6796-5.8906C234.44189,495.2574,234.25729,495.2915,234.07609,495.3472Z" transform="translate(4.07197 0.61098)"/><path class="cls-9" d="M231.44509,496.3262l34.2437,7.0336c-.0986-.106-.1973-.2116-.2974-.3158l-33.5412-6.8891C231.71479,496.211,231.57989,496.2676,231.44509,496.3262Z" transform="translate(4.07197 0.61098)"/><path class="cls-9" d="M229.26339,497.3962l37.9732,7.7995c-.077-.1004-.1528-.2022-.231-.3012l-37.3902-7.6797C229.49839,497.2772,229.37959,497.3319,229.26339,497.3962Z" transform="translate(4.07197 0.61098)"/><path class="cls-9" d="M227.41749,498.5365l41.0691,8.4356c-.0619-.0967-.117-.1956-.1802-.2918l-40.5797-8.3348C227.62459,498.412,227.519,498.4685,227.41749,498.5365Z" transform="translate(4.07197 0.61098)"/><path class="cls-9" d="M225.81159,499.7259l43.7075,8.9772c-.0496-.0933-.0867-.1902-.1377-.2829l-43.308-8.8952C225.98629,499.592,225.89769,499.6578,225.81159,499.7259Z" transform="translate(4.07197 0.61098)"/><path class="cls-9" d="M224.37509,500.9498l45.9643,9.4408c-.0421-.0953-.0941-.1879-.1376-.2829l-45.6047-9.3668C224.521,500.809,224.45019,500.8808,224.37509,500.9498Z" transform="translate(4.07197 0.61098)"/><path class="cls-9" d="M223.07769,502.2018l47.9065,9.8398q-.0495-.1374-.101-.2748l-47.6103-9.779C223.20559,502.0576,223.144,502.1314,223.07769,502.2018Z" transform="translate(4.07197 0.61098)"/><path class="cls-9" d="M222.14519,503.2753c-.0611.0726-.1269.1423-.1873.2156l49.5588,10.1791c-.0254-.0891-.0431-.1793-.0695-.2682Z" transform="translate(4.07197 0.61098)"/><path class="cls-9" d="M221.11489,504.5823c-.0538.0733-.1042.1482-.1571.2219l50.9736,10.47c-.0192-.0901-.049-.1787-.0693-.2687Z" transform="translate(4.07197 0.61098)"/><path class="cls-9" d="M220.176,505.9086c-.04741.0742-.08821.1515-.13491.2262l52.1557,10.7126c-.0131-.0876-.0271-.1748-.041-.2623Z" transform="translate(4.07197 0.61098)"/><path class="cls-9" d="M219.39579,507.2673c-.0424.0763-.0881.1509-.12979.2276l53.12389,10.9113c-.0074-.0857-.0067-.1716-.01489-.2573Z" transform="translate(4.07197 0.61098)"/><path class="cls-9" d="M218.681,508.6397c-.03661.0767-.06831.1556-.10411.2328l53.9023,11.0713c-.00219-.0858-.012-.1715-.015-.2573Z" transform="translate(4.07197 0.61098)"/><path class="cls-9" d="M218.05849,510.0303c-.0319.0787-.0731.1537-.1041.2327l54.5044,11.1952c.0029-.0842.0075-.168.0095-.2521Z" transform="translate(4.07197 0.61098)"/><path class="cls-9" d="M217.55019,511.4447c-.0268.0792-.05419.1582-.0801.2376l54.9125,11.2788c.0079-.083.0213-.1651.0283-.2482Z" transform="translate(4.07197 0.61098)"/><path class="cls-9" d="M217.09529,512.8702c-.0218.0801-.03529.162-.0565.2424l55.145,11.3266c.0125-.0821.0214-.1648.0331-.2472Z" transform="translate(4.07197 0.61098)"/><path class="cls-9" d="M216.75729,514.3196c-.01729.0814-.04029.1614-.0567.243l55.2142,11.3407c.0175-.0813.0401-.1614.0567-.2428Z" transform="translate(4.07197 0.61098)"/><path class="cls-9" d="M216.49339,515.785c-.01239.0823-.0216.1648-.03339.2472l55.11659,11.3206c.0221-.0801.0352-.1622.0566-.2424Z" transform="translate(4.07197 0.61098)"/><path class="cls-9" d="M216.29449,517.2622c-.0076.0834-.0163.1665-.0232.2501l54.8453,11.265c.0271-.0794.054-.1585.0802-.2381Z" transform="translate(4.07197 0.61098)"/><path class="cls-9" d="M216.22339,518.7672c-.0027.084-.0077.1678-.0095.2519l54.3894,11.1713c.032-.0785.0729-.1538.104-.2326Z" transform="translate(4.07197 0.61098)"/><path class="cls-9" d="M216.20829,520.283c.0025.0856.01171.1713.0151.2569l53.7571,11.0416c.0369-.0768.0682-.1556.1042-.2327Z" transform="translate(4.07197 0.61098)"/><path class="cls-9" d="M216.29759,521.8202c.0076.0855.00641.1714.015.2569l52.9478,10.8756c.04261-.0763.0878-.151.12961-.2276Z" transform="translate(4.07197 0.61098)"/><path class="cls-9" d="M216.49629,523.3799q.02.13125.041.2622l51.9372,10.6677c.0479-.0746.0937-.1499.1406-.2248Z" transform="translate(4.07197 0.61098)"/><path class="cls-9" d="M216.76779,524.9543c.0195.0903.0489.1792.0695.2693l50.698,10.4129c.054-.0732.1041-.1486.1573-.2224Z" transform="translate(4.07197 0.61098)"/><path class="cls-9" d="M217.18249,526.5585c.0256.0889.0427.1794.0694.2682l49.2466,10.1153c.0614-.0726.1269-.1425.1873-.2156Z" transform="translate(4.07197 0.61098)"/><path class="cls-9" d="M217.72179,528.1881q.04981.138.1013.2753l47.5402,9.7646c.0684-.0705.1355-.1415.2028-.2126Z" transform="translate(4.07197 0.61098)"/><path class="cls-9" d="M218.37509,529.8419c.0421.095.0935.1874.137.2821l45.527,9.351c.0761-.0678.1464-.1399.2215-.2085Z" transform="translate(4.07197 0.61098)"/><path class="cls-9" d="M219.19479,531.5283c.0507.0946.0947.1909.1469.2849l43.2126,8.8758c.0873-.0668.1754-.133.26171-.2009Z" transform="translate(4.07197 0.61098)"/><path class="cls-9" d="M220.237,533.2622c.06189.0961.11619.1949.17959.2905l40.4745,8.3134c.102-.0659.20691-.1229.3082-.1904Z" transform="translate(4.07197 0.61098)"/><path class="cls-9" d="M221.49729,535.0397c.0775.1003.15271.2026.2314.3014l37.2607,7.6532c.1205-.0638.2453-.1131.365-.179Z" transform="translate(4.07197 0.61098)"/><path class="cls-9" d="M223.06009,536.8796c.0986.1053.1966.2113.2965.3147l33.382,6.8564c.14-.0573.2811-.1074.4203-.1674Z" transform="translate(4.07197 0.61098)"/><path class="cls-9" d="M225.08009,538.8132c.1287.1099.2533.2257.3838.3327l28.4779,5.8494c.1824-.0507.3671-.0866.5486-.1414Z" transform="translate(4.07197 0.61098)"/><path class="cls-9" d="M227.84929,540.9008c.2193.1404.4491.2589.6721.3921l21.6795,4.4529c.2355-.0282.4692-.0744.7042-.1094Z" transform="translate(4.07197 0.61098)"/><path class="cls-9" d="M233.57939,543.5965a25.49425,25.49425,0,0,0,3.4052.8961l5.57,1.0219c.3558.0658.717.0957,1.0755.1463Z" transform="translate(4.07197 0.61098)"/><path class="cls-9" d="M241.15539,494.2383c-.3229.0043-.6456.0385-.9687.0553l18.6508,3.8306c-.3104-.1608-.6289-.3006-.9449-.4481Z" transform="translate(4.07197 0.61098)"/><path class="cls-9" d="M236.32959,494.7663c-.1838.0383-.3642.0985-.5474.141l26.6154,5.4668c-.1655-.1246-.3379-.2373-.5059-.3576Z" transform="translate(4.07197 0.61098)"/><path class="cls-9" d="M233.23079,495.6483c-.1489.0517-.2965.1087-.44479.1633l31.97959,6.5683c-.118-.1139-.2424-.2176-.3621-.3289Z" transform="translate(4.07197 0.61098)"/><path class="cls-9" d="M230.75879,496.6596c-.1229.0578-.245.1183-.3671.1782l36.1252,7.4199c-.0893-.106-.1832-.2057-.2738-.31Z" transform="translate(4.07197 0.61098)"/><path class="cls-9" d="M228.68659,497.7525c-.1039.0613-.2057.1281-.3091.1911l39.52351,8.1181c-.07361-.105-.157-.1988-.232-.3023Z" transform="translate(4.07197 0.61098)"/><path class="cls-9" d="M226.88589,498.9017c-.0905.0641-.1724.1358-.26189.2009l42.37849,8.7042c-.0577-.0981-.1212-.1941-.1803-.2917Z" transform="translate(4.07197 0.61098)"/><path class="cls-9" d="M225.32389,500.1c-.0838.0695-.1774.1307-.2601.2012l44.849,9.2116c-.0463-.0942-.0903-.1891-.1376-.283Z" transform="translate(4.07197 0.61098)"/><path class="cls-9" d="M223.96169,501.3392c-.073.0701-.1496.1377-.2215.2086L270.67,511.187c-.03651-.091-.06341-.1841-.101-.2749Z" transform="translate(4.07197 0.61098)"/><path class="cls-9" d="M222.72769,502.6047c-.064.0709-.1243.1442-.1874.2157l48.7338,10.0095c-.0299-.0923-.0702-.1824-.10109-.2747Z" transform="translate(4.07197 0.61098)"/><path class="cls-9" d="M221.60829,503.8934c-.0568.0721-.1062.1484-.1622.221l50.2696,10.3252c-.0224-.0896-.046-.179-.0695-.2684Z" transform="translate(4.07197 0.61098)"/><path class="cls-9" d="M220.66429,505.2188c-.0512.0744-.1066.1468-.157.2218l51.5619,10.5904c-.016-.0872-.02419-.1751-.041-.2622Z" transform="translate(4.07197 0.61098)"/><path class="cls-9" d="M219.79879,506.5599c-.0449.0752-.0856.1522-.1297.2276l52.6454,10.8131c-.0104-.0879-.0297-.175-.0411-.2627Z" transform="translate(4.07197 0.61098)"/><path class="cls-9" d="M219.02379,507.9199c-.0396.0768-.0841.1516-.123.2289l53.532,10.9952c-.00479-.0858-.0092-.1717-.015-.2573Z" transform="translate(4.07197 0.61098)"/><path class="cls-9" d="M218.38249,509.3067c-.03449.0777-.0706.1546-.1042.2327l54.2105,11.1346c.0003-.0841.01-.1677.0095-.252Z" transform="translate(4.07197 0.61098)"/><path class="cls-9" d="M217.79909,510.7056c-.0293.0785-.0517.159-.08009.2376l54.71219,11.2377c.0053-.0839.0051-.1681.0095-.252Z" transform="translate(4.07197 0.61098)"/><path class="cls-9" d="M217.32059,512.1264c-.0244.0797-.0562.1573-.0798.2374l55.0464,11.3065c.0101-.0824.02381-.1645.0332-.2472Z" transform="translate(4.07197 0.61098)"/><path class="cls-9" d="M216.93319,513.5656c-.0197.0809-.0378.1619-.0567.243l55.2117,11.3401c.015-.082.0192-.1655.0333-.2475Z" transform="translate(4.07197 0.61098)"/><path class="cls-9" d="M216.59689,515.0161c-.01489.0818-.0192.1652-.0334.2472l55.1891,11.3355c.0196-.0807.0377-.1616.0566-.2425Z" transform="translate(4.07197 0.61098)"/><path class="cls-9" d="M216.39819,516.4933c-.01019.0828-.0241.1649-.0336.248l55.0009,11.2969c.0246-.0801.05651-.1578.0802-.238Z" transform="translate(4.07197 0.61098)"/><path class="cls-9" d="M216.25329,517.9831c-.0052.0839-.0051.168-.0096.252l54.6436,11.2235c.0292-.0785.0516-.1589.08-.2376Z" transform="translate(4.07197 0.61098)"/><path class="cls-9" d="M216.19589,519.4902c-.0004.0841-.0102.1679-.0097.252l54.1183,11.1157c.0342-.0777.0706-.1546.1042-.2326Z" transform="translate(4.07197 0.61098)"/><path class="cls-9" d="M216.25119,521.0204c.0047.0858.0092.1714.0149.2571l53.3973,10.9678c.0399-.077.0835-.1518.1225-.229Z" transform="translate(4.07197 0.61098)"/><path class="cls-9" d="M216.36869,522.5635c.0105.0877.0298.1745.041.2622l52.479,10.7791c.0449-.075.0856-.1519.1295-.2272Z" transform="translate(4.07197 0.61098)"/><path class="cls-9" d="M216.614,524.1325c.01589.0877.02419.176.04119.2634l51.3684,10.5508c.0513-.0748.1069-.1472.1573-.2224Z" transform="translate(4.07197 0.61098)"/><path class="cls-9" d="M216.96669,525.724c.0224.0895.046.1788.0694.2682L267.081,536.2714c.05659-.072.10539-.1485.16119-.2209Z" transform="translate(4.07197 0.61098)"/><path class="cls-9" d="M217.40759,527.3335c.0298.0927.0702.1829.1013.2753l48.4523,9.9517c.064-.0708.1243-.1441.1874-.2157Z" transform="translate(4.07197 0.61098)"/><path class="cls-9" d="M218.01179,528.9772c.0365.0909.0634.184.101.2746l46.61521,9.5745c.073-.0702.14949-.1376.22139-.2085Z" transform="translate(4.07197 0.61098)"/><path class="cls-9" d="M218.768,530.6505c.046.0943.09029.1891.13759.283l44.4612,9.1321c.0836-.0695.1765-.131.2589-.2013Z" transform="translate(4.07197 0.61098)"/><path class="cls-9" d="M219.67779,532.3572c.0573.0978.1208.1933.1796.2905l41.9479,8.6159c.0901-.0639.1716-.1352.26071-.2Z" transform="translate(4.07197 0.61098)"/><path class="cls-9" d="M220.77759,534.1016c.0735.1048.1567.1981.2313.3016l38.9968,8.0098c.1038-.0612.2055-.1278.3088-.1907Z" transform="translate(4.07197 0.61098)"/><path class="cls-9" d="M222.16129,535.9047c.0888.1057.1816.206.2721.3097l35.5018,7.2919c.12281-.0579.2449-.1183.3671-.1783Z" transform="translate(4.07197 0.61098)"/><path class="cls-9" d="M223.91149,537.783c.117.1132.2402.2169.359.3276l31.1947,6.4074c.1486-.0517.2959-.1083.4439-.1629Z" transform="translate(4.07197 0.61098)"/><path class="cls-9" d="M226.273,539.7869c.16569.125.33839.2376.50669.3581l25.5885,5.2559c.1841-.0385.3651-.0988.5487-.1415Z" transform="translate(4.07197 0.61098)"/><path class="cls-9" d="M229.82809,542.0358c.309.1604.6256.301.9402.4482l16.7824,3.447c.3239-.0046.6481-.0383.97231-.0553Z" transform="translate(4.07197 0.61098)"/><circle class="cls-9" cx="241.51969" cy="519.56748" r="25.33615" transform="translate(-301.79007 689.45739) rotate(-82.25308)"/><path class="cls-10" d="M351.14519,346.4961a9.09373,9.09373,0,1,1-12.6493-2.321A9.09373,9.09373,0,0,1,351.14519,346.4961Z" transform="translate(4.07197 0.61098)"/><circle class="cls-13" cx="278.26509" cy="319.30523" r="15.00221" transform="translate(-60.44141 568.69362) rotate(-84.89973)"/><path class="cls-10" d="M194.8619,402.8258a9.09372,9.09372,0,1,1-12.6493-2.321A9.09373,9.09373,0,0,1,194.8619,402.8258Z" transform="translate(4.07197 0.61098)"/><circle class="cls-10" cx="325.57092" cy="454.04707" r="36.66933" transform="translate(-112.23355 112.75108) rotate(-16.62656)"/><path class="cls-7" d="M285.85129,377.1381a2.76378,2.76378,0,1,1-3.8444-.7054A2.76378,2.76378,0,0,1,285.85129,377.1381Z" transform="translate(4.07197 0.61098)"/><path class="cls-11" d="M244.27739,331.9508a5.08177,5.08177,0,1,1-7.0687-1.2971A5.0818,5.0818,0,0,1,244.27739,331.9508Z" transform="translate(4.07197 0.61098)"/><path class="cls-8" d="M289.97059,414.1804a5.08177,5.08177,0,1,1-7.0687-1.297A5.0818,5.0818,0,0,1,289.97059,414.1804Z" transform="translate(4.07197 0.61098)"/><path class="cls-7" d="M222.09119,443.2237a2.76378,2.76378,0,1,1-3.8444-.7054A2.76377,2.76377,0,0,1,222.09119,443.2237Z" transform="translate(4.07197 0.61098)"/><path class="cls-7" d="M248.14469,488.7731a10.72839,10.72839,0,1,1-14.9231-2.7382A10.7284,10.7284,0,0,1,248.14469,488.7731Z" transform="translate(4.07197 0.61098)"/><path class="cls-11" d="M209.87879,435.7271a5.08183,5.08183,0,1,1-7.06879-1.297A5.08184,5.08184,0,0,1,209.87879,435.7271Z" transform="translate(4.07197 0.61098)"/><polygon class="cls-9" points="223.501 353.758 223.422 354.189 228.748 355.283 228.389 354.762 223.501 353.758"/><polygon class="cls-9" points="223.029 356.334 222.95 356.765 230.897 358.398 230.537 357.876 223.029 356.334"/><polygon class="cls-9" points="222.556 358.91 222.477 359.343 233.047 361.514 232.686 360.991 222.556 358.91"/><polygon class="cls-9" points="222.083 361.487 222.004 361.919 235.195 364.628 234.835 364.106 222.083 361.487"/><polygon class="cls-9" points="221.611 364.063 221.531 364.495 237.344 367.743 236.984 367.22 221.611 364.063"/><polygon class="cls-9" points="221.138 366.64 221.059 367.071 239.493 370.857 239.134 370.337 221.138 366.64"/><polygon class="cls-9" points="220.665 369.216 220.586 369.647 241.642 373.972 241.282 373.451 220.665 369.216"/><polygon class="cls-9" points="220.192 371.792 220.113 372.223 243.791 377.086 243.431 376.565 220.192 371.792"/><polygon class="cls-9" points="219.72 374.368 219.641 374.799 245.939 380.201 245.58 379.68 219.72 374.368"/><polygon class="cls-9" points="219.247 376.944 219.168 377.375 243.958 382.467 244.457 382.122 219.247 376.944"/><polygon class="cls-9" points="218.774 379.521 218.695 379.951 240.972 384.527 241.471 384.182 218.774 379.521"/><polygon class="cls-9" points="218.302 382.096 218.223 382.527 237.986 386.587 238.486 386.242 218.302 382.096"/><polygon class="cls-9" points="217.829 384.673 217.75 385.103 235.001 388.646 235.5 388.302 217.829 384.673"/><polygon class="cls-9" points="217.356 387.248 217.277 387.681 232.013 390.707 232.514 390.362 217.356 387.248"/><polygon class="cls-9" points="216.884 389.825 216.804 390.257 229.028 392.767 229.528 392.422 216.884 389.825"/><polygon class="cls-9" points="216.411 392.401 216.332 392.833 226.042 394.827 226.543 394.482 216.411 392.401"/><polygon class="cls-9" points="215.938 394.978 215.859 395.409 223.056 396.887 223.555 396.543 215.938 394.978"/><polygon class="cls-9" points="215.465 397.554 215.386 397.985 220.07 398.947 220.57 398.603 215.465 397.554"/><polygon class="cls-9" points="223.659 352.9 227.673 353.725 227.314 353.204 227.253 353.192 223.738 352.47 223.659 352.9"/><polygon class="cls-9" points="223.265 355.046 223.186 355.477 229.822 356.84 229.462 356.318 223.265 355.046"/><polygon class="cls-9" points="222.792 357.622 222.713 358.054 231.972 359.956 231.611 359.433 222.792 357.622"/><polygon class="cls-9" points="222.32 360.198 222.241 360.63 234.12 363.07 233.76 362.548 222.32 360.198"/><polygon class="cls-9" points="221.847 362.774 221.768 363.206 236.269 366.185 235.909 365.662 221.847 362.774"/><polygon class="cls-9" points="221.374 365.352 221.295 365.782 238.418 369.299 238.059 368.778 221.374 365.352"/><polygon class="cls-9" points="220.901 367.928 220.822 368.358 240.567 372.414 240.208 371.893 220.901 367.928"/><polygon class="cls-9" points="220.429 370.503 220.35 370.934 242.716 375.528 242.356 375.007 220.429 370.503"/><polygon class="cls-9" points="219.956 373.08 219.877 373.51 244.864 378.643 244.505 378.122 219.956 373.08"/><polygon class="cls-9" points="219.483 375.656 219.404 376.086 245.451 381.436 245.95 381.092 219.483 375.656"/><polygon class="cls-9" points="219.011 378.232 218.932 378.662 242.466 383.496 242.965 383.152 219.011 378.232"/><polygon class="cls-9" points="218.538 380.808 218.459 381.238 239.48 385.556 239.979 385.212 218.538 380.808"/><polygon class="cls-9" points="218.066 383.384 217.987 383.814 236.495 387.616 236.993 387.272 218.066 383.384"/><polygon class="cls-9" points="217.593 385.96 217.514 386.392 233.507 389.677 234.008 389.331 217.593 385.96"/><polygon class="cls-9" points="217.12 388.536 217.041 388.968 230.521 391.737 231.022 391.391 217.12 388.536"/><polygon class="cls-9" points="216.647 391.112 216.568 391.544 227.536 393.797 228.036 393.451 216.647 391.112"/><polygon class="cls-9" points="216.174 393.69 216.095 394.12 224.55 395.857 225.049 395.512 216.174 393.69"/><polygon class="cls-9" points="215.702 396.266 215.623 396.696 221.564 397.917 222.063 397.572 215.702 396.266"/><polygon class="cls-9" points="215.229 398.842 215.15 399.272 218.54 399.969 218.578 399.977 219.078 399.632 215.229 398.842"/><rect class="cls-9" x="198.54558" y="358.43377" width="33.65278" height="33.65285" transform="translate(-170.93416 189.29616) rotate(-34.60259)"/><rect class="cls-9" x="230.23034" y="428.5273" width="47.30765" height="47.30769" transform="translate(89.84784 -37.78361) rotate(10.39738)"/><rect class="cls-6" x="248.01337" y="417.27492" width="24.67026" height="24.67021" transform="translate(-29.56309 22.88849) rotate(-4.60273)"/><line class="cls-12" x1="248.30177" y1="355.96158" x2="253.47217" y2="363.45578"/><line class="cls-12" x1="254.63407" y1="357.12348" x2="247.13987" y2="362.29388"/><line class="cls-12" x1="403.64036" y1="227.31998" x2="408.81086" y2="234.81418"/><line class="cls-12" x1="409.97266" y1="228.48188" x2="402.47846" y2="233.65238"/><line class="cls-12" x1="482.46206" y1="187.56578" x2="487.63256" y2="195.06008"/><line class="cls-12" x1="488.79446" y1="188.72768" x2="481.30016" y2="193.89818"/><line class="cls-14" x1="180.22347" y1="428.19628" x2="185.39397" y2="435.69048"/><line class="cls-14" x1="186.55587" y1="429.35818" x2="179.06157" y2="434.52858"/><path class="cls-7" d="M271.62079,385.0831l-41.6606,28.7426a1.30755,1.30755,0,0,1-1.8188-.3337h0a1.30755,1.30755,0,0,1,.3337-1.8188l41.6607-28.7426a1.30741,1.30741,0,0,1,1.8187.3337h0A1.30755,1.30755,0,0,1,271.62079,385.0831Z" transform="translate(4.07197 0.61098)"/><path class="cls-11" d="M278.048,387.468l-41.66061,28.7426a1.30755,1.30755,0,0,1-1.8188-.3337h0a1.30755,1.30755,0,0,1,.3337-1.8188L276.563,385.3155a1.3074,1.3074,0,0,1,1.81869.3337h0A1.30756,1.30756,0,0,1,278.048,387.468Z" transform="translate(4.07197 0.61098)"/><path class="cls-9" d="M370.414,344.5665l-27.78531-40.273a2.15041,2.15041,0,0,1,.5489-2.9912h0a2.15031,2.15031,0,0,1,2.9912.5488l27.7853,40.2731a2.15042,2.15042,0,0,1-.5489,2.9912h0A2.15032,2.15032,0,0,1,370.414,344.5665Z" transform="translate(4.07197 0.61098)"/><path class="cls-11" d="M367.25689,351.5265l-27.7853-40.273a2.15051,2.15051,0,0,1,.5488-2.9913h0a2.15053,2.15053,0,0,1,2.9913.5489l27.78531,40.273a2.15055,2.15055,0,0,1-.54891,2.9913h0A2.1504,2.1504,0,0,1,367.25689,351.5265Z" transform="translate(4.07197 0.61098)"/><path class="cls-7" d="M218.10129,496.4053l-27.78519-40.273a2.15043,2.15043,0,0,1,.5488-2.9913h0a2.15054,2.15054,0,0,1,2.9913.5489l27.78519,40.273a2.15043,2.15043,0,0,1-.5488,2.9913h0A2.15054,2.15054,0,0,1,218.10129,496.4053Z" transform="translate(4.07197 0.61098)"/><circle class="cls-10" cx="562.81624" cy="181.0661" r="21.89801" transform="translate(312.94719 715.58813) rotate(-82.39684)"/><path class="cls-8" d="M508.13259,178.6734a5.08181,5.08181,0,1,1-7.0688-1.297A5.08185,5.08185,0,0,1,508.13259,178.6734Z" transform="translate(4.07197 0.61098)"/><rect class="cls-11" x="458.16594" y="219.8506" width="47.30764" height="47.30764" transform="matrix(0.98358, 0.18047, -0.18047, 0.98358, 55.92916, -82.34573)"/><rect class="cls-9" x="475.94896" y="208.59817" width="24.67021" height="24.67021" transform="translate(-12.08177 40.50465) rotate(-4.60252)"/><line class="cls-15" x1="523.08197" y1="157.42308" x2="523.08197" y2="157.42308"/><line class="cls-16" x1="527.04626" y1="158.15048" x2="588.49286" y2="169.42508"/><line class="cls-15" x1="590.47497" y1="169.78878" x2="590.47497" y2="169.78878"/><line class="cls-15" x1="513.23116" y1="160.20318" x2="513.23116" y2="160.20318"/><line class="cls-16" x1="517.19546" y1="160.93058" x2="578.64206" y2="172.20518"/><line class="cls-15" x1="580.62416" y1="172.56888" x2="580.62416" y2="172.56888"/><line class="cls-15" x1="503.38036" y1="162.98328" x2="503.38036" y2="162.98328"/><line class="cls-16" x1="507.34466" y1="163.71068" x2="568.79126" y2="174.98528"/><line class="cls-15" x1="570.77336" y1="175.34898" x2="570.77336" y2="175.34898"/><circle class="cls-10" cx="731.99133" cy="382.94758" r="21.89806" transform="translate(261.10236 1059.48182) rotate(-82.52158)"/><line class="cls-15" x1="692.25716" y1="359.30458" x2="692.25716" y2="359.30458"/><line class="cls-16" x1="696.22146" y1="360.03198" x2="757.66805" y2="371.30658"/><line class="cls-15" x1="759.65015" y1="371.67028" x2="759.65015" y2="371.67028"/><line class="cls-15" x1="682.40626" y1="362.08468" x2="682.40626" y2="362.08468"/><line class="cls-16" x1="686.37056" y1="362.81208" x2="747.81715" y2="374.08668"/><line class="cls-15" x1="749.79935" y1="374.45038" x2="749.79935" y2="374.45038"/><line class="cls-15" x1="672.55546" y1="364.86478" x2="672.55546" y2="364.86478"/><line class="cls-16" x1="676.51976" y1="365.59218" x2="737.96635" y2="376.86678"/><line class="cls-15" x1="739.94845" y1="377.23048" x2="739.94845" y2="377.23048"/><path class="cls-9" d="M539.249,233.6041l-27.78531-40.273a2.15046,2.15046,0,0,1,.5489-2.9913h0a2.15042,2.15042,0,0,1,2.9912.5489l27.7853,40.273a2.15054,2.15054,0,0,1-.5489,2.9913h0A2.15039,2.15039,0,0,1,539.249,233.6041Z" transform="translate(4.07197 0.61098)"/><path class="cls-11" d="M548.64389,215.9384l-27.7853-40.2731a2.15042,2.15042,0,0,1,.5489-2.9912h0a2.15038,2.15038,0,0,1,2.9912.5488L552.184,213.496a2.15039,2.15039,0,0,1-.54881,2.9912h-.0001A2.15031,2.15031,0,0,1,548.64389,215.9384Z" transform="translate(4.07197 0.61098)"/><path class="cls-8" d="M534.55149,242.437l-27.7853-40.2731a2.15042,2.15042,0,0,1,.5489-2.9912h0a2.15038,2.15038,0,0,1,2.9912.5488l27.7853,40.2731a2.1504,2.1504,0,0,1-.5488,2.9912h-.0001A2.1504,2.1504,0,0,1,534.55149,242.437Z" transform="translate(4.07197 0.61098)"/><path class="cls-7" d="M543.94639,224.7712l-27.7852-40.273a2.15028,2.15028,0,0,1,.54881-2.9912h0a2.15042,2.15042,0,0,1,2.99129.5488l27.7852,40.273a2.15042,2.15042,0,0,1-.5488,2.9913h0A2.15054,2.15054,0,0,1,543.94639,224.7712Z" transform="translate(4.07197 0.61098)"/><rect class="cls-9" x="310.87112" y="368.98057" width="13.65665" height="13.6567" transform="translate(77.11336 -50.55517) rotate(10.3975)"/><rect class="cls-8" x="350.90131" y="369.20908" width="20.28175" height="20.28179" transform="translate(-69.29507 87.47765) rotate(-12.46449)"/><rect class="cls-6" x="334.62794" y="370.30905" width="5.37521" height="5.37514" transform="translate(236.63736 -118.26195) rotate(30.10199)"/><line class="cls-15" x1="304.92007" y1="392.92998" x2="304.92007" y2="392.92998"/><line class="cls-16" x1="308.88437" y1="393.65738" x2="370.33086" y2="404.93198"/><line class="cls-15" x1="372.31306" y1="405.29568" x2="372.31306" y2="405.29568"/><line class="cls-15" x1="295.06927" y1="395.71008" x2="295.06927" y2="395.71008"/><line class="cls-16" x1="299.03357" y1="396.43758" x2="360.48006" y2="407.71208"/><line class="cls-15" x1="362.46226" y1="408.07588" x2="362.46226" y2="408.07588"/><line class="cls-15" x1="285.21847" y1="398.49028" x2="285.21847" y2="398.49028"/><line class="cls-16" x1="289.18277" y1="399.21758" x2="350.62926" y2="410.49228"/><line class="cls-15" x1="352.61146" y1="410.85588" x2="352.61146" y2="410.85588"/><polygon class="cls-6" points="308.721 298.382 287.164 313.255 289.266 339.359 312.924 350.592 334.481 335.719 332.379 309.615 308.721 298.382"/><polygon class="cls-11" points="275.383 497.861 318.347 508.198 305.816 465.822 275.383 497.861"/><rect class="cls-8" x="348.76582" y="443.15693" width="20.28185" height="20.28179" transform="translate(-85.30727 88.76138) rotate(-12.46471)"/><circle class="cls-10" cx="541.20714" cy="410.74267" r="21.89806" transform="translate(63.0124 889.92814) rotate(-81.97608)"/><polygon class="cls-4" points="462.744 300.285 528.863 338.614 528.998 262.189 462.744 300.285"/><rect class="cls-5" x="399.83774" y="351.65387" width="38.10995" height="38.10997" transform="translate(-132.3491 304.06843) rotate(-34.60278)"/><polygon class="cls-6" points="463.469 292.399 521.672 341.929 535.465 266.759 463.469 292.399"/><polygon class="cls-8" points="490.655 303.162 467.96 332.967 505.119 337.72 490.655 303.162"/><polygon class="cls-8" points="419.266 405.308 403.913 409.846 415.52 420.873 419.266 405.308"/><path class="cls-9" d="M483.37629,345.3998a9.09375,9.09375,0,1,1-12.64929-2.3209A9.09377,9.09377,0,0,1,483.37629,345.3998Z" transform="translate(4.07197 0.61098)"/><path class="cls-9" d="M728.40848,267.7728a3.56616,3.56616,0,1,1-4.96048-.9102A3.56627,3.56627,0,0,1,728.40848,267.7728Z" transform="translate(4.07197 0.61098)"/><path class="cls-10" d="M547.69809,340.6657a9.09376,9.09376,0,1,1-12.6494-2.3209A9.09393,9.09393,0,0,1,547.69809,340.6657Z" transform="translate(4.07197 0.61098)"/><path class="cls-10" d="M391.41479,396.9954a9.09376,9.09376,0,1,1-12.6493-2.3209A9.09385,9.09385,0,0,1,391.41479,396.9954Z" transform="translate(4.07197 0.61098)"/><path class="cls-7" d="M482.40409,371.3077a2.76378,2.76378,0,1,1-3.8444-.7054A2.76378,2.76378,0,0,1,482.40409,371.3077Z" transform="translate(4.07197 0.61098)"/><path class="cls-9" d="M653.58758,417.5452a9.09373,9.09373,0,1,1-12.6493-2.321A9.09375,9.09375,0,0,1,653.58758,417.5452Z" transform="translate(4.07197 0.61098)"/><path class="cls-7" d="M652.61538,443.4531a2.76378,2.76378,0,1,1-3.84438-.7054A2.7638,2.7638,0,0,1,652.61538,443.4531Z" transform="translate(4.07197 0.61098)"/><path class="cls-11" d="M440.83019,326.1204a5.08177,5.08177,0,1,1-7.0687-1.297A5.0817,5.0817,0,0,1,440.83019,326.1204Z" transform="translate(4.07197 0.61098)"/><path class="cls-8" d="M486.52339,408.35a5.08177,5.08177,0,1,1-7.0687-1.297A5.08183,5.08183,0,0,1,486.52339,408.35Z" transform="translate(4.07197 0.61098)"/><path class="cls-7" d="M418.644,437.3933a2.76379,2.76379,0,1,1-3.84441-.7054A2.76379,2.76379,0,0,1,418.644,437.3933Z" transform="translate(4.07197 0.61098)"/><path class="cls-11" d="M406.43159,429.8968a5.08181,5.08181,0,1,1-7.0688-1.297A5.0818,5.0818,0,0,1,406.43159,429.8968Z" transform="translate(4.07197 0.61098)"/><path class="cls-7" d="M167.839,398.9695a2.76378,2.76378,0,1,1-3.8444-.7054A2.76378,2.76378,0,0,1,167.839,398.9695Z" transform="translate(4.07197 0.61098)"/><path class="cls-11" d="M155.6266,391.473a5.08181,5.08181,0,1,1-7.0688-1.297A5.0818,5.0818,0,0,1,155.6266,391.473Z" transform="translate(4.07197 0.61098)"/><polygon class="cls-9" points="420.054 347.928 419.975 348.359 425.301 349.453 424.941 348.932 420.054 347.928"/><polygon class="cls-9" points="419.581 350.504 419.502 350.935 427.45 352.567 427.09 352.046 419.581 350.504"/><polygon class="cls-9" points="419.109 353.08 419.029 353.513 429.6 355.683 429.239 355.161 419.109 353.08"/><polygon class="cls-9" points="418.636 355.656 418.557 356.088 431.748 358.798 431.388 358.275 418.636 355.656"/><polygon class="cls-9" points="418.163 358.232 418.084 358.665 433.897 361.913 433.537 361.39 418.163 358.232"/><polygon class="cls-9" points="417.69 360.81 417.611 361.241 436.046 365.027 435.686 364.506 417.69 360.81"/><polygon class="cls-9" points="417.218 363.386 417.139 363.817 438.194 368.141 437.835 367.621 417.218 363.386"/><polygon class="cls-9" points="416.745 365.962 416.666 366.393 440.343 371.256 439.984 370.735 416.745 365.962"/><polygon class="cls-9" points="416.272 368.538 416.194 368.969 442.492 374.37 442.133 373.849 416.272 368.538"/><polygon class="cls-9" points="415.8 371.114 415.721 371.545 440.51 376.637 441.01 376.292 415.8 371.114"/><polygon class="cls-9" points="415.327 373.69 415.248 374.121 437.525 378.696 438.024 378.352 415.327 373.69"/><polygon class="cls-9" points="414.855 376.266 414.775 376.697 434.539 380.756 435.038 380.412 414.855 376.266"/><polygon class="cls-9" points="414.382 378.842 414.303 379.273 431.554 382.816 432.053 382.472 414.382 378.842"/><polygon class="cls-9" points="413.909 381.418 413.83 381.85 428.566 384.877 429.067 384.531 413.909 381.418"/><polygon class="cls-9" points="413.436 383.994 413.357 384.427 425.58 386.937 426.081 386.591 413.436 383.994"/><polygon class="cls-9" points="412.964 386.57 412.885 387.002 422.595 388.997 423.095 388.651 412.964 386.57"/><polygon class="cls-9" points="412.491 389.148 412.412 389.579 419.609 391.057 420.108 390.713 412.491 389.148"/><polygon class="cls-9" points="412.018 391.724 411.939 392.155 416.623 393.117 417.122 392.772 412.018 391.724"/><polygon class="cls-9" points="420.212 347.07 424.226 347.895 423.867 347.374 423.806 347.361 420.291 346.639 420.212 347.07"/><polygon class="cls-9" points="419.818 349.215 419.739 349.646 426.375 351.009 426.015 350.488 419.818 349.215"/><polygon class="cls-9" points="419.345 351.791 419.266 352.224 428.525 354.125 428.164 353.603 419.345 351.791"/><polygon class="cls-9" points="418.873 354.368 418.793 354.8 430.673 357.24 430.313 356.717 418.873 354.368"/><polygon class="cls-9" points="418.4 356.944 418.321 357.376 432.822 360.355 432.462 359.832 418.4 356.944"/><polygon class="cls-9" points="417.927 359.521 417.848 359.952 434.971 363.469 434.612 362.948 417.927 359.521"/><polygon class="cls-9" points="417.454 362.097 417.375 362.528 437.12 366.583 436.76 366.063 417.454 362.097"/><polygon class="cls-9" points="416.982 364.673 416.903 365.104 439.268 369.698 438.909 369.177 416.982 364.673"/><polygon class="cls-9" points="416.509 367.249 416.43 367.68 441.417 372.812 441.058 372.291 416.509 367.249"/><polygon class="cls-9" points="416.036 369.825 415.957 370.256 442.004 375.606 442.503 375.262 416.036 369.825"/><polygon class="cls-9" points="415.564 372.402 415.485 372.832 439.019 377.666 439.517 377.322 415.564 372.402"/><polygon class="cls-9" points="415.091 374.977 415.012 375.408 436.033 379.726 436.532 379.381 415.091 374.977"/><polygon class="cls-9" points="414.618 377.553 414.539 377.984 433.047 381.785 433.546 381.441 414.618 377.553"/><polygon class="cls-9" points="414.146 380.129 414.066 380.562 430.06 383.847 430.561 383.501 414.146 380.129"/><polygon class="cls-9" points="413.673 382.705 413.594 383.138 427.074 385.907 427.575 385.561 413.673 382.705"/><polygon class="cls-9" points="413.2 385.282 413.121 385.714 424.089 387.966 424.589 387.621 413.2 385.282"/><polygon class="cls-9" points="412.727 387.859 412.648 388.29 421.103 390.026 421.602 389.682 412.727 387.859"/><polygon class="cls-9" points="412.255 390.435 412.176 390.866 418.117 392.086 418.616 391.742 412.255 390.435"/><polygon class="cls-9" points="411.782 393.011 411.703 393.442 415.093 394.138 415.131 394.146 415.63 393.802 411.782 393.011"/><rect class="cls-9" x="395.09838" y="352.60348" width="33.65283" height="33.65274" transform="translate(-132.85512 299.88344) rotate(-34.60259)"/><rect class="cls-5" x="585.81097" y="409.0902" width="38.10993" height="38.10999" transform="translate(-132.06922 419.83699) rotate(-34.60258)"/><polygon class="cls-9" points="606.027 405.364 605.948 405.795 611.274 406.889 610.915 406.368 606.027 405.364"/><polygon class="cls-9" points="605.555 407.94 605.476 408.371 613.423 410.004 613.063 409.482 605.555 407.94"/><polygon class="cls-9" points="605.082 410.516 605.003 410.949 615.573 413.12 615.212 412.597 605.082 410.516"/><polygon class="cls-9" points="604.609 413.093 604.53 413.525 617.721 416.234 617.361 415.712 604.609 413.093"/><polygon class="cls-9" points="604.137 415.669 604.057 416.101 619.87 419.349 619.51 418.826 604.137 415.669"/><polygon class="cls-9" points="603.664 418.246 603.585 418.677 622.019 422.463 621.66 421.943 603.664 418.246"/><polygon class="cls-9" points="603.191 420.822 603.112 421.253 624.168 425.578 623.809 425.057 603.191 420.822"/><polygon class="cls-9" points="602.718 423.398 602.639 423.829 626.317 428.692 625.957 428.171 602.718 423.398"/><polygon class="cls-9" points="602.246 425.974 602.167 426.405 628.465 431.807 628.106 431.286 602.246 425.974"/><polygon class="cls-9" points="601.773 428.55 601.694 428.981 626.484 434.073 626.983 433.728 601.773 428.55"/><polygon class="cls-9" points="601.3 431.127 601.221 431.557 623.498 436.132 623.997 435.788 601.3 431.127"/><polygon class="cls-9" points="600.828 433.702 600.749 434.133 620.512 438.193 621.012 437.848 600.828 433.702"/><polygon class="cls-9" points="600.355 436.279 600.276 436.709 617.527 440.252 618.026 439.908 600.355 436.279"/><polygon class="cls-9" points="599.882 438.854 599.803 439.287 614.539 442.313 615.04 441.968 599.882 438.854"/><polygon class="cls-9" points="599.41 441.431 599.33 441.863 611.554 444.373 612.055 444.028 599.41 441.431"/><polygon class="cls-9" points="598.937 444.007 598.858 444.439 608.568 446.433 609.069 446.088 598.937 444.007"/><polygon class="cls-9" points="598.464 446.584 598.385 447.015 605.582 448.493 606.081 448.149 598.464 446.584"/><polygon class="cls-9" points="597.991 449.16 597.912 449.591 602.596 450.553 603.096 450.209 597.991 449.16"/><polygon class="cls-9" points="606.185 404.506 610.199 405.331 609.84 404.81 609.779 404.798 606.264 404.076 606.185 404.506"/><polygon class="cls-9" points="605.791 406.652 605.712 407.083 612.348 408.446 611.988 407.924 605.791 406.652"/><polygon class="cls-9" points="605.318 409.228 605.239 409.66 614.498 411.562 614.137 411.039 605.318 409.228"/><polygon class="cls-9" points="604.846 411.804 604.767 412.236 616.646 414.676 616.286 414.154 604.846 411.804"/><polygon class="cls-9" points="604.373 414.38 604.294 414.812 618.795 417.791 618.435 417.268 604.373 414.38"/><polygon class="cls-9" points="603.9 416.958 603.821 417.388 620.944 420.905 620.585 420.384 603.9 416.958"/><polygon class="cls-9" points="603.427 419.534 603.349 419.964 623.093 424.02 622.734 423.499 603.427 419.534"/><polygon class="cls-9" points="602.955 422.109 602.876 422.54 625.242 427.134 624.882 426.613 602.955 422.109"/><polygon class="cls-9" points="602.482 424.686 602.403 425.116 627.39 430.249 627.031 429.728 602.482 424.686"/><polygon class="cls-9" points="602.01 427.262 601.93 427.692 627.977 433.042 628.477 432.698 602.01 427.262"/><polygon class="cls-9" points="601.537 429.838 601.458 430.268 624.992 435.102 625.491 434.758 601.537 429.838"/><polygon class="cls-9" points="601.064 432.414 600.985 432.844 622.006 437.162 622.505 436.818 601.064 432.414"/><polygon class="cls-9" points="600.592 434.99 600.513 435.42 619.021 439.222 619.519 438.878 600.592 434.99"/><polygon class="cls-9" points="600.119 437.566 600.04 437.998 616.033 441.283 616.534 440.937 600.119 437.566"/><polygon class="cls-9" points="599.646 440.142 599.567 440.574 613.047 443.343 613.548 442.997 599.646 440.142"/><polygon class="cls-9" points="599.174 442.718 599.094 443.15 610.062 445.403 610.562 445.057 599.174 442.718"/><polygon class="cls-9" points="598.701 445.296 598.622 445.726 607.076 447.463 607.575 447.118 598.701 445.296"/><polygon class="cls-9" points="598.228 447.872 598.149 448.302 604.09 449.523 604.589 449.178 598.228 447.872"/><polygon class="cls-9" points="597.755 450.448 597.676 450.878 601.066 451.575 601.104 451.583 601.604 451.238 597.755 450.448"/><rect class="cls-9" x="581.07162" y="410.03977" width="33.65278" height="33.65285" transform="translate(-132.57547 415.65522) rotate(-34.60269)"/><rect class="cls-9" x="426.78319" y="422.697" width="47.3076" height="47.3076" transform="translate(92.02306 -73.35205) rotate(10.39738)"/><rect class="cls-6" x="444.56621" y="411.44457" width="24.67021" height="24.67016" transform="translate(-28.46134 38.64234) rotate(-4.60273)"/><line class="cls-12" x1="444.85456" y1="350.13118" x2="450.02497" y2="357.62538"/><line class="cls-12" x1="451.18686" y1="351.29308" x2="443.69266" y2="356.46348"/><line class="cls-12" x1="632.67216" y1="449.04498" x2="637.84256" y2="456.53928"/><line class="cls-12" x1="639.00446" y1="450.20688" x2="631.51026" y2="455.37738"/><line class="cls-14" x1="376.77636" y1="422.36588" x2="381.94676" y2="429.86008"/><line class="cls-14" x1="383.10866" y1="423.52778" x2="375.61446" y2="428.69818"/><line class="cls-14" x1="181.27157" y1="375.20648" x2="186.44207" y2="382.70068"/><line class="cls-14" x1="187.60397" y1="376.36838" x2="180.10967" y2="381.53878"/><path class="cls-7" d="M468.17359,379.2527,426.513,407.9954a1.30767,1.30767,0,0,1-1.81881-.3338h0a1.3075,1.3075,0,0,1,.3337-1.8187l41.6607-28.7427a1.30766,1.30766,0,0,1,1.8188.3338h0A1.30743,1.30743,0,0,1,468.17359,379.2527Z" transform="translate(4.07197 0.61098)"/><path class="cls-11" d="M474.60079,381.6376l-41.6606,28.7427a1.30766,1.30766,0,0,1-1.8188-.3338h0a1.30743,1.30743,0,0,1,.3337-1.8187l41.6607-28.7426a1.30755,1.30755,0,0,1,1.8188.3337h0A1.30744,1.30744,0,0,1,474.60079,381.6376Z" transform="translate(4.07197 0.61098)"/><path class="cls-9" d="M572.58669,345.2892l-27.7853-40.273a2.15055,2.15055,0,0,1,.5489-2.9913h0a2.15042,2.15042,0,0,1,2.9912.5489l27.7853,40.273a2.1504,2.1504,0,0,1-.5489,2.9912v.0001A2.15042,2.15042,0,0,1,572.58669,345.2892Z" transform="translate(4.07197 0.61098)"/><path class="cls-11" d="M563.80969,345.6961l-27.7853-40.273a2.15041,2.15041,0,0,1,.5489-2.9912h0a2.15031,2.15031,0,0,1,2.9912.5488l27.7853,40.273a2.15054,2.15054,0,0,1-.5489,2.9913h0A2.15042,2.15042,0,0,1,563.80969,345.6961Z" transform="translate(4.07197 0.61098)"/><rect class="cls-9" x="507.42391" y="363.15022" width="13.65665" height="13.65665" transform="translate(79.28864 -86.12401) rotate(10.3975)"/><rect class="cls-8" x="547.45412" y="363.37872" width="20.28179" height="20.28175" transform="translate(-63.40365 129.76245) rotate(-12.46443)"/><rect class="cls-6" x="531.18074" y="364.47866" width="5.37519" height="5.37519" transform="translate(260.21205 -217.62303) rotate(30.10106)"/><rect class="cls-9" x="672.88231" y="283.54023" width="13.6567" height="13.65664" transform="translate(67.63732 -117.29174) rotate(10.39742)"/><rect class="cls-9" x="697.13452" y="381.42002" width="13.65663" height="13.6567" transform="translate(85.69741 -120.05776) rotate(10.39708)"/><rect class="cls-6" x="702.57894" y="282.91896" width="5.37519" height="5.37519" transform="translate(242.42208 -314.58279) rotate(30.10106)"/><line class="cls-15" x1="501.47286" y1="387.09968" x2="501.47286" y2="387.09968"/><line class="cls-16" x1="505.43716" y1="387.82708" x2="566.88376" y2="399.10168"/><line class="cls-15" x1="568.86586" y1="399.46538" x2="568.86586" y2="399.46538"/><line class="cls-15" x1="491.62206" y1="389.87978" x2="491.62206" y2="389.87978"/><line class="cls-16" x1="495.58636" y1="390.60718" x2="557.03297" y2="401.88178"/><line class="cls-15" x1="559.01506" y1="402.24548" x2="559.01506" y2="402.24548"/><line class="cls-15" x1="481.77126" y1="392.65988" x2="481.77126" y2="392.65988"/><line class="cls-16" x1="485.73556" y1="393.38728" x2="547.18206" y2="404.66188"/><line class="cls-15" x1="549.16426" y1="405.02558" x2="549.16426" y2="405.02558"/><rect class="cls-5" x="567.61215" y="207.50465" width="38.10996" height="38.10995" transform="translate(-20.81181 373.84393) rotate(-34.60258)"/><polygon class="cls-8" points="587.04 261.159 571.687 265.697 583.294 276.724 587.04 261.159"/><polygon class="cls-8" points="664.509 365.412 649.156 369.95 660.762 380.978 664.509 365.412"/><polygon class="cls-8" points="463.824 181.178 448.471 185.717 460.078 196.744 463.824 181.178"/><path class="cls-9" d="M651.15068,201.2506a9.09376,9.09376,0,1,1-12.6493-2.3209A9.0937,9.0937,0,0,1,651.15068,201.2506Z" transform="translate(4.07197 0.61098)"/><path class="cls-9" d="M437.90009,222.111a9.09376,9.09376,0,1,1-12.6493-2.3209A9.09363,9.09363,0,0,1,437.90009,222.111Z" transform="translate(4.07197 0.61098)"/><path class="cls-9" d="M619.85248,346.7354a25.49589,25.49589,0,0,0-3.8264-1.037l-5.5699-1.022c-.616-.114-1.239-.1848-1.8621-.2532Z" transform="translate(4.07197 0.61098)"/><path class="cls-9" d="M601.95378,344.5783l23.318,4.7892c-.2073-.134-.4201-.2557-.6306-.3834l-21.9829-4.5153C602.423,344.4984,602.18868,344.5419,601.95378,344.5783Z" transform="translate(4.07197 0.61098)"/><path class="cls-9" d="M598.40338,345.3676l29.6104,6.0817c-.1281-.1104-.2533-.2248-.3831-.3323L598.951,345.2264C598.76908,345.2779,598.58448,345.3119,598.40338,345.3676Z" transform="translate(4.07197 0.61098)"/><path class="cls-9" d="M595.77238,346.3467l34.2437,7.0336c-.0987-.1061-.1973-.2117-.2974-.3159l-33.5413-6.8891C596.042,346.2314,595.90718,346.288,595.77238,346.3467Z" transform="translate(4.07197 0.61098)"/><path class="cls-9" d="M593.59059,347.4167l37.97329,7.7994c-.0771-.1004-.1528-.2022-.2311-.3012l-37.3902-7.6797C593.82568,347.2976,593.70679,347.3523,593.59059,347.4167Z" transform="translate(4.07197 0.61098)"/><path class="cls-9" d="M591.74469,348.5569l41.06919,8.4356c-.06188-.0966-.1171-.1956-.1803-.2918L592.054,348.366C591.95179,348.4325,591.84619,348.4889,591.74469,348.5569Z" transform="translate(4.07197 0.61098)"/><path class="cls-9" d="M590.13879,349.7463l43.70759,8.9772c-.0497-.0932-.0867-.1902-.1378-.2829l-43.308-8.8952C590.31349,349.6124,590.225,349.6782,590.13879,349.7463Z" transform="translate(4.07197 0.61098)"/><path class="cls-9" d="M588.70239,350.9702l45.96419,9.4408c-.0421-.0953-.094-.1879-.1375-.2829l-45.60479-9.3668C588.84829,350.8294,588.77739,350.9013,588.70239,350.9702Z" transform="translate(4.07197 0.61098)"/><path class="cls-9" d="M587.40489,352.2222l47.90659,9.8398q-.04965-.1374-.101-.2748l-47.61039-9.779C587.53279,352.078,587.47119,352.1518,587.40489,352.2222Z" transform="translate(4.07197 0.61098)"/><path class="cls-9" d="M586.47249,353.2957c-.0612.0727-.127.1423-.1873.2156l49.55869,10.1792c-.0253-.0892-.0431-.1794-.0694-.2683Z" transform="translate(4.07197 0.61098)"/><path class="cls-9" d="M585.44209,354.6027c-.0537.0733-.1042.1482-.157.222l50.97359,10.4699c-.0193-.0901-.049-.1787-.0693-.2686Z" transform="translate(4.07197 0.61098)"/><path class="cls-9" d="M584.50319,355.929c-.0474.0742-.08819.1515-.1348.2262l52.15569,10.7126c-.01308-.0876-.0272-.1747-.041-.2622Z" transform="translate(4.07197 0.61098)"/><path class="cls-9" d="M583.723,357.2877c-.04231.0763-.08811.1509-.12971.2276l53.12389,10.9113c-.0075-.0857-.0067-.1716-.015-.2573Z" transform="translate(4.07197 0.61098)"/><path class="cls-9" d="M583.00829,358.6601c-.0367.0768-.06829.1556-.1041.2328l53.90219,11.0713c-.0021-.0858-.012-.1715-.0149-.2573Z" transform="translate(4.07197 0.61098)"/><path class="cls-9" d="M582.38579,360.0507c-.032.0787-.0732.1538-.1042.2327L636.786,371.4786c.003-.0841.00748-.168.00958-.252Z" transform="translate(4.07197 0.61098)"/><path class="cls-9" d="M581.87749,361.4651c-.0268.0792-.0542.1582-.0801.2376l54.91249,11.2789c.0078-.0831.0212-.1651.0282-.2483Z" transform="translate(4.07197 0.61098)"/><path class="cls-9" d="M581.42259,362.8907c-.0219.08-.0353.1619-.05659.2423l55.145,11.3267c.01248-.0822.02138-.1649.03318-.2473Z" transform="translate(4.07197 0.61098)"/><path class="cls-9" d="M581.08449,364.34c-.0172.0814-.0403.1615-.0567.2431L636.242,375.9237c.01748-.0813.04018-.1614.05678-.2427Z" transform="translate(4.07197 0.61098)"/><path class="cls-9" d="M580.82069,365.8055c-.0125.0822-.02169.1648-.0334.2471l55.11659,11.3206c.022-.0801.03512-.1622.0565-.2424Z" transform="translate(4.07197 0.61098)"/><path class="cls-9" d="M580.62179,367.2826c-.0077.0834-.0163.1665-.0233.2501l54.84539,11.265c.02712-.0794.054-.1585.0802-.238Z" transform="translate(4.07197 0.61098)"/><path class="cls-9" d="M580.55059,368.7876c-.0027.084-.00759.1679-.0095.2519l54.38939,11.1713c.0321-.0785.073-.1537.1041-.2325Z" transform="translate(4.07197 0.61098)"/><path class="cls-9" d="M580.53549,370.3034c.00251.0857.0117.1713.0151.2569l53.75719,11.0416c.0368-.0768.0681-.1556.10422-.2326Z" transform="translate(4.07197 0.61098)"/><path class="cls-9" d="M580.62489,371.8406c.0075.0856.0064.1714.0149.257l52.94779,10.8755c.0426-.0763.0879-.1509.1296-.2275Z" transform="translate(4.07197 0.61098)"/><path class="cls-9" d="M580.82359,373.4003c.0133.0876.0268.1748.041.2622l51.93709,10.6677c.0479-.0746.0937-.1499.1406-.2248Z" transform="translate(4.07197 0.61098)"/><path class="cls-9" d="M581.095,374.9747c.01949.0903.04889.1792.06949.2693l50.698,10.4129c.054-.0732.1041-.1486.1574-.2224Z" transform="translate(4.07197 0.61098)"/><path class="cls-9" d="M581.50979,376.5789c.0256.089.0427.1794.0694.2682l49.24649,10.1153c.0614-.0726.1269-.1425.18732-.2156Z" transform="translate(4.07197 0.61098)"/><path class="cls-9" d="M582.049,378.2086c.03329.0919.06679.1837.10129.2753l47.54019,9.7645c.0684-.0705.13552-.1415.2029-.2126Z" transform="translate(4.07197 0.61098)"/><path class="cls-9" d="M582.70229,379.8623c.0421.0951.0935.1874.137.2821l45.52709,9.351c.076-.0678.1463-.1399.2214-.2085Z" transform="translate(4.07197 0.61098)"/><path class="cls-9" d="M583.522,381.5487c.05069.0946.09469.1909.14689.285l43.21269,8.8757c.0873-.0668.17542-.1329.2617-.2008Z" transform="translate(4.07197 0.61098)"/><path class="cls-9" d="M584.56419,383.2826c.0619.0961.1162.1949.1796.2905l40.47449,8.3134c.102-.0659.207-.1229.3082-.1904Z" transform="translate(4.07197 0.61098)"/><path class="cls-9" d="M585.82459,385.0601c.0775.1003.1527.2026.23141.3014l37.26058,7.6532c.1205-.0638.2453-.1131.365-.179Z" transform="translate(4.07197 0.61098)"/><path class="cls-9" d="M587.38729,386.9c.0986.1053.1966.2113.2966.3147l33.382,6.8564c.1399-.0573.281-.1073.4203-.1673Z" transform="translate(4.07197 0.61098)"/><path class="cls-9" d="M589.40729,388.8336c.12871.1099.2533.2257.3838.3327l28.47791,5.8494c.18248-.0506.36708-.0866.54868-.1414Z" transform="translate(4.07197 0.61098)"/><path class="cls-9" d="M592.17649,390.9212c.2193.1404.4491.259.6721.3921l21.67959,4.4529c.2355-.0282.4691-.0744.7042-.1093Z" transform="translate(4.07197 0.61098)"/><path class="cls-9" d="M597.90658,393.6169a25.468,25.468,0,0,0,3.4052.8961l5.57,1.022c.3559.0658.7171.0956,1.0755.1462Z" transform="translate(4.07197 0.61098)"/><path class="cls-9" d="M605.48258,344.2587c-.3229.0044-.64558.0385-.96858.0553l18.65078,3.8306c-.3105-.1608-.6289-.3006-.945-.4481Z" transform="translate(4.07197 0.61098)"/><path class="cls-9" d="M600.65678,344.7867c-.18378.0384-.3642.0986-.5473.1411l26.6153,5.4667c-.1655-.1246-.33778-.2373-.50578-.3576Z" transform="translate(4.07197 0.61098)"/><path class="cls-9" d="M597.558,345.6687c-.14892.0517-.29642.1087-.44472.1633l31.9795,6.5684c-.1179-.1139-.2424-.2177-.3621-.3289Z" transform="translate(4.07197 0.61098)"/><path class="cls-9" d="M595.086,346.68c-.12292.0578-.24492.1183-.36712.1783l36.1253,7.4198c-.0894-.1059-.18318-.2056-.2739-.3099Z" transform="translate(4.07197 0.61098)"/><path class="cls-9" d="M593.01389,347.7729c-.104.0613-.2058.1281-.3092.1911l39.52359,8.1181c-.0737-.105-.157-.1988-.232-.3023Z" transform="translate(4.07197 0.61098)"/><path class="cls-9" d="M591.21309,348.9221c-.0905.0642-.1724.1359-.2618.201l42.37849,8.7041c-.05778-.098-.1212-.1941-.1804-.2917Z" transform="translate(4.07197 0.61098)"/><path class="cls-9" d="M589.65109,350.1204c-.0838.0696-.1773.1307-.26009.2012l44.84908,9.2116c-.0463-.0942-.0904-.1891-.1376-.283Z" transform="translate(4.07197 0.61098)"/><path class="cls-9" d="M588.289,351.3596c-.07311.0701-.14971.1377-.22161.2086l46.92979,9.6392c-.0365-.091-.0634-.1841-.1009-.2749Z" transform="translate(4.07197 0.61098)"/><path class="cls-9" d="M587.05489,352.6251c-.06389.0709-.1243.1442-.1874.2157l48.73379,10.0095c-.0299-.0923-.0702-.1824-.1011-.2747Z" transform="translate(4.07197 0.61098)"/><path class="cls-9" d="M585.93549,353.9138c-.0568.0721-.1061.1484-.1621.221L636.043,364.46c-.02252-.0896-.046-.179-.06962-.2684Z" transform="translate(4.07197 0.61098)"/><path class="cls-9" d="M584.99159,355.2392c-.0512.0745-.1067.1468-.157.2218l51.56189,10.5904c-.0161-.0872-.0242-.1751-.0411-.2622Z" transform="translate(4.07197 0.61098)"/><path class="cls-9" d="M584.12609,356.5803c-.045.0752-.0856.1522-.1297.2277l52.64529,10.813c-.0103-.0879-.02968-.175-.0411-.2627Z" transform="translate(4.07197 0.61098)"/><path class="cls-9" d="M583.35109,357.9403c-.0396.0768-.0842.1516-.12309.2289l53.532,10.9952c-.00482-.0858-.00912-.1716-.015-.2573Z" transform="translate(4.07197 0.61098)"/><path class="cls-9" d="M582.70969,359.3271c-.0344.0777-.0706.1547-.1042.2327L636.816,370.6945c.00028-.0842.01-.1678.00948-.2521Z" transform="translate(4.07197 0.61098)"/><path class="cls-9" d="M582.12629,360.7261c-.02929.0784-.0517.1589-.0801.2376l54.71219,11.2376c.0053-.0839.0051-.168.00962-.252Z" transform="translate(4.07197 0.61098)"/><path class="cls-9" d="M581.64789,362.1468c-.0245.0798-.0562.1573-.07989.2374l55.04648,11.3065c.0101-.0824.0238-.1645.0331-.2472Z" transform="translate(4.07197 0.61098)"/><path class="cls-9" d="M581.26039,363.586c-.0197.0809-.0377.1619-.0567.243l55.21169,11.3401c.015-.082.0192-.1655.0334-.2475Z" transform="translate(4.07197 0.61098)"/><path class="cls-9" d="M580.92409,365.0366c-.0149.0818-.0192.1651-.0333.2471l55.189,11.3355c.0196-.0807.0378-.1616.0567-.2425Z" transform="translate(4.07197 0.61098)"/><path class="cls-9" d="M580.72539,366.5137c-.0102.0828-.0241.165-.0336.248l55.00089,11.2969c.0247-.08.0565-.1578.0802-.238Z" transform="translate(4.07197 0.61098)"/><path class="cls-9" d="M580.58059,368.0035c-.0053.084-.0052.168-.00959.252l54.64358,11.2235c.0291-.0785.0516-.1588.0799-.2375Z" transform="translate(4.07197 0.61098)"/><path class="cls-9" d="M580.52309,369.5106c-.0003.0841-.01009.1679-.0097.252l54.11829,11.1157c.0342-.0776.0706-.1546.1042-.2326Z" transform="translate(4.07197 0.61098)"/><path class="cls-9" d="M580.57849,371.0408c.0047.0858.0091.1714.0148.2572l53.39739,10.9677c.0398-.077.0835-.1517.1224-.229Z" transform="translate(4.07197 0.61098)"/><path class="cls-9" d="M580.696,372.584c.01039.0877.02969.1745.04089.2621L633.216,383.6252c.04478-.075.08558-.1519.12938-.2272Z" transform="translate(4.07197 0.61098)"/><path class="cls-9" d="M580.94119,374.153c.016.0876.0242.1759.0412.2634l51.36839,10.5507c.0514-.0748.1069-.1472.1574-.2224Z" transform="translate(4.07197 0.61098)"/><path class="cls-9" d="M581.29389,375.7444c.0225.0895.04611.1788.0694.2682l50.04489,10.2792c.0567-.072.1055-.1484.1612-.2209Z" transform="translate(4.07197 0.61098)"/><path class="cls-9" d="M581.73479,377.3539c.0298.0927.07021.183.1013.2753l48.45239,9.9518c.0639-.0709.1243-.1442.1874-.2158Z" transform="translate(4.07197 0.61098)"/><path class="cls-9" d="M582.33909,378.9976c.0364.0909.0633.184.10091.2746l46.61518,9.5746c.073-.0703.1495-.1377.2214-.2085Z" transform="translate(4.07197 0.61098)"/><path class="cls-9" d="M583.09519,380.6709c.0461.0944.0904.1891.1377.283l44.46111,9.1322c.08358-.0695.17648-.131.259-.2013Z" transform="translate(4.07197 0.61098)"/><path class="cls-9" d="M584.005,382.3776c.05739.0978.12089.1933.17959.2905l41.94789,8.6159c.0901-.0638.1717-.1352.2607-.2Z" transform="translate(4.07197 0.61098)"/><path class="cls-9" d="M585.10479,384.1221c.0735.1047.1568.1981.2313.3015l38.99679,8.0099c.1039-.0612.2056-.1278.3088-.1908Z" transform="translate(4.07197 0.61098)"/><path class="cls-9" d="M586.48849,385.9251c.0889.1057.1817.206.2721.3097l35.50189,7.292c.1228-.0579.2448-.1184.367-.1783Z" transform="translate(4.07197 0.61098)"/><path class="cls-9" d="M588.23869,387.8034c.117.1132.24031.2169.359.3277l31.19479,6.4073c.14852-.0516.2959-.1083.4438-.1629Z" transform="translate(4.07197 0.61098)"/><path class="cls-9" d="M590.60019,389.8074c.1657.1249.3384.2376.50681.358l25.58848,5.2559c.1841-.0385.3651-.0988.5486-.1415Z" transform="translate(4.07197 0.61098)"/><path class="cls-9" d="M594.15538,392.0562c.309.1605.6255.301.9401.4482l16.7824,3.447c.324-.0045.64812-.0383.9724-.0553Z" transform="translate(4.07197 0.61098)"/><circle class="cls-9" cx="605.84694" cy="369.5879" r="25.33605" transform="translate(-67.73002 581.00128) rotate(-48.66448)"/><path class="cls-10" d="M715.47248,196.5165a9.09376,9.09376,0,1,1-12.6494-2.3209A9.09372,9.09372,0,0,1,715.47248,196.5165Z" transform="translate(4.07197 0.61098)"/><path class="cls-10" d="M697.38328,101.7333a9.09372,9.09372,0,1,1-12.64928-2.321A9.09373,9.09373,0,0,1,697.38328,101.7333Z" transform="translate(4.07197 0.61098)"/><circle class="cls-13" cx="642.59233" cy="169.32568" r="15.00218" transform="translate(396.48272 785.57069) rotate(-82.64625)"/><path class="cls-13" d="M468.42129,199.3412a15.00217,15.00217,0,1,1-20.868-3.829A15.00212,15.00212,0,0,1,468.42129,199.3412Z" transform="translate(4.07197 0.61098)"/><circle class="cls-13" cx="747.09018" cy="334.1566" r="15.00225" transform="translate(289.87328 1010.79787) rotate(-79.79024)"/><circle class="cls-10" cx="551.70404" cy="258.01043" r="9.09377" transform="translate(234.81618 776.24242) rotate(-83.26196)"/><path class="cls-10" d="M757.17458,207.3026a9.09372,9.09372,0,1,1-12.6493-2.3209A9.09383,9.09383,0,0,1,757.17458,207.3026Z" transform="translate(4.07197 0.61098)"/><circle class="cls-10" cx="689.89816" cy="304.06752" r="36.66935" transform="translate(-14.50301 46.83683) rotate(-3.78667)"/><path class="cls-7" d="M650.17848,227.1585a2.76378,2.76378,0,1,1-3.8444-.7054A2.76378,2.76378,0,0,1,650.17848,227.1585Z" transform="translate(4.07197 0.61098)"/><path class="cls-11" d="M608.60458,181.9712a5.08177,5.08177,0,1,1-7.0687-1.297A5.08162,5.08162,0,0,1,608.60458,181.9712Z" transform="translate(4.07197 0.61098)"/><circle class="cls-11" cx="747.09016" cy="172.51125" r="11.81798" transform="translate(-0.17952 326.05871) rotate(-24.50776)"/><path class="cls-8" d="M654.29778,264.2008a5.08177,5.08177,0,1,1-7.0687-1.297A5.08161,5.08161,0,0,1,654.29778,264.2008Z" transform="translate(4.07197 0.61098)"/><path class="cls-7" d="M586.41839,293.2441a2.76378,2.76378,0,1,1-3.84439-.7054A2.76379,2.76379,0,0,1,586.41839,293.2441Z" transform="translate(4.07197 0.61098)"/><circle class="cls-7" cx="603.64126" cy="344.88595" r="10.72833" transform="translate(-87.31007 361.97996) rotate(-31.09973)"/><path class="cls-11" d="M574.206,285.7476a5.08181,5.08181,0,1,1-7.06871-1.2971A5.08182,5.08182,0,0,1,574.206,285.7476Z" transform="translate(4.07197 0.61098)"/><circle class="cls-11" cx="749.99998" cy="278.75103" r="13.29315" transform="translate(31.14949 622.26902) rotate(-45.76509)"/><path class="cls-7" d="M686.15588,392.4056a2.76374,2.76374,0,1,1-3.8444-.7054A2.76376,2.76376,0,0,1,686.15588,392.4056Z" transform="translate(4.07197 0.61098)"/><path class="cls-11" d="M673.94348,384.9091a5.08177,5.08177,0,1,1-7.0687-1.297A5.0818,5.0818,0,0,1,673.94348,384.9091Z" transform="translate(4.07197 0.61098)"/><path class="cls-8" d="M726.80148,415.8522a5.08177,5.08177,0,1,1-7.0687-1.2971A5.0818,5.0818,0,0,1,726.80148,415.8522Z" transform="translate(4.07197 0.61098)"/><path class="cls-7" d="M488.53169,176.8569a2.76378,2.76378,0,1,1-3.8444-.7054A2.76378,2.76378,0,0,1,488.53169,176.8569Z" transform="translate(4.07197 0.61098)"/><path class="cls-11" d="M476.31929,169.3604a5.08181,5.08181,0,1,1-7.0688-1.297A5.08173,5.08173,0,0,1,476.31929,169.3604Z" transform="translate(4.07197 0.61098)"/><path class="cls-11" d="M583.45779,390.6028a5.0818,5.0818,0,1,1-7.06879-1.297A5.08185,5.08185,0,0,1,583.45779,390.6028Z" transform="translate(4.07197 0.61098)"/><rect class="cls-9" x="319.40754" y="277.61399" width="13.65667" height="13.65666" transform="translate(-99.74997 236.19066) rotate(-34.60282)"/><rect class="cls-8" x="538.8432" y="446.36723" width="20.28177" height="20.28185" transform="matrix(0.53782, -0.84306, 0.84306, 0.53782, -127.06296, 674.42386)"/><rect class="cls-6" x="335.43034" y="265.89545" width="5.37521" height="5.37515" transform="translate(-53.61914 96.57948) rotate(-14.89949)"/><path class="cls-11" d="M570.29759,435.0482a5.0818,5.0818,0,1,1-5.9155,4.0812A5.08182,5.08182,0,0,1,570.29759,435.0482Z" transform="translate(4.07197 0.61098)"/><polygon class="cls-9" points="587.829 203.779 587.749 204.21 593.075 205.303 592.716 204.783 587.829 203.779"/><polygon class="cls-9" points="587.356 206.355 587.277 206.786 595.224 208.418 594.864 207.897 587.356 206.355"/><polygon class="cls-9" points="586.883 208.931 586.804 209.363 597.374 211.534 597.013 211.011 586.883 208.931"/><polygon class="cls-9" points="586.41 211.507 586.331 211.939 599.522 214.648 599.162 214.126 586.41 211.507"/><polygon class="cls-9" points="585.938 214.083 585.858 214.516 601.672 217.763 601.311 217.241 585.938 214.083"/><polygon class="cls-9" points="585.465 216.661 585.386 217.091 603.82 220.878 603.461 220.357 585.465 216.661"/><polygon class="cls-9" points="584.992 219.237 584.913 219.667 605.969 223.992 605.61 223.472 584.992 219.237"/><polygon class="cls-9" points="584.52 221.813 584.441 222.244 608.118 227.107 607.758 226.586 584.52 221.813"/><polygon class="cls-9" points="584.047 224.389 583.968 224.819 610.266 230.221 609.907 229.7 584.047 224.389"/><polygon class="cls-9" points="583.574 226.965 583.495 227.395 608.285 232.487 608.784 232.143 583.574 226.965"/><polygon class="cls-9" points="583.101 229.541 583.023 229.972 605.299 234.547 605.798 234.203 583.101 229.541"/><polygon class="cls-9" points="582.629 232.117 582.55 232.548 602.314 236.607 602.813 236.263 582.629 232.117"/><polygon class="cls-9" points="582.156 234.693 582.077 235.123 599.328 238.667 599.827 238.323 582.156 234.693"/><polygon class="cls-9" points="581.684 237.269 581.604 237.701 596.341 240.728 596.842 240.382 581.684 237.269"/><polygon class="cls-9" points="581.211 239.845 581.132 240.277 593.355 242.788 593.856 242.442 581.211 239.845"/><polygon class="cls-9" points="580.738 242.421 580.659 242.853 590.369 244.848 590.87 244.502 580.738 242.421"/><polygon class="cls-9" points="580.265 244.999 580.186 245.429 587.383 246.908 587.882 246.563 580.265 244.999"/><polygon class="cls-9" points="579.793 247.575 579.714 248.005 584.398 248.968 584.897 248.623 579.793 247.575"/><polygon class="cls-9" points="587.986 202.921 592 203.745 591.641 203.225 591.581 203.212 588.065 202.49 587.986 202.921"/><polygon class="cls-9" points="587.592 205.066 587.513 205.497 594.149 206.86 593.789 206.339 587.592 205.066"/><polygon class="cls-9" points="587.12 207.642 587.04 208.075 596.299 209.976 595.938 209.453 587.12 207.642"/><polygon class="cls-9" points="586.647 210.218 586.568 210.65 598.448 213.09 598.087 212.568 586.647 210.218"/><polygon class="cls-9" points="586.174 212.794 586.095 213.227 600.597 216.205 600.236 215.683 586.174 212.794"/><polygon class="cls-9" points="585.701 215.372 585.622 215.803 602.745 219.32 602.386 218.799 585.701 215.372"/><polygon class="cls-9" points="585.229 217.948 585.15 218.379 604.894 222.434 604.535 221.914 585.229 217.948"/><polygon class="cls-9" points="584.756 220.524 584.677 220.955 607.043 225.549 606.683 225.027 584.756 220.524"/><polygon class="cls-9" points="584.283 223.1 584.204 223.531 609.191 228.663 608.832 228.142 584.283 223.1"/><polygon class="cls-9" points="583.811 225.676 583.732 226.107 609.778 231.457 610.278 231.112 583.811 225.676"/><polygon class="cls-9" points="583.338 228.252 583.259 228.683 606.793 233.517 607.292 233.172 583.338 228.252"/><polygon class="cls-9" points="582.865 230.828 582.786 231.259 603.807 235.577 604.306 235.232 582.865 230.828"/><polygon class="cls-9" points="582.393 233.404 582.314 233.835 600.822 237.636 601.321 237.292 582.393 233.404"/><polygon class="cls-9" points="581.92 235.98 581.841 236.412 597.834 239.697 598.335 239.352 581.92 235.98"/><polygon class="cls-9" points="581.447 238.556 581.368 238.989 594.848 241.757 595.349 241.412 581.447 238.556"/><polygon class="cls-9" points="580.975 241.132 580.895 241.564 591.863 243.817 592.364 243.472 580.975 241.132"/><polygon class="cls-9" points="580.502 243.71 580.423 244.141 588.877 245.877 589.376 245.533 580.502 243.71"/><polygon class="cls-9" points="580.029 246.286 579.95 246.717 585.891 247.937 586.391 247.593 580.029 246.286"/><polygon class="cls-9" points="579.556 248.862 579.477 249.293 582.868 249.989 582.906 249.997 583.405 249.653 579.556 248.862"/><rect class="cls-9" x="562.87276" y="208.45423" width="33.65285" height="33.65278" transform="translate(-21.31801 369.66088) rotate(-34.60259)"/><rect class="cls-9" x="594.55759" y="278.54775" width="47.30765" height="47.30764" transform="matrix(0.98358, 0.18047, -0.18047, 0.98358, 68.76257, -105.99773)"/><rect class="cls-6" x="612.34061" y="267.29532" width="24.67021" height="24.67021" transform="translate(-16.35282 51.64076) rotate(-4.60273)"/><line class="cls-12" x1="612.62897" y1="205.98198" x2="617.79936" y2="213.47618"/><line class="cls-12" x1="618.96126" y1="207.14388" x2="611.46706" y2="212.31428"/><line class="cls-12" x1="696.95336" y1="142.27398" x2="702.12376" y2="149.76818"/><line class="cls-12" x1="703.28566" y1="143.43588" x2="695.79146" y2="148.60628"/><line class="cls-14" x1="544.55076" y1="278.21668" x2="549.72116" y2="285.71088"/><line class="cls-14" x1="550.88306" y1="279.37858" x2="543.38886" y2="284.54898"/><line class="cls-14" x1="670.37326" y1="423.51468" x2="675.54366" y2="431.00888"/><line class="cls-14" x1="676.70556" y1="424.67658" x2="669.21136" y2="429.84698"/><path class="cls-7" d="M635.94808,235.1035l-41.6607,28.7426a1.30754,1.30754,0,0,1-1.81879-.3337h0a1.30767,1.30767,0,0,1,.3338-1.8188L634.463,232.951a1.30755,1.30755,0,0,1,1.81878.3338h0A1.30743,1.30743,0,0,1,635.94808,235.1035Z" transform="translate(4.07197 0.61098)"/><path class="cls-11" d="M642.37528,237.4884l-41.6607,28.7426a1.30755,1.30755,0,0,1-1.8188-.3337h0a1.30744,1.30744,0,0,1,.3338-1.8187l41.6606-28.7427a1.30769,1.30769,0,0,1,1.81882.3338h0A1.30744,1.30744,0,0,1,642.37528,237.4884Z" transform="translate(4.07197 0.61098)"/><path class="cls-9" d="M734.74118,194.587l-27.7853-40.2731a2.15042,2.15042,0,0,1,.5489-2.9912h0a2.15041,2.15041,0,0,1,2.99122.5488l27.78528,40.2731a2.15038,2.15038,0,0,1-.5488,2.9912h0A2.15051,2.15051,0,0,1,734.74118,194.587Z" transform="translate(4.07197 0.61098)"/><path class="cls-11" d="M731.58408,201.5469l-27.7853-40.273a2.15054,2.15054,0,0,1,.5489-2.9913h0a2.1504,2.1504,0,0,1,2.9912.5489l27.7853,40.273a2.15045,2.15045,0,0,1-.5489,2.9913h0A2.15042,2.15042,0,0,1,731.58408,201.5469Z" transform="translate(4.07197 0.61098)"/><path class="cls-7" d="M582.42859,346.4257l-27.7853-40.273a2.15038,2.15038,0,0,1,.5488-2.9912h.0001a2.15031,2.15031,0,0,1,2.9912.5488l27.7853,40.273a2.15054,2.15054,0,0,1-.5489,2.9913h0A2.1504,2.1504,0,0,1,582.42859,346.4257Z" transform="translate(4.07197 0.61098)"/><path class="cls-9" d="M517.63979,463.2807l-27.7852-40.273a2.15043,2.15043,0,0,1,.5488-2.9913h0a2.15053,2.15053,0,0,1,2.9913.5489l27.7852,40.273a2.15029,2.15029,0,0,1-.5488,2.9912v.0001A2.15054,2.15054,0,0,1,517.63979,463.2807Z" transform="translate(4.07197 0.61098)"/><path class="cls-11" d="M527.03479,445.615l-27.7853-40.2731a2.15034,2.15034,0,0,1,.5489-2.9912h0a2.1504,2.1504,0,0,1,2.9912.5488l27.7853,40.2731a2.15042,2.15042,0,0,1-.54889,2.9912h0A2.15039,2.15039,0,0,1,527.03479,445.615Z" transform="translate(4.07197 0.61098)"/><path class="cls-8" d="M512.94239,472.1136l-27.7853-40.2731a2.15032,2.15032,0,0,1,.54891-2.9912h0a2.15039,2.15039,0,0,1,2.99119.5488l27.7853,40.2731a2.15042,2.15042,0,0,1-.5489,2.9912h0A2.15038,2.15038,0,0,1,512.94239,472.1136Z" transform="translate(4.07197 0.61098)"/><path class="cls-7" d="M522.33729,454.4478,494.552,414.1748a2.15053,2.15053,0,0,1,.54889-2.9913h0a2.1504,2.1504,0,0,1,2.9912.5489l27.7853,40.273a2.15051,2.15051,0,0,1-.5488,2.9913h-.0001A2.15042,2.15042,0,0,1,522.33729,454.4478Z" transform="translate(4.07197 0.61098)"/><rect class="cls-9" x="675.19831" y="219.00102" width="13.65665" height="13.65665" transform="translate(56.02811 -118.77031) rotate(10.3975)"/><rect class="cls-8" x="715.22851" y="219.22953" width="20.28184" height="20.28174" transform="translate(-28.33702 162.57622) rotate(-12.46443)"/><rect class="cls-8" x="704.96761" y="114.64463" width="20.28185" height="20.28179" transform="translate(-6.00579 157.90001) rotate(-12.46471)"/><rect class="cls-6" x="698.95514" y="220.32946" width="5.37519" height="5.37518" transform="matrix(0.86514, 0.50153, -0.50153, 0.86514, 210.54217, -321.20523)"/><path class="cls-10" d="M712.50608,464.2808a9.09373,9.09373,0,1,1-12.6493-2.321A9.09366,9.09366,0,0,1,712.50608,464.2808Z" transform="translate(4.07197 0.61098)"/><path class="cls-10" d="M754.20828,475.0669a9.09372,9.09372,0,1,1-12.64928-2.321A9.09375,9.09375,0,0,1,754.20828,475.0669Z" transform="translate(4.07197 0.61098)"/><circle class="cls-11" cx="744.12381" cy="440.2755" r="11.81799" transform="translate(-115.85245 409.52699) rotate(-28.53295)"/><path class="cls-9" d="M731.77478,462.3512l-27.7852-40.273a2.15051,2.15051,0,0,1,.5488-2.9913h0a2.15053,2.15053,0,0,1,2.9913.5489l27.78532,40.273a2.15056,2.15056,0,0,1-.54892,2.9913h0A2.15054,2.15054,0,0,1,731.77478,462.3512Z" transform="translate(4.07197 0.61098)"/><path class="cls-11" d="M728.61768,469.3112l-27.7852-40.2731a2.15032,2.15032,0,0,1,.5488-2.9912h0a2.15045,2.15045,0,0,1,2.9913.5489l27.7852,40.273a2.1503,2.1503,0,0,1-.54878,2.9912h0A2.15045,2.15045,0,0,1,728.61768,469.3112Z" transform="translate(4.07197 0.61098)"/><rect class="cls-8" x="712.26217" y="486.99372" width="20.28178" height="20.28185" transform="translate(-86.19984 168.24815) rotate(-12.4645)"/><rect class="cls-6" x="695.98874" y="488.09366" width="5.37519" height="5.37519" transform="translate(344.43395 -283.6082) rotate(30.10106)"/><rect class="cls-9" x="666.30496" y="128.42243" width="13.65665" height="13.65663" transform="translate(39.53479 -118.65263) rotate(10.3975)"/><rect class="cls-6" x="690.06184" y="129.75084" width="5.37514" height="5.37521" transform="translate(163.92045 -328.96602) rotate(30.1016)"/><line class="cls-15" x1="669.24726" y1="242.95048" x2="669.24726" y2="242.95048"/><line class="cls-16" x1="673.21156" y1="243.67788" x2="734.65816" y2="254.95248"/><line class="cls-15" x1="736.64025" y1="255.31618" x2="736.64025" y2="255.31618"/><line class="cls-15" x1="659.39646" y1="245.73058" x2="659.39646" y2="245.73058"/><line class="cls-16" x1="663.36076" y1="246.45798" x2="724.80736" y2="257.73258"/><line class="cls-15" x1="726.78946" y1="258.09628" x2="726.78946" y2="258.09628"/><line class="cls-15" x1="649.54566" y1="248.51068" x2="649.54566" y2="248.51068"/><line class="cls-16" x1="653.50997" y1="249.23808" x2="714.95656" y2="260.51268"/><line class="cls-15" x1="716.93866" y1="260.87638" x2="716.93866" y2="260.87638"/><polygon class="cls-6" points="673.048 148.403 651.492 163.275 653.593 189.38 677.251 200.612 698.808 185.74 696.707 159.635 673.048 148.403"/><polygon class="cls-6" points="573.356 108.922 554.19 122.145 556.058 145.355 577.093 155.341 596.259 142.118 594.39 118.909 573.356 108.922"/><path class="cls-13" d="M387.82059,480.4039a15.0022,15.0022,0,1,1-20.8679-3.8289A15.00222,15.00222,0,0,1,387.82059,480.4039Z" transform="translate(4.07197 0.61098)"/><path class="cls-9" d="M604.01928,490.0804a25.4936,25.4936,0,0,0-3.8265-1.0371l-5.56978-1.022c-.616-.1139-1.239-.1848-1.86211-.2531Z" transform="translate(4.07197 0.61098)"/><path class="cls-9" d="M586.12059,487.9232l23.31789,4.7892c-.2073-.134-.42-.2557-.63048-.3834l-21.98291-4.5152C586.58979,487.8434,586.35549,487.8869,586.12059,487.9232Z" transform="translate(4.07197 0.61098)"/><path class="cls-9" d="M582.57009,488.7126l29.61039,6.0817c-.128-.1104-.2532-.2248-.383-.3323l-28.67969-5.8906C582.93589,488.6228,582.75129,488.6569,582.57009,488.7126Z" transform="translate(4.07197 0.61098)"/><path class="cls-9" d="M579.93909,489.6916l34.24369,7.0336c-.0986-.106-.1973-.2116-.2973-.3158l-33.54129-6.8891C580.20879,489.5763,580.074,489.633,579.93909,489.6916Z" transform="translate(4.07197 0.61098)"/><path class="cls-9" d="M577.75739,490.7616l37.97319,7.7995c-.077-.1005-.1528-.2022-.231-.3012l-37.39019-7.6797C577.99239,490.6426,577.87359,490.6973,577.75739,490.7616Z" transform="translate(4.07197 0.61098)"/><path class="cls-9" d="M575.91149,491.9019l41.06909,8.4355c-.0619-.0966-.117-.1955-.1802-.2917l-40.57969-8.3348C576.11859,491.7774,576.013,491.8339,575.91149,491.9019Z" transform="translate(4.07197 0.61098)"/><path class="cls-9" d="M574.30559,493.0913l43.70749,8.9772c-.0496-.0933-.0867-.1902-.1377-.283l-43.308-8.8952C574.48029,492.9574,574.39169,493.0232,574.30559,493.0913Z" transform="translate(4.07197 0.61098)"/><path class="cls-9" d="M572.86919,494.3152l45.96419,9.4408c-.0421-.0954-.0941-.1879-.1376-.2829l-45.60469-9.3669C573.01509,494.1744,572.94419,494.2462,572.86919,494.3152Z" transform="translate(4.07197 0.61098)"/><path class="cls-9" d="M571.57169,495.5671l47.90649,9.8399q-.0495-.13755-.101-.2748l-47.61029-9.779C571.69959,495.423,571.638,495.4968,571.57169,495.5671Z" transform="translate(4.07197 0.61098)"/><path class="cls-9" d="M570.63919,496.6406c-.0611.0727-.1269.1424-.18719.2157l49.55868,10.1791c-.0254-.0891-.0431-.1793-.0695-.2683Z" transform="translate(4.07197 0.61098)"/><path class="cls-9" d="M569.60889,497.9477c-.0538.0732-.1042.1482-.1571.2219l50.97359,10.47c-.0192-.0902-.0489-.1788-.0693-.2687Z" transform="translate(4.07197 0.61098)"/><path class="cls-9" d="M568.67,499.274c-.04741.0741-.08821.1515-.13491.2262l52.15579,10.7126c-.0132-.0876-.0272-.1748-.0411-.2623Z" transform="translate(4.07197 0.61098)"/><path class="cls-9" d="M567.88979,500.6327c-.0424.0763-.0881.1509-.12979.2276l53.12388,10.9112c-.0074-.0856-.0067-.1715-.01488-.2572Z" transform="translate(4.07197 0.61098)"/><path class="cls-9" d="M567.175,502.0051c-.03661.0767-.06831.1556-.10411.2328l53.90229,11.0713c-.00218-.0858-.012-.1715-.015-.2573Z" transform="translate(4.07197 0.61098)"/><path class="cls-9" d="M566.55259,503.3957c-.032.0787-.0732.1537-.1042.2326l54.50439,11.1952c.0029-.0841.0075-.1679.0095-.252Z" transform="translate(4.07197 0.61098)"/><path class="cls-9" d="M566.04429,504.8101c-.0269.0792-.0542.1582-.0802.2376l54.91249,11.2788c.0079-.083.0213-.1651.0283-.2482Z" transform="translate(4.07197 0.61098)"/><path class="cls-9" d="M565.58939,506.2356c-.0219.0801-.03539.162-.0566.2424l55.145,11.3266c.0125-.0821.0214-.1649.0331-.2472Z" transform="translate(4.07197 0.61098)"/><path class="cls-9" d="M565.25129,507.685c-.01729.0813-.04029.1614-.0567.243l55.21419,11.3406c.0175-.0813.0401-.1613.0567-.2427Z" transform="translate(4.07197 0.61098)"/><path class="cls-9" d="M564.98739,509.1504c-.01239.0822-.0216.1648-.03339.2472l55.11658,11.3206c.0221-.0801.0352-.1622.0566-.2424Z" transform="translate(4.07197 0.61098)"/><path class="cls-9" d="M564.78849,510.6276c-.0076.0834-.0163.1665-.0232.25l54.84529,11.2651c.0271-.0794.0541-.1585.0802-.2381Z" transform="translate(4.07197 0.61098)"/><path class="cls-9" d="M564.71739,512.1326c-.0027.084-.0077.1678-.0095.2519l54.38939,11.1713c.032-.0786.0729-.1538.104-.2326Z" transform="translate(4.07197 0.61098)"/><path class="cls-9" d="M564.70229,513.6484c.0025.0856.01171.1713.0151.2569l53.75709,11.0416c.0369-.0768.0682-.1556.1042-.2327Z" transform="translate(4.07197 0.61098)"/><path class="cls-9" d="M564.79159,515.1855c.0076.0856.00641.1715.015.257l52.94779,10.8756c.04262-.0763.0878-.151.12962-.2276Z" transform="translate(4.07197 0.61098)"/><path class="cls-9" d="M564.99039,516.7453q.0198.13125.0409.2622l51.93719,10.6677c.0479-.0746.0937-.1499.1406-.2248Z" transform="translate(4.07197 0.61098)"/><path class="cls-9" d="M565.26179,518.3197c.0195.0902.0489.1792.0695.2693l50.698,10.4129c.054-.0732.1041-.1486.1573-.2224Z" transform="translate(4.07197 0.61098)"/><path class="cls-9" d="M565.67649,519.9239c.0256.0889.0427.1794.0694.2682l49.24659,10.1152c.0614-.0725.1269-.1424.1873-.2155Z" transform="translate(4.07197 0.61098)"/><path class="cls-9" d="M566.21579,521.5535q.04982.138.1013.2753l47.54019,9.7646c.0684-.0705.1355-.1415.2028-.2127Z" transform="translate(4.07197 0.61098)"/><path class="cls-9" d="M566.86909,523.2073c.0421.095.0935.1873.137.2821l45.52709,9.351c.076-.0678.1463-.14.2214-.2085Z" transform="translate(4.07197 0.61098)"/><path class="cls-9" d="M567.68879,524.8937c.0507.0945.0947.1909.1469.2849l43.21259,8.8757c.0873-.0667.1754-.1329.26172-.2008Z" transform="translate(4.07197 0.61098)"/><path class="cls-9" d="M568.731,526.6275c.06189.0961.11619.195.17959.2906l40.47449,8.3134c.102-.0659.20692-.1229.3082-.1904Z" transform="translate(4.07197 0.61098)"/><path class="cls-9" d="M569.99129,528.4051c.0776.1002.15271.2026.2314.3014l37.26069,7.6532c.1205-.0638.2453-.1131.365-.179Z" transform="translate(4.07197 0.61098)"/><path class="cls-9" d="M571.55409,530.245c.0986.1052.1966.2112.2965.3147l33.382,6.8564c.14-.0573.2811-.1074.42042-.1674Z" transform="translate(4.07197 0.61098)"/><path class="cls-9" d="M573.57409,532.1786c.1287.1098.2533.2257.3838.3327l28.47789,5.8494c.1824-.0507.3671-.0866.5487-.1415Z" transform="translate(4.07197 0.61098)"/><path class="cls-9" d="M576.34329,534.2662c.2193.1404.4491.2589.6721.392l21.67949,4.453c.2355-.0283.4692-.0744.7042-.1094Z" transform="translate(4.07197 0.61098)"/><path class="cls-9" d="M582.07339,536.9618a25.47949,25.47949,0,0,0,3.4052.8962l5.57,1.0219c.3558.0658.717.0957,1.0755.1463Z" transform="translate(4.07197 0.61098)"/><path class="cls-9" d="M589.64939,487.6037c-.3229.0043-.6456.0384-.9687.0553l18.65079,3.8306c-.3104-.1608-.6289-.3006-.9449-.4482Z" transform="translate(4.07197 0.61098)"/><path class="cls-9" d="M584.82359,488.1317c-.1838.0383-.3642.0985-.5474.141l26.61539,5.4668c-.1655-.1246-.3378-.2373-.5059-.3576Z" transform="translate(4.07197 0.61098)"/><path class="cls-9" d="M581.72479,489.0137c-.1489.0517-.2964.1087-.44479.1633l31.97958,6.5683c-.118-.1139-.2424-.2176-.3621-.3289Z" transform="translate(4.07197 0.61098)"/><path class="cls-9" d="M579.25279,490.025c-.1229.0578-.2449.1183-.3671.1782l36.12531,7.4199c-.08942-.106-.18332-.2057-.27392-.31Z" transform="translate(4.07197 0.61098)"/><path class="cls-9" d="M577.18069,491.1179c-.104.0613-.2058.1281-.3092.1911l39.52359,8.118c-.0737-.105-.15708-.1988-.232-.3022Z" transform="translate(4.07197 0.61098)"/><path class="cls-9" d="M575.37989,492.2671c-.0905.0641-.1724.1358-.26189.2009l42.37848,8.7042c-.0577-.0981-.1212-.1941-.1803-.2917Z" transform="translate(4.07197 0.61098)"/><path class="cls-9" d="M573.81789,493.4654c-.0838.0695-.1774.1307-.2601.2012l44.849,9.2116c-.0463-.0942-.0903-.1891-.1376-.283Z" transform="translate(4.07197 0.61098)"/><path class="cls-9" d="M572.45569,494.7045c-.073.0702-.1496.1378-.2215.2086l46.92981,9.6392c-.03652-.0909-.06342-.1841-.101-.2748Z" transform="translate(4.07197 0.61098)"/><path class="cls-9" d="M571.22169,495.9701c-.064.0709-.1243.1442-.1874.2157l48.73379,10.0095c-.0299-.0923-.0702-.1825-.10108-.2747Z" transform="translate(4.07197 0.61098)"/><path class="cls-9" d="M570.10229,497.2588c-.0568.0721-.1062.1484-.1622.221l50.26959,10.3252c-.0224-.0896-.046-.179-.0695-.2684Z" transform="translate(4.07197 0.61098)"/><path class="cls-9" d="M569.15829,498.5842c-.0512.0744-.1066.1467-.157.2217l51.56189,10.5905c-.016-.0872-.02418-.1751-.041-.2623Z" transform="translate(4.07197 0.61098)"/><path class="cls-9" d="M568.29289,499.9253c-.045.0751-.0856.1522-.1298.2276l52.64539,10.8131c-.0104-.0879-.0297-.175-.0411-.2627Z" transform="translate(4.07197 0.61098)"/><path class="cls-9" d="M567.51779,501.2852c-.0396.0769-.0841.1517-.123.229l53.532,10.9952c-.00478-.0859-.0092-.1717-.015-.2574Z" transform="translate(4.07197 0.61098)"/><path class="cls-9" d="M566.87649,502.6721c-.03449.0777-.0706.1546-.1042.2327l54.21049,11.1346c.0003-.0842.01-.1678.0095-.252Z" transform="translate(4.07197 0.61098)"/><path class="cls-9" d="M566.29309,504.071c-.0293.0785-.0517.159-.08009.2376l54.71218,11.2377c.0053-.0839.0051-.1681.0095-.252Z" transform="translate(4.07197 0.61098)"/><path class="cls-9" d="M565.81459,505.4918c-.0244.0797-.0562.1573-.0798.2374l55.04639,11.3065c.0101-.0825.02382-.1646.0332-.2472Z" transform="translate(4.07197 0.61098)"/><path class="cls-9" d="M565.42719,506.931c-.0197.0808-.0378.1619-.0567.243l55.21169,11.3401c.015-.082.0192-.1655.0333-.2475Z" transform="translate(4.07197 0.61098)"/><path class="cls-9" d="M565.09089,508.3815c-.01489.0818-.0192.1652-.0334.2472l55.18909,11.3355c.0196-.0808.0377-.1616.0566-.2425Z" transform="translate(4.07197 0.61098)"/><path class="cls-9" d="M564.89219,509.8586c-.01019.0829-.0241.165-.0336.2481l55.00089,11.2969c.0246-.0801.05652-.1578.0802-.2381Z" transform="translate(4.07197 0.61098)"/><path class="cls-9" d="M564.74729,511.3485c-.0052.0839-.0051.168-.0096.252l54.64359,11.2234c.0292-.0784.0516-.1588.08-.2375Z" transform="translate(4.07197 0.61098)"/><path class="cls-9" d="M564.68989,512.8556c-.0004.0841-.0102.1678-.0097.252l54.11829,11.1157c.0342-.0777.0706-.1546.1042-.2327Z" transform="translate(4.07197 0.61098)"/><path class="cls-9" d="M564.74519,514.3858c.00481.0857.0092.1714.0149.2571l53.39729,10.9677c.0399-.077.0835-.1517.1225-.2289Z" transform="translate(4.07197 0.61098)"/><path class="cls-9" d="M564.86269,515.9289c.0105.0877.0298.1745.041.2622l52.479,10.7791c.0449-.075.0856-.1519.1295-.2272Z" transform="translate(4.07197 0.61098)"/><path class="cls-9" d="M565.108,517.4979c.01589.0877.02419.176.04119.2634l51.36839,10.5508c.0513-.0748.1069-.1472.1573-.2225Z" transform="translate(4.07197 0.61098)"/><path class="cls-9" d="M565.46069,519.0894c.0224.0895.046.1787.0694.2682L615.575,529.6368c.05658-.072.10538-.1485.16118-.2209Z" transform="translate(4.07197 0.61098)"/><path class="cls-9" d="M565.90159,520.6988c.0298.0928.0702.183.1013.2753l48.45229,9.9518c.064-.0708.1243-.1442.1874-.2157Z" transform="translate(4.07197 0.61098)"/><path class="cls-9" d="M566.50579,522.3426c.0365.0909.0634.184.101.2745l46.61521,9.5746c.073-.0702.14948-.1376.22138-.2085Z" transform="translate(4.07197 0.61098)"/><path class="cls-9" d="M567.262,524.0159c.046.0943.09029.1891.13769.283l44.46109,9.1321c.0836-.0695.1765-.131.2589-.2013Z" transform="translate(4.07197 0.61098)"/><path class="cls-9" d="M568.17179,525.7226c.0573.0978.1208.1933.1796.2905l41.94789,8.6159c.0901-.0639.1716-.1352.26072-.2Z" transform="translate(4.07197 0.61098)"/><path class="cls-9" d="M569.27159,527.467c.0735.1048.1568.1981.2313.3016l38.99679,8.0098c.1038-.0612.2056-.1278.3088-.1907Z" transform="translate(4.07197 0.61098)"/><path class="cls-9" d="M570.65529,529.2701c.0888.1057.1816.2059.2721.3097l35.50179,7.2919c.1229-.0579.2449-.1183.3671-.1783Z" transform="translate(4.07197 0.61098)"/><path class="cls-9" d="M572.40549,531.1484c.117.1132.2402.2169.359.3276l31.19469,6.4074c.1486-.0517.296-.1083.4439-.1629Z" transform="translate(4.07197 0.61098)"/><path class="cls-9" d="M574.767,533.1523c.16569.125.33839.2376.50669.3581l25.58849,5.2559c.1841-.0385.3651-.0988.5487-.1416Z" transform="translate(4.07197 0.61098)"/><path class="cls-9" d="M578.32209,535.4012c.309.1604.6256.3009.9402.4482l16.78239,3.447c.3239-.0046.6481-.0383.97232-.0553Z" transform="translate(4.07197 0.61098)"/><circle class="cls-9" cx="590.01369" cy="512.93283" r="25.33614" transform="translate(-182.89681 600.22985) rotate(-47.36833)"/><path class="cls-7" d="M596.63868,482.1385a10.72838,10.72838,0,1,1-14.92309-2.7382A10.7284,10.7284,0,0,1,596.63868,482.1385Z" transform="translate(4.07197 0.61098)"/><circle class="cls-10" cx="534.09584" cy="501.82175" r="21.89811" transform="translate(-55.1364 932.63448) rotate(-79.16119)"/><line class="cls-15" x1="494.36166" y1="478.17878" x2="494.36166" y2="478.17878"/><line class="cls-16" x1="498.32597" y1="478.90618" x2="559.77246" y2="490.18078"/><line class="cls-15" x1="561.75466" y1="490.54448" x2="561.75466" y2="490.54448"/><line class="cls-15" x1="484.51086" y1="480.95888" x2="484.51086" y2="480.95888"/><line class="cls-16" x1="488.47516" y1="481.68628" x2="549.92166" y2="492.96088"/><line class="cls-15" x1="551.90386" y1="493.32458" x2="551.90386" y2="493.32458"/><line class="cls-15" x1="474.65997" y1="483.73898" x2="474.65997" y2="483.73898"/><line class="cls-16" x1="478.62426" y1="484.46638" x2="540.07086" y2="495.74098"/><line class="cls-15" x1="542.05297" y1="496.10468" x2="542.05297" y2="496.10468"/><path class="cls-11" d="M519.92349,536.6941l-27.7852-40.2731a2.15031,2.15031,0,0,1,.5488-2.9912h0a2.15051,2.15051,0,0,1,2.9913.5488l27.7852,40.2731a2.15031,2.15031,0,0,1-.5488,2.9912h0A2.15052,2.15052,0,0,1,519.92349,536.6941Z" transform="translate(4.07197 0.61098)"/><polygon class="cls-4" points="620.083 480.986 686.202 519.316 686.337 442.89 620.083 480.986"/><polygon class="cls-6" points="620.808 473.101 679.011 522.631 692.803 447.461 620.808 473.101"/><polygon class="cls-7" points="640.479 476.711 679.841 462.692 672.3 503.79 640.479 476.711"/><path class="cls-7" d="M39.6389,486.4989-2.02179,515.2415a1.30751,1.30751,0,0,1-1.81877-.3337h0a1.30756,1.30756,0,0,1,.33372-1.8188L38.1538,484.3464a1.30757,1.30757,0,0,1,1.8188.3338h0A1.30743,1.30743,0,0,1,39.6389,486.4989Z" transform="translate(4.07197 0.61098)"/><path class="cls-11" d="M46.0661,488.8838,4.40541,517.6264a1.30752,1.30752,0,0,1-1.81878-.3337h0a1.30744,1.30744,0,0,1,.33372-1.8187L44.581,486.7313a1.30766,1.30766,0,0,1,1.8188.3338h0A1.3075,1.3075,0,0,1,46.0661,488.8838Z" transform="translate(4.07197 0.61098)"/><polygon class="cls-4" points="692.867 39.255 758.986 77.584 759.121 1.159 692.867 39.255"/><rect class="cls-5" x="629.96055" y="90.62425" width="38.10996" height="38.10995" transform="translate(56.59108 388.57551) rotate(-34.60258)"/><polygon class="cls-6" points="693.592 31.37 751.795 80.9 765.587 5.729 693.592 31.37"/><polygon class="cls-8" points="720.778 42.133 698.082 71.937 735.242 76.69 720.778 42.133"/><polygon class="cls-8" points="649.389 144.278 634.036 148.816 645.643 159.843 649.389 144.278"/><path class="cls-9" d="M713.49908,84.3702a9.09376,9.09376,0,1,1-12.6493-2.3209A9.0937,9.0937,0,0,1,713.49908,84.3702Z" transform="translate(4.07197 0.61098)"/><circle class="cls-10" cx="614.05243" cy="141.13003" r="9.09377" transform="translate(405.92234 734.99336) rotate(-83.26196)"/><path class="cls-11" d="M670.953,65.0908a5.08178,5.08178,0,1,1-7.06872-1.297A5.08166,5.08166,0,0,1,670.953,65.0908Z" transform="translate(4.07197 0.61098)"/><polygon class="cls-9" points="650.177 86.898 650.098 87.329 655.424 88.423 655.064 87.902 650.177 86.898"/><polygon class="cls-9" points="649.704 89.474 649.625 89.905 657.572 91.538 657.213 91.017 649.704 89.474"/><polygon class="cls-9" points="649.232 92.05 649.152 92.483 659.722 94.654 659.362 94.131 649.232 92.05"/><polygon class="cls-9" points="648.759 94.627 648.68 95.059 661.871 97.768 661.511 97.246 648.759 94.627"/><polygon class="cls-9" points="648.286 97.203 648.207 97.635 664.02 100.883 663.659 100.36 648.286 97.203"/><polygon class="cls-9" points="647.813 99.78 647.734 100.211 666.169 103.997 665.809 103.477 647.813 99.78"/><polygon class="cls-9" points="647.341 102.356 647.262 102.787 668.317 107.112 667.958 106.591 647.341 102.356"/><polygon class="cls-9" points="646.868 104.932 646.789 105.363 670.466 110.226 670.107 109.705 646.868 104.932"/><polygon class="cls-9" points="646.395 107.508 646.316 107.939 672.615 113.341 672.255 112.82 646.395 107.508"/><polygon class="cls-9" points="645.923 110.084 645.844 110.515 670.633 115.607 671.132 115.262 645.923 110.084"/><polygon class="cls-9" points="645.45 112.661 645.371 113.091 667.648 117.667 668.147 117.322 645.45 112.661"/><polygon class="cls-9" points="644.977 115.236 644.898 115.667 664.662 119.727 665.161 119.382 644.977 115.236"/><polygon class="cls-9" points="644.505 117.813 644.426 118.243 661.676 121.786 662.175 121.442 644.505 117.813"/><polygon class="cls-9" points="644.032 120.388 643.953 120.821 658.689 123.847 659.19 123.502 644.032 120.388"/><polygon class="cls-9" points="643.559 122.965 643.48 123.397 655.703 125.907 656.204 125.562 643.559 122.965"/><polygon class="cls-9" points="643.087 125.541 643.007 125.973 652.718 127.967 653.218 127.622 643.087 125.541"/><polygon class="cls-9" points="642.614 128.118 642.535 128.549 649.732 130.027 650.231 129.683 642.614 128.118"/><polygon class="cls-9" points="642.141 130.694 642.062 131.125 646.746 132.087 647.245 131.743 642.141 130.694"/><polygon class="cls-9" points="650.334 86.04 654.349 86.865 653.989 86.344 653.929 86.332 650.413 85.61 650.334 86.04"/><polygon class="cls-9" points="649.941 88.186 649.862 88.617 656.497 89.98 656.138 89.458 649.941 88.186"/><polygon class="cls-9" points="649.468 90.762 649.389 91.194 658.647 93.096 658.287 92.573 649.468 90.762"/><polygon class="cls-9" points="648.995 93.338 648.916 93.77 660.796 96.21 660.436 95.688 648.995 93.338"/><polygon class="cls-9" points="648.523 95.914 648.443 96.346 662.945 99.325 662.584 98.802 648.523 95.914"/><polygon class="cls-9" points="648.05 98.492 647.971 98.922 665.094 102.439 664.734 101.918 648.05 98.492"/><polygon class="cls-9" points="647.577 101.068 647.498 101.498 667.242 105.554 666.883 105.033 647.577 101.068"/><polygon class="cls-9" points="647.104 103.643 647.025 104.074 669.391 108.668 669.032 108.147 647.104 103.643"/><polygon class="cls-9" points="646.632 106.22 646.553 106.65 671.54 111.783 671.181 111.262 646.632 106.22"/><polygon class="cls-9" points="646.159 108.796 646.08 109.226 672.127 114.576 672.626 114.232 646.159 108.796"/><polygon class="cls-9" points="645.686 111.372 645.607 111.802 669.141 116.636 669.64 116.292 645.686 111.372"/><polygon class="cls-9" points="645.214 113.948 645.135 114.378 666.155 118.696 666.655 118.352 645.214 113.948"/><polygon class="cls-9" points="644.741 116.524 644.662 116.954 663.17 120.756 663.669 120.412 644.741 116.524"/><polygon class="cls-9" points="644.268 119.1 644.189 119.532 660.183 122.817 660.684 122.471 644.268 119.1"/><polygon class="cls-9" points="643.796 121.676 643.716 122.108 657.197 124.877 657.698 124.531 643.796 121.676"/><polygon class="cls-9" points="643.323 124.252 643.244 124.684 654.211 126.937 654.712 126.591 643.323 124.252"/><polygon class="cls-9" points="642.85 126.83 642.771 127.26 651.226 128.997 651.724 128.652 642.85 126.83"/><polygon class="cls-9" points="642.377 129.406 642.298 129.836 648.24 131.057 648.739 130.712 642.377 129.406"/><polygon class="cls-9" points="641.905 131.982 641.826 132.412 645.216 133.109 645.254 133.117 645.753 132.772 641.905 131.982"/><rect class="cls-9" x="625.22117" y="91.57383" width="33.65285" height="33.65279" transform="translate(56.08491 384.39245) rotate(-34.60259)"/><line class="cls-12" x1="674.97736" y1="89.10158" x2="680.14776" y2="96.59578"/><line class="cls-12" x1="681.30966" y1="90.26348" x2="673.81546" y2="95.43388"/><line class="cls-14" x1="606.89916" y1="161.33628" x2="612.06956" y2="168.83048"/><line class="cls-14" x1="613.23146" y1="162.49818" x2="605.73726" y2="167.66858"/><path class="cls-7" d="M634.08888,75.4897l-41.66059,28.7427a1.30766,1.30766,0,0,1-1.8188-.3338h0a1.30741,1.30741,0,0,1,.3337-1.8187l41.66069-28.7427a1.30756,1.30756,0,0,1,1.8187.3338h0A1.30741,1.30741,0,0,1,634.08888,75.4897Z" transform="translate(4.07197 0.61098)"/><path class="cls-11" d="M640.51608,77.8746l-41.6606,28.7427a1.30766,1.30766,0,0,1-1.8188-.3338h0a1.30745,1.30745,0,0,1,.3337-1.8187l41.6607-28.7426a1.30745,1.30745,0,0,1,1.8187.3337h0A1.30741,1.30741,0,0,1,640.51608,77.8746Z" transform="translate(4.07197 0.61098)"/><path class="cls-9" d="M467.621,514.1847l-27.78521-40.273a2.15043,2.15043,0,0,1,.5488-2.9913h0a2.15054,2.15054,0,0,1,2.9913.5489l27.7852,40.273a2.15043,2.15043,0,0,1-.5488,2.9913h0A2.15052,2.15052,0,0,1,467.621,514.1847Z" transform="translate(4.07197 0.61098)"/><path class="cls-11" d="M464.46389,521.1447l-27.7852-40.2731a2.15031,2.15031,0,0,1,.5488-2.9912h0a2.15051,2.15051,0,0,1,2.9913.5488L468.004,518.7023a2.15039,2.15039,0,0,1-.54881,2.9912h0A2.15043,2.15043,0,0,1,464.46389,521.1447Z" transform="translate(4.07197 0.61098)"/><line class="cls-15" x1="643.78997" y1="396.40138" x2="643.78997" y2="396.40138"/><line class="cls-16" x1="647.75426" y1="397.12878" x2="709.20086" y2="408.40338"/><line class="cls-15" x1="711.18297" y1="408.76708" x2="711.18297" y2="408.76708"/><line class="cls-15" x1="633.93916" y1="399.18148" x2="633.93916" y2="399.18148"/><line class="cls-16" x1="637.90346" y1="399.90898" x2="699.34997" y2="411.18358"/><line class="cls-15" x1="701.33216" y1="411.54718" x2="701.33216" y2="411.54718"/><line class="cls-15" x1="624.08836" y1="401.96158" x2="624.08836" y2="401.96158"/><line class="cls-16" x1="628.05266" y1="402.68898" x2="689.49916" y2="413.96358"/><line class="cls-15" x1="691.48136" y1="414.32738" x2="691.48136" y2="414.32738"/><polygon class="cls-6" points="405.928 468 384.372 482.873 386.473 508.978 410.131 520.21 431.688 505.338 429.586 479.233 405.928 468"/><polygon class="cls-11" points="639.71 347.882 682.674 358.218 670.144 315.842 639.71 347.882"/><rect class="cls-8" x="713.09311" y="293.17733" width="20.28174" height="20.28184" transform="translate(-44.34792 163.85907) rotate(-12.46449)"/><path class="cls-9" d="M447.23779,244.4263a3.5662,3.5662,0,1,1-4.9606-.9102A3.56627,3.56627,0,0,1,447.23779,244.4263Z" transform="translate(4.07197 0.61098)"/><rect class="cls-9" x="575.43101" y="457.13748" width="13.65669" height="13.65669" transform="translate(97.36708 -96.85369) rotate(10.39742)"/><rect class="cls-6" x="421.40825" y="259.57246" width="5.37519" height="5.37519" transform="translate(192.79509 -176.71661) rotate(30.10106)"/><circle class="cls-10" cx="408.72746" cy="280.721" r="36.66935" transform="translate(-61.29889 426.56694) rotate(-51.51383)"/><polygon class="cls-11" points="378.688 330.424 421.652 340.76 409.121 298.384 378.688 330.424"/><rect class="cls-8" x="431.92237" y="269.83083" width="20.28179" height="20.28185" transform="translate(-45.93615 102.62244) rotate(-12.46449)"/></g></svg>