<svg id="Layer_1" data-name="Layer 1" xmlns="http://www.w3.org/2000/svg" viewBox="0 0 555.54999 40.32041"><defs><style>.cls-1{fill:#9e1f63;}.cls-1,.cls-10,.cls-11,.cls-12,.cls-13,.cls-14,.cls-15,.cls-16,.cls-17,.cls-18,.cls-2,.cls-3,.cls-4,.cls-5,.cls-6,.cls-7,.cls-8,.cls-9{stroke:#231f20;stroke-miterlimit:10;}.cls-2{fill:#92278f;}.cls-3{fill:#1c75bc;}.cls-4{fill:#ec008c;}.cls-5{fill:#fff200;}.cls-6{fill:#f15a29;}.cls-7{fill:#27aae1;}.cls-8{fill:#c49a6c;}.cls-9{fill:#ed1c24;}.cls-10{fill:#662d91;}.cls-11{fill:#f7941d;}.cls-12{fill:#00a79d;}.cls-13{fill:#fbb040;}.cls-14{fill:#ef4136;}.cls-15{fill:#39b54a;}.cls-16{fill:none;}.cls-17{fill:#2bb673;}.cls-18{fill:#8dc63f;}</style></defs><path class="cls-1" d="M25.325,419.41975a4.8484,4.8484,0,0,0-5.1-4.55v-2.9a4.1302,4.1302,0,1,0,0-8.24v-.22h9.39a40.60822,40.60822,0,0,0,2.01,11.61,41.40518,41.40518,0,0,0,11.81,17.88H23.155v-9.85A4.43378,4.43378,0,0,0,25.325,419.41975Z" transform="translate(-19.72501 -400.8398)"/><path class="cls-2" d="M73.615,409.47975a50.25165,50.25165,0,0,1-3.05,13.16,2.70209,2.70209,0,0,0-.29-.16,8.04942,8.04942,0,0,0-4.66-.83,50.61811,50.61811,0,0,0,2.44-11.46c.14-1.54.2-3.02.21-4.43h4.21v-4.42h1.24A49.76158,49.76158,0,0,1,73.615,409.47975Z" transform="translate(-19.72501 -400.8398)"/><path class="cls-1" d="M68.265,405.75978c-.01,1.41-.07,2.89-.21,4.43a50.61811,50.61811,0,0,1-2.44,11.46,7.81321,7.81321,0,0,0-6.93005,7.69,7.52422,7.52422,0,0,0,.62,3v.01c.1.22.21.43994.31995.65h-8.94a41.96945,41.96945,0,0,1-14.12-19.83,40.49241,40.49241,0,0,1-1.91-9.66h2.59v2.25h9.22a3.53119,3.53119,0,0,0-.54,1.88,3.57213,3.57213,0,0,0,3.57,3.57H58.685a3.55918,3.55918,0,0,0,2.53-1.05,3.54651,3.54651,0,0,0,.51-4.4Z" transform="translate(-19.72501 -400.8398)"/><path class="cls-1" d="M181.225,401.3398a31.71594,31.71594,0,0,0-4.48,4.25h-18.14v4.43h14.95a26.8834,26.8834,0,0,0-2.6,5.87l-6.86-1.19,5.76,7.68c-.01.13-.02.27-.02.4a29.39871,29.39871,0,0,0,5.98,17.88H159.615a30.78062,30.78062,0,0,0-3.12-3.51,7.76557,7.76557,0,1,0-9.64-7.56c0,.2.01.38995.02.57995a60.27546,60.27546,0,0,0-7.94-3.62,7.667,7.667,0,0,0,2.48-5.64,7.917,7.917,0,0,0-15.83,0,7.64374,7.64374,0,0,0,.29,2.09c-2.71-.49-5.51-.86-8.37994-1.1a7.59142,7.59142,0,0,0,.72-7.08,7.98669,7.98669,0,0,0-13.03-2.53,7.61264,7.61264,0,0,0-1.05,9.48,88.41562,88.41562,0,0,0-9.13,1.05,7.64681,7.64681,0,0,0-2.9-8.91,7.96173,7.96173,0,0,0-4.57-1.42,7.8221,7.8221,0,0,0-7.91,7.74v.19a7.70891,7.70891,0,0,0,2.68,5.63,64.17493,64.17493,0,0,0-7.79,3.3v-.01a7.6736,7.6736,0,0,0-3.95-6.69v-.01a50.25165,50.25165,0,0,0,3.05-13.16,49.76158,49.76158,0,0,0,.1-8.13995h2.37l8.86,9.57.36-1.97.15.18,4.8-7.78h4.16l3.93,16.21,4.55-16.21h5.42l3.05,4.47,3.15-4.47h4.15l3.17,15.96,1.83-3.32,1.32,1.32,8.54-13.96h1.95l3.72,8.42.51,3.41,6.34-11.82995h1.45l2.56,14.3,6.28-14.3Z" transform="translate(-19.72501 -400.8398)"/><rect class="cls-3" x="0.5" y="0.5" width="17.02002" height="2.16998"/><polygon class="cls-4" points="70.53 0.5 65.73 8.28 65.58 8.1 59.2 0.5 70.53 0.5"/><polygon class="cls-3" points="65.58 8.1 65.22 10.07 56.36 0.5 59.2 0.5 65.58 8.1"/><polygon class="cls-4" points="83.17 0.5 78.62 16.71 74.69 0.5 83.17 0.5"/><polygon class="cls-3" points="94.79 0.5 91.64 4.97 88.59 0.5 94.79 0.5"/><polygon class="cls-4" points="110.92 0.5 103.94 13.14 102.11 16.46 98.94 0.5 110.92 0.5"/><polygon class="cls-3" points="113.8 0.5 105.26 14.46 103.94 13.14 110.92 0.5 113.8 0.5"/><polygon class="cls-3" points="126.32 0.5 119.98 12.33 119.47 8.92 123.54 0.5 126.32 0.5"/><polygon class="cls-2" points="123.54 0.5 119.47 8.92 115.75 0.5 123.54 0.5"/><polygon class="cls-4" points="136.61 0.5 130.33 14.8 127.77 0.5 136.61 0.5"/><path class="cls-5" d="M264.395,406.29976l-4.75,7.81a28.20883,28.20883,0,0,0-15-2.3,33.30306,33.30306,0,0,0-9.81,2.63h-30.27v8.68H221.985c-1.65,1.51-3.23005,3.1-4.76,4.71l-11.45-1.98,6,7.99c-1.22,1.37-2.41,2.71-3.59,4l-8.45-11.29v-.01l1.48-5.59.86-3.28-18.04-3.12,2.94,3.92,2.94,3.93-10.32,18.26h-3.78a29.39871,29.39871,0,0,1-5.98-17.88c0-.13.01-.27.02-.4l5.24,6.99v.01l2.96,3.94,4.08-15.5-3.66-.63-7.52-1.3a26.8834,26.8834,0,0,1,2.6-5.87h81.98v-4.43h-78.79a31.71594,31.71594,0,0,1,4.48-4.25h80.79A20.23445,20.23445,0,0,0,264.395,406.29976Z" transform="translate(-19.72501 -400.8398)"/><path class="cls-5" d="M343.585,420.78975q-1.305.73507-2.58,1.41H340.995l-19.08-5.77c.05-.71.08-1.46.09-2.22l9.12-.66h.01c1.66.73,5.39,1.38,10.62,1.92a5.40476,5.40476,0,0,0-.15,1.28A4.69994,4.69994,0,0,0,343.585,420.78975Z" transform="translate(-19.72501 -400.8398)"/><path class="cls-4" d="M371.225,401.3398c-3.18,2.67-6.28,5.12-9.29,7.38-.43.01-.86.03-1.28.04l1.27-3.23.07995.06,5.75-4.25Z" transform="translate(-19.72501 -400.8398)"/><path class="cls-5" d="M317.325,408.03975a29.80962,29.80962,0,0,0-.34,3.12l-13.16-2.76a20.41645,20.41645,0,0,0,3.97-7.06h3.87Z" transform="translate(-19.72501 -400.8398)"/><path class="cls-5" d="M340.745,402.7198v.01l-2.89,7.66v.01a40.80669,40.80669,0,0,0-5.64,1.06l-10.26.23c-.04-.94-.12-1.83-.23-2.66l7.1-7.69h10.78Z" transform="translate(-19.72501 -400.8398)"/><path class="cls-5" d="M324.665,401.3398l-3.56,4.52c-.44-1.55-1.01-2.48-1.65-2.48-.55,0-1.05.7-1.46,1.88l-2.47-3.92Z" transform="translate(-19.72501 -400.8398)"/><path class="cls-4" d="M317.995,405.25978a16.22814,16.22814,0,0,0-.67005,2.78l-5.66-6.7h3.86Z" transform="translate(-19.72501 -400.8398)"/><path class="cls-5" d="M338.105,423.67976a98.01643,98.01643,0,0,1-9.47,4.14c-1.75-.31-3.81-.6-6.12-.84l-1.53-5.01v-.01a18.87607,18.87607,0,0,0,.72-3.36Z" transform="translate(-19.72501 -400.8398)"/><path class="cls-5" d="M318.505,423.31978l-1.1,3.23c-4.22-.29-9-.45-14.04-.45h-.4l14.36-6.64a15.12237,15.12237,0,0,0,.83,3.16h.01A4.15233,4.15233,0,0,0,318.505,423.31978Z" transform="translate(-19.72501 -400.8398)"/><path class="cls-6" d="M317.325,419.45979l-14.36,6.64c-2.49,0-4.91.05-7.23.12l21.26995-9.55C317.085,417.66975,317.195,418.60976,317.325,419.45979Z" transform="translate(-19.72501 -400.8398)"/><path class="cls-7" d="M322.515,426.97975c-1.59-.16-3.3-.31-5.11-.43l1.1-3.23c.29.48.61005.74.95.74.58,0,1.11-.78,1.53-2.09Z" transform="translate(-19.72501 -400.8398)"/><path class="cls-7" d="M340.995,422.19978c-.98005.52-1.94,1.02-2.89,1.48l-16.4-5.07995c.09-.68006.16-1.41.21-2.17005Z" transform="translate(-19.72501 -400.8398)"/><path class="cls-8" d="M328.825,401.3398l-7.1,7.69a19.8636,19.8636,0,0,0-.62-3.16v-.01l3.56-4.52Z" transform="translate(-19.72501 -400.8398)"/><path class="cls-5" d="M350.495,409.23976c-3.78.23-7.16.51-10.02.83l2.05-5.17,1.27,1.54,4.22-5.1h.42Z" transform="translate(-19.72501 -400.8398)"/><path class="cls-5" d="M359.555,403.78975l-1.59,5.07c-1.58.07-3.12.14-4.6.22l-1.83-7.74h4.68Z" transform="translate(-19.72501 -400.8398)"/><path class="cls-4" d="M353.365,409.07979c-.98.05-1.94.1-2.87.16l-2.06006-7.9h3.1Z" transform="translate(-19.72501 -400.8398)"/><polygon class="cls-9" points="171.49 23.29 162.36 39.82 159.87 39.82 170.19 21.56 171.49 23.29"/><path class="cls-9" d="M208.185,437.8398c-.9.98-1.78,1.92-2.67,2.82h-.39l-6.5-9.89,1.11005-4.22Z" transform="translate(-19.72501 -400.8398)"/><polygon class="cls-5" points="185.4 39.82 175.41 39.82 176.35 29.77 178.27 32.33 178.9 29.93 185.4 39.82"/><polygon class="cls-7" points="176.35 29.77 175.41 39.82 171.67 39.82 173.06 26.92 173.56 26.05 176.35 29.77"/><polygon class="cls-7" points="173.56 26.05 173.06 26.92 165.7 39.82 162.36 39.82 171.49 23.29 173.56 26.05"/><path class="cls-10" d="M23.155,423.14979v9.85h-2.93v-9.02A5.51594,5.51594,0,0,0,23.155,423.14979Z" transform="translate(-19.72501 -400.8398)"/><path class="cls-10" d="M63.915,436.61977a31.48131,31.48131,0,0,0-3.68,4.04h-6.28a3.581,3.581,0,0,0-.16-.56h-.01a3.95711,3.95711,0,0,0-7.61.56h-3.48a3.973,3.973,0,0,0-7.86,0h-4.28a3.97423,3.97423,0,0,0-7.84,0h-2.49v-4.73h42.23A8.47922,8.47922,0,0,0,63.915,436.61977Z" transform="translate(-19.72501 -400.8398)"/><path class="cls-2" d="M62.455,435.92976H20.225v-2.93h39.4A7.87321,7.87321,0,0,0,62.455,435.92976Z" transform="translate(-19.72501 -400.8398)"/><path class="cls-3" d="M574.775,432.82979v7.83h-16.55a7.80237,7.80237,0,0,0,.14-1.47c0-3.56-2.32-6.45-5.2-6.45-2.87,0-5.2,2.89-5.2,6.45a7.79657,7.79657,0,0,0,.14,1.47h-36.28a7.33888,7.33888,0,0,0-14.53,0h-9.4a6.079,6.079,0,0,0,1.73-2.17c1.41-3.05-.56-5.97,1.15-7.54,2.1-1.93,5.89,1.79,9.7,0,3.83-1.79,3.21-7.04,6.38-7.65,2.56-.5,5.14,2.48,5.75,3.19,3.07,3.55,1.46,6.28,3.96,9.19,2.46,2.87,6.52,3.11,10.85,3.36a23.97625,23.97625,0,0,0,11.49-1.87c2.5-1.12,7.97-3.55,10.21-8.63995.53-1.2.81-2.4,1.85-2.75,1.68-.56,3.91,1.59,6.32,3.9,2.71,2.6,2.84,3.48,4.79,4.53,1.66.89,4.41,1.78,5.49.7,1.02-1.02-.1-3.21.76-3.7.66-.37,1.66.66,2.81,1.21A6.07971,6.07971,0,0,0,574.775,432.82979Z" transform="translate(-19.72501 -400.8398)"/><path class="cls-6" d="M461.90477,420.51018a32.48711,32.48711,0,0,1,6.63-13.74l-3.76-5.43h-1.78l-3.29,10.89-2.56-10.89h-3.19l-2.42,9.36-.05-.13995-.03,4.37-5.85-12.89c-1.38,1.37-2.76,2.88-4.12,4.53h1.8v19.84a19.54469,19.54469,0,0,1,3.7.56v-7.5h4.09v8.99a20.46765,20.46765,0,0,1,5.61,4.01v-11.6h2.43v14.5a20.70764,20.70764,0,0,1,2.67,5.29h4.37C462.76475,435.20018,460.38481,428.33019,461.90477,420.51018Zm-32.04,9.8q.375-.285.78-.54v-2.52C430.34477,428.2802,430.09477,429.30022,429.86479,430.31023Zm3.97-11.61005v9.34a20.161,20.161,0,0,1,5.24-1.46v-16.85A55.219,55.219,0,0,0,433.83476,418.70018Zm-184.34-4.43a23.12806,23.12806,0,0,0-5.4.17h6.76C250.41478,414.36022,249.96477,414.31023,249.4948,414.27019Zm135.74,26.39a39.4387,39.4387,0,0,1-10.29-10.22,40.5764,40.5764,0,0,1-6-13.59c-1.64-.03-3.26-.07-4.84-.11a7.64661,7.64661,0,0,1,.16,1.61c0,3.44-2.05,6.22-4.56994,6.22-2.52,0-4.56-2.78-4.56-6.22,0-.22.01-.45.03-.67a4.47313,4.47313,0,0,1,.08-.64,22.19564,22.19564,0,0,1-5.49,4.55c-3.31,1.93-5.81,2.19-9.62,3.32a52.88367,52.88367,0,0,0-8.78,3.5c.33.09.63.18.92.27h.01c.36.11.69.22.98.34.08.03.17005.07.25.1.2.09.38.17.54.26a2.48769,2.48769,0,0,1,.29.17005c.02.01.03.02.05.03a1.74221,1.74221,0,0,1,.35.29.79042.79042,0,0,1,.12.15.41506.41506,0,0,1,.07.11.61289.61289,0,0,1,.09.31006c0,2.4-14.17,4.34-31.66,4.34-17.48,0-31.66-1.94-31.66-4.34a.46665.46665,0,0,1,.03-.17.83052.83052,0,0,1,.24-.39l.1-.1a.641.641,0,0,1,.13-.1c.06-.05.13-.1.2-.15a3.59215,3.59215,0,0,1,.39-.22c.14-.07.28-.14.43-.2.02-.01.05-.02.09-.04.06-.02.14-.05.21-.08.06-.02.12-.05.19-.07a1.58366,1.58366,0,0,1,.2-.07c.14-.05.28-.1.43-.14.39-.13.83-.24,1.3-.36l.12-.03c.16-.04.32-.07.48005-.11.41-.1.85-.19,1.31-.27-3.66-2.09-8.9-5.08-9.93-5.67-5.91-3.37-9.45-5.39-12.34-6.57v7.42h-33.3c-1.65,1.51-3.23,3.1-4.76,4.71l1.76.3-2.99,11.34-4.22-5.63c-1.22,1.37-2.41,2.71-3.59,4-.9.98-1.78,1.92-2.67005,2.82h21.58c3.15-.63,6.74-1.23,10.66-1.71,11.23-1.36,17.32995-.71,33.19-.34,3.13.08,15.7.05,40.85,0,11.3-.02,20.78-.08,27.57-.14v-11.77h16.17v13.96h3.41v-9.79h6.04v9.79h4.6v-7.07h5.1v7.07Zm-130.97-5.11h-29.96v-6.13h29.96Z" transform="translate(-19.72501 -400.8398)"/><polygon class="cls-7" points="199.26 27.29 196.27 38.63 192.05 33 186.05 25.01 197.5 26.99 199.26 27.29"/><path class="cls-11" d="M411.535,406.94978v2.86c-3.43-.33-7.44-.6-11.87-.81l4.74-7.66h3.89Z" transform="translate(-19.72501 -400.8398)"/><path class="cls-11" d="M398.265,408.92976c-4.24-.19-8.84-.32-13.69-.39l5.21-7.2h4.46l3.50994,4.93Z" transform="translate(-19.72501 -400.8398)"/><path class="cls-11" d="M382.095,406.43977l-.09,2.07c-1.55-.01-3.13-.02-4.72-.02-5.37,0-10.54.08-15.35.23,3.01-2.26,6.11-4.71,9.29-7.38h6.41Z" transform="translate(-19.72501 -400.8398)"/><path class="cls-11" d="M437.7448,401.3402l-9.72,13.53-.32-3.32-5.27-10.21h-3.34l-6.07,8.61c7.09.74,11.37,1.7,11.37,2.75a.35241.35241,0,0,1-.03.14.82619.82619,0,0,1-.07.13,1.31027,1.31027,0,0,1-.46.38c-.07.04-.13995.08-.22.12a7.82721,7.82721,0,0,1-1.25.46c-.41.13-.87.25-1.39.36-.01,0-.01,0-.02.01-.13.02-.26.05-.4.07995-.27.05-.56.11005-.87.17005-.29.05-.59.1-.91.15-.61.1-1.26.2-1.96.3a7.03216,7.03216,0,0,1,.77,3.23c0,3.17-2,5.75-4.47,5.75a3.49044,3.49044,0,0,1-1.46-.32c-.08.07-.16.13-.24.19a.05346.05346,0,0,1-.04.03,2.19124,2.19124,0,0,1-.25.17005,2.31526,2.31526,0,0,1-.35.18,1.197,1.197,0,0,1-.2.08,1.912,1.912,0,0,1-.45.13,1.44081,1.44081,0,0,1-.22.04,2.55891,2.55891,0,0,1-.39.03c-2.29,0-4.15-2.62-4.15-5.84a7.76284,7.76284,0,0,1,.44-2.61c-2.73.18-5.71.34-8.87.47a7.39335,7.39335,0,0,1,.46,2.62c0,3.35-2.09,6.06-4.66,6.06-2.58,0-4.66-2.71-4.66-6.06a7.481,7.481,0,0,1,.37-2.36c-2.66.06-5.41.1-8.23.11a7.64845,7.64845,0,0,1,.58,2.98c0,.18006-.01.36005-.02.53-.01.12-.01995.25-.04.37a3.11448,3.11448,0,0,1-.06.44,3.85181,3.85181,0,0,1-.09.49c-.04.18-.09.35-.13995.52a5.24044,5.24044,0,0,1-.3.78c.01.01.01.01,0,.02h-.01a2.548,2.548,0,0,1-.11005.24,3.03515,3.03515,0,0,1-.19.36,3.71094,3.71094,0,0,1-.25.39c-.11.15-.21.28-.32.41a3.54484,3.54484,0,0,1-.32995.34,1.92455,1.92455,0,0,1-.35.3c-.09.07-.18.13-.28.2.47.83.99,1.65,1.56,2.48a40.48289,40.48289,0,0,0,14.78,12.91h27.59c.11-.34.24-.68.37-1.01.11-.27.22-.54.34-.8a9.88787,9.88787,0,0,1,.44-.93c.12994-.27.27-.54.42-.8v-.01a54.76214,54.76214,0,0,1,.84-5.63v-6.91h1.85a55.57437,55.57437,0,0,1,4.15-9.42v-.54h.31a58.927,58.927,0,0,1,10.33-13.27Zm-26.39,30.73v.01a2.09648,2.09648,0,0,1-.09.5c-.01995.07-.04.13-.06.2a2.38508,2.38508,0,0,1-.15.37,1.28485,1.28485,0,0,1-.11.2c-.03.06-.07.12-.11005.19a5.0506,5.0506,0,0,1-1.24,1.3,5.85944,5.85944,0,0,1-.48.34.43456.43456,0,0,1-.07.04c-.13.08-.25.15-.39.23a3.04716,3.04716,0,0,1-.4.21c-.19.1-.39.19-.6.28-.11.05-.22.09-.33.13-.13.05-.27.1-.41.15-.19.07-.38.13-.58.19-.24.07-.49.14-.75.2a.29171.29171,0,0,1-.09.01995,3.00776,3.00776,0,0,1-.41.09.03659.03659,0,0,1-.03.01c-.2.04-.4.08-.6.11a6.65064,6.65064,0,0,1-.78.11c-.01.01-.01.01-.02,0-.13.02-.27.03-.4.04-.01.01-.03.01-.06.01a2.22243,2.22243,0,0,1-.37.03.08534.08534,0,0,1-.07,0h-.01c-.12.01-.25.02-.37.02-.27.02-.56.03-.84.03-5.42,0-9.83-2.34-9.83-5.23a2.82866,2.82866,0,0,1,.2-1.04v-.01a2.41656,2.41656,0,0,1-.2-.95c0-2.73,4.65-4.94,10.39-4.94,5.73,0,10.38,2.21,10.38,4.94A3.0422,3.0422,0,0,1,411.35478,432.07018Z" transform="translate(-19.72501 -400.8398)"/><path class="cls-12" d="M566.1848,401.3402h-4.39l-15.23,16.91-.13-3.25-11.34-13.66h-6.31l-15.61,17.17-.44-3.51-12.08-13.66h-10.15l-13.26,18-8-11.54a54.008,54.008,0,0,0-3.24,14.22c-.04.48-.08.96-.1,1.44a8.18115,8.18115,0,0,1,6.04-2.59,7.4863,7.4863,0,1,1,0,14.94,8.21089,8.21089,0,0,1-5.69-2.24,53.93047,53.93047,0,0,0,1.4,7.09h4.9a7.82549,7.82549,0,0,1,4.43-3.58c3.15-.84,5.55,1.32,7.66-.25.91-.68,1.39-2.42,2.3-5.88,1.19-4.5.86-5.08,1.66-5.74,2.32-1.91,6.05,2.25,10.34.89,4.3-1.36,3.72-6.54,7.4-7.4,3.98-.94,9.92,3.89,11.49,9.19.98,3.31-.21,5.2,1.53,7.15,1.68,1.88,4.43,1.95,7.66,2.04a23.96222,23.96222,0,0,0,10.22-1.53c8.98-3.73,8.92-11.98,14.04-12.25,5.97-.33,11.02,10.6,13.79,9.19,1.4-.72.96-3.99,2.55-4.34.88995-.2,1.58.69,2.55,1.27a6.40489,6.40489,0,0,0,4.6.57v-18.48Zm-70.56,22.42-1.21-1.31-1.51,1.1-9.2-9.15,9.03-10.42h3.47l7.85,10.64Zm33.89,9.68-.01995-3.68-9.87-11.4,10.55-13.28,8.73,12.61v.01h.01l3.56,1.51Zm32.56006-5.74-.19-1.71-8.42-9.14,9.01-10.65.23-2.25,10.35,12.52Z" transform="translate(-19.72501 -400.8398)"/><path class="cls-4" d="M445.605,402.03975c-1.38,1.37-2.76,2.88-4.12,4.53h-2.41v3.16a55.22249,55.22249,0,0,0-5.24,8.97v-4.09h-2.88a58.92524,58.92524,0,0,1,10.33-13.27h4Z" transform="translate(-19.72501 -400.8398)"/><path class="cls-3" d="M419.095,401.3398l-6.07,8.61c-.48-.05-.98-.1-1.49-.14v-2.86l4.21-5.61Z" transform="translate(-19.72501 -400.8398)"/><path class="cls-3" d="M389.785,401.3398l-5.21,7.2c-.85-.01-1.71-.02-2.57-.03l.09-2.07,4.25-5.1Z" transform="translate(-19.72501 -400.8398)"/><path class="cls-3" d="M404.405,401.3398l-4.74,7.66c-.46-.03-.93-.05-1.4-.07l-.51-2.66,3.62-4.93Z" transform="translate(-19.72501 -400.8398)"/><path class="cls-5" d="M355.355,416.42976a4.09363,4.09363,0,0,0-.11.61,22.196,22.196,0,0,1-5.49006,4.55c-3.31,1.93-5.81,2.19-9.62,3.32a52.87806,52.87806,0,0,0-8.78,3.5c-.79-.2-1.7-.4-2.72-.59a98.01643,98.01643,0,0,0,9.47-4.14c.95-.46,1.91-.96,2.89-1.48h.00994q1.27506-.675,2.58-1.41a2.87359,2.87359,0,0,0,1.56.46c1.66,0,3.04-1.44,3.43-3.39.87-.53,1.71-1.09,2.6-1.66h.03C352.535,416.28975,353.925,416.35976,355.355,416.42976Z" transform="translate(-19.72501 -400.8398)"/><path class="cls-3" d="M281.795,427.26979c-.46.06-.91.12-1.34.18-.67.1-1.3.2-1.9.3-.34.06-.68.12-1,.19-3.66-2.09-8.9-5.08-9.93-5.67-5.91-3.37-9.45-5.39-12.34-6.57l-4.43-1.26c-.44-.08-.89-.13-1.36-.17a23.13152,23.13152,0,0,0-5.4.17h-9.26a33.30306,33.30306,0,0,1,9.81-2.63,28.20883,28.20883,0,0,1,15,2.3c.87.38,1.72.8,2.56,1.25,2.1,1.1,4.14,2.38,6.2,3.73,1.46.96,2.93,1.95,4.45,2.94A83.47323,83.47323,0,0,0,281.795,427.26979Z" transform="translate(-19.72501 -400.8398)"/><path class="cls-3" d="M394.645,440.6598h-9.41a39.44006,39.44006,0,0,1-10.29-10.22,40.57736,40.57736,0,0,1-6-13.59c1.32.02,2.66.03,4.01.04a7.55757,7.55757,0,0,0-.59,2.99c0,3.26,1.88995,5.9,4.22,5.9.12,0,.23-.01.35-.02a1.18474,1.18474,0,0,0,.2-.04,2.05719,2.05719,0,0,0,.34-.07c.12-.04.24-.09.36-.14a4.16125,4.16125,0,0,0,.47-.24c.47.83.99,1.65,1.56,2.48A40.48252,40.48252,0,0,0,394.645,440.6598Z" transform="translate(-19.72501 -400.8398)"/><path class="cls-3" d="M466.255,433.56978a53.93339,53.93339,0,0,0,1.4,7.09h-1.5c-3.39-5.46-5.77-12.33-4.25-20.15a32.48641,32.48641,0,0,1,6.63-13.74l.71,1.03a54.00768,54.00768,0,0,0-3.24006,14.22c-.04.48-.07995.96-.1,1.44a7.11274,7.11274,0,0,0,.35,10.11Z" transform="translate(-19.72501 -400.8398)"/><path class="cls-10" d="M70.605,424.86977a8.10031,8.10031,0,0,1-7.87,8.3,7.67277,7.67277,0,0,1-3.43-.81994v-.01a7.52422,7.52422,0,0,1-.62-3,7.81321,7.81321,0,0,1,6.93005-7.69,8.04942,8.04942,0,0,1,4.66.83A8.95522,8.95522,0,0,1,70.605,424.86977Z" transform="translate(-19.72501 -400.8398)"/><path class="cls-3" d="M74.515,429.3398v.01a7.82647,7.82647,0,0,1-7.91,7.73,8.00018,8.00018,0,0,1-2.69-.46,8.47922,8.47922,0,0,1-1.46-.69,7.87321,7.87321,0,0,1-2.83-2.93c-.11-.21-.22-.43-.31995-.65a7.67277,7.67277,0,0,0,3.43.81994,8.10031,8.10031,0,0,0,7.87-8.3,8.95522,8.95522,0,0,0-.33-2.39,2.70209,2.70209,0,0,1,.29.16v.01A7.6736,7.6736,0,0,1,74.515,429.3398Z" transform="translate(-19.72501 -400.8398)"/><path class="cls-10" d="M92.305,415.67976a7.3815,7.3815,0,0,1-7.11,7.62,6.98549,6.98549,0,0,1-5.57-2.88v-.19a7.8221,7.8221,0,0,1,7.91-7.74,7.96173,7.96173,0,0,1,4.57,1.42A7.93536,7.93536,0,0,1,92.305,415.67976Z" transform="translate(-19.72501 -400.8398)"/><path class="cls-3" d="M95.455,420.22975a7.603,7.603,0,0,1-2.34,5.5,7.97834,7.97834,0,0,1-5.58,2.25h-.07a8.04163,8.04163,0,0,1-5.16-1.93,7.70891,7.70891,0,0,1-2.68-5.63,6.98549,6.98549,0,0,0,5.57,2.88,7.3815,7.3815,0,0,0,7.11-7.62,7.93536,7.93536,0,0,0-.2-1.77A7.6673,7.6673,0,0,1,95.455,420.22975Z" transform="translate(-19.72501 -400.8398)"/><path class="cls-10" d="M118.215,414.81978a6.81418,6.81418,0,0,1-6.42,5.58c-3.67,0-6.64-3.33-6.64-7.45q0-.33.03-.66a7.98669,7.98669,0,0,1,13.03,2.53Z" transform="translate(-19.72501 -400.8398)"/><path class="cls-3" d="M118.775,417.67976a7.55632,7.55632,0,0,1-1.28,4.22,7.91709,7.91709,0,0,1-3.95,3.06,8.00016,8.00016,0,0,1-2.69.46,7.91954,7.91954,0,0,1-3.97-1.05,7.67518,7.67518,0,0,1-2.74-2.6h-.01a7.61264,7.61264,0,0,1,1.05-9.48q-.02994.33-.03.66c0,4.12,2.97,7.45,6.64,7.45a6.81418,6.81418,0,0,0,6.42-5.58A7.59212,7.59212,0,0,1,118.775,417.67976Z" transform="translate(-19.72501 -400.8398)"/><path class="cls-3" d="M133.4948,413.17021a7.82207,7.82207,0,0,0-7.91,7.74,7.64458,7.64458,0,0,0,.29,2.09,7.77331,7.77331,0,0,0,2.19,3.55,8.01,8.01,0,0,0,5.43,2.11,7.7182,7.7182,0,0,0,1.18-.09,7.9689,7.9689,0,0,0,4.26-2.02,7.66741,7.66741,0,0,0,2.48-5.64A7.8307,7.8307,0,0,0,133.4948,413.17021Zm-.33,12.07a4.34,4.34,0,1,1,4.34-4.34A4.336,4.336,0,0,1,133.16478,425.24022Z" transform="translate(-19.72501 -400.8398)"/><path class="cls-3" d="M154.77476,421.85021a7.83715,7.83715,0,0,0-7.92,7.74c0,.2.01.39.02.58a7.86179,7.86179,0,0,0,7.9,7.17,7.49467,7.49467,0,0,0,1.72-.19,7.72839,7.72839,0,0,0-1.72-15.3Zm.01,12.46a4.61667,4.61667,0,1,1,4.74-4.62A4.67845,4.67845,0,0,1,154.78477,434.31023Z" transform="translate(-19.72501 -400.8398)"/><path class="cls-6" d="M307.795,401.3398a20.41645,20.41645,0,0,1-3.97,7.06,22.47684,22.47684,0,0,1-4.18,3.83,25.19275,25.19275,0,0,1-12.64,4.51q-1.035.09-2.1.09a26.29847,26.29847,0,0,1-5.52-.58,25.18588,25.18588,0,0,1-7.5-2.91,23.28886,23.28886,0,0,1-4.29-3.23,19.489,19.489,0,0,1-1.41-1.47,21.30258,21.30258,0,0,1-1.79-2.34,20.23445,20.23445,0,0,1-2.38-4.96h3.3a25.29992,25.29992,0,0,0,40.1,0Z" transform="translate(-19.72501 -400.8398)"/><path class="cls-3" d="M430.645,429.76979v6.29a13.60663,13.60663,0,0,0-1.7,2.57c-.12.22-.23.43-.33.65-.23.47-.42.93-.59,1.38h-5.79c.11-.34.24-.68.37-1.01.11-.27.22-.54.34-.8a9.91109,9.91109,0,0,1,.44-.93006c.13-.27.27-.54.42-.8v-.01c.27-.47.55-.93.84-1.37v3.26h2.68v-6.53c.25-.25.51-.5.77-.74a.03109.03109,0,0,0,.02-.01q.31494-.285.63-.54a13.42111,13.42111,0,0,1,1.12-.87Q430.24,430.02477,430.645,429.76979Z" transform="translate(-19.72501 -400.8398)"/><path class="cls-3" d="M461.785,440.6598h-3.65a30.65592,30.65592,0,0,0-7.06-5.73v-6.47a20.46584,20.46584,0,0,1,5.61,4.01v6.53h2.43v-3.63A20.70779,20.70779,0,0,1,461.785,440.6598Z" transform="translate(-19.72501 -400.8398)"/><path class="cls-13" d="M458.135,440.6598h-30.11a15.80292,15.80292,0,0,1,2.62-4.6v1.15h3.19v-3.84a12.4579,12.4579,0,0,1,5.24-1.54v3.21h4.21v-3.01a20.286,20.286,0,0,1,3.7.98v2.54h4.09v-.62A30.65592,30.65592,0,0,1,458.135,440.6598Z" transform="translate(-19.72501 -400.8398)"/><rect class="cls-9" x="138.88" y="4.75" width="96.92999" height="4.42999"/><rect class="cls-5" x="204.58002" y="28.57996" width="29.95996" height="3.64001"/><rect class="cls-7" x="204.58002" y="32.21997" width="29.95996" height="2.48999"/><rect class="cls-7" x="323.89996" y="25.85999" width="7.91003" height="13.96002"/><rect class="cls-14" x="319.64001" y="25.85999" width="4.25995" height="13.96002"/><rect class="cls-5" x="331.81" y="25.85999" width="4" height="13.96002"/><rect class="cls-13" x="339.21997" y="30.02997" width="6.04004" height="9.79004"/><rect class="cls-14" x="349.85999" y="32.75" width="5.09998" height="7.07001"/><rect class="cls-5" x="419.34998" y="5.72998" width="4.21002" height="28.46997"/><rect class="cls-15" x="427.26001" y="18.63" width="4.08997" height="16.07996"/><rect class="cls-5" x="436.95996" y="20.02997" width="2.43005" height="18.13"/><rect class="cls-15" x="410.91998" y="13.76996" width="3.19" height="22.60004"/><rect class="cls-5" x="404.91998" y="23.72998" width="2.67999" height="14.42999"/><path class="cls-9" d="M335.025,430.43977c0,2.4-14.17,4.34-31.66,4.34-17.48,0-31.66-1.94-31.66-4.34a.46659.46659,0,0,1,.03-.17.83045.83045,0,0,1,.24-.39l.1-.1a.64326.64326,0,0,1,.13-.1c.06-.05.13-.1.2-.15a3.60411,3.60411,0,0,1,.39-.22c.14-.07.28-.14.43-.2.02-.01.05-.02.09-.04.06-.02.14-.05.21-.08.06-.02.12-.05.19-.07a1.5848,1.5848,0,0,1,.2-.06994c.14-.05.28-.1.43-.14.39-.13.83-.24,1.3-.36l.12-.03c4.94,1.52,16.03,2.57,28.91,2.57,11.85,0,22.17-.89,27.6-2.21h.01c.36.11.69.22.98.34.08.03.17.07.25.1.2.09.38.17.54.26a2.47807,2.47807,0,0,1,.29.17c.02.01.03.02.05.03a2.15684,2.15684,0,0,1,.35.29.79032.79032,0,0,1,.12.15.41233.41233,0,0,1,.07.11A.61212.61212,0,0,1,335.025,430.43977Z" transform="translate(-19.72501 -400.8398)"/><path class="cls-16" d="M274.345,428.70979c.39-.13.83-.25,1.3-.36C275.175,428.4698,274.735,428.57979,274.345,428.70979Z" transform="translate(-19.72501 -400.8398)"/><path class="cls-4" d="M332.275,428.67976c-5.43,1.32-15.75,2.21-27.6,2.21-12.88,0-23.97-1.05-28.91-2.57.16-.04.32-.07.48005-.11.41-.1.85-.19,1.31-.27.32-.07.66-.13,1-.19.6-.1,1.23-.2,1.9-.3.43-.06.88-.12,1.34-.18,1.23-.16,2.54-.3,3.93-.43,1.99-.18,4.13-.34,6.41-.46,1.17-.06,2.37-.11,3.6-.16,2.32-.07,4.74-.12,7.23-.12h.4c5.04,0,9.82.16,14.04.45,1.81.12,3.52.27,5.11.43,2.31.24,4.37.53,6.12.84,1.02.19,1.93.39,2.72.59C331.685,428.49977,331.985,428.5898,332.275,428.67976Z" transform="translate(-19.72501 -400.8398)"/><path class="cls-9" d="M322.005,413.7198v.49c-.00994.76-.04,1.51-.09,2.22-.05.76-.12,1.49-.21,2.17005a18.87607,18.87607,0,0,1-.72,3.36v.01c-.42005,1.31-.95,2.09-1.53,2.09-.34,0-.66-.26-.95-.74a4.15233,4.15233,0,0,1-.34-.7h-.01a15.12237,15.12237,0,0,1-.83-3.16c-.13-.85-.24-1.79-.32-2.79-.06-.85-.09-1.74-.1-2.67v-.28c0-.88.03-1.74.08-2.56a29.80962,29.80962,0,0,1,.34-3.12,16.22814,16.22814,0,0,1,.67005-2.78c.41-1.18.91-1.88,1.46-1.88.64,0,1.21.93,1.65,2.48v.01a19.8636,19.8636,0,0,1,.62,3.16c.11.83.19,1.72.23,2.66C321.985,412.34981,322.005,413.01979,322.005,413.7198Z" transform="translate(-19.72501 -400.8398)"/><path class="cls-4" d="M331.125,413.54976l-9.12.66v-.49c0-.7-.01995-1.37-.05-2.03l10.26-.23c-1.33.39-2.04.81-2.04,1.24C330.175,412.98976,330.505,413.26979,331.125,413.54976Z" transform="translate(-19.72501 -400.8398)"/><path class="cls-13" d="M424.395,412.69978a.35388.35388,0,0,1-.03.14.8334.8334,0,0,1-.07.13,1.31091,1.31091,0,0,1-.46.38c-.07.04-.14.07995-.22.12a7.82312,7.82312,0,0,1-1.25.46c-.41.12-.87.24-1.39.36-.01,0-.01,0-.02.01-.13.02-.26.05-.4.08-.27.05-.56.11-.87.17-.29.05-.59.1-.91.15-.61.1-1.26.2-1.96.3-.36.05-.73.09-1.12.14-.21.03-.43.06-.65.08-.66.08-1.35.16-2.07.23-1.22.13-2.52.24-3.91.36-1.04.08-2.13.17-3.26.25-2.73.18-5.71.34-8.87.47-2.7.11-5.54.2-8.49.26-2.66.06006-5.41.1-8.23.11-.97.01-1.95.01-2.93.01-1.46,0-2.9-.01-4.33-.02-1.35-.01-2.69-.02-4.01-.04-1.64-.03-3.26-.07-4.84-.11005-2.92-.08-5.72-.17-8.37-.29-.13-.01-.26-.01-.38-.02-1.43-.07-2.82-.14-4.15-.23h-.03c-.87-.05-1.72-.1-2.54-.15-2.51-.18-4.81-.37-6.88-.58-5.23-.54-8.96-1.19-10.62-1.92h-.01c-.62-.28-.95-.56-.95-.85,0-.43.71-.85,2.04-1.24a40.80669,40.80669,0,0,1,5.64-1.06v-.01c.81-.11,1.69-.21,2.62-.32,2.86-.32,6.24-.6,10.02-.83.93-.06,1.88995-.11,2.87-.16,1.48-.08,3.02-.15,4.6-.22.88-.03,1.78-.07,2.69-.1.42-.01.85-.03,1.28-.04,4.81006-.15,9.98-.23,15.35-.23,1.59,0,3.17.01,4.72.02.86005.01,1.72.02,2.57.03,4.85.07,9.45.2,13.69.39.47.02.94.04,1.4.07,4.43.21,8.44.48,11.87.81.51.04,1.01.09,1.49.14C420.115,410.68977,424.395,411.64979,424.395,412.69978Z" transform="translate(-19.72501 -400.8398)"/><path class="cls-3" d="M411.355,432.07979a2.10054,2.10054,0,0,1-.09.5c-.01995.07-.04.13-.06.2a2.38508,2.38508,0,0,1-.15.37,1.28287,1.28287,0,0,1-.11.2c-.03.06-.07.12-.11.18994a5.04984,5.04984,0,0,1-1.24,1.3,5.85478,5.85478,0,0,1-.48.34.437.437,0,0,1-.07.04c-.13.08-.25.15-.39.23a3.04358,3.04358,0,0,1-.4.21c-.19.1-.38995.19-.6.28-.11.05-.22.09-.33.13-.13.05-.27.1-.41.15-.19.07-.38.13-.58.19-.24.07-.49.14-.75.2a.29156.29156,0,0,1-.09.02,3.01824,3.01824,0,0,1-.41.09.03685.03685,0,0,1-.03.01c-.2.04-.4.08-.6.11005-.25.05-.51.07995-.78.11-.01.01-.01.01-.02,0-.13.02-.27.03-.4.04-.00994.01-.03.01-.06.01a2.21544,2.21544,0,0,1-.37.03.08583.08583,0,0,1-.07,0H402.745c-.12006.01-.25.02-.37006.02-.27.02-.56.03-.84.03-5.42,0-9.83-2.34-9.83-5.23a2.829,2.829,0,0,1,.2-1.04c.94,2.26,5.15,3.97,10.19,3.97C406.135,434.7798,409.635,433.67976,411.355,432.07979Z" transform="translate(-19.72501 -400.8398)"/><path class="cls-13" d="M411.365,431.84981a1.61867,1.61867,0,0,1-.01.22v.01c-1.72,1.6-5.22,2.7-9.26,2.7-5.04,0-9.25-1.71-10.19-3.97v-.01a3.5482,3.5482,0,0,1,.21-.44,2.37553,2.37553,0,0,1,.13-.21,1.27593,1.27593,0,0,1,.13995-.21,3.50265,3.50265,0,0,1,.29-.36c.01-.02.03-.03.05-.05a5.781,5.781,0,0,1,.77-.69,5.39622,5.39622,0,0,1,.61-.41,2.60442,2.60442,0,0,1,.28-.17,9.44975,9.44975,0,0,1,.9-.45,7.52312,7.52312,0,0,1,.76-.3c.25-.09.52-.18.8-.26h.01c.23-.07.47-.13.71-.19.12-.03.24-.06.37-.08a.23689.23689,0,0,1,.08-.02c.2-.04.4-.08.6-.11a.08994.08994,0,0,1,.05-.01c.29-.05.59-.09.89-.12.32-.04.65-.06.98-.08s.66-.03,1-.03C406.965,426.60976,411.365,428.95979,411.365,431.84981Z" transform="translate(-19.72501 -400.8398)"/><path class="cls-5" d="M574.775,429.98976v2.84a6.07971,6.07971,0,0,1-3.64-.41c-1.15-.55-2.15-1.57995-2.81-1.21-.86.49.26,2.68-.76,3.7-1.08,1.08-3.83.19-5.49-.7-1.95-1.05-2.07995-1.93-4.79-4.53-2.41-2.31-4.64-4.46-6.32-3.9-1.04.35-1.32,1.55-1.85,2.75-2.24,5.09-7.71,7.52-10.21,8.63995a23.97625,23.97625,0,0,1-11.49,1.87c-4.33-.25-8.39-.49-10.85-3.36-2.5-2.91-.88995-5.64-3.96-9.19-.61-.71-3.19-3.69-5.75-3.19-3.17.61-2.55,5.86-6.38,7.65-3.81,1.79-7.6-1.93-9.7,0-1.71,1.57.26,4.49-1.15,7.54a6.079,6.079,0,0,1-1.73,2.17h-15.34a7.82523,7.82523,0,0,1,4.43-3.58c3.15-.84,5.55,1.32,7.66-.25.91-.68,1.39-2.42,2.3-5.88,1.19-4.5.86-5.08,1.66-5.74,2.32-1.91,6.05,2.25,10.34.89,4.3-1.36005,3.72-6.54,7.4-7.4,3.98-.94,9.92,3.89,11.49,9.19.98,3.31-.21,5.2,1.53,7.15,1.68,1.88,4.43,1.95,7.66,2.04a23.96245,23.96245,0,0,0,10.22-1.53c8.98-3.73,8.92-11.98,14.04-12.25,5.97-.33,11.02,10.6,13.79,9.19,1.4-.72.96-3.99,2.55-4.34.89-.2,1.58.69,2.55005,1.27A6.40421,6.40421,0,0,0,574.775,429.98976Z" transform="translate(-19.72501 -400.8398)"/><polygon class="cls-5" points="555.05 0.5 555.05 10.67 546.46 0.5 555.05 0.5"/><polygon class="cls-14" points="537.78 0.5 526.71 14.16 515.37 0.5 519.63 0.5 526.54 9.82 533.83 0.5 537.78 0.5"/><polygon class="cls-11" points="505.24 0.5 493.01 14.16 480.93 0.5 485.57 0.5 492.69 10.26 501.45 0.5 505.24 0.5"/><polygon class="cls-14" points="470.78 0.5 457.52 18.5 449.52 6.96 448.81 5.93 445.05 0.5 449.9 0.5 457.45 13.84 466.54 0.5 470.78 0.5"/><path class="cls-2" d="M24.645,407.84981a4.39115,4.39115,0,0,1-4.42,4.12v-8.24A4.39121,4.39121,0,0,1,24.645,407.84981Z" transform="translate(-19.72501 -400.8398)"/><path class="cls-2" d="M25.325,419.41975a4.43378,4.43378,0,0,1-2.17,3.73,5.51594,5.51594,0,0,1-2.93.83v-9.11A4.8484,4.8484,0,0,1,25.325,419.41975Z" transform="translate(-19.72501 -400.8398)"/><path class="cls-14" d="M538.91478,417.70018h-.01v-.01l-8.73-12.61-10.55,13.28,9.87,11.4,9.87-11.4Zm-9.63,5.08a4.64806,4.64806,0,1,1,4.3-4.63A4.47546,4.47546,0,0,1,529.28477,422.7802Z" transform="translate(-19.72501 -400.8398)"/><polygon class="cls-11" points="484.33 13.78 475.9 22.92 474.69 21.61 467.48 13.78 476.48 3.14 484.33 13.78"/><path class="cls-11" d="M562.47478,406.20018l-9.01,10.65,8.42,9.14,8.43-9.14Zm-.38,14.37a3.57949,3.57949,0,1,1,3.4-3.57A3.49589,3.49589,0,0,1,562.09477,420.57018Z" transform="translate(-19.72501 -400.8398)"/><path class="cls-4" d="M62.265,407.63978a3.51822,3.51822,0,0,1-1.05,2.52,3.55918,3.55918,0,0,1-2.53,1.05H49.495a3.57213,3.57213,0,0,1-3.57-3.57,3.53119,3.53119,0,0,1,.54-1.88h15.26A3.5318,3.5318,0,0,1,62.265,407.63978Z" transform="translate(-19.72501 -400.8398)"/><rect class="cls-2" x="17.52002" y="0.5" width="35.22998" height="4.41998"/><path class="cls-7" d="M265.3148,401.3402a25.29986,25.29986,0,0,0,40.1,0Zm10.39,5.87a2.17055,2.17055,0,1,1,2.22-2.17A2.18959,2.18959,0,0,1,275.70476,407.21019Zm9.75,2.04a3.19,3.19,0,1,1,3.19-3.19A3.19237,3.19237,0,0,1,285.45476,409.25023Zm9.4-1.7a2.17058,2.17058,0,1,1,2.22-2.17005A2.1897,2.1897,0,0,1,294.85478,407.55022Z" transform="translate(-19.72501 -400.8398)"/><polygon class="cls-17" points="235.56 14.86 235.56 16.67 184.84 16.67 184.84 13.6 231.13 13.6 235.56 14.86"/><path class="cls-13" d="M533.585,418.14979a4.31244,4.31244,0,1,1-4.3-4.64A4.47546,4.47546,0,0,1,533.585,418.14979Z" transform="translate(-19.72501 -400.8398)"/><path class="cls-14" d="M565.495,416.99977a3.40931,3.40931,0,1,1-3.4-3.58A3.48773,3.48773,0,0,1,565.495,416.99977Z" transform="translate(-19.72501 -400.8398)"/><path class="cls-7" d="M204.5648,417.51018v5.61h50.72v-5.61Zm4.27,4.32a1.50287,1.50287,0,1,1,1.41-1.5A1.45367,1.45367,0,0,1,208.83476,421.83019Zm7.44.09a1.50357,1.50357,0,1,1,1.4-1.5A1.45525,1.45525,0,0,1,216.27476,421.92021Zm8.38-.09a1.50357,1.50357,0,1,1,1.4-1.5A1.45525,1.45525,0,0,1,224.65477,421.83019Zm7.59.09a1.50287,1.50287,0,1,1,1.41-1.5A1.45368,1.45368,0,0,1,232.2448,421.92021Zm7.25-.03a1.50357,1.50357,0,1,1,1.4-1.5A1.45526,1.45526,0,0,1,239.4948,421.89018Zm7.53-.03a1.50357,1.50357,0,1,1,1.4-1.5A1.45526,1.45526,0,0,1,247.02476,421.86022Z" transform="translate(-19.72501 -400.8398)"/><path class="cls-8" d="M240.895,420.38978a1.408,1.408,0,1,1-1.4-1.5A1.45367,1.45367,0,0,1,240.895,420.38978Z" transform="translate(-19.72501 -400.8398)"/><path class="cls-8" d="M233.655,420.41975a1.408,1.408,0,1,1-1.41-1.5A1.45525,1.45525,0,0,1,233.655,420.41975Z" transform="translate(-19.72501 -400.8398)"/><path class="cls-8" d="M210.245,420.32979a1.408,1.408,0,1,1-1.41-1.5A1.45527,1.45527,0,0,1,210.245,420.32979Z" transform="translate(-19.72501 -400.8398)"/><path class="cls-8" d="M217.675,420.41975a1.408,1.408,0,1,1-1.4-1.5A1.45368,1.45368,0,0,1,217.675,420.41975Z" transform="translate(-19.72501 -400.8398)"/><path class="cls-8" d="M226.055,420.32979a1.408,1.408,0,1,1-1.4-1.5A1.45368,1.45368,0,0,1,226.055,420.32979Z" transform="translate(-19.72501 -400.8398)"/><path class="cls-8" d="M248.425,420.35976a1.408,1.408,0,1,1-1.4-1.5A1.45368,1.45368,0,0,1,248.425,420.35976Z" transform="translate(-19.72501 -400.8398)"/><path class="cls-10" d="M137.505,420.89979a4.34,4.34,0,1,1-4.34-4.34A4.336,4.336,0,0,1,137.505,420.89979Z" transform="translate(-19.72501 -400.8398)"/><path class="cls-10" d="M159.525,429.68977a4.73668,4.73668,0,1,1-4.74-4.61A4.68077,4.68077,0,0,1,159.525,429.68977Z" transform="translate(-19.72501 -400.8398)"/><circle class="cls-4" cx="265.72998" cy="5.21997" r="3.19"/><path class="cls-8" d="M277.925,405.03975a2.21546,2.21546,0,1,1-2.22-2.17A2.192,2.192,0,0,1,277.925,405.03975Z" transform="translate(-19.72501 -400.8398)"/><path class="cls-8" d="M297.075,405.37978a2.21546,2.21546,0,1,1-2.22-2.17A2.1919,2.1919,0,0,1,297.075,405.37978Z" transform="translate(-19.72501 -400.8398)"/><polygon class="cls-14" points="443.27 0.5 439.98 11.39 437.42 0.5 443.27 0.5"/><polygon class="cls-11" points="434.23 0.5 431.81 9.86 431.76 9.72 428.4 0.5 434.23 0.5"/><polygon class="cls-5" points="414.22 0.5 407.98 10.71 402.71 0.5 414.22 0.5"/><polygon class="cls-13" points="396.02 0.5 391.81 6.11 388.57 0.5 396.02 0.5"/><path class="cls-4" d="M342.525,404.89979l-2.05,5.17c-.93.11-1.81.21-2.62.32l2.89-7.66Z" transform="translate(-19.72501 -400.8398)"/><polygon class="cls-9" points="328.29 0.5 324.07 5.6 322.8 4.06 321.02 1.89 321.02 1.88 319.88 0.5 328.29 0.5"/><path class="cls-7" d="M361.925,405.5298l-1.27,3.23c-.91.03-1.81.07-2.69.1l1.59-5.07Z" transform="translate(-19.72501 -400.8398)"/><polygon class="cls-9" points="348.03 0.5 342.28 4.75 342.2 4.69 339.83 2.95 336.49 0.5 348.03 0.5"/><polygon class="cls-13" points="366.62 0.5 362.37 5.6 357.91 0.5 366.62 0.5"/><polygon class="cls-5" points="381.65 0.5 378.03 5.43 374.52 0.5 381.65 0.5"/><path class="cls-5" d="M380.795,419.87978c0,.18-.01.36-.02.53-.01.12-.02.25-.04.37a3.11568,3.11568,0,0,1-.06.44,3.86434,3.86434,0,0,1-.09.49c-.04.18-.09.35-.14.52a5.23435,5.23435,0,0,1-.3.78c.01.01.01.01,0,.02h-.01a2.56127,2.56127,0,0,1-.11.24,3.03608,3.03608,0,0,1-.19.36,3.72316,3.72316,0,0,1-.25.39c-.11.15-.21.28-.32.41a3.54591,3.54591,0,0,1-.33.34,3.27237,3.27237,0,0,1-.35.3c-.09.07-.18.13-.28.2a4.16125,4.16125,0,0,1-.47.24c-.12.05-.24.1-.36.14a2.05719,2.05719,0,0,1-.34.07,1.18474,1.18474,0,0,1-.2.04c-.12.01-.23.02-.35.02-2.33,0-4.22-2.64-4.22-5.9a7.55757,7.55757,0,0,1,.59-2.99c1.43.01,2.87.02,4.33.02.98,0,1.96,0,2.93-.01A7.64825,7.64825,0,0,1,380.795,419.87978Z" transform="translate(-19.72501 -400.8398)"/><path class="cls-18" d="M397.395,419.14979c0,3.35-2.09,6.06-4.66,6.06-2.58,0-4.66-2.71-4.66-6.06a7.48307,7.48307,0,0,1,.37-2.36c2.95-.06,5.79-.15,8.49-.26A7.392,7.392,0,0,1,397.395,419.14979Z" transform="translate(-19.72501 -400.8398)"/><path class="cls-3" d="M411.655,423.6598c-.08.07-.16.13-.24.19a.05368.05368,0,0,1-.04.03,2.18923,2.18923,0,0,1-.25.17,2.31089,2.31089,0,0,1-.35.18,1.19048,1.19048,0,0,1-.2.08,1.90991,1.90991,0,0,1-.45.13,1.4242,1.4242,0,0,1-.22.04,2.559,2.559,0,0,1-.39.03c-2.29,0-4.15-2.62-4.15-5.84a7.7631,7.7631,0,0,1,.44-2.61c1.13-.08,2.22-.17,3.26-.25a7.06917,7.06917,0,0,0-.42,2.42A5.83752,5.83752,0,0,0,411.655,423.6598Z" transform="translate(-19.72501 -400.8398)"/><path class="cls-5" d="M413.665,418.66975a3.53736,3.53736,0,0,1-.02.46c0,.11-.01.21-.02.32a5.8769,5.8769,0,0,1-.11.75,6.69964,6.69964,0,0,1-.41,1.38,3.81479,3.81479,0,0,1-.21.46,4.39559,4.39559,0,0,1-.39.66,1.15235,1.15235,0,0,1-.19.26.0756.0756,0,0,1-.02.04c-.07.08-.13.16-.21.24a5.65393,5.65393,0,0,1-.43.42,5.83752,5.83752,0,0,1-3.01-5.43,7.06917,7.06917,0,0,1,.42-2.42c1.39-.12,2.69-.23,3.91-.36A7.50563,7.50563,0,0,1,413.665,418.66975Z" transform="translate(-19.72501 -400.8398)"/><path class="cls-18" d="M364.265,418.34981c0,3.43994-2.05,6.22-4.57,6.22-2.52,0-4.56-2.78-4.56-6.22,0-.22.01-.45.03-.67005a4.47421,4.47421,0,0,1,.08-.64,4.09363,4.09363,0,0,1,.11-.61c.12.01.25.01.38.02,2.65.12,5.45.21,8.37.29A7.64678,7.64678,0,0,1,364.265,418.34981Z" transform="translate(-19.72501 -400.8398)"/><path class="cls-3" d="M348.685,416.74977a5.80177,5.80177,0,0,1-.11,1.11c-.39,1.95-1.77,3.39-3.43,3.39a2.87359,2.87359,0,0,1-1.56-.46,4.69994,4.69994,0,0,1-1.98-4.04,5.40476,5.40476,0,0,1,.15-1.28c2.07.21,4.37.4,6.88.58A4.04633,4.04633,0,0,1,348.685,416.74977Z" transform="translate(-19.72501 -400.8398)"/><path class="cls-14" d="M511.825,440.6598h-14.53a7.33888,7.33888,0,0,1,14.53,0Z" transform="translate(-19.72501 -400.8398)"/><path class="cls-14" d="M558.365,439.18977a7.80237,7.80237,0,0,1-.14,1.47h-10.12a7.79657,7.79657,0,0,1-.14-1.47c0-3.56,2.33-6.45,5.2-6.45C556.045,432.73976,558.365,435.62978,558.365,439.18977Z" transform="translate(-19.72501 -400.8398)"/><path class="cls-11" d="M471.94481,420.87022a8.18115,8.18115,0,0,0-6.04,2.59,7.11266,7.11266,0,0,0,.35,10.11,8.21089,8.21089,0,0,0,5.69,2.24,7.4863,7.4863,0,1,0,0-14.94Zm.13,11.53a4.23582,4.23582,0,1,1,4.32-4.23A4.27062,4.27062,0,0,1,472.07481,432.40019Z" transform="translate(-19.72501 -400.8398)"/><path class="cls-5" d="M476.395,428.16975a4.32077,4.32077,0,1,1-4.32-4.24A4.277,4.277,0,0,1,476.395,428.16975Z" transform="translate(-19.72501 -400.8398)"/><path class="cls-2" d="M30.555,440.6598h-7.84a3.97423,3.97423,0,0,1,7.84,0Z" transform="translate(-19.72501 -400.8398)"/><path class="cls-2" d="M42.695,440.6598h-7.86a3.973,3.973,0,0,1,7.86,0Z" transform="translate(-19.72501 -400.8398)"/><path class="cls-2" d="M53.955,440.6598h-7.78a3.95711,3.95711,0,0,1,7.61-.56h.01A3.581,3.581,0,0,1,53.955,440.6598Z" transform="translate(-19.72501 -400.8398)"/><polygon class="cls-7" points="158.75 16.35 155.37 28.53 150.13 21.54 144.37 13.86 151.23 15.05 158.75 16.35"/><polygon class="cls-9" points="162.41 16.98 158.33 32.48 155.37 28.54 155.37 28.53 158.75 16.35 162.41 16.98"/><polygon class="cls-7" points="181.49 20.11 180.01 25.7 180.01 25.71 178.9 29.93 178.27 32.33 176.35 29.77 171.49 23.29 170.19 21.56 167.25 17.63 181.49 20.11"/><polygon class="cls-9" points="182.35 16.83 181.49 20.11 167.25 17.63 164.31 13.71 182.35 16.83"/><polygon class="cls-5" points="466.54 0.5 457.45 13.84 449.9 0.5 466.54 0.5"/><polygon class="cls-14" points="501.45 0.5 492.69 10.26 485.57 0.5 501.45 0.5"/><polygon class="cls-5" points="533.83 0.5 526.54 9.82 519.63 0.5 533.83 0.5"/><path class="cls-3" d="M417.585,418.22975c0,3.17-2,5.75-4.47,5.75a3.49116,3.49116,0,0,1-1.46-.32,2.83519,2.83519,0,0,0,.43-.42c.08-.08.14-.16.21-.24a.0756.0756,0,0,0,.02-.04,1.15235,1.15235,0,0,0,.19-.26,4.39559,4.39559,0,0,0,.39-.66,3.81479,3.81479,0,0,0,.21-.46,6.69964,6.69964,0,0,0,.41-1.38,5.8769,5.8769,0,0,0,.11-.75c.01-.11.02-.21.02-.32a3.53736,3.53736,0,0,0,.02-.46,7.50563,7.50563,0,0,0-.69-3.22c.72-.07,1.41-.15,2.07-.23.22-.02.44-.05.65-.08.39-.05.76-.09,1.12-.14A7.03143,7.03143,0,0,1,417.585,418.22975Z" transform="translate(-19.72501 -400.8398)"/><path class="cls-3" d="M411.355,432.06978a1.61867,1.61867,0,0,0,.01-.22c0-2.89-4.4-5.24-9.83-5.24-.34,0-.67.01-1,.03s-.66.04-.98.08c-.31.03-.6.07-.89.12a.08994.08994,0,0,0-.05.01c-.2.03-.4.06994-.6.11a.23689.23689,0,0,0-.08.02c-.13.02-.25.05-.37.08a7.34744,7.34744,0,0,0-.71.19h-.01c-.28.08-.54.16-.8.26a7.52312,7.52312,0,0,0-.76.3,9.44975,9.44975,0,0,0-.9.45,2.60442,2.60442,0,0,0-.28.17,5.39622,5.39622,0,0,0-.61.41,5.781,5.781,0,0,0-.77.69c-.02.02-.04.03-.05.05a3.04789,3.04789,0,0,0-.29.36,1.27593,1.27593,0,0,0-.13995.21.79765.79765,0,0,0-.13.21,2.93,2.93,0,0,0-.21.44,2.41649,2.41649,0,0,1-.2-.95c0-2.73,4.65-4.94,10.39-4.94,5.73,0,10.38,2.21,10.38,4.94A3.04241,3.04241,0,0,1,411.355,432.06978Z" transform="translate(-19.72501 -400.8398)"/><path class="cls-16" d="M411.365,431.84981a1.61867,1.61867,0,0,1-.01.22v.01c-1.72,1.6-5.22,2.7-9.26,2.7-5.04,0-9.25-1.71-10.19-3.97v-.01a3.5482,3.5482,0,0,1,.21-.44,2.37553,2.37553,0,0,1,.13-.21,1.27593,1.27593,0,0,1,.13995-.21,3.50265,3.50265,0,0,1,.29-.36c.01-.02.03-.03.05-.05a5.781,5.781,0,0,1,.77-.69,5.39622,5.39622,0,0,1,.61-.41,2.60442,2.60442,0,0,1,.28-.17,9.44975,9.44975,0,0,1,.9-.45,7.52312,7.52312,0,0,1,.76-.3c.25-.09.52-.18.8-.26h.01c.23-.07.47-.13.71-.19.12-.03.24-.06.37-.08a.23689.23689,0,0,1,.08-.02c.2-.04.4-.08.6-.11a.08994.08994,0,0,1,.05-.01c.29-.05.59-.09.89-.12.32-.04.65-.06.98-.08s.66-.03,1-.03C406.965,426.60976,411.365,428.95979,411.365,431.84981Z" transform="translate(-19.72501 -400.8398)"/><polygon class="cls-3" points="509.06 0.5 493.45 17.67 493.01 14.16 505.24 0.5 509.06 0.5"/><polygon class="cls-3" points="542.07 0.5 526.84 17.41 526.71 14.16 537.78 0.5 542.07 0.5"/><polygon class="cls-3" points="522.75 18.37 509.79 32.6 509.77 28.92 519.64 17.52 519.19 16.86 522.75 18.37"/><polygon class="cls-3" points="553.33 15.63 542.35 26.86 542.16 25.15 550.59 16.01 542.75 5.36 542.98 3.11 553.33 15.63"/><polygon class="cls-3" points="467.48 13.78 474.69 21.61 473.18 22.71 463.98 13.56 473.01 3.14 476.48 3.14 467.48 13.78"/><polygon class="cls-3" points="431.76 9.72 431.73 14.09 425.88 1.2 425.56 0.5 428.4 0.5 431.76 9.72"/><polygon class="cls-3" points="418.02 0.5 408.3 14.03 407.98 10.71 414.22 0.5 418.02 0.5"/><path class="cls-16" d="M255.285,415.69979a18.48519,18.48519,0,0,0-4.43-1.26" transform="translate(-19.72501 -400.8398)"/><path class="cls-3" d="M339.365,438.4698v2.19H227.095c3.15-.63,6.74-1.23,10.66-1.71,11.23005-1.36,17.33-.71,33.19-.34,3.13.08,15.7.05,40.85,0C323.095,438.5898,332.575,438.5298,339.365,438.4698Z" transform="translate(-19.72501 -400.8398)"/><path class="cls-16" d="M355.735,416.44979c-.15.2-.32.39-.49.59" transform="translate(-19.72501 -400.8398)"/><path class="cls-17" d="M266.185,408.63978l-3.98,6.72c-.84-.45-1.69-.87-2.56-1.25l4.75-7.81A21.30258,21.30258,0,0,0,266.185,408.63978Z" transform="translate(-19.72501 -400.8398)"/><path class="cls-5" d="M268.405,419.0898c-2.06-1.35-4.1-2.63-6.2-3.73l3.98-6.72a19.489,19.489,0,0,0,1.41,1.47Z" transform="translate(-19.72501 -400.8398)"/><path class="cls-4" d="M272.855,422.0298c-1.52-.99-2.99-1.98-4.45-2.94l-.81-8.98a23.28886,23.28886,0,0,0,4.29,3.23Z" transform="translate(-19.72501 -400.8398)"/><path class="cls-5" d="M285.725,426.8398c-1.39.13-2.7.27-3.93.43a83.47323,83.47323,0,0,1-8.94-5.24l-.97-8.69a25.18588,25.18588,0,0,0,7.5,2.91Z" transform="translate(-19.72501 -400.8398)"/><path class="cls-17" d="M292.135,426.37978c-2.28.12-4.42.28-6.41.46l-6.34-10.59a26.29847,26.29847,0,0,0,5.52.58q1.065,0,2.1-.09Z" transform="translate(-19.72501 -400.8398)"/><path class="cls-7" d="M316.985,411.1598c-.05.82-.08,1.68-.08,2.56v.28l-17.26-1.77a22.47684,22.47684,0,0,0,4.18-3.83Z" transform="translate(-19.72501 -400.8398)"/><path class="cls-5" d="M317.005,416.66975l-21.26995,9.55c-1.23005.05-2.43.1-3.6.16l-5.13-9.64a25.19275,25.19275,0,0,0,12.64-4.51l17.26,1.77C316.915,414.92976,316.945,415.81978,317.005,416.66975Z" transform="translate(-19.72501 -400.8398)"/><polygon class="cls-5" points="173.06 26.92 171.67 39.82 165.7 39.82 173.06 26.92"/><path class="cls-3" d="M439.075,426.57979v5.25a12.4579,12.4579,0,0,0-5.24,1.54v-5.33A20.16349,20.16349,0,0,1,439.075,426.57979Z" transform="translate(-19.72501 -400.8398)"/><path class="cls-3" d="M446.985,426.9698v6.04a20.286,20.286,0,0,0-3.7-.98v-5.62A19.535,19.535,0,0,1,446.985,426.9698Z" transform="translate(-19.72501 -400.8398)"/><path class="cls-4" d="M156.4948,437.15019a7.49467,7.49467,0,0,1-1.72.19,7.86179,7.86179,0,0,1-7.9-7.17,60.2748,60.2748,0,0,0-7.94-3.62,7.9689,7.9689,0,0,1-4.26,2.02l-8.11,10.68,1.5-12.7a7.77331,7.77331,0,0,1-2.19-3.55c-2.71-.49-5.51-.86005-8.38-1.1a7.91676,7.91676,0,0,1-3.95,3.06l-5.37,12.51-1.29-13.1a7.6754,7.6754,0,0,1-2.74-2.6h-.01a88.41351,88.41351,0,0,0-9.13,1.05,7.71557,7.71557,0,0,1-1.89,2.91v11.86l-5.65-9.61a8.04208,8.04208,0,0,1-5.16-1.93,64.17727,64.17727,0,0,0-7.79,3.3,7.8264,7.8264,0,0,1-7.91,7.73,8.00021,8.00021,0,0,1-2.69-.46,31.48162,31.48162,0,0,0-3.68,4.04h10.15l4.47-5.11,4.17,5.11h18.59l.61-5.24,4.18,5.24h9.52l6.21-4.98,3.04,4.98h23.27l2.92-4.22,3.7,4.22h8.55A30.77486,30.77486,0,0,0,156.4948,437.15019Zm-74.1.32a3.97663,3.97663,0,1,1,4.34-3.96A4.16575,4.16575,0,0,1,82.39476,437.4702Zm17.84-3.9a4.052,4.052,0,1,1,4.18-4.05A4.11353,4.11353,0,0,1,100.23479,433.57018Zm19.59.7a4.37,4.37,0,1,1,4.37-4.37A4.36809,4.36809,0,0,1,119.82481,434.27019Zm19.73,3.64a3.99062,3.99062,0,1,1,3.92-3.99A3.9566,3.9566,0,0,1,139.55479,437.9102Z" transform="translate(-19.72501 -400.8398)"/><path class="cls-2" d="M134.675,428.56978l-8.11,10.68,1.5-12.7a8.0099,8.0099,0,0,0,5.43006,2.11A7.71694,7.71694,0,0,0,134.675,428.56978Z" transform="translate(-19.72501 -400.8398)"/><path class="cls-2" d="M113.545,424.95979l-5.37,12.51-1.29-13.1a7.91954,7.91954,0,0,0,3.97,1.05A8.00016,8.00016,0,0,0,113.545,424.95979Z" transform="translate(-19.72501 -400.8398)"/><path class="cls-2" d="M93.115,425.72975V437.5898l-5.65-9.61005h.07A7.97834,7.97834,0,0,0,93.115,425.72975Z" transform="translate(-19.72501 -400.8398)"/><polygon class="cls-3" points="131.34 39.82 124.72 39.82 127.64 35.6 131.34 39.82"/><polygon class="cls-3" points="59.3 39.82 50.66 39.82 55.13 34.71 59.3 39.82"/><polygon class="cls-3" points="82.68 39.82 77.89 39.82 78.5 34.58 82.68 39.82"/><polygon class="cls-3" points="101.45 39.82 92.2 39.82 98.41 34.84 101.45 39.82"/><path class="cls-10" d="M143.475,433.91975a3.92555,3.92555,0,1,1-3.92-3.99A3.9546,3.9546,0,0,1,143.475,433.91975Z" transform="translate(-19.72501 -400.8398)"/><circle class="cls-10" cx="100.09998" cy="29.06" r="4.37"/><ellipse class="cls-10" cx="80.51001" cy="28.67999" rx="4.17999" ry="4.04999"/><ellipse class="cls-10" cx="62.67" cy="32.66998" rx="4.33998" ry="3.96002"/><path class="cls-4" d="M50.685,432.99977h-7.25a41.40518,41.40518,0,0,1-11.81-17.88,40.60822,40.60822,0,0,1-2.00995-11.61h5.04a40.49241,40.49241,0,0,0,1.91,9.66A41.96945,41.96945,0,0,0,50.685,432.99977Z" transform="translate(-19.72501 -400.8398)"/><path class="cls-4" d="M430.645,415.14979v12.1c-.3,1.03-.55,2.05-.78,3.06a13.42111,13.42111,0,0,0-1.12.87q-.315.25508-.63.54a.03109.03109,0,0,1-.02.01c-.26.24-.52.49-.77.74v-7.9H426.495A55.57226,55.57226,0,0,1,430.645,415.14979Z" transform="translate(-19.72501 -400.8398)"/><path class="cls-16" d="M430.955,414.60979c-.11.18-.21.36-.31.54" transform="translate(-19.72501 -400.8398)"/><path class="cls-4" d="M424.645,431.47975v4.26c-.29.44-.57.9-.84,1.37A54.74784,54.74784,0,0,1,424.645,431.47975Z" transform="translate(-19.72501 -400.8398)"/><path class="cls-16" d="M428.615,439.27979c-.03.46-.05.92-.07,1.38" transform="translate(-19.72501 -400.8398)"/><line class="cls-16" x1="50.83999" y1="21.81" x2="50.83999" y2="21.8"/></svg>