<svg id="Layer_1" data-name="Layer 1" xmlns="http://www.w3.org/2000/svg" viewBox="0 0 573.93 43.58721"><defs><style>.cls-1{fill:#ed1c24;}.cls-1,.cls-10,.cls-11,.cls-12,.cls-13,.cls-14,.cls-15,.cls-16,.cls-17,.cls-18,.cls-19,.cls-2,.cls-20,.cls-3,.cls-4,.cls-5,.cls-6,.cls-7,.cls-8,.cls-9{stroke:#231f20;stroke-miterlimit:10;}.cls-2{fill:#f7941d;}.cls-3{fill:#f26522;}.cls-4{fill:#009444;}.cls-5{fill:none;}.cls-6{fill:#a97c50;}.cls-7{fill:#603913;}.cls-8{fill:#c49a6c;}.cls-9{fill:#1c75bc;}.cls-10{fill:#00aeef;}.cls-11{fill:#9e1f63;}.cls-12{fill:#ee2a7b;}.cls-13{fill:#2e3192;}.cls-14{fill:#f9ed32;}.cls-15{fill:#fff200;}.cls-16{fill:#f15a29;}.cls-17{fill:#8dc63f;}.cls-18{fill:#ec008c;}.cls-19{fill:#fbb040;}.cls-20{fill:#92278f;}</style></defs><path class="cls-1" d="M415.295,135.70641a9.68811,9.68811,0,0,1,.33,2.55c0,5.11-3.8,9.26-8.49,9.26-4.68,0-8.49-4.15-8.49-9.26a9.686,9.686,0,0,1,.33-2.55h-18.59c-5.87,8.55-11.65,14.43-17.12,18.44l.05.06994h-.15a40.73709,40.73709,0,0,1-16.94,7.53,47.13547,47.13547,0,0,1-14.85.05l-8.47,13.91-10.55-15.75.46-.56a46.79365,46.79365,0,0,0-6.85.25v11.99a3.36976,3.36976,0,0,1-3.25,3.38.57308.57308,0,0,1-.13.01,3.38432,3.38432,0,0,1-3.38-3.38995v-10.65c-1.1.31-2.22.68-3.36,1.1a46.00627,46.00627,0,0,0-5.33,2.37006l-1.4,5.49-.08.31-.86-4.5a53.07873,53.07873,0,0,0-9.65,7.38v1.25h-1.27c-.42.42-.82.84-1.22,1.27-.75.8-1.47,1.62-2.16,2.43h88.21l3.36-13.12994,2.5,13.12994H435.745a9.76168,9.76168,0,0,1-2.19-3.04c-1.34-2.85-1.27-5.7.15-6.37,1.39-.66,3.54.99,4.89,3.7a2.07,2.07,0,0,1,1.12-.33,1.97948,1.97948,0,0,1,1.14.36,10.76988,10.76988,0,0,1-1.02-1.01c-1.89-2.09-2.77-4.37006-1.97-5.1.79-.71,2.92.36,4.8,2.4-.67-1.28-.84-2.36005-.33-2.82.7-.64,2.47.14,4.17,1.76-.45-1.46-.41-2.63.21-2.99.8-.46,2.33.61,3.63,2.48.84-.85,1.62-1.63,2.41-2.34a18.91458,18.91458,0,0,1-5.53-1.72c-4.06-1.91-6.83-4.57-6.19-5.93.65-1.37,4.46-.94,8.52.97,2.94,1.38,5.2,3.15,5.98,4.54a13.76345,13.76345,0,0,1,1.52-.83,19.55743,19.55743,0,0,1-.62-5.3c0-3.79.74-6.86,1.66-6.86.82,0,1.5,2.44,1.64,5.66.59-1.3,1.46-2.11,2.28-1.96,1.17.2,1.8,2.26,1.39,4.59a7.41386,7.41386,0,0,1-.84,2.42c.89-.01,1.9.06,3.4.13a4.11093,4.11093,0,0,1-.34-1.69c0-1.67.9-3.02,2-3.02,1.11005,0,2,1.35,2,3.02a4.11558,4.11558,0,0,1-.37994,1.77c.27.01.55.01.84.01a5.26979,5.26979,0,0,1-.37-1.99c0-1.88.87-3.4,1.96-3.4,1.08,0,1.95,1.51995,1.95,3.4a5.3,5.3,0,0,1-.35,1.95c.82-.02,1.61-.04,2.37-.05a7.38072,7.38072,0,0,1-1.17-4.24c0-2.94,1.32-5.32,2.94-5.32s2.94,2.38,2.94,5.32a7.542,7.542,0,0,1-1.09,4.13c.68-.02,1.34-.04,1.96-.07h.01c.99-.05,1.9-.1,2.76-.17.42-.04.81994-.07,1.22-.11005a3.326,3.326,0,0,1-.44-1.65,2.5802,2.5802,0,1,1,5.11,0,3.78888,3.78888,0,0,1-.1.84c.24-.07.47-.14.7-.21a2.74668,2.74668,0,0,1-.6-1.78c0-1.27.74-2.3,1.66-2.3a1.12868,1.12868,0,0,1,.32.05c-.43-1.44-.16-2.76.67-3.11a1.99,1.99,0,0,1,2.12.85c-1.21-1.64-1.49-3.47-.64-4.1.61-.46,1.62-.19,2.6.57-1.36-1.75-1.74-3.69-.84-4.48005.97-.85,3.06-.05,4.68,1.78a6.76292,6.76292,0,0,1,1.57,2.91c1.3-1.56,2.73-3.33,4.37-5.36,2.53-3.14,4.67-5.98,6.38-8.34Zm-75.16,37.44a2.21,2.21,0,1,1-4.42,0v-7.36005a2.21,2.21,0,0,1,4.42,0Zm19.34-1.3a2.49,2.49,0,0,1-1.8.75h-12.58a2.54784,2.54784,0,0,1-2.55-2.55,2.5607,2.5607,0,0,1,2.55-2.56h12.58a2.55643,2.55643,0,0,1,2.55,2.56A2.49007,2.49007,0,0,1,359.475,171.84636Zm38.66-13.99a1.56049,1.56049,0,1,1-1.56-1.6A1.575,1.575,0,0,1,398.135,157.85637Zm-4.11-12.2a1.60029,1.60029,0,1,1-1.57,1.6A1.58376,1.58376,0,0,1,394.025,145.65636Zm-.16,19.15a1.5652,1.5652,0,1,1-1.57-1.59A1.58565,1.58565,0,0,1,393.865,164.80638Zm-9.86-22.34a1.5952,1.5952,0,1,1-1.57,1.6A1.58373,1.58373,0,0,1,384.005,142.46635Zm1.27,5.24006a7.07505,7.07505,0,1,1-6.48,7.05A6.77817,6.77817,0,0,1,385.275,147.70641Zm-7.21,16.15a1.59539,1.59539,0,1,1-1.56,1.59A1.575,1.575,0,0,1,378.065,163.85637Zm-5.11-16.15a1.59539,1.59539,0,1,1-1.56,1.59A1.577,1.577,0,0,1,372.955,147.70641Zm.26,12.06a1.59539,1.59539,0,1,1,1.56-1.6A1.57936,1.57936,0,0,1,373.215,159.7664Zm35.65,14.23h-34.22v-3.83h34.22Zm9.8-1.39-10.55-15.75,10.89-13.19,8.68,14.13Zm12.58-24.35a2.17,2.17,0,0,1-4.34,0v-8.77a2.1744,2.1744,0,0,1,2.17-2.17,2.18535,2.18535,0,0,1,2.17005,2.17Zm6.12994-.85a1.83,1.83,0,1,1-3.66,0v-5.7a1.83,1.83,0,1,1,3.66,0Zm46.38-1.75h-44.25v-3.83h44.25Z" transform="translate(-8.535 -135.20639)"/><path class="cls-2" d="M517.195,135.70641c-1.87,2.67-4.37,6.11-7.45,9.99-.31.38995-.61005.76-.9,1.13-1.53,1.92-2.87,3.61-4.09,5.08-1.51,1.81-2.82,3.31-4.04,4.53a20.72621,20.72621,0,0,1-4.12,3.37q-.39.225-.78.42a15.9455,15.9455,0,0,1-2.76,1.06,21.67746,21.67746,0,0,1-2.54.56c-.38.07-.77.13-1.18.18-.95.12006-1.96.22-3.07.3-.3.02-.61.04-.92.05-1.43.09-3.02.14-4.78.19-.15,0-.3.01-.46.01-1.07.03-2.21.05-3.42.08-.33.01-.66.01-1,.02-.18,0-.35.01-.52.01h-.01c-2.67.04-4.59-.01-6.05-.06a36.73025,36.73025,0,0,0-4.46-.11,10.43862,10.43862,0,0,0-2.38.51c-.42.13-.82.27-1.21.42005-.16.07-.32.13-.47.2h-.01a15.81765,15.81765,0,0,0-3.53,2.09c-.44.34-.87.69-1.29,1.07-.68.62-1.35,1.29-2.06,2a.03493.03493,0,0,1-.02-.01c-.01.01-.01.02-.01.04-.52.53-1.05,1.09-1.63,1.67-.49.51-1.02,1.04-1.58,1.58-.23.23-.46.46-.71.69-.11005.1-.22.21-.34.32-.19.18-.38.35-.58.53l-.01.01c-.55.5-1.13995,1.02-1.78,1.55-1.07.89-2.33,1.87-3.8,2.9h-6.71c.74-.42,1.44-.84,2.11-1.25.36005-.23.7-.45,1.04-.67.82-.55,1.59-1.08,2.29-1.59.35-.26.69-.51,1.01-.75.49-.38.95-.75,1.38-1.1.18-.15.36-.3.53-.45.14-.11.27-.22.4-.32995.81-.7,1.55-1.37,2.23-2.01.19-.18.37-.36.55-.53.83-.8,1.57-1.56,2.28-2.28.84-.85,1.62-1.63,2.41-2.34a18.37616,18.37616,0,0,1,2.78-2.13995,13.76345,13.76345,0,0,1,1.52-.83,15.88279,15.88279,0,0,1,2.31-.9c.02-.01.03-.01.05-.02.02-.01.05-.01.07-.02a10.0853,10.0853,0,0,1,3.07-.51h.01c.89-.01,1.9.06,3.4.13.89.04,1.96.07,3.28.08.27.01.55.01.84.01q1.17,0,2.61-.03c.2,0,.39-.01.58-.01.82-.02,1.61-.04,2.37-.05,1.29-.03,2.5-.06,3.62-.11.68-.02,1.34-.04,1.96-.07h.01c.99-.05,1.9-.1,2.76-.17.42-.04.81994-.07,1.22-.11005h.01a27.96544,27.96544,0,0,0,4.56-.81c.24-.07.47-.14.7-.21a15.36981,15.36981,0,0,0,2.12-.85c.18-.09.36-.18.53-.28.17-.09.34-.19.51-.29a17.18809,17.18809,0,0,0,2.29-1.69c.42-.35.84-.74,1.28-1.17.56-.53,1.13-1.13,1.75-1.79.36-.4.75-.83,1.14-1.29q.915-1.035,1.92-2.25c1.3-1.56,2.73-3.33,4.37-5.36,2.53-3.14,4.67-5.98,6.38-8.34Z" transform="translate(-8.535 -135.20639)"/><path class="cls-3" d="M536.435,142.06639a4.388,4.388,0,0,1,3.66,1.87v-8.23h-22.9c-1.87,2.67-4.37,6.11-7.45,9.99-.31.38995-.61005.76-.9,1.13a10.88287,10.88287,0,0,1,1.93.17c3.47.6,6,2.71,5.65,4.7-.35,1.99-3.45,3.11-6.92,2.51a8.64092,8.64092,0,0,1-4.75-2.3c-1.51,1.81-2.82,3.31-4.04,4.53a7.8669,7.8669,0,0,1,2.87,3.67c1.22,2.95.8,5.93-.94,6.65-1.73.72-4.13-1.1-5.35-4.05a8.75119,8.75119,0,0,1-.7-2.9q-.39.225-.78.42a15.9455,15.9455,0,0,1-2.76,1.06,4.43469,4.43469,0,0,1,.15,1.18c0,1.48005-.61,2.68006-1.36,2.68006-.76,0-1.37-1.2-1.37-2.68006a4.21711,4.21711,0,0,1,.04-.62c-.38.07-.77.13-1.18.18a3.38561,3.38561,0,0,1,.46,1.76c0,1.51-.85,2.73-1.91,2.73s-1.92-1.22-1.92-2.73a3.5555,3.5555,0,0,1,.3-1.46c-.3.02-.61.04-.92.05a2.99969,2.99969,0,0,1,.03.43,2.84662,2.84662,0,0,1-2.63995,3.02,2.49166,2.49166,0,0,1-1.89-.91,2.40254,2.40254,0,0,1-2.2,1.94,2.13751,2.13751,0,0,1-1.71-.93,5.70266,5.70266,0,0,1,.1,1.1c0,3.05-2.21,5.53-4.94,5.53-2.72,0-4.93-2.48-4.93-5.53a5.76658,5.76658,0,0,1,1.94-4.4,36.73025,36.73025,0,0,0-4.46-.11,3.23183,3.23183,0,0,1,.22,1.19c0,1.41-.86,2.55-1.92,2.55a1.60337,1.60337,0,0,1-1.16-.52,2.31632,2.31632,0,0,1-2.37,2.14,1.54713,1.54713,0,0,1-.22-.01,2.25817,2.25817,0,0,1,.48,1.37,2.769,2.769,0,0,1-2.74,2.54c1.55,1.99,2.12994,3.98,1.29,4.82-1.01,1.01-3.72-.05-6.05-2.38-.21-.21-.42-.43-.61005-.63995a11.71009,11.71009,0,0,1-1.11-1.49c-.23.23-.46.46-.71.69-.11005.1-.22.21-.34.32-.19.18-.38.35-.58.53l-.01.01c-.55.5-1.13995,1.02-1.78,1.55-1.07.89-2.33,1.87-3.8,2.9h96.86v-6.46a4.37924,4.37924,0,0,1-3.88,2.23,4.1964,4.1964,0,0,1-4.35-4.02,3.76767,3.76767,0,0,1,1.13-2.68c-.24-.18-.48-.36-.7-.55a4.19513,4.19513,0,0,1-3.36,1.7,4.45362,4.45362,0,0,1-4.34-4.57,4.70678,4.70678,0,0,1,.42-1.95,4.34814,4.34814,0,0,1,.06-8.57995,3.81346,3.81346,0,0,1-.96-2.52,4.18735,4.18735,0,0,1,4.34-4.02,4.35471,4.35471,0,0,1,4.02,2.5c.21-.17.43-.33.65-.48a3.84614,3.84614,0,0,1-1.03-2.6A4.18737,4.18737,0,0,1,536.435,142.06639Zm-13.36,30.28a2.168,2.168,0,0,1-2.17,2.17h-25.7a2.17792,2.17792,0,0,1-1.54-3.71,2.20328,2.20328,0,0,1,1.54-.64h25.7A2.17658,2.17658,0,0,1,523.075,172.34636Z" transform="translate(-8.535 -135.20639)"/><path class="cls-4" d="M572.865,144.22636a4.40343,4.40343,0,0,1-3.46,1.61,4.18888,4.18888,0,0,1-4.34-4.03,3.80347,3.80347,0,0,1,.89-2.43,4.17611,4.17611,0,0,1-4.06-3.67h6.79A11.26688,11.26688,0,0,0,572.865,144.22636Z" transform="translate(-8.535 -135.20639)"/><line class="cls-5" x1="567.13" y1="0.5" x2="562.52" y2="0.5"/><path class="cls-6" d="M297.875,135.70641l-7.36,28.75a46.00627,46.00627,0,0,1,5.33-2.37006c1.14-.42,2.26-.79,3.36-1.1v-17.43a3.38437,3.38437,0,0,1,3.38-3.39.56973.56973,0,0,1,.13.01,3.338,3.338,0,0,1,2.26.98,3.4031,3.4031,0,0,1,.99,2.4v16.09a46.79365,46.79365,0,0,1,6.85-.25l10.43006-12.63,8.68,14.13-.55.9a47.13547,47.13547,0,0,0,14.85-.05,40.73709,40.73709,0,0,0,16.94-7.53.6052.6052,0,0,0,.1-.06994c5.47-4.01,11.25-9.89,17.12-18.44Zm15.37006,18.06a1.85,1.85,0,0,1-3.7,0v-11.62a1.85,1.85,0,1,1,3.7,0Zm9.4-9.81v-5.61005h21.96v5.61005Zm15.7,12.9,10.68-12.93,1.77,2.88,4.56,7.41,1.63,2.64Z" transform="translate(-8.535 -135.20639)"/><polygon class="cls-7" points="346.82 19.01 336.14 19.01 342.26 11.6 346.82 19.01"/><polygon class="cls-8" points="348.45 21.65 329.81 21.65 340.49 8.72 342.26 11.6 336.14 19.01 346.82 19.01 348.45 21.65"/><path class="cls-6" d="M278.525,173.1364v-32.2h-4.85v33.45h3.58c-.42.42-.82.84-1.22,1.27-.75.8-1.47,1.62-2.16,2.43h-4.6c-.19-7.96-6.97-15.04-17.43-19.57v-13.89a2.65606,2.65606,0,0,0,0-3.72v-5.2h6.53l7.57,18.54.28.69,7.36-19.23h8.87l5.72,30.05A53.07873,53.07873,0,0,0,278.525,173.1364Z" transform="translate(-8.535 -135.20639)"/><polygon class="cls-8" points="289.34 0.5 281.98 29.25 280.58 34.74 280.58 0.5 289.34 0.5"/><polygon class="cls-7" points="280.58 0.5 280.58 34.74 280.5 35.05 279.64 30.55 273.92 0.5 280.58 0.5"/><polygon class="cls-8" points="265.05 0.5 257.69 19.73 257.41 19.04 257.41 0.5 265.05 0.5"/><polygon class="cls-7" points="257.41 0.5 257.41 19.04 249.84 0.5 257.41 0.5"/><path class="cls-9" d="M201.285,140.12639h48.68a2.66171,2.66171,0,0,1,1.88.78v-3.16h-60.35l-3.25,12.7-2.42005-12.7h-42.76l-10.99,7.8a1.7036,1.7036,0,1,1-1.97-2.78l7.07-5.02h-23.41a18.61231,18.61231,0,0,1,.12,2.13c0,6.09-3.03,11.15-7.01,12.16,6.14,3.26,13.2,9.01,21.24,18.44a6.77936,6.77936,0,0,1-.1-1.2,6.02472,6.02472,0,1,1,12,0c0,3.63-2.69,6.58-6,6.58a5.54837,5.54837,0,0,1-1.73-.28c.64.81,1.28,1.65,1.93,2.51h5.1l14.23-19.4,9.82,19.4h16.06c.32-13.75,20.31-24.85,44.93-24.85a69.75536,69.75536,0,0,1,27.49,5.28v-13.89l-.01.01a2.62944,2.62944,0,0,1-1.87.77h-48.68a2.64,2.64,0,0,1,0-5.28Zm-76.75-1.3a2.14334,2.14334,0,1,1-2.52,2.11A2.34725,2.34725,0,0,1,124.535,138.8264Zm-6.61.52a2.55074,2.55074,0,1,1-2.49,2.55A2.51639,2.51639,0,0,1,117.925,139.34636Zm4.79,20.23a6.67008,6.67008,0,1,1,6.7-6.67A6.68769,6.68769,0,0,1,122.715,159.5764Zm11.37-6.83a1.70678,1.70678,0,0,1-2.69-1.38,1.74408,1.74408,0,0,1,.72-1.4l14.65-10.38a1.68838,1.68838,0,0,1,2.37.4,1.68592,1.68592,0,0,1-.4,2.37Zm12.9-1.27a1.70361,1.70361,0,1,1-1.97-2.78l14.64-10.38a1.69953,1.69953,0,1,1,1.97,2.77Zm25.07,17.76a10.81729,10.81729,0,1,1,10.42-10.81A10.62545,10.62545,0,0,1,172.055,169.23637Zm38.28-21.93a1.91192,1.91192,0,0,1,1.36-.56h28.66a1.91624,1.91624,0,0,1,1.91,1.91,1.95423,1.95423,0,0,1-.56,1.36,1.93032,1.93032,0,0,1-1.35.56h-28.66a1.91628,1.91628,0,0,1-1.36-3.27Z" transform="translate(-8.535 -135.20639)"/><path class="cls-10" d="M140.055,135.70641l-2.88,2.04h-23.41a18.41177,18.41177,0,0,0-.37-2.04Z" transform="translate(-8.535 -135.20639)"/><polygon class="cls-10" points="177.29 2.54 134.53 2.54 137.41 0.5 176.9 0.5 177.29 2.54"/><polygon class="cls-10" points="243.31 0.5 243.31 2.54 182.96 2.54 183.48 0.5 243.31 0.5"/><path class="cls-11" d="M96.945,139.87639a17.5178,17.5178,0,0,1,.49-4.17H86.875a7.23559,7.23559,0,0,1,.29,2.04,7.62112,7.62112,0,0,1-15.24,0,7.23557,7.23557,0,0,1,.29-2.04H31.085a3.30948,3.30948,0,0,1,.04.55,4.15,4.15,0,0,1-3.98,4,8.03491,8.03491,0,0,1,.1,1.11,4.10448,4.10448,0,0,1,3.56,3.95,4.18736,4.18736,0,0,1-4.34,4.02,4.54477,4.54477,0,0,1-1.77-.35c-.2.25-.42.49-.64.72a3.85352,3.85352,0,0,1,1.33,2.88995,4.18736,4.18736,0,0,1-4.34,4.02,4.23841,4.23841,0,0,1-4.28-3.39c-.26.03-.53.05-.79.06a3.43734,3.43734,0,0,1,.03.46,4.19372,4.19372,0,0,1-4.34,4.02,4.52071,4.52071,0,0,1-2.63-.83v2.97a99.26028,99.26028,0,0,0,14.75,5.44l12.31-24.03,1.79,4.76,1.05,2.79,2.16,5.75.93,2.48,4.04,10.74a51.93406,51.93406,0,0,0,12.16-2.35,45.95241,45.95241,0,0,0,5.79-2.3,1.57922,1.57922,0,1,1,2.53-1.28c9.76-5.35,14.47-12.23,24.02-13.44a23.65824,23.65824,0,0,1,9.3.73005A15.167,15.167,0,0,1,96.945,139.87639Zm-40.26-.28a1.5952,1.5952,0,1,1-1.57,1.6A1.57739,1.57739,0,0,1,56.685,139.59636Zm-11.05,5.23a1.60049,1.60049,0,1,1-1.56,1.6A1.58565,1.58565,0,0,1,45.635,144.8264Zm.26,12.07a1.59539,1.59539,0,1,1,1.56-1.6A1.58376,1.58376,0,0,1,45.895,156.89641Zm4.85,7.27a1.5954,1.5954,0,1,1,1.56-1.59A1.575,1.575,0,0,1,50.745,164.16637Zm7.21-5.23a6.79113,6.79113,0,0,1-6.48-7.05c0-3.9,2.91-7.06,6.48-7.06,3.58,0,6.48,3.16,6.48,7.06A6.7846,6.7846,0,0,1,57.955,158.93639Zm7.18-14.55a1.5652,1.5652,0,1,1,1.57,1.59A1.58571,1.58571,0,0,1,65.135,144.3864Zm4.12,12.19a1.59539,1.59539,0,1,1,1.56-1.6A1.58376,1.58376,0,0,1,69.255,156.5764Z" transform="translate(-8.535 -135.20639)"/><path class="cls-12" d="M31.125,136.25639a4.15,4.15,0,0,1-3.98,4,11.02687,11.02687,0,0,0-1.75-4.55h5.69A3.30948,3.30948,0,0,1,31.125,136.25639Z" transform="translate(-8.535 -135.20639)"/><line class="cls-5" x1="16.86" y1="0.5" x2="13.67" y2="0.5"/><path class="cls-10" d="M145.945,135.70641l-2.88,2.04-10.99,7.8a1.7036,1.7036,0,1,1-1.97-2.78l7.07-5.02,2.88-2.04Z" transform="translate(-8.535 -135.20639)"/><polygon class="cls-13" points="183.48 0.5 182.96 2.54 179.71 15.24 177.29 2.54 176.9 0.5 183.48 0.5"/><polygon class="cls-14" points="359.41 42.88 353.55 42.88 356.91 29.75 359.41 42.88"/><polygon class="cls-15" points="120.97 42.88 106.21 42.88 113.01 33.69 120.97 42.88"/><polygon class="cls-8" points="97.6 42.88 80.2 42.88 89.18 19.39 97.6 42.88"/><path class="cls-13" d="M163.365,178.08635h-4.04c-1.34-3.71-4.11-6.26-7.31-6.26-3.21,0-5.98,2.55-7.32,6.26h-5.38l14.23-19.4Z" transform="translate(-8.535 -135.20639)"/><line class="cls-5" x1="140.03" y1="42.88" x2="136.16" y2="42.88"/><path class="cls-16" d="M132.285,175.5764a6.41233,6.41233,0,0,1-4.17-5.1c-8.04-9.43-15.1-15.18-21.24-18.44h-.01a5.87773,5.87773,0,0,1-1.45.18,7.17151,7.17151,0,0,1-5.55-3.01995,23.65824,23.65824,0,0,0-9.3-.73005c-9.55,1.21-14.26,8.09-24.02,13.44v.03a1.58565,1.58565,0,0,1-1.57,1.6,1.48961,1.48961,0,0,1-.96-.35,45.95241,45.95241,0,0,1-5.79,2.3,51.93406,51.93406,0,0,1-12.16,2.35l.82,2.19,1.06,2.82,1.97,5.24h7.25l14-16,10.5,16h7.07l8.98-23.49,8.42,23.49H114.745l6.8-9.18994,7.96,9.18994h4.71C133.565,177.22636,132.925,176.3864,132.285,175.5764Zm-48.39-2.97-9.75-11.93,10.21-9.88,8.01,10.7Zm27.3,2.93c-2.88,0-5.2-2.92-5.2-6.51,0-3.6,2.31994-6.51,5.2-6.51,2.87,0,5.2,2.91,5.2,6.51C116.395,172.61638,114.065,175.53636,111.195,175.53636Z" transform="translate(-8.535 -135.20639)"/><path class="cls-15" d="M46.885,170.02635l-.82-2.19-4.04-10.74a4.79658,4.79658,0,0,1-3.22,1.27c-2.94,0-5.33-2.78-5.33-6.2,0-3.04,1.9-5.59,4.41-6.09l-1.79-4.76-12.31,24.03-3.13,6.1a7.17586,7.17586,0,0,1,6.36,6.63995h15.25a6.56557,6.56557,0,0,1,4.62-8.06Zm-12.45,5.17005a7.74513,7.74513,0,1,1,7.7-7.75A7.727,7.727,0,0,1,34.435,175.1964Z" transform="translate(-8.535 -135.20639)"/><line class="cls-5" x1="18.48" y1="42.88" x2="15.7" y2="42.88"/><line class="cls-5" x1="36.62" y1="42.88" x2="33.73" y2="42.88"/><line class="cls-5" x1="6.93" y1="42.88" x2="3.96" y2="42.88"/><line class="cls-5" x1="230.35" y1="42.88" x2="227.94" y2="42.88"/><line class="cls-5" x1="150.79" y1="42.88" x2="146.47" y2="42.88"/><path class="cls-16" d="M23.785,165.34636l-3.13,6.1a6.57607,6.57607,0,0,0-.9-.06,7.21337,7.21337,0,0,0-7.25995,6.7H9.035v-18.18A99.26028,99.26028,0,0,0,23.785,165.34636Z" transform="translate(-8.535 -135.20639)"/><path class="cls-12" d="M16.005,153.74638a4.19372,4.19372,0,0,1-4.34,4.02,4.52071,4.52071,0,0,1-2.63-.83v-5.48a12.04618,12.04618,0,0,0,6.42,1.84c.17,0,.35,0,.52-.01A3.43734,3.43734,0,0,1,16.005,153.74638Z" transform="translate(-8.535 -135.20639)"/><line class="cls-5" x1="0.5" y1="16.25" x2="0.5" y2="13.27"/><path class="cls-17" d="M581.785,146.84636c-.26.03-.52.05-.79.06a3.44787,3.44787,0,0,1,.03.46,4.35814,4.35814,0,0,1-8.69,0,3.76761,3.76761,0,0,1,1.13-2.68c-.21-.15-.41-.31-.6-.46a4.40343,4.40343,0,0,1-3.46,1.61,4.18888,4.18888,0,0,1-4.34-4.03,3.80347,3.80347,0,0,1,.89-2.43,4.17611,4.17611,0,0,1-4.06-3.67h-21.8v8.23a3.76072,3.76072,0,0,1,.68,2.15,3.60018,3.60018,0,0,1-.03.47q.33.015.66.06c-.01-.11-.02-.22-.02-.34a4.35273,4.35273,0,0,1,8.68,0,3.89676,3.89676,0,0,1-1.19,2.77,4.46784,4.46784,0,0,1,2.46-.72,4.01659,4.01659,0,1,1,.36,8.02,8.03663,8.03663,0,0,1,.1,1.11005,4.10442,4.10442,0,0,1,3.56,3.95,4.18737,4.18737,0,0,1-4.34,4.02,4.54421,4.54421,0,0,1-1.77-.35c-.2.25-.42005.49-.64.72a3.85341,3.85341,0,0,1,1.33,2.89,4.18742,4.18742,0,0,1-4.34,4.02,4.23854,4.23854,0,0,1-4.28-3.39c-.26.03-.53.05-.79.06a3.43787,3.43787,0,0,1,.03.46,3.66858,3.66858,0,0,1-.46,1.79v6.46h41.87v-30.57A3.896,3.896,0,0,1,581.785,146.84636Zm-12.5,25.71a2.295,2.295,0,1,1-4.59,0v-18.72a2.29557,2.29557,0,0,1,4.59.08Zm5.88-2.21a1.79,1.79,0,0,1-3.58,0v-13.28a1.79,1.79,0,1,1,3.58,0Z" transform="translate(-8.535 -135.20639)"/><line class="cls-5" x1="573.43" y1="9.16" x2="573.43" y2="4.79"/><line class="cls-5" x1="573.43" y1="12.31" x2="573.43" y2="11.62"/><path class="cls-5" d="M551.815,157.95641a11.12624,11.12624,0,0,1-2.56994,7.12c-.2.25-.42005.49-.64.72a11.88621,11.88621,0,0,1-7.29,3.52c-.26.03-.53.05-.79.06-.17.01-.34.01-.51.01a12.04748,12.04748,0,0,1-7.02-2.23c-.24-.18-.48-.36-.7-.55a11.354,11.354,0,0,1-3.72-5.81,11.15053,11.15053,0,0,1,.07-5.95,11.41006,11.41006,0,0,1,3.83-5.68c.21-.17.43-.33.65-.48a11.9141,11.9141,0,0,1,6.89-2.15c.24,0,.49.01.73.02q.33.015.66.06a11.99,11.99,0,0,1,6.71,3.02l.01.01a11.32723,11.32723,0,0,1,3.57,6.7,8.03663,8.03663,0,0,1,.1,1.11005A4.18815,4.18815,0,0,1,551.815,157.95641Z" transform="translate(-8.535 -135.20639)"/><path class="cls-5" d="M528.685,154.69639a1.5483,1.5483,0,0,1-.22.01h-.01a4.47036,4.47036,0,0,1-2.71-.89h-.01a4.26407,4.26407,0,0,1-.66-.61" transform="translate(-8.535 -135.20639)"/><path class="cls-5" d="M548.875,149.04639a.00979.00979,0,0,0-.01.01,4.72335,4.72335,0,0,1-.71.56.07581.07581,0,0,1-.04.02c-.01.01-.01.01-.02.01" transform="translate(-8.535 -135.20639)"/><path class="cls-5" d="M548.115,149.65639l.01-.01.03-.03a3.80529,3.80529,0,0,1,.71-.56.00979.00979,0,0,1,.01-.01" transform="translate(-8.535 -135.20639)"/><path class="cls-5" d="M532.395,166.47639a.642.642,0,0,1-.1.13" transform="translate(-8.535 -135.20639)"/><path class="cls-5" d="M525.015,161.78639a3.54918,3.54918,0,0,0,.47.06,2.175,2.175,0,0,0,.26.01,4.30413,4.30413,0,0,0,2.83-1.06" transform="translate(-8.535 -135.20639)"/><path class="cls-5" d="M528.45841,154.7032h.01c.06.05.12.09.18.14" transform="translate(-8.535 -135.20639)"/><ellipse class="cls-5" cx="531.41256" cy="22.75213" rx="9.3617" ry="9"/><ellipse class="cls-5" cx="531.56149" cy="22.70957" rx="4.91492" ry="4.74469"/><path class="cls-10" d="M448.065,169.40636c-.18.17-.36.35-.55.53-.68.64-1.42,1.31-2.23,2.01a12.28059,12.28059,0,0,1-.89-.88.0098.0098,0,0,1-.01-.01.60243.60243,0,0,1-.08-.08,11.81783,11.81783,0,0,1-1.63-2.26995c0-.01,0-.01-.01-.01-.67-1.28-.84-2.36005-.33-2.82.7-.64,2.47.14,4.17,1.76l.01.01c.24.22.46.45.69.7A13.32949,13.32949,0,0,1,448.065,169.40636Z" transform="translate(-8.535 -135.20639)"/><path class="cls-14" d="M450.345,167.12639c-.71.72-1.45,1.48-2.28,2.28a13.32949,13.32949,0,0,0-.86-1.06c-.23-.25-.45-.48-.69-.7l-.01-.01c-.45-1.46-.41-2.63.21-2.99C447.515,164.18639,449.045,165.25639,450.345,167.12639Z" transform="translate(-8.535 -135.20639)"/><path class="cls-10" d="M439.675,176.16637c-.34.22-.68.44-1.04.67-.67.41-1.37.83-2.11,1.25h-.78a9.76168,9.76168,0,0,1-2.19-3.04c-1.34-2.85-1.27-5.7.15-6.37,1.39-.66,3.54.99,4.89,3.7v.01c.04.07995.08.15.12.23A9.60543,9.60543,0,0,1,439.675,176.16637Z" transform="translate(-8.535 -135.20639)"/><path class="cls-5" d="M436.525,178.08639c-.15.09-.31.18-.47.26" transform="translate(-8.535 -135.20639)"/><path class="cls-14" d="M444.885,172.27635c-.17.15-.35.3-.53.45-.43.35-.89.72-1.38,1.1a7.61243,7.61243,0,0,1-1.71-1.07,2.11645,2.11645,0,0,0-.39-.34.03493.03493,0,0,1-.02-.01,10.76988,10.76988,0,0,1-1.02-1.01c-1.89-2.09-2.77-4.37006-1.97-5.1.79-.71,2.92.36,4.8,2.4.01,0,.01,0,.01.01a11.81783,11.81783,0,0,0,1.63,2.26995.60243.60243,0,0,0,.08.08.0098.0098,0,0,0,.01.01A6.39562,6.39562,0,0,1,444.885,172.27635Z" transform="translate(-8.535 -135.20639)"/><path class="cls-18" d="M441.965,174.5764c-.7.51-1.47,1.04-2.29,1.59a9.60543,9.60543,0,0,0-.96-3.55c-.04-.08-.08-.15-.12-.23v-.01a2.07,2.07,0,0,1,1.12-.33,1.97948,1.97948,0,0,1,1.14.36.03493.03493,0,0,0,.02.01c.13.12.26.24.39.34A2.68045,2.68045,0,0,1,441.965,174.5764Z" transform="translate(-8.535 -135.20639)"/><path class="cls-10" d="M455.535,162.64641a18.37616,18.37616,0,0,0-2.78,2.13995,18.91458,18.91458,0,0,1-5.53-1.72c-4.06-1.91-6.83-4.57-6.19-5.93.65-1.37,4.46-.94,8.52.97C452.495,159.48637,454.755,161.25639,455.535,162.64641Z" transform="translate(-8.535 -135.20639)"/><path class="cls-10" d="M463.405,157.9464a7.41386,7.41386,0,0,1-.84,2.42h-.01a10.0853,10.0853,0,0,0-3.07.51.88574.88574,0,0,1-.08-.17,23.11579,23.11579,0,0,0,.35-4.19c0-.41-.01-.8-.02-1.19v-.01c.59-1.3,1.46-2.11,2.28-1.96C463.185,153.55638,463.815,155.61638,463.405,157.9464Z" transform="translate(-8.535 -135.20639)"/><path class="cls-14" d="M459.755,156.5164a23.11579,23.11579,0,0,1-.35,4.19c-.01.06994-.03.13995-.04.21a15.88279,15.88279,0,0,0-2.31.9,19.55743,19.55743,0,0,1-.62-5.3c0-3.79.74-6.86,1.66-6.86.82,0,1.5,2.44,1.64,5.66v.01C459.745,155.71635,459.755,156.10637,459.755,156.5164Z" transform="translate(-8.535 -135.20639)"/><path class="cls-14" d="M469.625,158.80638a4.11558,4.11558,0,0,1-.37994,1.77c-1.32-.01-2.39-.04-3.28-.08a4.11093,4.11093,0,0,1-.34-1.69c0-1.67.9-3.02,2-3.02C468.735,155.78636,469.625,157.1364,469.625,158.80638Z" transform="translate(-8.535 -135.20639)"/><path class="cls-10" d="M473.625,158.59636a5.3,5.3,0,0,1-.35,1.95c-.19,0-.38.01-.58.01q-1.43994.03-2.61.03a5.26979,5.26979,0,0,1-.37-1.99c0-1.88.87-3.4,1.96-3.4C472.755,155.1964,473.625,156.71635,473.625,158.59636Z" transform="translate(-8.535 -135.20639)"/><path class="cls-14" d="M480.355,156.25639a7.542,7.542,0,0,1-1.09,4.13c-1.12.05-2.33.07995-3.62.11a7.38072,7.38072,0,0,1-1.17-4.24c0-2.94,1.32-5.32,2.94-5.32S480.355,153.31639,480.355,156.25639Z" transform="translate(-8.535 -135.20639)"/><path class="cls-10" d="M489.885,158.3864a3.78888,3.78888,0,0,1-.1.84,27.96544,27.96544,0,0,1-4.56.81h-.01a3.326,3.326,0,0,1-.44-1.65,2.5802,2.5802,0,1,1,5.11,0Z" transform="translate(-8.535 -135.20639)"/><path class="cls-10" d="M495.935,155.90636a17.18809,17.18809,0,0,1-2.29,1.69,3.25888,3.25888,0,0,1-.44-.34,4.9578,4.9578,0,0,1-1.13-1.67,3.5741,3.5741,0,0,1-.21-.6c-.43-1.44-.16-2.76.67-3.11a1.99,1.99,0,0,1,2.12.85c.02.02.03.05.05.07a4.025,4.025,0,0,0,.26.32.17549.17549,0,0,0,.04.05,5.49034,5.49034,0,0,1,.52.96A5.077,5.077,0,0,1,495.935,155.90636Z" transform="translate(-8.535 -135.20639)"/><path class="cls-10" d="M502.025,149.40636q-1.005,1.215-1.92,2.25a5.0692,5.0692,0,0,1-2.22-1.14,8.285,8.285,0,0,1-.95-.93c-.11005-.12-.21-.25-.31006-.37994l-.01-.01c-1.36-1.75-1.74-3.69-.84-4.48005.97-.85,3.06-.05,4.68,1.78A6.76292,6.76292,0,0,1,502.025,149.40636Z" transform="translate(-8.535 -135.20639)"/><path class="cls-14" d="M498.965,152.9464c-.62.66-1.19,1.26-1.75,1.79a4.76981,4.76981,0,0,1-2.21-1.57.17549.17549,0,0,1-.04-.05,4.025,4.025,0,0,1-.26-.32c-.02-.02-.03-.05-.05-.07-1.21-1.64-1.49-3.47-.64-4.1.61-.46,1.62-.19,2.6.57l.01.01c.1.12994.2.25994.31006.37994a8.285,8.285,0,0,0,.95.93A5.72055,5.72055,0,0,1,498.965,152.9464Z" transform="translate(-8.535 -135.20639)"/><path class="cls-14" d="M493.205,157.25639a3.19585,3.19585,0,0,1-.07.63c-.17.1-.35.19-.53.28a15.36981,15.36981,0,0,1-2.12.85,2.74668,2.74668,0,0,1-.6-1.78c0-1.27.74-2.3,1.66-2.3a1.12868,1.12868,0,0,1,.32.05,3.5741,3.5741,0,0,0,.21.6A4.9578,4.9578,0,0,0,493.205,157.25639Z" transform="translate(-8.535 -135.20639)"/><path class="cls-1" d="M502.645,166.75639c-1.73.72-4.13-1.1-5.35-4.05a8.75119,8.75119,0,0,1-.7-2.9,20.72621,20.72621,0,0,0,4.12-3.37,7.8669,7.8669,0,0,1,2.87,3.67C504.805,163.05638,504.385,166.03636,502.645,166.75639Z" transform="translate(-8.535 -135.20639)"/><path class="cls-9" d="M516.425,151.6964c-.35,1.99-3.45,3.11-6.92,2.51a8.64092,8.64092,0,0,1-4.75-2.3c1.22-1.47,2.56-3.16,4.09-5.08a10.88287,10.88287,0,0,1,1.93.17C514.245,147.59636,516.775,149.70641,516.425,151.6964Z" transform="translate(-8.535 -135.20639)"/><path class="cls-9" d="M477.035,167.02635c0,3.05-2.21,5.53-4.94,5.53-2.72,0-4.93-2.48-4.93-5.53a5.76658,5.76658,0,0,1,1.94-4.4c1.46.05,3.38.1,6.05.06h.01a5.201,5.201,0,0,1,1.2,1.54.01386.01386,0,0,0,0,.02,3.072,3.072,0,0,0,.57,1.68A5.70266,5.70266,0,0,1,477.035,167.02635Z" transform="translate(-8.535 -135.20639)"/><path class="cls-5" d="M436.055,178.34639c-.1-.08-.2-.16-.31-.26" transform="translate(-8.535 -135.20639)"/><path class="cls-9" d="M458.225,176.59636c-1.01,1.01-3.72-.05-6.05-2.38-.21-.21-.42-.43-.61005-.63995a11.71009,11.71009,0,0,1-1.11-1.49c.56-.54,1.09-1.07,1.58-1.58.58-.58,1.11-1.14,1.63-1.67l.03-.03a12.727,12.727,0,0,1,2.15,1.74,13.54966,13.54966,0,0,1,1.09,1.23C458.485,173.7664,459.065,175.75639,458.225,176.59636Z" transform="translate(-8.535 -135.20639)"/><path class="cls-1" d="M459.675,169.23637a2.769,2.769,0,0,1-2.74,2.54,13.54966,13.54966,0,0,0-1.09-1.23,12.727,12.727,0,0,0-2.15-1.74c.71-.71,1.38-1.38,2.06-2a3.24185,3.24185,0,0,1,.89-.12,3.4703,3.4703,0,0,1,.73.08,2.3612,2.3612,0,0,0,1.82,1.1A2.25817,2.25817,0,0,1,459.675,169.23637Z" transform="translate(-8.535 -135.20639)"/><path class="cls-9" d="M461.785,165.73637a2.31632,2.31632,0,0,1-2.37,2.14,1.54713,1.54713,0,0,1-.22-.01,2.3612,2.3612,0,0,1-1.82-1.1,1.96612,1.96612,0,0,1-.33-1.03,15.81765,15.81765,0,0,1,3.53-2.09h.01a2.68453,2.68453,0,0,1,.47.34A2.80675,2.80675,0,0,0,461.785,165.73637Z" transform="translate(-8.535 -135.20639)"/><path class="cls-1" d="M464.865,163.70641c0,1.41-.86,2.55-1.92,2.55a1.60337,1.60337,0,0,1-1.16-.52,2.80675,2.80675,0,0,1-.73-1.75,1.27283,1.27283,0,0,1-.02-.28,1.09651,1.09651,0,0,1,.02-.26c.39-.15.79-.29,1.21-.42005a10.43862,10.43862,0,0,1,2.38-.51A3.23183,3.23183,0,0,1,464.865,163.70641Z" transform="translate(-8.535 -135.20639)"/><path class="cls-1" d="M480.945,164.08635a3.699,3.699,0,0,1-.1.83,2.40254,2.40254,0,0,1-2.2,1.94,2.13751,2.13751,0,0,1-1.71-.93,3.072,3.072,0,0,1-.57-1.68.01386.01386,0,0,1,0-.02.6141.6141,0,0,1-.01-.14,3.13931,3.13931,0,0,1,.33-1.43c1.21-.03,2.35-.05,3.42-.08.16,0,.31-.01.46-.01A3.14089,3.14089,0,0,1,480.945,164.08635Z" transform="translate(-8.535 -135.20639)"/><path class="cls-9" d="M485.375,162.80638a2.84662,2.84662,0,0,1-2.63995,3.02,2.49166,2.49166,0,0,1-1.89-.91,3.699,3.699,0,0,0,.1-.83,3.14089,3.14089,0,0,0-.38-1.52c1.76-.05,3.35-.1,4.78-.19A2.99969,2.99969,0,0,1,485.375,162.80638Z" transform="translate(-8.535 -135.20639)"/><path class="cls-1" d="M489.795,163.78636c0,1.51-.85,2.73-1.91,2.73s-1.92-1.22-1.92-2.73a3.5555,3.5555,0,0,1,.3-1.46c1.11-.08,2.12-.18,3.07-.3A3.38561,3.38561,0,0,1,489.795,163.78636Z" transform="translate(-8.535 -135.20639)"/><path class="cls-9" d="M493.205,162.46635c0,1.48005-.61,2.68006-1.36,2.68006-.76,0-1.37-1.2-1.37-2.68006a4.21711,4.21711,0,0,1,.04-.62,21.67746,21.67746,0,0,0,2.54-.56A4.43469,4.43469,0,0,1,493.205,162.46635Z" transform="translate(-8.535 -135.20639)"/><path class="cls-18" d="M385.275,147.70641a7.07505,7.07505,0,1,0,6.48,7.05A6.77817,6.77817,0,0,0,385.275,147.70641Zm.1,10.85a3.66342,3.66342,0,1,1,3.25-3.64A3.46622,3.46622,0,0,1,385.375,158.55638Z" transform="translate(-8.535 -135.20639)"/><path class="cls-14" d="M388.625,154.91637a3.27534,3.27534,0,1,1-3.25-3.64A3.45843,3.45843,0,0,1,388.625,154.91637Z" transform="translate(-8.535 -135.20639)"/><path class="cls-14" d="M385.565,144.06639a1.56535,1.56535,0,1,1-1.56-1.6A1.575,1.575,0,0,1,385.565,144.06639Z" transform="translate(-8.535 -135.20639)"/><path class="cls-14" d="M374.525,149.29637a1.5652,1.5652,0,1,1-1.57-1.59A1.58571,1.58571,0,0,1,374.525,149.29637Z" transform="translate(-8.535 -135.20639)"/><path class="cls-14" d="M374.775,158.16637a1.5652,1.5652,0,1,1-1.56-1.59A1.57738,1.57738,0,0,1,374.775,158.16637Z" transform="translate(-8.535 -135.20639)"/><path class="cls-14" d="M379.625,165.4464a1.56028,1.56028,0,1,1-1.56-1.59A1.58367,1.58367,0,0,1,379.625,165.4464Z" transform="translate(-8.535 -135.20639)"/><path class="cls-14" d="M395.585,147.25639a1.56538,1.56538,0,1,1-1.56-1.6A1.58371,1.58371,0,0,1,395.585,147.25639Z" transform="translate(-8.535 -135.20639)"/><path class="cls-14" d="M398.135,157.85637a1.56049,1.56049,0,1,1-1.56-1.6A1.575,1.575,0,0,1,398.135,157.85637Z" transform="translate(-8.535 -135.20639)"/><path class="cls-14" d="M393.865,164.80638a1.5652,1.5652,0,1,1-1.57-1.59A1.58565,1.58565,0,0,1,393.865,164.80638Z" transform="translate(-8.535 -135.20639)"/><path class="cls-8" d="M323.245,146.7664l-10.43006,12.63-.46.56,10.55,15.75,8.47-13.91.55-.9Zm-.47,24.6-7.13-11.02,7.36-9.24,5.86,9.89Z" transform="translate(-8.535 -135.20639)"/><path class="cls-13" d="M149.455,140.97636a1.681,1.681,0,0,1-.72,1.38l-14.65,10.39a1.70678,1.70678,0,0,1-2.69-1.38,1.74408,1.74408,0,0,1,.72-1.4l14.65-10.38a1.68838,1.68838,0,0,1,2.37.4A1.66872,1.66872,0,0,1,149.455,140.97636Z" transform="translate(-8.535 -135.20639)"/><path class="cls-10" d="M162.345,139.6964a1.68533,1.68533,0,0,1-.72,1.38995l-14.63995,10.39a1.70361,1.70361,0,1,1-1.97-2.78l14.64-10.38a1.698,1.698,0,0,1,2.69,1.38Z" transform="translate(-8.535 -135.20639)"/><ellipse class="cls-5" cx="114.18" cy="17.69998" rx="6.70001" ry="6.67003"/><path class="cls-10" d="M120.415,141.89641a2.4907,2.4907,0,1,1-2.49-2.55A2.51639,2.51639,0,0,1,120.415,141.89641Z" transform="translate(-8.535 -135.20639)"/><ellipse class="cls-5" cx="116" cy="5.72999" rx="2.52002" ry="2.10999"/><path class="cls-5" d="M236.475,178.08635q.03-.36.03-.72a4.35758,4.35758,0,0,0-.02-.51,4.33647,4.33647,0,0,1,2.4,1.23Z" transform="translate(-8.535 -135.20639)"/><path class="cls-5" d="M232.835,169.0164a.07771.07771,0,0,0-.04.04c0-.01,0-.01-.01-.01C232.805,169.03636,232.815,169.02635,232.835,169.0164Z" transform="translate(-8.535 -135.20639)"/><path class="cls-13" d="M269.275,178.08635h-4.15c-2.13995-5.62-6.86-10.57-13.28-14.23-7.25-4.13-16.66-6.62-26.94-6.62-19.38,0-35.67,8.86-40.22,20.85h-5.26c.32-13.75,20.31-24.85,44.93-24.85a69.75536,69.75536,0,0,1,27.49,5.28C262.305,163.04637,269.085,170.12639,269.275,178.08635Z" transform="translate(-8.535 -135.20639)"/><polygon class="cls-1" points="73.13 42.88 48.63 42.88 62.63 26.88 73.13 42.88"/><path class="cls-15" d="M57.955,144.8264c-3.57,0-6.48,3.16-6.48,7.06a6.79113,6.79113,0,0,0,6.48,7.05,6.7846,6.7846,0,0,0,6.48-7.05C64.435,147.98637,61.535,144.8264,57.955,144.8264Zm.1,10.86a3.66342,3.66342,0,1,1,3.25-3.64A3.46625,3.46625,0,0,1,58.055,155.68639Z" transform="translate(-8.535 -135.20639)"/><path class="cls-12" d="M61.305,152.04637a3.27537,3.27537,0,1,1-3.25-3.64A3.45848,3.45848,0,0,1,61.305,152.04637Z" transform="translate(-8.535 -135.20639)"/><path class="cls-12" d="M58.245,141.1964a1.56539,1.56539,0,1,1-1.56-1.6A1.575,1.575,0,0,1,58.245,141.1964Z" transform="translate(-8.535 -135.20639)"/><path class="cls-12" d="M47.205,146.42638a1.56539,1.56539,0,1,1-1.57-1.6A1.58565,1.58565,0,0,1,47.205,146.42638Z" transform="translate(-8.535 -135.20639)"/><path class="cls-12" d="M47.455,155.29637a1.56028,1.56028,0,1,1-1.56-1.59A1.58376,1.58376,0,0,1,47.455,155.29637Z" transform="translate(-8.535 -135.20639)"/><path class="cls-12" d="M52.305,162.5764a1.5605,1.5605,0,1,1-1.56-1.6A1.575,1.575,0,0,1,52.305,162.5764Z" transform="translate(-8.535 -135.20639)"/><path class="cls-12" d="M68.265,144.3864a1.56539,1.56539,0,1,1-1.56-1.6A1.575,1.575,0,0,1,68.265,144.3864Z" transform="translate(-8.535 -135.20639)"/><path class="cls-12" d="M70.815,154.97636a1.56028,1.56028,0,1,1-1.56-1.59A1.58372,1.58372,0,0,1,70.815,154.97636Z" transform="translate(-8.535 -135.20639)"/><path class="cls-12" d="M66.545,161.90636v.03a1.58565,1.58565,0,0,1-1.57,1.6,1.48961,1.48961,0,0,1-.96-.35,1.57922,1.57922,0,1,1,2.53-1.28Z" transform="translate(-8.535 -135.20639)"/><path class="cls-5" d="M213.365,174.09639a1.5483,1.5483,0,0,1-.22.01h-.01a4.47036,4.47036,0,0,1-2.71-.89h-.01" transform="translate(-8.535 -135.20639)"/><line class="cls-5" x1="227.85" y1="40.54" x2="227.84" y2="40.54"/><line class="cls-5" x1="227.95" y1="41.65" x2="227.94" y2="41.65"/><line class="cls-5" x1="201.89" y1="38.01" x2="201.88" y2="38.01"/><path class="cls-5" d="M213.13926,174.10745h.01c.06.05.12.09.18.14" transform="translate(-8.535 -135.20639)"/><polygon class="cls-8" points="83.83 26.29 75.36 37.4 65.61 25.47 75.82 15.59 83.83 26.29"/><path class="cls-14" d="M419.005,143.66637l-10.89,13.19,10.55,15.75,9.02-14.81Zm-.31,24.71-7.13-11.03,7.36005-9.24.09.15,5.77,9.75-5.77,9.83Z" transform="translate(-8.535 -135.20639)"/><path class="cls-4" d="M581.025,147.36638a4.35814,4.35814,0,0,1-8.69,0,3.76761,3.76761,0,0,1,1.13-2.68,12.01711,12.01711,0,0,0,7.01,2.23c.17,0,.35,0,.52-.01A3.44787,3.44787,0,0,1,581.025,147.36638Z" transform="translate(-8.535 -135.20639)"/><path class="cls-19" d="M581.965,144.36638v2.46c-.06.01-.12.01-.18.02-.26.03-.52.05-.79.06-.17005.01-.35.01-.52.01a12.01711,12.01711,0,0,1-7.01-2.23c-.21-.15-.41-.31-.6-.46a11.26688,11.26688,0,0,1-4.18-8.51995h2.37a9.20517,9.20517,0,0,0,9.36,8.78A9.82747,9.82747,0,0,0,581.965,144.36638Z" transform="translate(-8.535 -135.20639)"/><path class="cls-5" d="M581.965,139.99638v4.37a9.82747,9.82747,0,0,1-1.55.12,9.20517,9.20517,0,0,1-9.36-8.78h4.61a4.8365,4.8365,0,0,0,4.9,4.49A4.9342,4.9342,0,0,0,581.965,139.99638Z" transform="translate(-8.535 -135.20639)"/><path class="cls-5" d="M565.955,139.37639a2.175,2.175,0,0,0,.26.01,4.51439,4.51439,0,0,0,2.83-.98" transform="translate(-8.535 -135.20639)"/><path class="cls-5" d="M581.965,139.99638v4.37a9.82747,9.82747,0,0,1-1.55.12,9.20517,9.20517,0,0,1-9.36-8.78h4.61a4.8365,4.8365,0,0,0,4.9,4.49A4.9342,4.9342,0,0,0,581.965,139.99638Z" transform="translate(-8.535 -135.20639)"/><path class="cls-19" d="M581.965,135.70641v4.29a4.9342,4.9342,0,0,1-1.4.2,4.8365,4.8365,0,0,1-4.9-4.49Z" transform="translate(-8.535 -135.20639)"/><path class="cls-12" d="M25.385,152.59636a4.18736,4.18736,0,0,1-4.34,4.02,4.23841,4.23841,0,0,1-4.28-3.39,11.93954,11.93954,0,0,0,7.29-3.51995A3.85352,3.85352,0,0,1,25.385,152.59636Z" transform="translate(-8.535 -135.20639)"/><path class="cls-12" d="M30.805,145.31639a4.18736,4.18736,0,0,1-4.34,4.02,4.54477,4.54477,0,0,1-1.77-.35,11.119,11.119,0,0,0,2.57-7.11,4.35758,4.35758,0,0,0-.02-.51A4.10448,4.10448,0,0,1,30.805,145.31639Z" transform="translate(-8.535 -135.20639)"/><path class="cls-5" d="M10.625,141.8264a4.82943,4.82943,0,0,1,4.92-4.74,4.7478,4.7478,0,1,1,0,9.49A4.83767,4.83767,0,0,1,10.625,141.8264Z" transform="translate(-8.535 -135.20639)"/><path class="cls-5" d="M27.265,141.87639a11.119,11.119,0,0,1-2.57,7.11c-.2.25-.42.49-.64.72a11.93954,11.93954,0,0,1-7.29,3.51995c-.26.03-.53.05-.79.06-.17.01-.35.01-.52.01a12.04618,12.04618,0,0,1-6.42-1.84v-2.98005a9.51618,9.51618,0,0,0,6.36,2.4,9.18529,9.18529,0,0,0,9.36-9,8.77865,8.77865,0,0,0-2.55-6.17h3.19a11.02687,11.02687,0,0,1,1.75,4.55,8.03491,8.03491,0,0,1,.1,1.11A4.35758,4.35758,0,0,1,27.265,141.87639Z" transform="translate(-8.535 -135.20639)"/><path class="cls-12" d="M22.205,135.70641H9.035v12.76995a9.51618,9.51618,0,0,0,6.36,2.4,9.18529,9.18529,0,0,0,9.36-9A8.77865,8.77865,0,0,0,22.205,135.70641Zm-6.66,10.87a4.74814,4.74814,0,1,1,0-9.49,4.7478,4.7478,0,1,1,0,9.49Z" transform="translate(-8.535 -135.20639)"/><path class="cls-5" d="M20.455,141.8264a4.83525,4.83525,0,0,1-4.91,4.75,4.74814,4.74814,0,1,1,0-9.49A4.827,4.827,0,0,1,20.455,141.8264Z" transform="translate(-8.535 -135.20639)"/><path class="cls-5" d="M20.455,141.8264a4.83525,4.83525,0,0,1-4.91,4.75,4.74814,4.74814,0,1,1,0-9.49A4.827,4.827,0,0,1,20.455,141.8264Z" transform="translate(-8.535 -135.20639)"/><path class="cls-6" d="M265.125,178.08635h-13.28v-5.42a4.28718,4.28718,0,0,0,0-5.69v-3.12C258.265,167.5164,262.985,172.46635,265.125,178.08635Z" transform="translate(-8.535 -135.20639)"/><path class="cls-9" d="M248.745,165.5764a4.12883,4.12883,0,0,1,3.1,1.4v-3.12c-7.25-4.13-16.66-6.62-26.94-6.62-19.38,0-35.67,8.86-40.22,20.85h21.5a3.41033,3.41033,0,0,1-.1-.85,4.18489,4.18489,0,0,1,4.33-4.02,3.898,3.898,0,0,1-1.62-3.13,4.18736,4.18736,0,0,1,4.34-4.02,4.3546,4.3546,0,0,1,4.02,2.5c.21-.16.42-.32.65-.48a3.84573,3.84573,0,0,1-1.03-2.6,4.35273,4.35273,0,0,1,8.68,0,3.60033,3.60033,0,0,1-.03.47q.33.01491.66.06c-.01-.11-.02-.22-.02-.34a4.35277,4.35277,0,0,1,8.68006,0,3.89715,3.89715,0,0,1-1.19,2.77,4.4675,4.4675,0,0,1,2.46-.72,4.01666,4.01666,0,1,1,.37,8.02,8.32506,8.32506,0,0,1,.1,1.11,4.33647,4.33647,0,0,1,2.4,1.23h12.96v-5.42a4.12889,4.12889,0,0,1-3.1,1.4,4.2455,4.2455,0,0,1,0-8.49Zm-51.7,10.08a3.29047,3.29047,0,1,1,3.48-3.28A3.38664,3.38664,0,0,1,197.045,175.65636Zm12.76-10.85a1.97517,1.97517,0,1,1,1.95-1.98A1.9571,1.9571,0,0,1,209.805,164.80638Zm29.44.51a2.19009,2.19009,0,1,1,2.21-2.19A2.20013,2.20013,0,0,1,239.245,165.31639Z" transform="translate(-8.535 -135.20639)"/><path class="cls-13" d="M229.695,177.31639a3.93539,3.93539,0,0,1-.07.77H219.935a3.93539,3.93539,0,0,1-.07-.77,4.91821,4.91821,0,0,1,9.83,0Z" transform="translate(-8.535 -135.20639)"/><path class="cls-13" d="M236.505,177.36638q0,.36-.03.72h-2.51q.03-.36.03-.72a9.37242,9.37242,0,0,0-18.73,0q0,.36.03.72h-2.38q-.03-.36-.03-.72a11.27,11.27,0,0,1,4.27-8.8c.21-.16.42-.32.65-.48a12.0338,12.0338,0,0,1,6.89-2.15c.24005,0,.49005.01.73.02q.33.01491.66.06a11.87564,11.87564,0,0,1,6.69,3.03h.01c.01,0,.01,0,.01.01a11.24608,11.24608,0,0,1,3.59,6.69,8.32506,8.32506,0,0,1,.1,1.11A4.35758,4.35758,0,0,1,236.505,177.36638Z" transform="translate(-8.535 -135.20639)"/><path class="cls-13" d="M212.885,177.36638q0,.36.03.72h-6.73a3.41033,3.41033,0,0,1-.1-.85,4.18489,4.18489,0,0,1,4.33-4.02,3.898,3.898,0,0,1-1.62-3.13,4.18736,4.18736,0,0,1,4.34-4.02,4.3546,4.3546,0,0,1,4.02,2.5A11.27,11.27,0,0,0,212.885,177.36638Z" transform="translate(-8.535 -135.20639)"/><path class="cls-13" d="M225.455,165.48637a3.60033,3.60033,0,0,1-.03.47c-.24-.01-.49-.02-.73-.02a12.0338,12.0338,0,0,0-6.89,2.15,3.84573,3.84573,0,0,1-1.03-2.6,4.35273,4.35273,0,0,1,8.68,0Z" transform="translate(-8.535 -135.20639)"/><path class="cls-10" d="M233.995,177.36638q0,.36-.03.72h-4.34a3.93539,3.93539,0,0,0,.07-.77,4.91821,4.91821,0,0,0-9.83,0,3.93539,3.93539,0,0,0,.07.77h-4.64q-.03-.36-.03-.72a9.37242,9.37242,0,0,1,18.73,0Z" transform="translate(-8.535 -135.20639)"/><path class="cls-5" d="M236.475,178.08635q.03-.36.03-.72a4.35758,4.35758,0,0,0-.02-.51,4.33647,4.33647,0,0,1,2.4,1.23Z" transform="translate(-8.535 -135.20639)"/><path class="cls-13" d="M234.745,165.67638a3.89715,3.89715,0,0,1-1.19,2.77.0098.0098,0,0,0-.01.01,3.80353,3.80353,0,0,0-.71.56c-.02.01-.03.02-.05.03h-.01a11.87564,11.87564,0,0,0-6.69-3.03c-.01-.11-.02-.22-.02-.34a4.35277,4.35277,0,0,1,8.68006,0Z" transform="translate(-8.535 -135.20639)"/><path class="cls-13" d="M240.355,171.74638a4.14794,4.14794,0,0,1-3.97,4,11.24608,11.24608,0,0,0-3.59-6.69.07771.07771,0,0,1,.04-.04,3.80353,3.80353,0,0,1,.71-.56.0098.0098,0,0,1,.01-.01,4.4675,4.4675,0,0,1,2.46-.72A4.18737,4.18737,0,0,1,240.355,171.74638Z" transform="translate(-8.535 -135.20639)"/><path class="cls-5" d="M232.835,169.0164a.07771.07771,0,0,0-.04.04c0-.01,0-.01-.01-.01C232.805,169.03636,232.815,169.02635,232.835,169.0164Z" transform="translate(-8.535 -135.20639)"/><path class="cls-13" d="M252.605,142.7664a2.6824,2.6824,0,0,1-.76,1.86l-.01.01a2.62944,2.62944,0,0,1-1.87.77h-48.68a2.64,2.64,0,0,1,0-5.28h48.68a2.6289,2.6289,0,0,1,2.64,2.64Z" transform="translate(-8.535 -135.20639)"/><path class="cls-10" d="M242.265,148.65636a1.95423,1.95423,0,0,1-.56,1.36,1.93032,1.93032,0,0,1-1.35.56h-28.66a1.915,1.915,0,1,1,0-3.83h28.66A1.91624,1.91624,0,0,1,242.265,148.65636Z" transform="translate(-8.535 -135.20639)"/><path class="cls-8" d="M305.965,143.55638v28.08a3.36976,3.36976,0,0,1-3.25,3.38v-34.84a3.338,3.338,0,0,1,2.26.98A3.4031,3.4031,0,0,1,305.965,143.55638Z" transform="translate(-8.535 -135.20639)"/><path class="cls-7" d="M302.715,140.17638v34.84a.57308.57308,0,0,1-.13.01,3.38432,3.38432,0,0,1-3.38-3.38995v-28.08a3.38437,3.38437,0,0,1,3.38-3.39A.56973.56973,0,0,1,302.715,140.17638Z" transform="translate(-8.535 -135.20639)"/><path class="cls-7" d="M313.245,142.14641v11.62a1.85,1.85,0,0,1-3.7,0v-11.62a1.85,1.85,0,1,1,3.7,0Z" transform="translate(-8.535 -135.20639)"/><path class="cls-18" d="M340.135,165.78636v7.36005a2.21,2.21,0,1,1-4.42,0v-7.36005a2.21,2.21,0,0,1,4.42,0Z" transform="translate(-8.535 -135.20639)"/><path class="cls-20" d="M360.225,170.04637a2.56074,2.56074,0,0,1-2.55,2.55h-12.58a2.54784,2.54784,0,0,1-2.55-2.55,2.5607,2.5607,0,0,1,2.55-2.56h12.58A2.55643,2.55643,0,0,1,360.225,170.04637Z" transform="translate(-8.535 -135.20639)"/><path class="cls-20" d="M431.245,139.48637v8.77a2.17,2.17,0,0,1-4.34,0v-8.77a2.1744,2.1744,0,0,1,2.17-2.17,2.18535,2.18535,0,0,1,2.17005,2.17Z" transform="translate(-8.535 -135.20639)"/><path class="cls-18" d="M437.375,141.70641v5.7a1.83,1.83,0,1,1-3.66,0v-5.7a1.83,1.83,0,1,1,3.66,0Z" transform="translate(-8.535 -135.20639)"/><rect class="cls-18" x="430.96998" y="6.62001" width="44.25" height="3.82996"/><path class="cls-5" d="M523.075,172.34636a2.168,2.168,0,0,1-2.17,2.17h-25.7a2.17792,2.17792,0,0,1-1.54-3.71,2.20328,2.20328,0,0,1,1.54-.64h25.7A2.17658,2.17658,0,0,1,523.075,172.34636Z" transform="translate(-8.535 -135.20639)"/><path class="cls-4" d="M569.285,153.91637v18.64a2.295,2.295,0,1,1-4.59,0v-.12a1.76906,1.76906,0,0,0,.23.01,2.30036,2.30036,0,0,0,2.3-2.3v-14.02a2.28759,2.28759,0,0,0-2.3-2.3,1.77965,1.77965,0,0,0-.23.01,2.29557,2.29557,0,0,1,4.59.08Z" transform="translate(-8.535 -135.20639)"/><path class="cls-19" d="M567.225,156.12639v14.02a2.30036,2.30036,0,0,1-2.3,2.3,1.76906,1.76906,0,0,1-.23-.01v-18.6a1.77965,1.77965,0,0,1,.23-.01,2.28759,2.28759,0,0,1,2.3,2.3Z" transform="translate(-8.535 -135.20639)"/><path class="cls-4" d="M573.605,159.48637v7.68a1.76593,1.76593,0,0,0,1.56,1.76v1.42a1.79,1.79,0,0,1-3.58,0v-13.28a1.79,1.79,0,1,1,3.58,0v.67A1.76345,1.76345,0,0,0,573.605,159.48637Z" transform="translate(-8.535 -135.20639)"/><path class="cls-19" d="M575.165,157.73637v11.19a1.76593,1.76593,0,0,1-1.56-1.76v-7.68A1.76345,1.76345,0,0,1,575.165,157.73637Z" transform="translate(-8.535 -135.20639)"/><polygon class="cls-20" points="400.33 34.96 400.33 38.79 398.75 38.79 398.75 36.41 367.94 36.41 367.94 38.79 366.11 38.79 366.11 34.96 400.33 34.96"/><rect class="cls-18" x="367.94001" y="36.40999" width="30.81" height="2.38"/><polygon class="cls-7" points="320.33 25.79 314.24 36.16 307.11 25.14 314.47 15.9 320.33 25.79"/><polygon class="cls-18" points="410.48 13.05 410.48 32.63 410.16 33.17 403.03 22.14 410.39 12.9 410.48 13.05"/><polygon class="cls-20" points="416.25 22.8 410.48 32.63 410.48 13.05 416.25 22.8"/><path class="cls-5" d="M34.435,159.70641a7.74513,7.74513,0,1,0,7.7,7.74A7.71832,7.71832,0,0,0,34.435,159.70641Zm0,11.66a4.215,4.215,0,1,1,4.21-4.22A4.21872,4.21872,0,0,1,34.435,171.36638Z" transform="translate(-8.535 -135.20639)"/><path class="cls-12" d="M38.645,167.14641a4.21,4.21,0,1,1-4.21-4.21A4.21229,4.21229,0,0,1,38.645,167.14641Z" transform="translate(-8.535 -135.20639)"/><path class="cls-15" d="M87.165,137.74638a7.62112,7.62112,0,0,1-15.24,0,7.23557,7.23557,0,0,1,.29-2.04h1.79c.52,3.63995,2.86,6.37994,5.67,6.37994,2.8,0,5.13995-2.74,5.66-6.37994h1.54A7.23559,7.23559,0,0,1,87.165,137.74638Z" transform="translate(-8.535 -135.20639)"/><path class="cls-12" d="M85.335,135.70641c-.52,3.63995-2.86,6.37994-5.66,6.37994-2.81,0-5.15-2.74-5.67-6.37994Z" transform="translate(-8.535 -135.20639)"/><path class="cls-15" d="M113.885,139.87639c0,6.09-3.03,11.15-7.01,12.16h-.01a5.87773,5.87773,0,0,1-1.45.18,7.17151,7.17151,0,0,1-5.55-3.01995,15.167,15.167,0,0,1-2.92-9.32,17.5178,17.5178,0,0,1,.49-4.17h4.86a10.12957,10.12957,0,0,0-1.26,5.1c0,4.14,2.09,7.49,4.68,7.49,2.58,0,4.68-3.35,4.68-7.49a10.23344,10.23344,0,0,0-1.26-5.1h4.26a18.41177,18.41177,0,0,1,.37,2.04A18.61231,18.61231,0,0,1,113.885,139.87639Z" transform="translate(-8.535 -135.20639)"/><path class="cls-12" d="M110.395,140.80638c0,4.14-2.1,7.49-4.68,7.49-2.59,0-4.68-3.35-4.68-7.49a10.12957,10.12957,0,0,1,1.26-5.1h6.84A10.23344,10.23344,0,0,1,110.395,140.80638Z" transform="translate(-8.535 -135.20639)"/><path class="cls-20" d="M415.625,138.25639c0,5.11-3.8,9.26-8.49,9.26-4.68,0-8.49-4.15-8.49-9.26a9.686,9.686,0,0,1,.33-2.55h3.25a6.23357,6.23357,0,0,0-.64,2.76995,5.537,5.537,0,1,0,11.04,0,6.23447,6.23447,0,0,0-.63995-2.76995h3.31A9.68811,9.68811,0,0,1,415.625,138.25639Z" transform="translate(-8.535 -135.20639)"/><path class="cls-18" d="M412.625,138.47636a5.537,5.537,0,1,1-11.04,0,6.23357,6.23357,0,0,1,.64-2.76995h9.76A6.23447,6.23447,0,0,1,412.625,138.47636Z" transform="translate(-8.535 -135.20639)"/><path class="cls-10" d="M200.525,172.37639a3.4855,3.4855,0,1,1-3.48-3.29A3.38663,3.38663,0,0,1,200.525,172.37639Z" transform="translate(-8.535 -135.20639)"/><path class="cls-10" d="M252.925,169.81639a4.26428,4.26428,0,0,1-1.08,2.85,4.12889,4.12889,0,0,1-3.1,1.4,4.2455,4.2455,0,0,1,0-8.49,4.12883,4.12883,0,0,1,3.1,1.4A4.25773,4.25773,0,0,1,252.925,169.81639Z" transform="translate(-8.535 -135.20639)"/><path class="cls-10" d="M211.755,162.8264a1.94514,1.94514,0,1,1-1.95-1.97A1.9591,1.9591,0,0,1,211.755,162.8264Z" transform="translate(-8.535 -135.20639)"/><path class="cls-10" d="M241.455,163.12639a2.21009,2.21009,0,1,1-2.21-2.19A2.20011,2.20011,0,0,1,241.455,163.12639Z" transform="translate(-8.535 -135.20639)"/><path class="cls-13" d="M172.055,147.61638a10.81729,10.81729,0,1,0,10.42,10.81A10.62549,10.62549,0,0,0,172.055,147.61638Zm.04,17.7a6.86732,6.86732,0,1,1,6.38-6.85A6.62553,6.62553,0,0,1,172.095,165.31639Z" transform="translate(-8.535 -135.20639)"/><ellipse class="cls-10" cx="163.56" cy="23.25998" rx="6.38" ry="6.85002"/><path class="cls-5" d="M159.325,178.08635h-4.32c-.53-1.91-1.77-3.26-3.22-3.26s-2.69,1.35-3.22,3.26h-3.87c1.34-3.71,4.11-6.26,7.32-6.26C155.215,171.8264,157.985,174.37639,159.325,178.08635Z" transform="translate(-8.535 -135.20639)"/><path class="cls-10" d="M140.015,169.27635c0,3.63-2.69,6.58-6,6.58a5.54837,5.54837,0,0,1-1.73-.28,6.41233,6.41233,0,0,1-4.17-5.1,6.77936,6.77936,0,0,1-.1-1.2,6.02472,6.02472,0,1,1,12,0Z" transform="translate(-8.535 -135.20639)"/><path class="cls-5" d="M111.195,162.5164c-2.88,0-5.2,2.91-5.2,6.51,0,3.59,2.31994,6.51,5.2,6.51,2.87,0,5.2-2.92,5.2-6.51C116.395,165.42638,114.065,162.5164,111.195,162.5164Zm-.03,10.08a3.56825,3.56825,0,1,1,3.12-3.54A3.35631,3.35631,0,0,1,111.165,172.59636Z" transform="translate(-8.535 -135.20639)"/><path class="cls-15" d="M114.285,169.05638a3.14932,3.14932,0,1,1-3.12-3.54A3.35527,3.35527,0,0,1,114.285,169.05638Z" transform="translate(-8.535 -135.20639)"/><path class="cls-12" d="M42.025,157.09636a4.79658,4.79658,0,0,1-3.22,1.27c-2.94,0-5.33-2.78-5.33-6.2,0-3.04,1.9-5.59,4.41-6.09l1.05,2.79a3.25761,3.25761,0,0,0,.16,6.5,3.06818,3.06818,0,0,0,2-.75Z" transform="translate(-8.535 -135.20639)"/><path class="cls-5" d="M27.015,178.08635h-2.78a4.4303,4.4303,0,0,0-4.38-3.83,4.64688,4.64688,0,0,0-.66.05,4.44453,4.44453,0,0,0-3.73,3.78h-2.97a7.21337,7.21337,0,0,1,7.26-6.7,6.57607,6.57607,0,0,1,.9.06A7.17586,7.17586,0,0,1,27.015,178.08635Z" transform="translate(-8.535 -135.20639)"/><path class="cls-12" d="M24.235,178.08635h-8.77a4.44453,4.44453,0,0,1,3.73-3.78,4.64688,4.64688,0,0,1,.66-.05A4.4303,4.4303,0,0,1,24.235,178.08635Z" transform="translate(-8.535 -135.20639)"/><line class="cls-5" x1="36.62" y1="42.88" x2="33.73" y2="42.88"/><path class="cls-12" d="M49.915,178.08635h-4.76a4.45013,4.45013,0,0,1-.19-1.28,3.88862,3.88862,0,0,1,2.98-3.96Z" transform="translate(-8.535 -135.20639)"/><path class="cls-10" d="M155.005,178.08635h-6.44c.53-1.91,1.77-3.26,3.22-3.26S154.475,176.17638,155.005,178.08635Z" transform="translate(-8.535 -135.20639)"/><rect class="cls-7" x="267.5" y="5.72999" width="2.48999" height="33.45001"/><rect class="cls-8" x="265.14002" y="5.72999" width="2.35999" height="33.45001"/><rect class="cls-7" x="314.10999" y="3.13997" width="21.96002" height="5.61005"/></svg>