<svg id="Layer_1" data-name="Layer 1" xmlns="http://www.w3.org/2000/svg" viewBox="0 0 500.94 245.10004"><defs><style>.cls-1{fill:#92278f;}.cls-2{fill:#fff200;}.cls-3{fill:none;}.cls-4{fill:#fff;}</style></defs><path class="cls-1" d="M375.9,451.49l-15.37,8.68-16.35,9.23-12.56,7.08-12.45,7.03-10.16,5.74-6.59,3.72h-.01v-.01L285.6,482.74l-4.23-2.57-11.59-7.06-11.13-6.76-2.24-1.37L244.92,458l-10.69-6.51-.02-.01-.59-.35-.01-.00994,5.33-7.25,9.4-12.81,9.54-13.01,6.17-8.39,15.86-21.62.01-.02H233.48l-.23-.3v-.01l-8.1-11-7.27-9.85H317.97l-6.24005,9.85-7.16,11.31-2.16,3.41-11.55,18.23-5.26,8.31-5.69,8.98-2.6,4.11005-12.94,20.43h45.07a54.32171,54.32171,0,0,1-.81-9.52c0-12.74,4.06-23.07,9.06-23.07a3.81227,3.81227,0,0,1,1.48.31c4.30005,1.8,7.58,11.31,7.58,22.76a54.32171,54.32171,0,0,1-.81,9.52Z" transform="translate(-47.03 -298.44998)"/><path class="cls-2" d="M363.28,451.26l-.4.23H325.94a54.32171,54.32171,0,0,0,.81-9.52c0-11.45-3.28-20.96-7.58-22.76a3.81227,3.81227,0,0,0-1.48-.31c-5,0-9.06,10.33-9.06,23.07a54.32171,54.32171,0,0,0,.81,9.52h-39.03l9.5-14.7,3.71-5.73L285.6,428l11.85-18.34,4.96-7.67,9.03-13.97,7.31-11.31.42-.65,2.24-3.46,2.2,4.11,1.78,3.35,4.23,7.96,11.52,21.64,6.98,13.13,4.41,8.27Z" transform="translate(-47.03 -298.44998)"/><path class="cls-2" d="M318.72,497.42a.66.66,0,0,0-.14-.01H290.81a2.75356,2.75356,0,0,0-2.72,2.8v.2a2.81127,2.81127,0,0,0,.29,1.26,2.75764,2.75764,0,0,1-2.58-2.78v-.2a2.76,2.76,0,0,1,2.72-2.8H316.3A2.68911,2.68911,0,0,1,318.72,497.42Z" transform="translate(-47.03 -298.44998)"/><path class="cls-1" d="M319.02,498.69v.2a2.75769,2.75769,0,0,1-2.72,2.79H288.52a.70767.70767,0,0,1-.14-.01,2.81127,2.81127,0,0,1-.29-1.26v-.2a2.75356,2.75356,0,0,1,2.72-2.8h27.77a.66.66,0,0,1,.14.01A2.70416,2.70416,0,0,1,319.02,498.69Z" transform="translate(-47.03 -298.44998)"/><path class="cls-1" d="M310.71,504.95a3.9359,3.9359,0,0,1-1.38,2.91,3.32729,3.32729,0,0,1-.3.25,6.273,6.273,0,0,1-2.63,1.18c-.18.03-.37.06-.56.08a7.93059,7.93059,0,0,1-.85.05h-6.11a6.59033,6.59033,0,0,1-1.19-.1c-2.58-.43-4.52-2.22-4.52-4.37a3.57367,3.57367,0,0,1,.46-1.75,4.37962,4.37962,0,0,1,1.22-1.4c.05-.04.1-.08.16-.12h1.21a4.54055,4.54055,0,0,0-.15,1.18,4.38026,4.38026,0,0,0,3.02,4.38,3.57562,3.57562,0,0,0,.8.1h4.09a5.47626,5.47626,0,0,0,.57-.05c.12-.03.25-.05.37-.09a3.70316,3.70316,0,0,0,1.76-1.17,2.55645,2.55645,0,0,0,.2-.26h.01a4.93729,4.93729,0,0,0,.91-2.91,4.59356,4.59356,0,0,0-.14-1.18h1.21A4.07223,4.07223,0,0,1,310.71,504.95Z" transform="translate(-47.03 -298.44998)"/><path class="cls-1" d="M305.05,510.19a3.393,3.393,0,0,1-.13.97v.01a3.29642,3.29642,0,0,1-.63995,1.25,2.65391,2.65391,0,0,1-.75.63,2.10462,2.10462,0,0,1-1.08.29h-.64a2.15141,2.15141,0,0,1-1.06-.28,3.21212,3.21212,0,0,1-1.53-2.87006,3.87082,3.87082,0,0,1,.06995-.77h1.35a4.03249,4.03249,0,0,0,.76,1.89.80472.80472,0,0,0,.62.35h.38a.82342.82342,0,0,0,.64-.36,2.71567,2.71567,0,0,0,.45-.78,5.31362,5.31362,0,0,0,.3-1.1H304.97A3.86616,3.86616,0,0,1,305.05,510.19Z" transform="translate(-47.03 -298.44998)"/><path class="cls-3" d="M299.31515,509.32334c-.007.03572-.01391.06429-.02087.1" transform="translate(-47.03 -298.44998)"/><path class="cls-3" d="M304.96483,509.42335a.42591.42591,0,0,0-.02088-.13572" transform="translate(-47.03 -298.44998)"/><path class="cls-2" d="M318.13,359.78H291.2a2.68421,2.68421,0,0,0-2.27,1.26,2.85891,2.85891,0,0,0-.45,1.53v.2a2.87118,2.87118,0,0,0,.24005,1.14h-.85a2.68427,2.68427,0,0,1-2.27-1.26,2.85887,2.85887,0,0,1-.45-1.53v-.2a2.85913,2.85913,0,0,1,.45-1.53,2.68427,2.68427,0,0,1,2.27-1.26h27.78A2.70359,2.70359,0,0,1,318.13,359.78Z" transform="translate(-47.03 -298.44998)"/><path class="cls-1" d="M318.37,360.92v.2a2.75122,2.75122,0,0,1-2.72,2.79H288.72a2.87118,2.87118,0,0,1-.24005-1.14v-.2a2.85891,2.85891,0,0,1,.45-1.53,2.68421,2.68421,0,0,1,2.27-1.26h26.93A2.67684,2.67684,0,0,1,318.37,360.92Z" transform="translate(-47.03 -298.44998)"/><path class="cls-2" d="M310.47995,352.98a10.0188,10.0188,0,0,0-1.00995-.2,7.35328,7.35328,0,0,0-.82-.08h-6.26a8.5298,8.5298,0,0,0-1.36.1,6.95078,6.95078,0,0,0-2.56.94,3.12939,3.12939,0,0,0-1.62005,2.53,2.67351,2.67351,0,0,0,.81,1.86h-2.35a3.82815,3.82815,0,0,1-.16-6.44,6.20373,6.20373,0,0,1,2.63-1.17,7.09825,7.09825,0,0,1,1.41-.14h6.1a2.17208,2.17208,0,0,1,.36.02,5.68981,5.68981,0,0,1,.84.08,5.984,5.984,0,0,1,3.35,1.68h.01A4.47251,4.47251,0,0,1,310.47995,352.98Z" transform="translate(-47.03 -298.44998)"/><path class="cls-1" d="M311,354.85a4.00133,4.00133,0,0,1-1.68,3.15c-.05.05-.1.08-.16.13h-11.5a2.67351,2.67351,0,0,1-.81-1.86,3.12939,3.12939,0,0,1,1.62005-2.53,6.95078,6.95078,0,0,1,2.56-.94,8.5298,8.5298,0,0,1,1.36-.1h6.26a7.35328,7.35328,0,0,1,.82.08,10.0188,10.0188,0,0,1,1.00995.2A3.61,3.61,0,0,1,311,354.85Z" transform="translate(-47.03 -298.44998)"/><path class="cls-2" d="M304.76,348.43a2.27133,2.27133,0,0,0-1.68-.77h-.63a2.40529,2.40529,0,0,0-1.85.92,3.50054,3.50054,0,0,0-.73,1.8h-.66a3.78513,3.78513,0,0,1-.08-.76995,3.53215,3.53215,0,0,1,.76-2.23005,2.38571,2.38571,0,0,1,1.84-.92h.63A2.64681,2.64681,0,0,1,304.76,348.43Z" transform="translate(-47.03 -298.44998)"/><path class="cls-3" d="M299.23166,350.51326a.82455.82455,0,0,1-.02087-.12858" transform="translate(-47.03 -298.44998)"/><path class="cls-1" d="M304.96,349.61a3.24656,3.24656,0,0,1-.09.76995h-5a3.50054,3.50054,0,0,1,.73-1.8,2.40529,2.40529,0,0,1,1.85-.92h.63a2.27133,2.27133,0,0,1,1.68.77h.01A3.83733,3.83733,0,0,1,304.96,349.61Z" transform="translate(-47.03 -298.44998)"/><path class="cls-3" d="M304.87438,350.38468a.49428.49428,0,0,1-.01392.1" transform="translate(-47.03 -298.44998)"/><path class="cls-2" d="M299.59,345.58a7.56686,7.56686,0,0,1-1.77.84l-11.07-11.67a10.94376,10.94376,0,0,1,.79-2.7l12.01,13.48Z" transform="translate(-47.03 -298.44998)"/><path class="cls-1" d="M297.82,346.42a7.44521,7.44521,0,0,1-2.22.39,7.74412,7.74412,0,0,1-4.15-1.09,10.47245,10.47245,0,0,1-4.84-8.87,11.12653,11.12653,0,0,1,.14-2.1Z" transform="translate(-47.03 -298.44998)"/><path class="cls-2" d="M316.65,333.85l-10.69,12.3a8.2322,8.2322,0,0,1-1.97-.8c-.01,0-.02-.01-.03-.02l11.94-13.56A10.28857,10.28857,0,0,1,316.65,333.85Z" transform="translate(-47.03 -298.44998)"/><path class="cls-3" d="M315.9,331.77l-11.94,13.56h-.01Z" transform="translate(-47.03 -298.44998)"/><path class="cls-1" d="M316.97995,336.43a10.076,10.076,0,0,1-4.83,8.87,8.11478,8.11478,0,0,1-6.19.85l10.69-12.3A10.91689,10.91689,0,0,1,316.97995,336.43Z" transform="translate(-47.03 -298.44998)"/><path class="cls-2" d="M303.52,342.58a2.68354,2.68354,0,0,1-1.85.85c-2.84,0-5.15-5.72-5.15-12.77s2.31-12.76,5.15-12.76a1.97759,1.97759,0,0,1,.6.08c-1.92,1.85-3.29,6.49-3.29,11.92C298.97995,336.43,300.96,341.83,303.52,342.58Z" transform="translate(-47.03 -298.44998)"/><path class="cls-1" d="M306.82,330.66c0,5.44-1.37,10.08-3.3,11.92-2.56-.75-4.54-6.15-4.54-12.68,0-5.43,1.37-10.07,3.29-11.92C304.83,318.71,306.82,324.11,306.82,330.66Z" transform="translate(-47.03 -298.44998)"/><path class="cls-2" d="M314.12,329.08a2.75,2.75,0,1,1-2.75-2.76A2.75915,2.75915,0,0,1,314.12,329.08Z" transform="translate(-47.03 -298.44998)"/><path class="cls-2" d="M294.7,329.29a2.755,2.755,0,1,1-2.75-2.77A2.75919,2.75919,0,0,1,294.7,329.29Z" transform="translate(-47.03 -298.44998)"/><path class="cls-2" d="M303.53,523.7v1.49h-2.78V513.06a2.15141,2.15141,0,0,0,1.06.28h.31V523.7Z" transform="translate(-47.03 -298.44998)"/><path class="cls-1" d="M303.53,513.05V523.7h-1.41V513.34h.33A2.10462,2.10462,0,0,0,303.53,513.05Z" transform="translate(-47.03 -298.44998)"/><path class="cls-2" d="M307.804,502.86409a4.93394,4.93394,0,0,1-.91842,2.90734h-.007a2.4917,2.4917,0,0,1-.20176.25714,3.69927,3.69927,0,0,1-1.75336,1.17152,3.55039,3.55039,0,0,1-.3757.08571,3.76333,3.76333,0,0,1-.57054.05H299.8931a3.31982,3.31982,0,0,1-.80016-.1,4.36172,4.36172,0,0,1-3.01963-4.37171,4.68558,4.68558,0,0,1,.14609-1.18577h11.4385A4.72621,4.72621,0,0,1,307.804,502.86409Z" transform="translate(-47.03 -298.44998)"/><path class="cls-2" d="M303.78941,509.42165a5.68739,5.68739,0,0,1-.29918,1.10009,3.04268,3.04268,0,0,1-.4453.7786.84169.84169,0,0,1-.64707.35717h-.3757a.82781.82781,0,0,1-.62621-.35,4.0712,4.0712,0,0,1-.75837-1.88584Z" transform="translate(-47.03 -298.44998)"/><path class="cls-2" d="M289.24,506.5a2.755,2.755,0,1,1-2.75-2.76A2.76137,2.76137,0,0,1,289.24,506.5Z" transform="translate(-47.03 -298.44998)"/><path class="cls-2" d="M319.35,506.5a2.755,2.755,0,1,1-2.76-2.76A2.76344,2.76344,0,0,1,319.35,506.5Z" transform="translate(-47.03 -298.44998)"/><path class="cls-2" d="M304.9,530.7a2.755,2.755,0,1,1-2.75-2.76A2.75919,2.75919,0,0,1,304.9,530.7Z" transform="translate(-47.03 -298.44998)"/><path class="cls-2" d="M304.85,313.47a2.755,2.755,0,1,1-2.76-2.77A2.76128,2.76128,0,0,1,304.85,313.47Z" transform="translate(-47.03 -298.44998)"/><rect class="cls-2" x="61.27997" y="112" width="123.98999" height="4.38"/><rect class="cls-1" x="61.27997" y="116.38" width="123.98999" height="3.83002"/><rect class="cls-2" x="318.32996" y="111.76001" width="109.07001" height="4.62"/><rect class="cls-1" x="318.32996" y="116.38" width="109.07001" height="3.59003"/><rect class="cls-2" x="109.94995" y="124.22003" width="75.32001" height="2.91998"/><rect class="cls-1" x="109.94995" y="127.14001" width="75.32001" height="4.13"/><rect class="cls-2" x="318.32996" y="123.98004" width="62.29004" height="3.15997"/><rect class="cls-1" x="318.32996" y="127.14001" width="62.29004" height="3.89001"/><rect class="cls-2" x="146.41998" y="134.67999" width="38.84998" height="2.86005"/><rect class="cls-1" x="146.41998" y="137.54004" width="38.84998" height="2.25"/><rect class="cls-2" x="318.32996" y="134.44" width="39.54999" height="3.10004"/><rect class="cls-1" x="318.32996" y="137.54004" width="39.54999" height="2.00995"/><rect class="cls-3" x="61.27997" y="112" width="123.98999" height="8.21002"/><rect class="cls-3" x="109.94995" y="124.22003" width="75.32001" height="7.04999"/><rect class="cls-3" x="146.41998" y="134.67999" width="38.84998" height="5.11005"/><path class="cls-3" d="M289.24,506.5a2.755,2.755,0,1,1-2.75-2.76A2.76137,2.76137,0,0,1,289.24,506.5Z" transform="translate(-47.03 -298.44998)"/><path class="cls-3" d="M294.7,329.29a2.755,2.755,0,1,1-2.75-2.77A2.75919,2.75919,0,0,1,294.7,329.29Z" transform="translate(-47.03 -298.44998)"/><path class="cls-3" d="M299.59,345.58a7.56686,7.56686,0,0,1-1.77.84,7.44521,7.44521,0,0,1-2.22.39,7.74412,7.74412,0,0,1-4.15-1.09,10.47245,10.47245,0,0,1-4.84-8.87,11.12653,11.12653,0,0,1,.14-2.1,10.94376,10.94376,0,0,1,.79-2.7l12.01,13.48Z" transform="translate(-47.03 -298.44998)"/><path class="cls-3" d="M306.82,330.66c0,5.44-1.37,10.08-3.3,11.92a2.68354,2.68354,0,0,1-1.85.85c-2.84,0-5.15-5.72-5.15-12.77s2.31-12.76,5.15-12.76a1.97759,1.97759,0,0,1,.6.08C304.83,318.71,306.82,324.11,306.82,330.66Z" transform="translate(-47.03 -298.44998)"/><path class="cls-3" d="M304.85,313.47a2.755,2.755,0,1,1-2.76-2.77A2.76128,2.76128,0,0,1,304.85,313.47Z" transform="translate(-47.03 -298.44998)"/><path class="cls-3" d="M304.9,530.7a2.755,2.755,0,1,1-2.75-2.76A2.75919,2.75919,0,0,1,304.9,530.7Z" transform="translate(-47.03 -298.44998)"/><path class="cls-3" d="M319.02,498.69v.2a2.75769,2.75769,0,0,1-2.72,2.79h-7.43a4.07223,4.07223,0,0,1,1.84,3.27,3.9359,3.9359,0,0,1-1.38,2.91,3.32729,3.32729,0,0,1-.3.25,6.273,6.273,0,0,1-2.63,1.18c-.18.03-.37.06-.56.08a7.93059,7.93059,0,0,1-.85.05h-.02a3.86616,3.86616,0,0,1,.08.77,3.393,3.393,0,0,1-.13.97v.01a3.29642,3.29642,0,0,1-.63995,1.25,2.65391,2.65391,0,0,1-.75.63V525.19h-2.78V513.06a3.21212,3.21212,0,0,1-1.53-2.87006,3.87082,3.87082,0,0,1,.06995-.77h-.41a6.59033,6.59033,0,0,1-1.19-.1c-2.58-.43-4.52-2.22-4.52-4.37a3.57367,3.57367,0,0,1,.46-1.75,4.37962,4.37962,0,0,1,1.22-1.4c.05-.04.1-.08.16-.12h-6.49a.70767.70767,0,0,1-.14-.01,2.75764,2.75764,0,0,1-2.58-2.78v-.2a2.76,2.76,0,0,1,2.72-2.8H316.3a2.78933,2.78933,0,0,1,2.72,2.8Z" transform="translate(-47.03 -298.44998)"/><path class="cls-3" d="M314.12,329.08a2.75,2.75,0,1,1-2.75-2.76A2.75915,2.75915,0,0,1,314.12,329.08Z" transform="translate(-47.03 -298.44998)"/><path class="cls-3" d="M316.97995,336.43a10.076,10.076,0,0,1-4.83,8.87,8.18012,8.18012,0,0,1-8.16.05c-.01,0-.02-.01-.03-.02h-.01l11.95-13.56a10.28857,10.28857,0,0,1,.75,2.08A10.91689,10.91689,0,0,1,316.97995,336.43Z" transform="translate(-47.03 -298.44998)"/><path class="cls-3" d="M318.37,360.92v.2a2.75122,2.75122,0,0,1-2.72,2.79H287.87a2.68427,2.68427,0,0,1-2.27-1.26,2.85887,2.85887,0,0,1-.45-1.53v-.2a2.85913,2.85913,0,0,1,.45-1.53,2.68427,2.68427,0,0,1,2.27-1.26h7.44a3.82815,3.82815,0,0,1-.16-6.44,6.20373,6.20373,0,0,1,2.63-1.17,7.09825,7.09825,0,0,1,1.41-.14h.02a3.78513,3.78513,0,0,1-.08-.76995,3.53215,3.53215,0,0,1,.76-2.23005,2.38571,2.38571,0,0,1,1.84-.92h.63a2.64681,2.64681,0,0,1,2.4,1.97h.01a3.83733,3.83733,0,0,1,.19,1.18,3.24656,3.24656,0,0,1-.09.76995h.42a2.17208,2.17208,0,0,1,.36.02,5.68981,5.68981,0,0,1,.84.08,5.984,5.984,0,0,1,3.35,1.68h.01a4.47251,4.47251,0,0,1,.63.82,3.61,3.61,0,0,1,.52,1.87,4.00133,4.00133,0,0,1-1.68,3.15c-.05.05-.1.08-.16.13h6.49a2.78085,2.78085,0,0,1,2.72,2.79Z" transform="translate(-47.03 -298.44998)"/><path class="cls-3" d="M319.35,506.5a2.755,2.755,0,1,1-2.76-2.76A2.76344,2.76344,0,0,1,319.35,506.5Z" transform="translate(-47.03 -298.44998)"/><polygon class="cls-3" points="328.87 153.04 313.5 161.72 297.15 170.95 284.59 178.03 272.14 185.06 261.98 190.8 255.39 194.52 255.38 194.52 255.38 194.51 238.57 184.29 234.34 181.72 222.75 174.66 211.62 167.9 209.38 166.53 197.89 159.55 187.2 153.04 187.18 153.03 186.59 152.68 186.58 152.67 191.91 145.42 201.31 132.61 210.85 119.6 217.02 111.21 232.88 89.59 232.88 89.57 186.22 89.57 186.22 89.26 178.12 78.26 170.85 68.41 270.94 68.41 264.7 78.26 257.54 89.57 255.38 92.98 243.83 111.21 238.57 119.52 232.88 128.5 230.28 132.61 217.34 153.04 223.38 153.04 232.88 138.34 236.59 132.61 238.57 129.55 250.42 111.21 255.38 103.54 264.41 89.57 271.72 78.26 272.14 77.61 274.38 74.15 276.58 78.26 278.36 81.61 282.59 89.57 294.11 111.21 301.09 124.34 305.5 132.61 316.25 152.81 315.85 153.04 328.87 153.04"/><rect class="cls-3" x="318.32996" y="134.44" width="39.54999" height="5.10999"/><rect class="cls-3" x="318.32996" y="123.98004" width="62.29004" height="7.04999"/><rect class="cls-3" x="318.32996" y="111.76001" width="109.07001" height="8.21002"/><path class="cls-2" d="M297.5,298.45C159.17,298.45,47.03,353.32,47.03,421,47.03,488.68,159.17,543.55,297.5,543.55S547.97,488.68,547.97,421C547.97,353.32,435.83,298.45,297.5,298.45Zm.76,238.98c-131.56,0-238.21-52.47-238.21-117.2,0-64.72,106.65-117.19,238.21-117.19,131.57,0,238.22,52.47,238.22,117.19C536.48,484.96,429.83,537.43,298.26,537.43Z" transform="translate(-47.03 -298.44998)"/><path class="cls-4" d="M298.26,303.04c-131.56,0-238.21,52.47-238.21,117.19,0,64.73,106.65,117.2,238.21,117.2,131.57,0,238.22-52.47,238.22-117.2C536.48,355.51,429.83,303.04,298.26,303.04Zm18.39,30.81a10.91689,10.91689,0,0,1,.33,2.58,10.076,10.076,0,0,1-4.83,8.87,8.18012,8.18012,0,0,1-8.16.05c-.01,0-.02-.01-.03-.02h-.01l11.95-13.56A10.28857,10.28857,0,0,1,316.65,333.85Zm-5.28-7.53a2.76506,2.76506,0,1,1-2.75,2.76A2.75062,2.75062,0,0,1,311.37,326.32Zm-9.28-15.62a2.77009,2.77009,0,1,1-2.75,2.77A2.76124,2.76124,0,0,1,302.09,310.7Zm-.42005,7.2a1.97759,1.97759,0,0,1,.6.08c2.56.73,4.55,6.13,4.55,12.68,0,5.44-1.37,10.08-3.3,11.92a2.68354,2.68354,0,0,1-1.85.85c-2.84,0-5.15-5.72-5.15-12.77S298.83,317.9,301.66995,317.9Zm-9.72,8.62a2.77,2.77,0,1,1-2.76,2.77A2.75915,2.75915,0,0,1,291.95,326.52Zm-5.2,8.23a10.94376,10.94376,0,0,1,.79-2.7l12.01,13.48.04.05a7.56686,7.56686,0,0,1-1.77.84,7.44521,7.44521,0,0,1-2.22.39,7.74412,7.74412,0,0,1-4.15-1.09,10.47245,10.47245,0,0,1-4.84-8.87A11.12653,11.12653,0,0,1,286.75,334.75Zm-1.6,26.17a2.85913,2.85913,0,0,1,.45-1.53,2.68427,2.68427,0,0,1,2.27-1.26h7.44a3.82815,3.82815,0,0,1-.16-6.44,6.20373,6.20373,0,0,1,2.63-1.17,7.09825,7.09825,0,0,1,1.41-.14h.02a3.78513,3.78513,0,0,1-.08-.76995,3.53215,3.53215,0,0,1,.76-2.23005,2.38571,2.38571,0,0,1,1.84-.92h.63a2.64681,2.64681,0,0,1,2.4,1.97h.01a3.83733,3.83733,0,0,1,.19,1.18,3.24656,3.24656,0,0,1-.09.76995h.42a2.17208,2.17208,0,0,1,.36.02,5.68981,5.68981,0,0,1,.84.08,5.984,5.984,0,0,1,3.35,1.68h.01a4.47251,4.47251,0,0,1,.63.82,3.61,3.61,0,0,1,.52,1.87,4.00133,4.00133,0,0,1-1.68,3.15c-.05.05-.1.08-.16.13h6.49a2.78085,2.78085,0,0,1,2.72,2.79v.2a2.75122,2.75122,0,0,1-2.72,2.79H287.87a2.68427,2.68427,0,0,1-2.27-1.26,2.85887,2.85887,0,0,1-.45-1.53ZM232.3,438.24H193.45V433.13H232.3Zm0-8.52H156.98v-7.05H232.3Zm0-11.06H108.31v-8.21H232.3Zm54.19,90.62a2.77006,2.77006,0,1,1,2.75-2.78A2.76349,2.76349,0,0,1,286.49,509.28Zm15.66,24.19a2.76506,2.76506,0,1,1,2.75-2.77A2.76125,2.76125,0,0,1,302.15,533.47Zm7.18-25.61a3.32729,3.32729,0,0,1-.3.25,6.273,6.273,0,0,1-2.63,1.18c-.18.03-.37.06-.56.08a7.93059,7.93059,0,0,1-.85.05h-.02a3.86616,3.86616,0,0,1,.08.77,3.393,3.393,0,0,1-.13.97v.01a3.29642,3.29642,0,0,1-.63995,1.25,2.65391,2.65391,0,0,1-.75.63V525.19h-2.78V513.06a3.21212,3.21212,0,0,1-1.53-2.87006,3.87082,3.87082,0,0,1,.06995-.77h-.41a6.59033,6.59033,0,0,1-1.19-.1c-2.58-.43-4.52-2.22-4.52-4.37a3.57367,3.57367,0,0,1,.46-1.75,4.37962,4.37962,0,0,1,1.22-1.4c.05-.04.1-.08.16-.12h-6.49a.70767.70767,0,0,1-.14-.01,2.75764,2.75764,0,0,1-2.58-2.78v-.2a2.76,2.76,0,0,1,2.72-2.8H316.3a2.78933,2.78933,0,0,1,2.72,2.8v.2a2.75769,2.75769,0,0,1-2.72,2.79h-7.43a4.07223,4.07223,0,0,1,1.84,3.27A3.9359,3.9359,0,0,1,309.33,507.86Zm7.26,1.42a2.77,2.77,0,1,1,2.76-2.78A2.76137,2.76137,0,0,1,316.59,509.28Zm43.94-49.11-16.35,9.23-12.56,7.08-12.45,7.03-10.16,5.74-6.59,3.72h-.01v-.01L285.6,482.74l-4.23-2.57-11.59-7.06-11.13-6.76-2.24-1.37L244.92,458l-10.69-6.51-.02-.01-.59-.35-.01-.00994,5.33-7.25,9.4-12.81,9.54-13.01,6.17-8.39,15.86-21.62v-.02H233.25v-.31l-8.1-11-7.27-9.85H317.97l-6.24005,9.85-7.16,11.31-2.16,3.41-11.55,18.23-5.26,8.31-5.69,8.98-2.6,4.11005-12.94,20.43h6.04l9.5-14.7,3.71-5.73L285.6,428l11.85-18.34,4.96-7.67,9.03-13.97,7.31-11.31.42-.65,2.24-3.46,2.2,4.11,1.78,3.35,4.23,7.96,11.52,21.64,6.98,13.13,4.41,8.27,10.75,20.2-.4.23H375.9ZM404.90994,438H365.36v-5.11h39.55Zm22.74-8.52H365.36v-7.05h62.29Zm46.78-11.06H365.36v-8.21H474.43Z" transform="translate(-47.03 -298.44998)"/><rect class="cls-3" x="61.27997" y="112" width="123.98999" height="8.21002"/><rect class="cls-3" x="109.94995" y="124.22003" width="75.32001" height="7.04999"/><rect class="cls-3" x="146.41998" y="134.67999" width="38.84998" height="5.11005"/><path class="cls-3" d="M289.24,506.5a2.755,2.755,0,1,1-2.75-2.76A2.76137,2.76137,0,0,1,289.24,506.5Z" transform="translate(-47.03 -298.44998)"/><path class="cls-3" d="M294.7,329.29a2.755,2.755,0,1,1-2.75-2.77A2.75919,2.75919,0,0,1,294.7,329.29Z" transform="translate(-47.03 -298.44998)"/><path class="cls-3" d="M299.59,345.58a7.56686,7.56686,0,0,1-1.77.84,7.44521,7.44521,0,0,1-2.22.39,7.74412,7.74412,0,0,1-4.15-1.09,10.47245,10.47245,0,0,1-4.84-8.87,11.12653,11.12653,0,0,1,.14-2.1,10.94376,10.94376,0,0,1,.79-2.7l12.01,13.48Z" transform="translate(-47.03 -298.44998)"/><path class="cls-3" d="M306.82,330.66c0,5.44-1.37,10.08-3.3,11.92a2.68354,2.68354,0,0,1-1.85.85c-2.84,0-5.15-5.72-5.15-12.77s2.31-12.76,5.15-12.76a1.97759,1.97759,0,0,1,.6.08C304.83,318.71,306.82,324.11,306.82,330.66Z" transform="translate(-47.03 -298.44998)"/><path class="cls-3" d="M304.85,313.47a2.755,2.755,0,1,1-2.76-2.77A2.76128,2.76128,0,0,1,304.85,313.47Z" transform="translate(-47.03 -298.44998)"/><path class="cls-3" d="M304.9,530.7a2.755,2.755,0,1,1-2.75-2.76A2.75919,2.75919,0,0,1,304.9,530.7Z" transform="translate(-47.03 -298.44998)"/><path class="cls-3" d="M319.02,498.69v.2a2.75769,2.75769,0,0,1-2.72,2.79h-7.43a4.07223,4.07223,0,0,1,1.84,3.27,3.9359,3.9359,0,0,1-1.38,2.91,3.32729,3.32729,0,0,1-.3.25,6.273,6.273,0,0,1-2.63,1.18c-.18.03-.37.06-.56.08a7.93059,7.93059,0,0,1-.85.05h-.02a3.86616,3.86616,0,0,1,.08.77,3.393,3.393,0,0,1-.13.97v.01a3.29642,3.29642,0,0,1-.63995,1.25,2.65391,2.65391,0,0,1-.75.63V525.19h-2.78V513.06a3.21212,3.21212,0,0,1-1.53-2.87006,3.87082,3.87082,0,0,1,.06995-.77h-.41a6.59033,6.59033,0,0,1-1.19-.1c-2.58-.43-4.52-2.22-4.52-4.37a3.57367,3.57367,0,0,1,.46-1.75,4.37962,4.37962,0,0,1,1.22-1.4c.05-.04.1-.08.16-.12h-6.49a.70767.70767,0,0,1-.14-.01,2.75764,2.75764,0,0,1-2.58-2.78v-.2a2.76,2.76,0,0,1,2.72-2.8H316.3a2.78933,2.78933,0,0,1,2.72,2.8Z" transform="translate(-47.03 -298.44998)"/><path class="cls-3" d="M314.12,329.08a2.75,2.75,0,1,1-2.75-2.76A2.75915,2.75915,0,0,1,314.12,329.08Z" transform="translate(-47.03 -298.44998)"/><path class="cls-3" d="M316.97995,336.43a10.076,10.076,0,0,1-4.83,8.87,8.18012,8.18012,0,0,1-8.16.05c-.01,0-.02-.01-.03-.02h-.01l11.95-13.56a10.28857,10.28857,0,0,1,.75,2.08A10.91689,10.91689,0,0,1,316.97995,336.43Z" transform="translate(-47.03 -298.44998)"/><path class="cls-3" d="M318.37,360.92v.2a2.75122,2.75122,0,0,1-2.72,2.79H287.87a2.68427,2.68427,0,0,1-2.27-1.26,2.85887,2.85887,0,0,1-.45-1.53v-.2a2.85913,2.85913,0,0,1,.45-1.53,2.68427,2.68427,0,0,1,2.27-1.26h7.44a3.82815,3.82815,0,0,1-.16-6.44,6.20373,6.20373,0,0,1,2.63-1.17,7.09825,7.09825,0,0,1,1.41-.14h.02a3.78513,3.78513,0,0,1-.08-.76995,3.53215,3.53215,0,0,1,.76-2.23005,2.38571,2.38571,0,0,1,1.84-.92h.63a2.64681,2.64681,0,0,1,2.4,1.97h.01a3.83733,3.83733,0,0,1,.19,1.18,3.24656,3.24656,0,0,1-.09.76995h.42a2.17208,2.17208,0,0,1,.36.02,5.68981,5.68981,0,0,1,.84.08,5.984,5.984,0,0,1,3.35,1.68h.01a4.47251,4.47251,0,0,1,.63.82,3.61,3.61,0,0,1,.52,1.87,4.00133,4.00133,0,0,1-1.68,3.15c-.05.05-.1.08-.16.13h6.49a2.78085,2.78085,0,0,1,2.72,2.79Z" transform="translate(-47.03 -298.44998)"/><path class="cls-3" d="M319.35,506.5a2.755,2.755,0,1,1-2.76-2.76A2.76344,2.76344,0,0,1,319.35,506.5Z" transform="translate(-47.03 -298.44998)"/><polygon class="cls-3" points="328.87 153.04 313.5 161.72 297.15 170.95 284.59 178.03 272.14 185.06 261.98 190.8 255.39 194.52 255.38 194.52 255.38 194.51 238.57 184.29 234.34 181.72 222.75 174.66 211.62 167.9 209.38 166.53 197.89 159.55 187.2 153.04 187.18 153.03 186.59 152.68 186.58 152.67 191.91 145.42 201.31 132.61 210.85 119.6 217.02 111.21 232.88 89.59 232.88 89.57 186.22 89.57 186.22 89.26 178.12 78.26 170.85 68.41 270.94 68.41 264.7 78.26 257.54 89.57 255.38 92.98 243.83 111.21 238.57 119.52 232.88 128.5 230.28 132.61 217.34 153.04 223.38 153.04 232.88 138.34 236.59 132.61 238.57 129.55 250.42 111.21 255.38 103.54 264.41 89.57 271.72 78.26 272.14 77.61 274.38 74.15 276.58 78.26 278.36 81.61 282.59 89.57 294.11 111.21 301.09 124.34 305.5 132.61 316.25 152.81 315.85 153.04 328.87 153.04"/><rect class="cls-3" x="318.32996" y="134.44" width="39.54999" height="5.10999"/><rect class="cls-3" x="318.32996" y="123.98004" width="62.29004" height="7.04999"/><rect class="cls-3" x="318.32996" y="111.76001" width="109.07001" height="8.21002"/></svg>